<svg version="1.2" xmlns="http://www.w3.org/2000/svg" viewBox="0 0 2400 2000" width="2400" height="2000">
	<title>bansur</title>
	<style>
		.s0 { fill: #4f8d41 } 
		.s1 { fill: #ecb12d } 
		.s2 { fill: #fdfdfd } 
	</style>
	<g id="Background">
		<path id="Path 1" class="s0" d="m455 1015v772h1564c0.4-27.5 0.4-374.9 0.3-789.8l-0.3-754.2h-1564z"/>
		<path id="Path 2" class="s1" d="m571.3 342.7l-4.3 0.3v1349.5c7.4 1.2 310.9 1.5 679.3 1.5h669.7v-1350.5c-8.1-1.2-309.7-1.4-675.5-1.3-365.7 0.1-666.9 0.3-669.3 0.5z"/>
		<path id="Path 3" class="s0" d="m636.1 411.8c-1.2 0.7-1.4 59.8-1.5 410.4-0.1 315.5 0.2 409.5 1.1 409 0.6-0.4 6-5.2 12-10.6 5.9-5.5 18.2-17 27.3-25.6 9.1-8.6 22.8-21.5 30.5-28.6 7.7-7.1 24.3-22.5 37-34.4 12.6-11.8 29.1-27.1 36.5-33.9 7.4-6.9 16.9-15.8 21-19.7 4.1-3.9 11.3-10.7 16-15 4.7-4.4 14.6-13.6 22-20.4 7.4-6.9 20.9-19.4 30-28 9.1-8.5 22.8-21.4 30.5-28.5 7.7-7.1 18-16.8 23-21.5 5-4.7 12.1-11.5 16-15.1 3.8-3.5 11.9-10.9 18-16.4 6-5.5 15.7-14.5 21.5-20 5.8-5.6 14.5-13.9 19.5-18.5 5-4.7 18-16.8 28.9-27 11-10.2 31.5-29.3 45.7-42.5 14.1-13.2 37.7-35.2 52.5-49 14.8-13.7 35.5-33.2 46.1-43.2 10.6-10.1 21.2-19.7 23.5-21.3l4.3-3.1c31.8 0.2 32 0.2 35.5 2.9 1.9 1.5 24 20.2 49.1 41.7 25 21.4 74.5 63.8 110 94.1 35.4 30.3 84.9 72.6 109.9 93.9 25 21.4 54.2 46.3 64.9 55.4 10.7 9.2 41.7 35.7 69 59 27.3 23.3 69.4 59.3 93.6 79.9 24.2 20.7 55.9 47.8 70.5 60.2 14.6 12.5 31.1 26.5 36.7 31.3 5.7 4.8 10.6 8.7 11 8.7 0.5 0 0.7-185.1 0.6-411.3-0.1-226.1-0.4-411.8-0.7-412.4-0.5-1-122.5-1.3-605.4-1.3-332.6 0-605.3 0.4-606.1 0.8zm656.7 534c-0.9 0.9-5.5 7.3-10.3 14.2-4.9 6.9-15.4 22-23.5 33.5-8.1 11.5-23.3 33.4-34 48.5-10.6 15.1-23 32.7-27.5 39-4.5 6.3-8.9 11.8-9.8 12.2-1 0.5-6.8 0.8-13 0.8-6.1 0-11.7-0.4-12.3-0.8-0.6-0.4-2.7-3.2-4.6-6.2-1.9-3-7.9-13.8-13.3-24-5.4-10.2-15.7-29.8-23-43.5-7.3-13.8-16-30.2-19.3-36.5-3.4-6.3-6.7-12.3-7.4-13.2-1.2-1.6-2-1.2-8.8 4.5-4.1 3.5-24.2 19.3-44.5 35.2-20.4 15.9-54.1 42.2-75 58.5-20.9 16.3-48.6 37.9-61.5 48-12.9 10.1-28.2 22-34 26.5-5.8 4.5-27.8 21.6-49 38.1-21.2 16.5-51.1 39.9-66.5 51.9-15.4 12-47.1 36.8-70.5 54.9-23.4 18.2-44.2 34.5-46.2 36.1l-3.8 3v298.5c939.3 0 1212.2-0.3 1212.4-0.8 0.3-0.4 0.5-75 0.6-165.7 0.1-90.8-0.1-165.7-0.5-166.5-0.3-0.8-11.7-10.3-25.3-21-13.6-10.7-44-34.6-67.7-53-23.6-18.5-76.8-59.9-118-92-41.3-32.1-85.8-66.8-99-77-13.2-10.3-36-28.1-50.7-39.6-14.6-11.5-34.1-26.6-43.2-33.7-9.1-7-16.8-12.6-17.1-12.5-0.3 0.2 0 28.9 0.7 63.8 0.6 34.9 0.9 64.3 0.5 65.2-0.6 1.6-2.2 1.8-13.2 1.8-12.3 0-12.5 0-15.1-2.8-1.4-1.5-6.7-8.5-11.8-15.7-5.1-7.2-15-21.3-22.1-31.5-7.1-10.2-22.6-32.2-34.4-49-11.8-16.8-24.4-34.8-27.8-40-3.5-5.2-6.3-9.8-6.3-10.3 0-0.4-0.6-0.7-1.4-0.7-0.7 0-2 0.8-2.8 1.7z"/>
		<path id="Path 4" class="s2" d="m1193.2 712c-2.3 1.6-12.9 11.2-23.5 21.3-10.6 10-31.3 29.4-46.1 43.2-14.8 13.7-38.4 35.8-52.5 49-14.2 13.2-34.7 32.3-45.7 42.5-10.9 10.2-23.9 22.3-28.9 27-5 4.6-13.7 12.9-19.5 18.5-5.8 5.5-15.5 14.5-21.5 20-6.1 5.5-14.2 12.9-18 16.4-3.9 3.6-11 10.4-16 15.1-5 4.7-15.3 14.4-23 21.5-7.7 7.1-21.4 20-30.5 28.5-9.1 8.6-22.6 21.1-30 28-7.4 6.8-17.3 16-22 20.4-4.7 4.3-11.9 11.1-16 15-4.1 3.9-13.6 12.8-21 19.7-7.4 6.8-23.9 22.1-36.5 33.9-12.7 11.9-29.3 27.3-37 34.4-7.7 7.1-21.4 20-30.5 28.6-9.1 8.6-21.8 20.5-28.3 26.6-6.5 6-11.8 11.6-11.8 12.4-0.1 0.8-0.1 3.8-0.2 6.5-0.1 2.8 0 23.2 0 45.5 0.2 40.2 0.2 40.5 2.2 39 1.1-0.8 23-17.9 48.7-38 25.8-20.1 50.9-39.7 55.9-43.6 4.9-3.9 33.7-26.3 64-49.9 30.2-23.6 59.7-46.5 65.5-51 5.8-4.5 21.1-16.4 34-26.5 12.9-10.1 40.6-31.7 61.5-48 20.9-16.3 54.6-42.6 75-58.5 20.3-15.9 40.4-31.7 44.5-35.2 6.8-5.7 7.6-6.1 8.8-4.5 0.7 0.9 4 6.9 7.4 13.2 3.3 6.3 12 22.8 19.3 36.5 7.3 13.8 17.6 33.3 23 43.5 5.4 10.2 11.4 21 13.3 24 1.9 3 4 5.8 4.6 6.2 0.6 0.4 6.2 0.8 12.3 0.8 6.2 0 12-0.3 13-0.7 0.9-0.5 5.3-6 9.8-12.3 4.5-6.3 16.9-23.9 27.5-39 10.7-15.1 25.9-37 34-48.5 8.1-11.5 19-27.1 24.2-34.5 5.3-7.4 10.4-14 11.3-14.5q1.8-1 2.1 0c0.2 0.5 3.2 5.3 6.7 10.5 3.4 5.2 16 23.2 27.8 40 11.8 16.8 27.3 38.8 34.4 49 7.1 10.2 17 24.3 22.1 31.5 5.1 7.2 10.4 14.2 11.8 15.8 2.6 2.7 2.8 2.7 15.1 2.7 11 0 12.6-0.2 13.2-1.7 0.4-1 0.1-30.4-0.5-65.3-0.7-34.9-1-63.6-0.7-63.8 0.3-0.1 8 5.5 17.1 12.5 9.1 7.1 28.6 22.2 43.2 33.7 14.7 11.5 37.5 29.3 50.7 39.6 13.2 10.2 60.9 47.3 106 82.5 45.1 35.1 98.2 76.5 118 91.9 19.8 15.4 47.2 37 61 47.9l25 19.9c0.4-40.1 0.3-52.6 0-53.7-0.3-1.1-3.6-4.5-7.3-7.5-3.7-3-20.4-17.2-37.2-31.5-16.8-14.2-50.1-42.7-74-63.1-23.9-20.4-65.8-56.2-93.1-79.5-27.3-23.3-58.3-49.8-69-59-10.7-9.1-39.9-34-64.9-55.4-25-21.3-74.5-63.6-109.9-93.9-35.5-30.3-85-72.7-110-94.1-25.1-21.5-47.2-40.2-49.1-41.7-3.5-2.7-3.6-2.7-19.6-2.8h-16z"/>
	</g>
</svg>