<svg version="1.2" xmlns="http://www.w3.org/2000/svg" viewBox="0 0 2400 2000" width="2400" height="2000">
	<title>ideasenpalet</title>
	<style>
		.s0 { fill: #050405 } 
		.s1 { fill: #fdfcfc } 
	</style>
	<g id="Background">
		<path id="Path 1" class="s0" d="m1267 125.5c-12.9 2.4-50.3 9.1-83 15-32.7 5.8-69.6 12.4-82 14.6-12.4 2.2-37.6 6.7-56 10-18.4 3.3-48.4 8.7-66.5 11.9-18.1 3.3-44.7 8-59 10.5-14.3 2.6-36.6 6.6-49.5 8.9l-23.5 4.2c0.1 5.4 0.7 16.1 1.4 27.4 0.6 11.3 1.8 30.2 2.6 42 0.8 11.8 1.7 26.2 2 32 0.3 5.8 1.2 20.9 2 33.5 0.8 12.6 1.7 27.1 2 32 0.3 4.9 1.4 23.6 2.5 41.5 1.1 17.9 2.7 43.3 3.5 56.5 0.8 13.2 1.9 32.3 2.5 42.5 0.6 10.2 1.5 24.8 2 32.5 0.6 7.7 1.4 21.9 2 31.5 0.5 9.6 1.6 29 2.5 43 0.8 14 2.2 35.6 3 48 0.8 12.4 1.8 28.4 2.1 35.5 0.2 7.1 0.7 14.8 0.9 17 0.4 4 0.5 4 33.2 27.6 18.1 12.9 62.9 45.1 99.8 71.5 36.8 26.4 76.7 54.9 88.5 63.4 11.8 8.5 33 23.7 47 33.7 14.5 10.4 26.1 18.1 27 17.9 0.8-0.3 9.2-3.4 18.5-6.9 9.3-3.6 31.8-12 50-18.7 18.2-6.7 47.8-17.8 66-24.5 18.2-6.8 39.8-14.8 48-17.9 8.3-3 29.6-10.9 47.5-17.6 17.9-6.7 39-14.5 47-17.5 8-2.9 26.2-9.7 40.5-15 14.3-5.3 37.9-14.1 52.5-19.5 14.6-5.4 35.7-13.3 47-17.5 11.3-4.2 23.4-8.6 27-9.9 3.6-1.3 7.8-2.9 9.5-3.7l3-1.4c1.8-45.7 2.8-77.7 3.4-100.5 0.7-22.8 1.6-51.6 2.1-64 0.5-12.4 1.4-40.3 2-62 0.6-21.7 1.5-49.9 2-62.5 0.5-12.6 1.4-39.6 2-60 0.5-20.4 1.7-56.1 2.5-79.5 0.8-23.4 1.9-56.9 2.4-74.5 0.6-17.6 0.7-32.3 0.3-32.7-0.4-0.4-20.5-6.4-44.7-13.3-24.2-7-56.9-16.4-72.8-21.1-15.8-4.6-30.2-8.4-31.9-8.4-1.8 0-9.8 1.4-17.8 3-8 1.7-25.1 5.3-38 8-12.9 2.7-32.3 6.7-43 9-10.7 2.2-28 5.8-38.5 8-10.5 2.1-36.5 7.5-58 12-21.5 4.5-51.8 10.8-67.5 14-15.7 3.2-43.8 9.1-62.5 13-18.7 3.9-47 9.8-63 13.1-16 3.3-40.9 8.4-55.5 11.5-14.6 3.1-27 6-27.5 6.5q-1 1 0.8 49.7c0.9 26.8 2.3 70.2 3 96.4 0.6 26.2 1 47.9 0.7 48.2-0.3 0.3-13.5-3.7-29.5-9-16-5.3-29.3-9.9-29.7-10.2-0.4-0.4-1.2-38.1-1.7-83.7-0.6-45.6-1.1-92.2-1.3-103.4l-0.3-20.4c28.7-5.9 78.8-16.2 130-26.7 51.2-10.5 118.2-24.3 149-30.6 30.8-6.3 72.4-14.8 92.5-18.9 20.1-4.1 45-9.2 55.5-11.5 10.5-2.3 19.2-4.3 19.5-4.6 0.3-0.2 0.3-0.6 0-0.8-0.3-0.2-7.9-2.5-17-5-9.1-2.6-23.3-6.7-31.5-9.1-8.3-2.4-25.8-7.6-39-11.5-19.6-5.7-25.2-7-30.5-6.9-3.6 0-17.1 2-30 4.4zm-494 501.6c-22.8 9.3-43 17.3-44.8 17.9-1.7 0.5-3.2 1.6-3.2 2.2 0 0.7 0.8 1.8 1.7 2.4 1 0.7 11.3 7.2 22.8 14.6 11.5 7.4 31.5 20.1 44.2 28.1 12.8 8.1 23.8 14.7 24.3 14.7 0.6 0 0.8-1.6 0.5-3.8-0.2-2-1-23.5-1.6-47.7-0.6-24.2-1.4-44.3-1.8-44.6-0.4-0.4-19.3 7-42.1 16.2zm-140.5 46c-24.2 9.3-48.7 18.8-54.5 21-5.8 2.3-11.1 4.6-11.8 5.3-1 0.9-0.9 4.6 0.7 19.1 1.1 9.9 2.5 23 3.1 29 0.6 6 1.7 16.6 2.5 23.5 0.7 6.9 1.9 17.9 2.5 24.5 0.6 6.6 1.4 12.5 1.8 13.2 0.4 0.6 83.5 64.5 184.7 141.9 101.2 77.4 196.1 149.9 211 161.2 14.9 11.3 31.7 24.2 37.5 28.7 5.8 4.5 36.4 27.9 68 52 31.6 24.1 58.1 44.3 58.8 44.9 0.9 0.8 8.1-1.9 29-11.3 15.2-6.8 37.4-16.6 49.2-21.8 11.8-5.2 26.7-11.8 33-14.6 6.3-2.7 12.2-5.6 13-6.4 1.3-1.2 1.3-4.9-0.3-33.6-0.9-17.7-1.6-32.3-1.5-32.4 0.2-0.1 14.9-6.8 32.8-14.8 17.9-8.1 48.5-21.8 68-30.5 19.5-8.7 45.6-20.4 58-26 12.4-5.6 29.3-13.1 37.5-16.7 8.3-3.6 16.3-7.1 18-7.9 1.7-0.8 3.3-1.4 3.8-1.4 0.4 0 0.7 14.6 0.7 32.5 0 30.5 0.1 32.5 1.8 32 0.9-0.2 14.1-6.4 29.2-13.6 15.1-7.2 35.2-16.7 44.5-21.1 9.3-4.4 19.4-9.1 22.3-10.4 2.8-1.3 5.3-2.5 5.4-2.7 0.1-0.1 0.5-14.6 0.8-32.1l0.5-31.9c60.5-27 86.3-38.5 96.5-43.1 10.2-4.6 35.3-15.8 55.8-25 20.4-9.1 37.9-16.6 38.7-16.6 1.3 0 1.5 4 1.5 30.2-0.1 16.7-0.1 30.6 0 31 0 0.5 20.7-9.6 46-22.2l46-23c0.7-7.4 1.4-15.4 2-22.5 0.6-7.1 1.7-21.3 2.6-31.5 0.8-10.2 1.9-24.4 2.4-31.5 0.6-7.1 1.2-14.7 1.5-16.8 0.5-3.5 0.3-3.8-3.7-6.3-2.4-1.4-22.3-12.1-44.3-23.8-22-11.6-56.9-30.1-77.5-41-20.6-11-42-22.3-47.5-25.3-5.5-2.9-10.3-5.3-10.7-5.3-0.5 0-0.8 3.5-0.9 7.7 0 4.3-0.6 22.5-1.2 40.4-0.7 17.9-1.1 33.2-0.9 34 0.2 0.8 21.4 12.9 47.2 26.9 25.7 14 46.5 25.8 46.2 26.2-0.4 0.3-10.9 6.1-23.5 12.7-12.5 6.7-23.3 12.1-24 12.1-0.6 0-19.8-11.4-42.5-25.5l-41.2-25.5c-72.5 30.9-94.7 40.3-96.3 40.9-1.5 0.6-2.9 1.4-3.2 1.9-0.2 0.4 2.1 2.3 5.3 4.3 3.1 2 16.3 10.1 29.2 17.9 12.9 7.9 28.1 17.2 33.8 20.7 5.6 3.4 10 6.8 9.7 7.3-0.3 0.5-1 1-1.5 1-0.5 0-10.1 5.2-21.2 11.5-11.2 6.4-20.8 11.7-21.5 11.8-0.6 0.1-5.8-3.2-11.5-7.3-5.6-4.1-24.1-17.4-41-29.7-17-12.3-31.4-22.3-32-22.3-0.7 0-26 9.9-56.3 22-30.3 12.1-55.7 22.5-56.5 23.1-1.3 0.9-1.3 1.2 0.4 2.2 1 0.7 11.2 7.3 22.7 14.7 11.5 7.4 30.3 19.6 41.8 27 11.6 7.4 21 13.7 21.1 14 0 0.3-11.4 6.3-25.3 13.4l-25.2 12.8c-53.5-38.3-73.7-52.9-79.5-57.1-5.8-4.3-11.1-8-11.7-8.4-0.7-0.4-13.3 4-28 9.7-14.8 5.7-41.1 15.9-58.6 22.7-17.4 6.8-31.8 12.6-31.8 12.9 0 0.3 14.6 10.4 32.3 22.5 17.8 12.1 36.1 24.6 40.8 27.9 4.7 3.2 11.8 7.9 15.7 10.5 4 2.5 7.3 4.9 7.3 5.4 0 0.4-2.8 2.1-6.2 3.8-3.5 1.8-14.4 7.4-24.3 12.7-9.9 5.2-18.5 9.8-19 10.2-0.5 0.4-1.8 1-2.7 1.3-1.2 0.5-3.3-0.4-6-2.5-2.4-1.7-24.1-17.4-48.3-34.7-24.2-17.3-49.4-35.4-56-40.1-6.6-4.8-39-28-72-51.7-33-23.6-83.9-60-113-80.9-29.1-20.9-63.6-45.6-76.5-54.9-12.9-9.3-41.5-29.7-63.5-45.5-22-15.7-62.5-44.8-90-64.5-27.5-19.7-51.1-36.6-52.5-37.7-1.4-1-2.7-1.8-3-1.8-0.3 0.1-20.3 7.7-44.5 17.1zm556.1 686.1c-0.2 0.7-0.9 43.1-1.5 94.3-0.6 51.2-1.5 117.8-1.9 148.2l-0.7 55.2c34.9 0.5 45.1 0.6 45.1 0.6 0.1 0 0.7-41.8 1.4-93 0.7-54.6 1.5-93.4 2.1-94 0.5-0.5 0.9-0.7 0.9-0.2 0 0.4 1.6 6.2 3.6 13 1.9 6.7 10 33.4 18 59.2 8 25.8 19.3 62.1 25.1 80.5 5.7 18.4 10.8 33.8 11.1 34.1 0.4 0.4 11.3 1 24.2 1.4l23.5 0.7c1.2-28.4 2-82.2 2.5-137.7 0.5-55.5 1.1-114.5 1.2-131l0.1-30-44.3-0.5c-0.7 19-1.2 53.1-1.5 88-0.3 34.9-0.8 73.4-1.1 85.5-0.3 12.9-0.9 21.6-1.4 21-0.5-0.5-3.8-11.6-7.4-24.5-3.6-12.9-15.7-56-27-95.8-11.3-39.7-20.6-72.8-20.6-73.5 0-0.9-3.9-1.4-14.2-1.9-7.9-0.5-19.4-0.8-25.6-0.8-8.1 0-11.4 0.3-11.6 1.2zm-127.1 1c-22 0.5-40.1 1-40.3 1.1-0.2 0.1 0.2 23.8 0.8 52.7 0.6 28.9 1.5 69.2 2 89.5 0.5 20.3 1.4 63.8 2.1 96.5 0.6 32.7 1.2 59.6 1.3 59.8 0 0.1 17.4-0.2 38.6-0.8 21.2-0.5 49.9-1 63.7-1h25.3v-45.5l-83.5 1.2c-1.2-42.8-1.5-61-1.5-68.2v-13c26.7-1.2 40.2-1.5 47.2-1.5h12.8l-0.5-44.2c-46.9 0.2-60.7-0.1-60.9-0.6-0.2-0.4-0.6-18.7-0.8-40.7l-0.3-40 82.5-2c0-20.2-0.3-30.2-0.7-35.3l-0.8-9.2c-36.4 0.2-65 0.7-87 1.2zm404.2 6c-0.3 0.7-4.4 60.5-9.1 132.8-4.8 72.3-9.2 138.6-9.9 147.2-0.7 8.6-0.8 16-0.4 16.5 0.5 0.4 10.5 1.5 22.2 2.3 11.8 0.8 21.6 1.3 21.8 1 0.3-0.3 1.2-11.8 2.1-25.5 1-13.8 2.6-37.7 3.6-53.3 1.1-15.5 2-29.2 2-30.5v-2.2c44.7 0 47-0.2 53-2.2 3.6-1.3 9.3-4 12.8-6 3.4-2.1 9-6.3 12.5-9.4 3.4-3 8.5-8.9 11.3-13 2.7-4 6-10.3 7.2-13.9 1.2-3.6 2.6-9.2 3.2-12.5 0.5-3.3 1.6-14.2 2.5-24.3 0.8-10 1.5-24.4 1.5-32 0-10.6-0.4-15.5-2-21.7-1.2-4.4-3.7-11.2-5.8-15-2.4-4.7-6.3-9.7-11.7-15.1-6-6-9.9-8.9-15.5-11.6-4.1-2-10.2-4.4-13.5-5.2-3.3-0.9-13.7-2.3-23-3-9.3-0.8-25.1-2-35-2.6-9.9-0.6-20.6-1.3-23.7-1.6-4.2-0.5-5.8-0.3-6.1 0.8zm-648.2 3.5c-1.6 0.2-5.7 1.1-9 2-3.3 0.8-8.9 3-12.5 4.8-3.6 1.8-9.4 5.9-12.9 9.1-3.5 3.2-8.2 8.8-10.5 12.4-2.4 3.6-5.2 8.7-6.4 11.5-1.1 2.7-2.8 8.8-3.8 13.5-1.3 6.7-1.6 11.4-1.1 22 0.4 10.3 1.2 15.6 3.1 22.2 1.4 4.9 3.9 11.4 5.5 14.5 1.6 3.2 5.1 9 7.9 12.8 2.7 3.8 8.4 10.6 12.8 15 4.3 4.5 13.3 12.6 19.9 18.1 6.6 5.4 18.9 15.6 27.4 22.4 8.5 6.9 17.8 15.3 20.5 18.6 2.8 3.4 6.3 8.7 7.9 11.8 1.5 3.1 3.2 8.2 3.8 11.3 0.6 3.2 0.9 8.7 0.7 12.3-0.3 3.6-1.4 8.5-2.4 11-1.1 2.5-4 6.7-6.5 9.3-2.9 3.2-6.1 5.5-9.6 6.8-2.9 1-7.2 1.9-9.5 1.9-2.7 0-6.3-1-9.7-2.7-3-1.6-7-4.6-8.9-6.8-1.9-2.2-5-7.2-6.8-11-1.9-3.8-4.4-10.7-5.6-15.3-2.2-7.9-2.4-8.3-4.8-7.8-1.4 0.3-10.6 1.7-20.5 3.2-9.9 1.4-18.3 2.9-18.7 3.2-0.4 0.4 0.4 5.7 1.8 11.7 1.4 6 3.8 14.4 5.5 18.5 1.7 4.1 5 10.7 7.4 14.5 2.4 3.8 6.1 9 8.2 11.4 2.1 2.4 6.3 6.3 9.3 8.6 3 2.3 7.8 5.4 10.5 6.7 2.8 1.4 7.5 3.3 10.5 4.2 3 0.9 9.1 2.1 13.5 2.6 5.4 0.7 11 0.7 17 0 5-0.5 11.7-1.7 15-2.5 3.3-0.8 9.8-3.4 14.5-5.7 6.4-3.1 10.3-6 15.5-11.2 5.1-5.2 8.2-9.4 11.3-15.6 2.3-4.7 5.2-12.3 6.4-17 1.7-6.6 2.2-11.3 2.2-21.5 0-9.3-0.5-14.8-1.7-19.5-1-3.6-4.2-11.5-7.2-17.5-3-6-8.3-14.8-11.8-19.5-3.6-4.7-10.7-12.6-15.8-17.6-5.2-4.9-17.3-14.9-26.9-22.1-9.6-7.2-20.6-16.2-24.3-19.9-3.8-3.8-9-10.1-11.5-13.9-2.5-3.8-5.7-10.2-7.1-14-2-5.7-2.5-8.9-2.5-17-0.1-9 0.2-10.6 2.9-16.4 1.7-3.5 4.5-7.7 6.3-9.2 1.7-1.6 4.9-3.3 7-3.9 2-0.5 5.5-1 7.7-1 2.2 0 6.3 1.1 9 2.3 2.8 1.3 6.3 3.9 7.9 5.8 1.6 1.9 3.9 5.4 5.1 7.9 1.2 2.5 3.1 7.2 4.1 10.5 1 3.3 2 6.4 2.3 6.8 0.3 0.5 4.6-0.3 9.6-1.7 5-1.3 13.5-3.7 19-5.1 5.5-1.4 10.8-2.8 11.8-3.1 0.9-0.2 1.7-1.2 1.7-2.2 0-0.9-1.2-5.5-2.6-10.2-1.4-4.7-4.5-12.1-6.7-16.5-2.9-5.6-6.4-10.3-11.7-15.6-5.8-5.9-9.4-8.5-16-11.8-4.7-2.3-11.6-4.8-15.5-5.6-4-0.8-11.7-1.4-18-1.3-6 0-12.4 0.3-14 0.5zm854.5 15.5c-0.6 2.4-3.8 14-7.1 25.8-3.3 11.8-7.6 27.1-9.6 34-1.9 6.9-5.6 20.4-8.3 30-2.7 9.6-12.1 43.6-21 75.5-8.9 31.9-17.9 64.5-20.1 72.5-2.2 8-6.2 22.3-9 31.7-2.7 9.5-4.9 17.5-4.9 17.8 0 0.3 3.5 0.8 7.8 1.1 4.2 0.3 14.5 1.4 22.7 2.5 8.3 1 15.3 1.5 15.8 1.1 0.4-0.4 4.7-15.5 9.6-33.7l8.9-33c6 0.6 16.5 1.7 27.2 2.9l19.5 2.1c1 16.3 1.7 31.7 2.1 44.9 0.5 14.2 1.3 24 1.9 24.2 0.5 0.2 10 1.3 21 2.4 11 1.1 21.3 2.3 23 2.7l3 0.6c-1.2-16.1-2.2-30.7-3-42.8-0.8-12.1-2.4-36.8-3.5-55-1.1-18.2-2.9-46.7-4-63.5-1.1-16.8-2.9-45.6-4-64-1.2-18.4-2.8-43.2-3.5-55-0.8-11.8-1.8-21.8-2.2-22.2-0.4-0.3-13.6-2-29.3-3.7-15.7-1.7-29.3-3.1-30.2-3.1-1.2 0-2.1 1.3-2.8 4.2zm-1040 6.1c-21.1 2.6-26.5 3.5-26.7 4.7-0.1 0.8-0.9 15-1.8 31.5-0.8 16.5-2.2 43.3-3 59.5-0.8 16.2-2.4 47.7-3.5 70-1.1 22.3-2.9 58.5-4 80.5-1.1 22-2.3 44.7-2.7 50.4-0.8 10.1-0.7 10.4 1.2 9.8 1.1-0.3 9.9-1.5 19.5-2.7 9.6-1.1 19.3-2.4 21.5-2.8l4-0.7c1.1-21.7 1.8-37.2 2.2-48.5l0.8-20.5c32.6-4.2 43.1-5.3 44.4-5.2 2.1 0.2 2.7 1.1 4.3 7.2 1 3.8 5.1 18.5 9 32.5 3.9 14 7.4 25.8 7.7 26.3 0.3 0.4 7.4-0.2 15.6-1.3 8.3-1.1 18.4-2.3 22.5-2.7l7.5-0.8c-0.1-4.7-5.4-23.8-11.7-45.5-6.4-21.7-23.9-81.3-38.8-132.5-15-51.2-28.4-97.3-29.9-102.5l-2.8-9.5c-6.8-0.3-20.7 1.1-35.3 2.8zm1201.7 8.6c-0.2 0.5-1.3 6.9-2.5 14.2-1.2 7.4-4.8 31.2-8.1 52.9-3.3 21.7-7.6 49.8-9.5 62.5-1.9 12.7-5.8 37.8-8.5 56-2.8 18.2-7.6 49.3-10.8 69.2-3.2 19.9-5.7 37-5.5 38 0.1 1.5 2.2 2.1 11.9 3.6 6.5 1 27.8 4.2 47.3 7.2 19.5 3 41.3 6.2 48.5 7.3 9.1 1.3 13.2 1.5 13.6 0.8 0.4-0.6 1.9-9.6 3.3-20.1 1.5-10.5 2.8-19.9 2.9-21 0.2-1.8-1.7-2.2-23.8-5.6-13.2-2.1-30.3-4.7-38-5.9-7.7-1.2-14.1-2.2-14.3-2.3-0.1-0.1 1.3-10.5 3.3-23.2 1.9-12.7 4.2-27.3 5-32.5 0.8-5.2 3.3-21.7 5.5-36.5 2.2-14.8 6.7-44.5 10-66 3.2-21.5 7.3-48.5 9-60 1.7-11.5 3.5-23.5 4.1-26.5 0.5-3 0.5-5.8 0.1-6.1-0.4-0.4-9.2-1.8-19.7-3.3-10.5-1.5-20-2.9-21.2-3.1-1.2-0.3-2.4-0.1-2.6 0.4zm-1379.7 16.6c-30 5.1-57.5 9.9-61.3 10.6-3.7 0.8-6.7 1.6-6.7 1.9 0 0.3 0.5 2.4 1 4.7 0.6 2.4 3.9 21.7 7.5 43 3.6 21.4 9.3 54.8 12.6 74.3 3.3 19.5 9.6 56.9 14 83 4.4 26.1 9.3 55.6 11 65.5 1.6 9.9 3.2 19.2 3.4 20.7 0.4 2.5 0.9 2.8 3.8 2.4 1.7-0.2 29.8-4.9 62.2-10.5 32.5-5.5 59.3-10.1 59.8-10.1 0.4 0 0.7-1.2 0.7-2.8 0-1.5-1.6-11.5-3.5-22.2-1.9-10.7-3.6-19.6-3.7-19.7-0.2-0.2-12.2 1.8-26.8 4.3-14.6 2.5-32.6 5.6-40 6.9-10.9 1.9-13.7 2.1-14.5 1.1-0.5-0.7-3.9-18.7-7.5-39.9-3.6-21.2-6.3-38.8-6-39.1 0.3-0.2 13.1-2.5 28.5-5.1 15.4-2.5 28.7-5 29.5-5.5 0.8-0.4 1.4-1.2 1.3-1.7-0.1-0.4-1.8-10-3.8-21.3-2-11.3-3.8-20.7-4.1-21-0.3-0.3-13.6 1.8-29.7 4.6-16.1 2.8-29.3 5.1-29.4 5-0.2-0.1-3.3-18-7-39.8-3.8-21.8-6.6-39.9-6.3-40.2 0.3-0.3 18.6-3.6 40.7-7.3l40.3-6.8c0-3.9-1.4-12.2-3-21-1.6-8.8-3.3-17.7-3.7-19.8-0.6-2.9-1.3-3.7-2.8-3.6-1.1 0.1-26.5 4.3-56.5 9.4zm1542.6 8.7c-0.3 0.7-6.8 32.8-14.6 71.3-7.8 38.5-20.6 102-28.5 141-7.9 39-14.8 72.9-15.4 75.3-0.9 3.2-0.8 4.3 0.2 4.7 0.6 0.2 23.5 4.9 50.7 10.4 27.2 5.5 54.9 11.2 61.5 12.6 6.6 1.4 12.3 2.2 12.6 1.8 0.3-0.5 2.4-10.3 4.7-21.8 2.3-11.5 4.2-21.2 4.2-21.5 0-0.3-17.9-4.1-39.7-8.4-21.9-4.4-40.2-8.2-40.6-8.5-0.5-0.4 2.7-18.1 6.9-39.6 4.3-21.5 8-39.3 8.3-39.7 0.3-0.4 13.7 2 29.6 5.2 15.9 3.3 29.3 5.6 29.7 5.2 0.3-0.4 2.6-10.2 5-21.9 2.3-11.7 4.1-21.4 3.8-21.6-0.3-0.2-13.6-3-29.5-6.1-15.9-3.2-29.1-5.9-29.3-5.9-0.1-0.1 2.9-15.9 6.7-35.2 3.9-19.2 7.5-37.4 8.1-40.2 0.8-4.4 1.3-5.2 2.8-4.7 0.9 0.3 17.9 3.9 37.7 8 19.8 4.1 37.4 7.7 39 8l3 0.6c7-34.2 8.8-44.3 8.5-44.5-0.3-0.3-5.4-1.4-11.5-2.5-6.1-1.2-33.3-6.6-60.5-12.2-27.2-5.5-50.3-10.3-51.2-10.6-0.9-0.3-1.9 0.1-2.2 0.8zm-1728.1 28.2c-4.4 0.7-15.6 3.2-25 5.4-9.3 2.2-23.5 5.5-31.5 7.3-8 1.8-14.9 3.5-15.3 3.8-0.5 0.3 1 9.1 3.3 19.6 2.3 10.5 6.6 29.3 9.5 42 3 12.7 7.5 32 10 43 2.5 11 6.4 27.7 8.5 37 2.1 9.3 8.9 38.6 15 65 6.1 26.4 12.9 56.2 15.3 66.2 3.1 13.7 4.6 18.3 5.7 18.3 0.8 0 8.3-1.6 16.5-3.5 8.3-1.9 24.7-5.7 36.5-8.5 17.8-4.1 23.1-5.8 31-9.7 7.8-3.8 11-6.1 17.5-12.7 5.9-5.9 9.2-10.3 12.2-16.1 2.2-4.4 5-10.9 6.1-14.5 1.1-3.6 2.3-9.7 2.6-13.5 0.4-3.8 0.3-10.2-0.3-14-0.6-3.8-9-41.4-18.7-83.5-9.7-42.1-18.5-79.4-19.6-83-1.1-3.6-3.3-9-4.9-12-1.5-3-4.8-8.1-7.3-11.2-2.5-3.2-7.2-7.8-10.3-10.3-3.2-2.5-9.2-6.3-13.3-8.4-4.1-2.2-10.2-4.6-13.5-5.5-3.3-0.8-9.6-1.7-14-2-4.6-0.3-11.4 0-16 0.8zm1899 8.9c-0.2 0.6-2.6 9.5-5.4 19.7-2.7 10.2-5.2 19.3-5.5 20.3-0.4 1.1 0 1.9 1.2 2.2 0.9 0.2 10.6 2.9 21.5 6 10.8 3 20.4 5.5 21.2 5.5 1.1 0 1.4 0.8 1.1 2.8-0.2 1.5-13.2 50-29 107.7-15.8 57.8-30.6 111.6-32.9 119.7-2.3 8.1-4 14.9-3.7 15.2 0.3 0.2 5.2 1.5 11 3 5.8 1.5 15.4 4.1 21.5 5.7 6.1 1.7 11 2.9 11.1 2.7 0.1-0.2 4.7-17.4 10.3-38.3 5.7-20.9 11.1-40.9 12.1-44.5 1.1-3.6 9.6-34.8 19-69.5 9.4-34.7 18.6-68.5 20.5-75.3 1.9-6.7 3.5-13.1 3.5-14.2 0-1.1 0.4-2 1-2 0.6 0 9.7 2.3 20.3 5.1 10.5 2.9 20.7 5.6 22.5 6l3.2 0.9c2.6-8.9 5.2-18.5 7.5-27 2.3-8.5 3.9-15.8 3.6-16.2-0.3-0.5-30.3-8.9-66.6-18.8-36.3-9.9-66.6-18-67.3-18-0.7 0-1.4 0.6-1.7 1.2zm-2030.1 24.8c-2.7 0.9-12 3.6-20.6 6.1-13.6 3.8-15.8 4.7-15.8 6.4 0 1.1 2.2 9.7 4.9 19 2.7 9.3 9 31 14.1 48 5 17 11.8 40 15 51 3.2 11 9.5 32.4 14 47.5 4.5 15.1 9.5 31.8 11 37 1.5 5.2 7.3 25 12.9 44 5.6 19 10.6 35.5 11.1 36.7 0.7 1.6 1.6 2.1 2.7 1.7 1-0.3 10.6-3.2 21.3-6.5 10.7-3.2 19.6-6 19.8-6.1 0.1-0.2-0.3-1.6-0.9-3.3-0.5-1.7-7.8-26-16-54-8.3-28-17.9-60.7-21.4-72.5-3.5-11.8-15.2-51.4-26-88-10.8-36.6-20-67-20.4-67.6-0.6-0.8-2.2-0.6-5.7 0.6zm771.1 270.1c-3.3 0.5-8.3 1.7-11 2.6-2.8 0.9-7.5 3.3-10.5 5.4-3 2-7.4 6.1-9.8 9-2.4 3-5.4 7.6-6.7 10.4-1.3 2.7-3.2 7.9-4.2 11.5-1.4 5-1.8 10.1-1.8 22 0 11.6 0.4 17.1 1.8 22 0.9 3.6 3.2 9.4 5 13 1.7 3.5 5.7 9 8.7 12.1 3 3.1 7.7 6.8 10.5 8.1 2.7 1.4 7.7 3.4 11 4.4 4 1.2 9.1 1.8 15.5 1.8 5.6-0.1 12.2-0.8 16-1.8 3.6-0.9 8.9-3.1 11.9-4.9 2.9-1.8 7.6-5.7 10.3-8.7 2.8-3 6.5-8.7 8.4-12.5 1.8-3.8 4.1-10.4 5-14.5 1-4.8 1.6-12 1.6-20 0-9.6-0.5-14.3-2.1-20.5-1.2-4.4-3.6-10.7-5.4-14-1.7-3.3-5.6-8.5-8.7-11.6-3-3.1-7.9-6.8-10.8-8.2-2.8-1.5-7.8-3.3-11-4.1-3.1-0.8-8.4-1.7-11.7-1.9-3.3-0.3-8.7-0.1-12 0.4zm220 0c-3.3 0.5-7.6 1.4-9.5 2-1.9 0.6-6.2 2.5-9.4 4.3-3.3 1.7-8.1 5.5-10.9 8.6-2.8 3-6.5 8.7-8.3 12.5-1.9 3.8-4.1 10.4-5 14.5-0.9 4.4-1.6 12.3-1.6 19-0.1 7.2 0.5 14.3 1.6 19 0.9 4.1 3.2 10.8 5.1 14.7 1.9 4 5.6 9.6 8.2 12.4 2.7 2.9 6.4 6.2 8.3 7.4 1.9 1.2 6.1 3.2 9.2 4.3 3.2 1.2 9.1 2.7 13 3.3 5.3 0.8 9.6 0.8 15.8-0.1 5.9-0.7 10.8-2.2 16-4.6 5.5-2.6 9.1-5.3 13.3-9.7 3.3-3.4 7.2-8.9 8.7-12.2 1.6-3.3 3.6-8.7 4.6-12 0.9-3.4 1.9-11.4 2.1-18.5 0.4-7.6 0.1-15.2-0.6-19.5-0.7-3.8-2.4-9.9-3.8-13.5-1.4-3.6-4-8.5-5.7-11-1.7-2.5-4.9-6.3-7.2-8.5-2.3-2.2-6.3-5.2-9-6.7-2.7-1.5-7.6-3.3-10.9-4.2-3.3-0.8-8.7-1.6-12-1.9-3.3-0.3-8.7-0.1-12 0.4zm-114 1.8c-3.3 1.1-8 3.5-10.5 5.3-2.5 1.9-5.8 5.2-7.3 7.4-1.8 2.5-3.2 6.3-3.9 10.4-0.8 4.8-0.8 8 0 12 0.7 3 2.5 7.4 4.2 9.7 1.6 2.4 5.4 5.8 8.2 7.7 2.9 1.8 9.6 5 14.8 7 5.2 2 12.4 4.9 16 6.4 3.6 1.4 8.3 4 10.4 5.7 2.2 1.6 4.9 4.3 6 5.8 1.4 1.9 2.2 4.8 2.5 8.5 0.2 3.2-0.2 7.5-0.9 9.7-0.7 2.2-2.4 5.6-3.9 7.4-1.6 2.2-5.1 4.7-9.1 6.5-5.8 2.7-7.8 3.1-17.5 3.4-8.3 0.3-13.5-0.1-21.3-1.7-5.6-1.2-10.7-2.1-11.2-2.1-0.6 0-1 1.2-1 2.7-0.1 1.6 0.5 3.3 1.2 4 0.7 0.6 5.1 1.9 9.8 2.8 6.5 1.3 11.9 1.6 23 1.3 11.7-0.4 15.6-0.9 20-2.6 3-1.2 7.5-3.8 9.9-5.9 2.4-2.1 5.5-6.1 7-8.8 2.2-4.3 2.6-6.3 2.6-14 0-7.8-0.4-9.7-2.6-14-1.9-3.5-4.4-6.2-8.5-9.1-3.3-2.2-12-6.4-19.4-9.3-7.4-3-16-6.6-19-8.1-3-1.5-6.9-4.3-8.6-6.1-1.9-2.1-3.6-5.5-4.4-8.9-1.1-4.8-1.1-6.2 0.4-11 1-3 3-6.8 4.4-8.3 1.5-1.6 4.9-4 7.7-5.5 3.7-1.9 7-2.6 13-3 4.4-0.2 11.1 0.1 15 0.8 3.8 0.7 9.2 2.1 12 3.1 2.7 1 5.3 1.5 5.8 1.1 0.4-0.4 0.7-2.2 0.7-4 0-3.2-0.1-3.2-8.3-5.4-5.4-1.4-12.1-2.2-19.7-2.5-9.3-0.2-12.7 0.1-17.5 1.6zm455.7-0.3c-2.8 0.8-7.6 2.6-10.5 4-2.8 1.5-7.8 5.3-11 8.5-3.7 3.8-6.9 8.5-9.1 13.1-1.9 4-4.2 10.8-5 15-0.9 4.3-1.6 12.7-1.6 18.8 0 6 0.7 14.5 1.6 18.7 0.8 4.3 3 11 4.8 14.8 1.8 3.8 5.5 9.5 8.3 12.5 2.7 3 7.7 6.9 10.9 8.7 3.2 1.7 8.4 3.8 11.4 4.6 3 0.9 8.2 1.8 11.5 2.2 3.5 0.3 9.6 0 14.5-0.9 4.7-0.7 11.2-2.6 14.5-4.2 3.6-1.7 8.4-5.2 12.1-8.9 3.8-3.7 7.2-8.5 9.2-12.5 1.7-3.6 4-9.4 4.9-13 1.4-5 1.8-10.2 1.8-23-0.1-15.2-0.3-17.1-2.8-24.5-1.5-4.4-4.6-10.9-6.9-14.5-2.4-3.5-6.6-8.2-9.3-10.4-2.8-2.1-7.3-4.9-10-6.1-2.8-1.2-7.4-2.7-10.3-3.4-2.8-0.6-9.4-1.1-14.5-1-5 0-11.6 0.7-14.5 1.5zm-251.7 0.1c-0.5 0.3-0.8 27.3-0.7 60l0.2 59.3h8v-52c22.1-0.5 28.9-0.4 29.5-0.2 0.5 0.1 3.9 5.3 7.4 11.5 3.6 6.2 10.3 17.6 15 25.5 7 11.6 9.2 14.4 11.6 15.2 1.6 0.6 3.8 1 4.7 1 1 0 1.8-0.5 1.8-1 0-0.5-5.9-11-13.2-23.3-7.2-12.2-14.4-24.1-16-26.5-1.5-2.3-2.8-4.4-2.8-4.7 0-0.3 0.7-0.5 1.5-0.5 0.8 0 4.1-1.3 7.2-2.9 3.2-1.5 7.3-4.6 9.2-6.7 1.9-2.2 4.3-5.7 5.3-7.9 0.9-2.2 2-6.9 2.4-10.5 0.5-4.6 0.2-8.4-1-13-1-3.6-2.8-8-4.2-9.8-1.3-1.7-4.3-4.6-6.7-6.2-2.3-1.7-6.7-3.8-9.7-4.6-3-0.9-12.5-2-21-2.5-8.5-0.4-18.2-0.8-21.6-0.9-3.3 0-6.4 0.3-6.9 0.7zm99.5 59.3v60h8.5l-1.3-107.5c4.8 7.7 20.1 30.9 37.1 56.5 17 25.6 32.2 47.7 33.8 49.2 1.6 1.6 4 2.8 5.4 2.8 2.3 0 2.5-0.4 3-6.3 0.4-3.4 0.5-30.5 0.3-60.2l-0.3-54h-7c0 81.8-0.3 105.4-0.7 105.3-0.3-0.2-15.5-22.6-33.7-49.8-18.2-27.2-34.3-50.9-35.8-52.7-2.1-2.4-3.7-3.2-6.1-3.3h-3.2zm-512 14.5v2.5c40.4-0.5 40.5-0.5 40.7-2.8l0.3-2.2h-41zm751 0c0 2.2 0.4 2.5 4.2 2.7 2.4 0.2 11.4 0.2 20 0l15.8-0.2v-5h-40z"/>
		<path id="Path 2" class="s1" d="m1559 291.9c-22.8 5.3-108.7 25.2-190.7 44.1l-149.3 34.5c0 384 0.2 495.5 0.5 495.5 0.3 0 16.1-5.8 35.3-12.9 19.1-7.1 48.2-18 64.7-24.1 16.5-6.1 41.3-15.3 55-20.5 13.8-5.1 54.9-20.4 91.5-33.9 36.6-13.6 72.1-26.8 79-29.4 6.9-2.5 21.7-8 33-12.2l20.5-7.7c1-29.3 1.8-83.3 2.4-138.8 0.6-55.5 1.6-130.7 2.1-167 0.5-36.3 1.2-82.1 1.6-101.7l0.6-35.8c-3.6 0.1-23.4 4.5-46.2 9.9zm-944.5 455.4c0.3 6.7 1 20.5 1.6 30.7 0.6 12.1 1.3 19 2.2 19.9 0.6 0.7 13.6 10.5 28.7 21.6 15.1 11.2 36.7 27.1 48 35.4 11.3 8.4 32 23.6 46 33.8 14 10.3 28.3 20.9 31.8 23.5 3.4 2.6 6.7 4.8 7.2 4.8 0.6 0 1-11.1 1-31.2v-31.3c-5-3.2-40.3-28.6-81.5-58.5-41.3-29.9-77-55.8-79.5-57.7-2.5-1.8-4.9-3.3-5.3-3.3-0.4 0-0.5 5.5-0.2 12.3zm253.6 177.6c-0.1 1.7 0.3 8.4 0.9 14.9 0.5 6.4 1.7 20.9 2.6 32.2 0.9 11.3 1.7 20.7 1.8 21 0.2 0.3 42.1 31.7 93.2 69.9 51.1 38.2 94.4 70.6 96.2 72l3.3 2.6-0.1-69.5c-24.4-17.8-42.8-31.3-56.5-41.5-13.7-10.1-34.3-25.3-45.6-33.7-11.4-8.4-34.1-25.2-50.5-37.3-16.5-12-32.8-24.2-36.4-27-3.6-2.8-7-5.5-7.6-5.9q-1.2-0.7-1.3 2.3zm638.6 502.7c-0.5 7.7-1.9 29-3.2 47.4-1.4 18.4-2.4 33.6-2.2 33.8 0.1 0.1 4.7 0.7 10.2 1.2 5.5 0.5 13.2 0.9 17 1 5.3 0 8.2-0.6 12-2.4 2.7-1.3 6.2-3.6 7.7-5.2 1.5-1.6 3.7-5.1 4.9-7.9 1.6-3.8 2.5-9 3.5-21.5 0.8-9.1 1.4-21.7 1.4-28q0-11.5-1.4-15c-0.7-1.9-2.7-5-4.2-6.9-1.6-1.8-4.6-4.2-6.7-5.2-2-1.1-6.5-2.3-10-2.9-3.4-0.5-11.2-1.2-17.2-1.6l-11-0.7zm189 30.4c-0.4 1.4-6.6 25.7-13.7 54-7.1 28.3-13.1 52.5-13.4 53.8-0.5 1.9-0.2 2.2 2.2 2.3 1.5 0 8.9 0.6 16.5 1.2l13.7 1.2c0-9.3-0.7-29.5-1.5-51-0.8-21.4-1.9-44.6-2.3-51.5q-0.7-12.5-1.5-10zm-1051.1 7.5c-0.4 1.1-1.2 17.1-1.6 35.5-0.5 18.4-1 43-1.2 54.7-0.1 11.6-0.1 21.4 0.2 21.7 0.3 0.2 7.5-0.4 16-1.5 8.5-1.1 15.6-2.1 15.7-2.2 0.2-0.1-2.9-12.1-6.8-26.7-3.8-14.6-10.1-38.9-13.9-54-3.9-15.1-7.1-27.9-7.3-28.5-0.2-0.5-0.7-0.1-1.1 1zm-380.2 35.8c-7.2 1.8-13.4 3.4-13.7 3.7-0.4 0.3 9.8 46 22.6 101.5 18 77.7 23.7 101 24.8 100.9 0.8-0.1 7.3-1.5 14.4-3.1 7.2-1.7 14.9-4 17.3-5.2 2.3-1.1 5.6-4 7.3-6.3 1.6-2.4 3.7-6.5 4.5-9.3 0.9-3.1 1.3-6.5 0.9-9-0.4-2.2-8.5-38-18-79.5-9.6-41.5-18.1-77.5-19-80-0.9-2.5-3.2-6.2-5.3-8.4-2-2.1-5.9-4.9-8.7-6.2-3-1.4-6.7-2.3-9.5-2.3-2.5 0-10.4 1.5-17.6 3.2zm643.6 263.8c-3 0.5-8.2 2.2-11.5 3.8-3.6 1.7-7.8 4.9-10.5 7.8-2.5 2.8-5.8 7.6-7.4 10.9-1.5 3.3-3.5 8.8-4.2 12.4-0.7 3.6-1.4 11.7-1.4 18 0 6.4 0.7 14.6 1.5 18.5 0.9 3.9 2.8 9.7 4.3 13 1.6 3.3 4.6 8 6.8 10.4 2.1 2.3 6.6 5.6 9.9 7.2 3.3 1.6 8.5 3.4 11.5 4.1 3 0.6 9.1 0.8 13.5 0.5 4.8-0.3 10.4-1.4 14-2.8 3.3-1.2 7.8-3.7 10-5.4 2.2-1.7 5.7-5.5 7.7-8.5 2-3 4.6-8.4 5.7-12 1.1-3.6 2.5-10.5 3.2-15.5 0.8-6.5 0.8-11.4 0-18-0.5-4.9-2.2-12.4-3.5-16.5-1.4-4.1-4.1-9.7-6-12.5-1.9-2.7-5.6-6.5-8.3-8.4-2.6-1.9-7-4.2-9.8-5.2-2.7-0.9-8.4-1.9-12.5-2.2-4.1-0.3-10-0.1-13 0.4zm220 0c-3 0.5-8.2 2.2-11.5 3.8-3.8 1.8-7.8 4.9-10.9 8.3-2.6 2.9-5.7 7-6.7 9.1-1 2-2.8 7-3.8 11-1.1 4-2.2 10.6-2.6 14.7-0.3 4.1-0.1 11.3 0.5 16 0.6 4.7 1.8 10.8 2.7 13.5 0.8 2.8 3 7.7 4.7 10.9 1.7 3.2 4.8 7.4 6.9 9.3 2 1.8 5.8 4.4 8.5 5.7 2.6 1.3 7.1 2.9 10 3.5 2.8 0.6 7.7 1.1 10.7 1.1 3 0 7.9-0.5 10.8-1.1 2.8-0.6 7.6-2.2 10.5-3.5 2.8-1.3 7.2-4.4 9.7-6.9 2.5-2.5 5.6-6.6 6.9-9.2 1.3-2.6 3-7.3 3.9-10.3 0.8-3 1.8-7.3 2.2-9.5 0.4-2.2 0.7-8.3 0.7-13.5-0.1-5.2-0.8-12.9-1.6-17-0.9-4.1-3-10.3-4.6-13.7-1.6-3.5-5-8.4-7.4-11-2.8-3.1-6.6-5.8-10.7-7.7-3.5-1.6-9.1-3.2-12.4-3.7-3.3-0.5-7.1-0.8-8.5-0.7-1.4 0-5 0.5-8 0.9zm347.5 0.3c-3.3 0.8-7.9 2.3-10.2 3.5-2.4 1.2-6.1 3.8-8.4 5.9-2.2 2-5.3 5.7-6.9 8.2-1.6 2.5-3.8 7.4-5 11-1.2 3.6-2.6 10.3-3.2 15-0.7 5.9-0.6 11.5 0.1 18.3 0.6 5.3 2.1 12.5 3.2 16 1.2 3.4 3.1 7.8 4.2 9.7 1.1 1.9 3.6 5.2 5.6 7.4 2 2.1 5.6 4.8 8.1 6.1 2.5 1.3 7 3 10 3.9 3 0.9 8.3 1.6 11.8 1.6 3.4 0 8.6-0.5 11.5-1.1 2.8-0.6 7.6-2.2 10.5-3.5 2.8-1.3 7.2-4.4 9.7-6.9 2.5-2.5 5.9-7.3 7.5-10.7 1.6-3.5 3.7-9.7 4.6-13.8 1.3-5.7 1.6-10.8 1.2-21.5-0.4-10.5-1-15.6-2.6-20.5-1.2-3.6-3.9-9.2-6.1-12.5-2.1-3.3-6.1-7.5-8.7-9.4-2.7-1.9-7.1-4.3-9.9-5.2-2.7-1-8.6-2-13-2.3-5.1-0.3-10.2-0.1-14 0.8zm-248.9 0.2c-0.5 0.4-0.9 12.2-0.8 27.3l0.2 26.6c26-1.1 35.1-1.8 37-2.4 1.9-0.6 5.5-2.3 8-3.8 3.1-2 5.3-4.4 7-7.8 1.8-3.7 2.6-6.9 2.8-12.5 0.2-6-0.2-8.6-2-13-1.8-4.2-3.4-6.2-6.8-8.5-2.6-1.8-7-3.6-10.5-4.2-3.3-0.7-12.3-1.5-20-1.9-7.7-0.3-14.4-0.3-14.9 0.2z"/>
		<path id="Path 3" class="s0" d="m1424 363.5c-4.1 0.8-11.5 2.6-16.5 4-5 1.4-12.6 4.2-17 6.1-4.4 1.9-11.2 5.2-15 7.4-3.8 2.3-10.2 6.4-14 9.3-3.8 2.8-11 9.2-16 14.2-5 5-11.9 13.3-15.4 18.5-3.5 5.2-8.5 14-11.2 19.5-2.6 5.5-6.2 14.3-7.9 19.5-1.7 5.2-3.8 13.3-4.6 18-0.8 4.7-1.7 12.1-2 16.5-0.4 5 0 12.1 0.9 19 0.8 6 2.7 14.6 4.2 19 1.4 4.4 3.9 10.3 5.4 13 1.6 2.8 9.7 15.6 18.1 28.5 8.5 12.9 17.3 26.9 19.7 31 2.4 4.1 5.3 10.4 6.5 14 1.7 5.1 2.1 8.6 2 16.5-0.2 8.9 0.1 10.4 2.1 13.5 1.2 1.9 3.2 3.6 4.2 3.8 1.1 0.2 11.5-1.7 23-4.3 11.5-2.5 30.2-6.5 41.5-9 11.3-2.4 22.1-4.7 24-5 1.9-0.3 4.8-1.4 6.5-2.3 1.7-1 3.8-3.5 4.7-5.5 1.4-2.8 1.9-6.9 2.1-16.9l0.3-13.3c7.4-17.8 17.3-38.5 26.8-57.5 9.5-19 18.8-39 20.8-44.5 2-5.5 4.8-15.4 6.3-22 2.4-10.6 2.7-13.4 2.2-24-0.3-8.2-1.3-15-3-21.5-1.4-5.2-4-13.6-5.8-18.5-1.8-4.9-5.6-12.4-8.4-16.5-2.9-4.3-7.7-9.6-11.5-12.7-3.6-3-9.7-7-13.5-9-3.8-2-10.8-5-15.5-6.6-7.6-2.7-10-3-22.5-3.3-9.2-0.2-16.6 0.2-21.5 1.1zm-12 288.6c-21.7 4.9-40.4 9.5-41.5 10.2-1.1 0.7-3.1 3.6-4.4 6.3-1.9 3.9-2.3 5.8-1.7 9.4 0.3 2.5 1.4 5.6 2.5 7 1 1.5 3 2.6 4.7 2.8 1.6 0.2 5.9-0.4 9.6-1.2 3.8-0.9 7.6-1.6 8.5-1.5 1.1 0 0.3 0.7-1.7 1.6-1.9 0.8-6.9 2.9-11 4.6-4.1 1.7-8.7 4.2-10.3 5.4-1.5 1.3-2.7 3.3-2.7 4.5 0 1.3 0.7 3.3 1.5 4.5 0.9 1.4 2.5 2.3 4 2.3 1.4 0 5.8-1.7 9.7-3.9 4-2.1 9.5-5.1 12.3-6.6 2.7-1.5 10.4-5.8 17-9.5 6.6-3.7 17.6-9.8 24.5-13.5 6.9-3.8 15.4-8.5 19-10.6 3.6-2 7.5-4.8 8.6-6.1 1.2-1.2 2.4-3.3 2.8-4.6 0.3-1.2-0.1-4-0.9-6.2-1.5-3.9-1.6-4-6.3-3.9-2.6 0-22.5 4.1-44.2 9zm40.3 19.5c-1.8 0.8-16 8.3-31.5 16.7-15.6 8.5-33 17.9-38.8 21-5.8 3.1-11.4 6.5-12.5 7.4-1.1 1-2.8 2.9-3.8 4.3-0.9 1.4-1.7 3.8-1.7 5.5 0 1.6 0.9 4.5 2 6.2 2 3.3 2 3.3 8.3 2.7l6.2-0.5c8.5 12.4 11.6 16.3 12.3 16.6 0.6 0.3 9.9-1.4 20.4-3.8 10.6-2.4 19.9-4.7 20.6-5 0.6-0.4 3.4-4.7 6.2-9.7 2.7-5 5-9.3 5-9.8-0.1-0.4 0.7-1.4 1.7-2.3 1-0.9 3.4-2 5.3-2.4 1.9-0.4 5-1.5 6.8-2.4q3.3-1.6 4.2-4.9c0.7-2.2 0.6-3.9-0.2-5.5-1-2.1-1.5-2.2-7.7-1.5-3.6 0.4-10.8 1.7-15.8 3-5.1 1.3-9.3 2.1-9.3 1.8 0-0.3 5.5-4.1 12.2-8.5 6.7-4.4 13.8-9.4 15.7-11 1.9-1.7 4.1-4.6 4.8-6.5 0.8-1.9 1.2-4.7 0.9-6.3-0.3-1.5-1.8-3.6-3.3-4.7-1.6-1.2-3.3-2-3.8-2-0.5 0.1-2.5 0.8-4.2 1.6z"/>
	</g>
</svg>