<svg version="1.2" xmlns="http://www.w3.org/2000/svg" viewBox="0 0 4000 4000" width="4000" height="4000">
	<title>Imagen de WhatsApp 2025-01-24 a las 12</title>
	<style>
		.s0 { fill: #88c102 } 
		.s1 { fill: #016ab8 } 
		.s2 { fill: #fdfdfb } 
	</style>
	<g id="Background">
		<path id="Path 1" class="s0" d="m3294.4 70.9c-0.5 0.6-398.5 1.2-995.4 1.5-547 0.4-1063.6 0.9-1148 1.2-107.2 0.3-153.8 0.2-154.5-0.6-0.6-0.6-4.4-1-8.6-1-4.1 0-8.1 0.4-8.9 1-1 0.6-54.9 1.1-149 1.4-88.9 0.2-152.3 0.8-159.5 1.4-6.6 0.6-14.9 1.5-18.5 2.1-3.6 0.6-9.7 1.5-13.5 2.1-3.9 0.5-9.3 1.4-12 1.9-2.8 0.6-7.5 1.5-10.5 2.1-3 0.5-7.5 1.4-10 2-2.5 0.6-6.5 1.4-9 1.9-2.5 0.6-9.5 2.3-15.5 3.9-6.1 1.7-13.5 3.8-16.5 4.7-3 0.9-6.5 2.1-7.8 2.6-1.2 0.5-3.3 0.9-4.7 0.9-1.4 0-2.7 0.4-3 1-0.3 0.5-1.4 1-2.5 1-1.1 0-2.8 0.4-3.8 0.9-0.9 0.5-3.8 1.9-6.5 3-2.6 1.2-5 2.1-5.5 2.1-0.4 0-4.5 1.6-9.2 3.6-4.7 2-13.2 5.7-19 8.2-5.8 2.5-17.9 8.4-27 13-9.1 4.7-17.2 9-18 9.6-0.8 0.7-4.9 3.2-9 5.6-4.1 2.4-10.2 6.1-13.5 8.2-3.3 2.1-7.4 4.7-9 5.9-1.7 1.1-5.2 3.5-7.9 5.2-2.7 1.8-5.7 3.6-6.7 4.2-0.9 0.6-3 2.2-4.5 3.6-1.6 1.4-4.7 3.8-6.9 5.4-2.2 1.6-10.3 7.9-18 14.1-7.7 6.2-15.2 12.3-16.7 13.6-1.5 1.3-10.9 10.2-20.9 19.8-10 9.6-21.6 21.6-25.9 26.5-4.3 4.9-9.8 11.1-12.4 13.7-2.5 2.7-4.6 5.1-4.6 5.5 0 0.5-1.8 2.6-4 4.8-2.2 2.2-4 4.4-3.9 5 0 0.6-1.8 2.8-4 5-2.2 2.2-4 4.4-4 5 0 0.6-0.8 1.7-1.7 2.5-0.9 0.8-2.9 3.3-4.3 5.4-1.4 2.1-3.1 4.6-3.6 5.4-0.6 0.8-3.1 4.7-5.8 8.6-2.6 3.9-6.8 10.2-9.3 14.1-2.6 3.9-5.4 8.1-6.3 9.4-0.9 1.3-2.1 3.1-2.6 4-0.6 0.9-2.6 4.3-4.5 7.6-1.9 3.3-4.5 7.8-5.8 10-1.2 2.2-7.4 14.6-13.8 27.5-6.4 12.9-13 26.6-14.8 30.5-1.8 3.9-3.9 9-4.7 11.5-0.7 2.5-2.4 6.7-3.7 9.5-1.4 2.7-3 7-3.7 9.5-0.8 2.5-3.5 10.6-6 18-2.6 7.4-5.6 16.6-6.6 20.5-1.1 3.9-2.6 9.5-3.4 12.5-0.9 3-1.9 6.4-2.4 7.5-0.5 1.1-1.2 3.8-1.5 6-0.3 2.2-1 6-1.6 8.5-0.6 2.5-1.5 6.3-2 8.5-0.5 2.2-1.4 6.2-2 9-0.6 2.7-1.5 7.9-2 11.5-0.6 3.6-1.5 9-2 12-0.6 3-1.5 8.9-2 13-0.5 4.1-1.2 10.2-1.6 13.5-0.4 3.3-1 6.5-1.4 7-0.3 0.5-0.8 6.6-0.9 13.5-0.1 6.9-0.7 13-1.2 13.5-0.5 0.5-0.9 2-0.9 3.2 0 1.3 0.5 2.6 1.1 3q1.2 0.8 0.4 5.3c-0.4 2.5-0.7 91.1-0.7 197 0.1 105.9 0 299.2 0 429.5-0.1 130.3-0.3 255.9-0.5 279-0.2 27.5 0.1 42.3 0.7 43 0.7 0.7 1 38.5 1 112.8 0 73.4-0.3 111.9-1 112.2-0.7 0.3-1 41.1-1 119.3 0 77 0.3 119.1 1 119.7 0.6 0.7 1 123.6 1 357.5 0.1 198.3 0.5 356.9 1 357.5 0.4 0.6 1.1 6.6 1.4 13.5 0.2 6.9 0.7 13.2 0.9 14 0.3 0.8 1 6.2 1.7 12 0.6 5.8 1.6 12.5 2.1 15 0.5 2.5 1.1 6.7 1.3 9.5 0.3 2.7 0.7 5.7 1 6.5 0.3 0.8 1.7 7.1 3.2 14 1.4 6.9 3.1 14.5 3.6 17 0.6 2.5 1.4 6.1 1.8 8 0.5 1.9 1.6 6.4 2.6 10 0.9 3.6 3.4 12.3 5.6 19.5 2.2 7.2 5 16.2 6.3 20 1.3 3.8 4.6 13.3 7.5 21 2.8 7.7 6.3 16.5 7.7 19.5 1.4 3 3.4 7.7 4.4 10.5 1 2.7 7.2 15.6 13.7 28.5 6.4 12.9 13.4 26 15.4 29 2 3 4.1 6.6 4.7 8 0.5 1.4 3 5.7 5.5 9.5 2.4 3.8 5.4 8.3 6.6 10 1.2 1.7 3.6 5.2 5.3 7.9 1.8 2.7 3.9 5.9 4.7 7.1 0.8 1.2 2.7 3.9 4.2 6.1 1.6 2.1 3.9 5.5 5.2 7.4 1.3 1.9 3.3 4.4 4.5 5.5 1.2 1.1 2.2 2.4 2.2 3 0 0.6 1.3 2.6 3 4.5 1.6 1.9 3.5 4.2 4.1 5 0.6 0.8 3.2 3.9 5.7 6.7 2.5 2.9 7.3 8.4 10.6 12.3 3.3 3.8 15.4 16.6 27 28.5 11.5 11.8 22.2 22.3 23.7 23.3 1.4 0.9 6.9 5.3 12.1 9.7 5.2 4.4 13.2 10.9 17.8 14.5 4.6 3.6 9.9 7.6 11.9 8.9 1.9 1.3 3.8 2.9 4.2 3.5 0.5 0.6 2.8 2.2 5.2 3.6 2.4 1.4 9.8 6.1 16.4 10.5 6.7 4.4 14.7 9.6 17.9 11.6 3.2 2 10.3 6 15.8 8.9 5.5 2.9 12.9 6.7 16.5 8.6 3.6 1.8 11.9 5.9 18.5 9 6.6 3.1 17.6 7.8 24.5 10.6 6.9 2.7 13.8 5.5 15.5 6.2 1.6 0.8 9.1 3.2 16.5 5.5 7.4 2.4 16.4 5.1 20 6.1 3.6 1 8.4 2.3 10.7 2.9 2.4 0.6 6 1.5 8 2 2.1 0.5 5.6 1.4 7.8 1.9 2.2 0.6 6.7 1.6 10 2.2 3.3 0.7 7 1.6 8.2 2.1 1.3 0.5 4.1 0.9 6.3 0.9 2.2 0 4.2 0.4 4.5 1 0.3 0.6 3.1 1 6.2 1 3.2 0 6.2 0.3 6.6 0.7 0.5 0.5 3.9 0.9 7.5 1.1 3.7 0.2 7.1 0.7 7.7 1.3 0.5 0.5 6.3 0.9 12.7 0.9 6.9 0 12 0.4 12.3 1 0.3 0.7 28.3 0.7 83.2 0.2 45.6-0.4 90.7-0.6 100.3-0.5 9.6 0.2 39.8 0.5 67 0.9 32.9 0.3 52.7 0.2 59-0.6 6.1-0.7 9.9-0.7 10.5-0.1 0.6 0.6 47.4 1 128.2 1 83.9 0.1 127.5-0.2 127.8-0.9 0.3-0.6 5.8-1 13.5-1 7.7 0 13.2 0.4 13.5 1 0.3 0.7 46.3 1 134.7 1h134.3c8.5 12.6 15.8 23.5 21.8 32.4 5.9 8.8 11.2 16.8 11.7 17.6 0.6 0.8 2 3 3.3 4.9 1.2 1.9 3 4.9 4.1 6.5 1 1.7 2.1 3.3 2.5 3.6 0.4 0.3 2.1 2.5 3.8 5 1.7 2.5 7.9 11.7 13.7 20.5 5.9 8.8 13.2 19.6 16.1 24 3 4.4 6.5 9.6 7.7 11.5 1.3 1.9 2.6 3.7 2.9 4 0.3 0.3 4.8 6.7 10 14.4 5.2 7.6 9.9 14.5 10.5 15.5 0.6 0.9 4.2 6.3 8 12 3.8 5.7 7.3 11.1 7.9 12.1 0.5 0.9 1.8 2.6 2.7 3.6 1 1.1 1.8 2.2 1.8 2.6 0 0.5 1.8 3.2 4 6 2.2 2.9 4 5.7 4 6.3 0.1 0.6 1.2 2.3 2.6 4 1.4 1.7 5.7 7.7 9.5 13.5 3.8 5.8 8.4 12.7 10.3 15.5 2 2.7 4.1 5.8 4.8 6.9 0.7 1 2.7 3.7 4.4 6 1.7 2.2 4.9 6.7 7 10 2.1 3.2 6.1 9.3 8.9 13.6 2.7 4.3 7.2 11.1 10 15.1 2.7 4 5.7 8.2 6.5 9.4 0.8 1.2 8.2 12.2 16.5 24.5 8.2 12.2 17 25.2 19.5 28.8 2.5 3.5 5.2 7.5 6 8.8 0.8 1.3 3.5 5.1 5.9 8.6 2.4 3.5 5.2 7.4 6.2 8.8 0.9 1.4 3.8 5.7 6.3 9.5 2.5 3.8 5.9 8.8 7.6 11 1.6 2.2 3.4 4.9 3.8 6 0.5 1.1 1.7 2.7 2.6 3.5 0.9 0.8 1.7 1.8 1.6 2.2 0 0.5 1.4 2.7 3 5 1.7 2.4 6.9 9.9 11.6 16.8 4.6 6.9 11.4 16.6 14.9 21.5 3.5 4.9 6.4 9.6 6.5 10.2 0 0.7 1.2 2.5 2.6 4 1.4 1.6 3.8 4.8 5.2 7.3 1.5 2.5 3 4.9 3.4 5.5 0.5 0.6 1.8 2.5 3.1 4.3 1.2 1.8 5.6 8.3 9.8 14.5 4.2 6.1 9.7 14.4 12.3 18.2 2.5 3.8 6.8 10.2 9.6 14 2.7 3.8 5.4 8 6 9.2 0.5 1.3 1.4 2.5 2 2.8 0.5 0.3 1.7 2.1 2.5 4 0.8 1.9 1.9 3.5 2.5 3.5 0.5 0 1 0.6 1 1.2 0 0.7 1.1 2.4 2.4 3.8 1.3 1.4 3.7 4.6 5.3 7.1 1.5 2.6 4.6 7.3 6.8 10.5 2.2 3.3 4.8 6.8 5.8 7.9 0.9 1.1 1.7 2.3 1.7 2.7 0 0.5 1.5 2.9 3.2 5.4 1.8 2.5 3.7 5.3 4.3 6.2 0.5 0.8 3.9 5.7 7.5 10.8 3.6 5.1 10.4 15 15.2 21.9 4.9 6.9 9.2 12.5 9.8 12.5 0.5 0 2.3-2.4 3.9-5.3 1.6-2.8 3.6-5.9 4.5-6.7 0.9-0.8 1.7-1.9 1.6-2.5 0-0.6 0.9-1.9 2-3 1.1-1.1 2.1-2.3 2-2.8 0-0.4 3.9-6.8 8.7-14.2 4.9-7.4 10.4-16 12.4-19.2 2-3.2 4.9-7.8 6.5-10.2 1.6-2.4 3.7-5.6 4.6-7 1-1.4 2.9-4.6 4.3-7.1 1.4-2.5 3.6-5.9 4.8-7.7 1.2-1.7 5.3-8 9.1-14 3.8-5.9 8.1-12.6 9.5-14.7 1.4-2.1 3-4.6 3.6-5.5 0.5-0.9 2.3-3.9 4.1-6.6 1.7-2.8 4.5-7 6-9.4 1.6-2.4 3.3-5.1 3.9-6 0.6-0.8 3.3-5.2 6.1-9.6 2.8-4.4 6.4-10 8-12.4 1.6-2.4 3.3-5.1 3.9-6.1 0.6-0.9 1.7-2.5 2.5-3.5 0.8-1 2.4-3.5 3.5-5.4 1.1-2 3.3-5.8 5-8.4 1.6-2.7 4.8-7.7 7-11.1 2.2-3.3 5.1-7.9 6.5-10.1 1.4-2.1 3.2-4.9 4-6.1 0.8-1.2 3-4.6 4.8-7.6 1.8-2.9 4.2-6.9 5.4-8.8 1.2-1.9 4.5-7.1 7.3-11.5 2.8-4.4 6.9-10.6 9.1-13.9 2.1-3.2 4.3-6.6 4.9-7.5 0.5-0.9 3.6-5.9 6.9-11.1 3.3-5.2 9.3-14.7 13.4-21 4.1-6.3 9.1-13.9 11.1-16.9 2-2.9 4.3-6.4 5.1-7.6 0.8-1.3 3.6-5.9 6.2-10.2 2.5-4.3 5.4-8.5 6.3-9.3 0.9-0.8 1.6-1.9 1.5-2.5 0-0.6 0.9-1.9 2-3 1.1-1.1 2.1-2.3 2-2.8 0-0.4 2-3.7 4.4-7.5 2.3-3.7 4.9-7.8 5.6-9.2 0.7-1.4 3.3-5.7 5.8-9.5 2.5-3.8 5.9-9.3 7.7-12 1.8-2.8 4.6-7 6.1-9.4 1.6-2.4 3.5-5.3 4.1-6.5 0.7-1.2 4.1-6.5 7.5-11.9 3.5-5.4 8.8-13.7 11.9-18.5 3.1-4.8 6.9-10.7 8.5-13.1 1.6-2.4 3.8-5.9 4.9-7.7 1.1-1.8 3.3-5.2 4.8-7.6 1.6-2.4 4.7-7.2 7-10.7 2.3-3.5 4.9-7.4 5.7-8.7 0.8-1.2 3.1-4.8 5-7.9 1.9-3.1 5.3-8.3 7.5-11.7 2.2-3.3 4.6-7.2 5.4-8.7 0.7-1.4 4.2-6.9 7.6-12.1 3.4-5.2 9.2-14.2 13-20 3.7-5.8 7.5-11.6 8.4-12.9 0.9-1.3 1.9-2.9 2.3-3.5 0.4-0.6 3.1-4.9 5.9-9.6 2.9-4.7 7.7-12.3 10.7-17 3-4.7 7.9-12.1 10.7-16.5 2.9-4.4 8.2-12.9 11.9-19 3.6-6.1 8.3-13.3 10.4-16l3.8-5c91.4-0.8 298.1-0.9 518.4-0.8 246 0.2 400.9-0.1 401.5-0.6 0.6-0.5 9.9-1.1 20.8-1.3 11-0.2 20.1-0.6 20.3-1.1 0.2-0.4 4.2-0.7 8.9-0.7 4.7 0 8.7-0.4 9-1 0.3-0.6 3-1 6-1 3 0 5.7-0.4 6-1 0.3-0.6 3-1 6-1 3 0 5.7-0.4 6-1 0.3-0.6 2.2-1.2 4.2-1.4 2.1-0.3 6-0.9 8.8-1.5 2.7-0.5 7-1.5 9.5-2.1 2.5-0.6 6.2-1.5 8.2-2 2.1-0.6 5.7-1.5 8-2.1 2.4-0.5 5.6-1.3 7.3-1.5 1.7-0.3 3.9-0.9 5-1.4 1.1-0.5 4.7-1.8 8-2.9 3.3-1.2 7-2.1 8.2-2.1 1.3 0 2.5-0.4 2.8-1 0.3-0.6 1.6-1 3-1 1.4 0 2.7-0.4 3-1 0.3-0.6 1.4-1 2.5-1 1.1 0 3.9-0.9 6.2-1.9 2.4-1.1 6.4-2.7 9-3.5 2.7-0.9 8-3.2 11.8-5.1 3.8-1.9 7.6-3.5 8.2-3.5 0.7 0 4-1.3 7.3-2.9 3.3-1.6 7.1-3.4 8.5-4 1.4-0.6 3.2-1.5 4-2 0.8-0.4 4.4-2.2 8-4 3.6-1.7 9.7-4.9 13.5-7.1 3.8-2.2 8.8-4.9 11-6 2.2-1.1 6.5-3.6 9.5-5.5 3-1.9 6.2-3.7 7-4.1 0.8-0.4 7.3-4.6 14.4-9.3 7-4.7 14.2-9.6 16-10.8 1.7-1.3 4.5-3.3 6.2-4.5 1.7-1.3 5.6-4.1 8.5-6.4 3-2.2 6.1-4.9 6.9-5.8 0.8-0.9 1.8-1.7 2.2-1.6 0.5 0 2.9-1.9 5.4-4.3 2.5-2.3 5.4-4.6 6.4-5.2 1-0.6 5-3.9 9-7.5 4-3.6 15.6-14.7 25.9-24.8 10.2-10.1 21.3-21.4 24.6-25.3 3.3-3.9 7.7-9.1 9.9-11.7 2.1-2.6 5.5-6.7 7.6-9.2 2.2-2.5 5-5.8 6.3-7.5 1.3-1.7 2.9-3.9 3.4-5 0.6-1.1 3.4-4.8 6.2-8.3 2.8-3.4 5.1-6.4 5.1-6.7 0-0.3 4.2-6.7 9.2-14.3 5.1-7.5 12.6-19.4 16.7-26.2 4.1-6.9 8.3-13.8 9.5-15.5 1.1-1.7 6.7-12.3 12.3-23.8 5.7-11.4 10.3-20.9 10.3-21.2 0-0.3 1.6-4 3.6-8.3 2-4.2 4.2-9.3 4.9-11.2 0.7-1.9 2.3-6 3.5-9 1.2-3 4.2-11.1 6.7-18 2.4-6.9 4.8-13.8 5.3-15.5 0.4-1.7 1.8-5.9 3-9.5 1.2-3.6 2.6-7.8 3-9.5 0.5-1.7 1.8-6.4 2.9-10.5 1.1-4.1 2.7-10.4 3.6-14 0.9-3.6 2-8.1 2.5-10 0.5-1.9 1.2-5.1 1.5-7 0.4-1.9 1.1-5.3 1.6-7.5 0.5-2.2 1.4-6.9 2-10.5 0.6-3.6 1.5-9 2-12 0.5-3 1.4-8.2 1.9-11.5 0.5-3.3 1.3-9.1 1.7-12.9 0.4-3.7 1.1-7 1.5-7.2 0.5-0.2 0.8-5.1 0.8-10.9 0-6 0.4-10.7 1-11q1-0.5 0-2-1-1.5 0-6.3c0.8-3.2 0.9-142.1 0.5-445.2-0.4-242.3-0.6-486.8-0.6-543.5 0-56.7 0.3-117 0.6-134 0.3-20.4 0.2-31.3-0.5-32-0.7-0.6-1-10.2-1-25.8 0-15.4 0.4-24.9 1-25.2 0.6-0.3 1-8.8 1-22.5 0-13.7-0.4-22.2-1-22.5-0.7-0.3-1-151.6-1-450.8 0-277-0.3-450.6-0.9-451.2-0.5-0.5-1.2-3.9-1.5-7.5-0.3-3.6-0.8-11-1.1-16.5-0.4-5.5-1-10.9-1.5-12-0.5-1.1-1.1-3.6-1.5-5.5-0.3-1.9-0.8-6.7-1.2-10.5-0.3-3.9-0.9-7.5-1.4-8-0.5-0.5-0.9-2.2-0.9-3.8 0-1.5-0.4-3.6-1-4.7-0.6-1.1-1.1-4.1-1.3-6.8-0.2-2.6-0.6-5.2-0.9-5.7-0.3-0.5-2-7.1-3.7-14.5-1.8-7.4-3.9-15.5-4.8-18-0.8-2.5-1.9-5.9-2.3-7.5-0.5-1.7-1.7-6.2-2.8-10-1.1-3.9-2.8-9.3-3.7-12-1-2.8-2.6-7.3-3.5-10-0.9-2.8-2.3-6.8-2.9-9-0.7-2.2-2.5-6.9-4-10.5-1.6-3.6-4.3-10.1-6.1-14.5-1.8-4.4-4.5-10.7-6-14-1.5-3.3-5.1-11-7.9-17-2.8-6.1-5.6-11.7-6.1-12.5-0.5-0.8-3-5.3-5.5-10-2.5-4.7-6.2-11.4-8.3-15-2-3.6-5.9-10.1-8.7-14.5-2.7-4.4-8.6-13.4-13-20-4.4-6.6-10-14.7-12.5-18-2.5-3.3-5.2-6.9-6-8.1-0.8-1.2-3.5-4.8-6-8-2.4-3.3-8.9-11.1-14.3-17.4-5.4-6.3-11.5-13.4-13.5-15.7-2-2.4-9.4-10-16.3-17-6.9-7.1-13.9-14-15.5-15.4-1.6-1.4-8.5-7.4-15.4-13.5-6.9-6-17-14.5-22.5-18.9-5.5-4.4-12.7-9.9-16-12.2-3.3-2.4-7.9-5.6-10.3-7.3-2.3-1.6-4.5-3-5-3-0.4 0-1.8-1.1-3.2-2.4-1.4-1.3-5.2-3.8-8.5-5.6-3.3-1.9-8-4.7-10.5-6.4-2.5-1.7-7-4.4-10-6-3-1.6-6.2-3.5-7-4.2-0.8-0.8-1.8-1.4-2.3-1.4-0.4 0-5.5-2.7-11.5-5.9-5.9-3.3-17.5-8.9-25.7-12.6-8.3-3.6-17.5-7.7-20.5-9-3-1.3-8.7-3.6-12.5-5-3.8-1.5-13.8-5-22-7.7-8.3-2.8-18.2-5.9-22-7-3.8-1.1-8.1-2.2-9.5-2.4-1.4-0.3-4.1-0.9-6-1.4-1.9-0.5-7.3-1.8-12-2.9-4.7-1-11.2-2.4-14.5-3.1-3.3-0.6-6.9-1.4-8-1.6-1.1-0.3-4.5-0.9-7.5-1.4-3-0.5-8.9-1.4-13-2-4.1-0.6-12.2-1.6-18-2.1-5.8-0.6-16.6-1.3-24-1.5-7.4-0.3-13.9-1-14.5-1.5-0.6-0.5-7.1-0.9-14.6-0.9-7.4 0-13.9 0.4-14.5 0.9z"/>
		<path id="Path 2" class="s1" d="m3369.7 1253c-0.1 0.5-2.3 1-4.9 1.2-2.5 0.2-4.4 0.6-4.2 1.1 0.2 0.4-0.8 0.8-2.3 0.8-1.6 0.1-3.1 0.1-3.5 0-0.5 0-0.6 0.4-0.3 0.9 0.3 0.5-0.6 1-2 1-1.4 0-3.3 0.4-4.2 0.9-1 0.4-6 2.8-11.1 5.2-5.1 2.4-9.3 4.7-9.4 5 0 0.4-1.4 1.2-3.1 1.9-1.6 0.7-2.9 1.6-2.8 2.1 0 0.5-0.8 1.1-1.9 1.4-1.1 0.3-3.1 1.6-4.5 3-1.3 1.4-2.7 2.5-3 2.5-0.3 0-1.4 0.8-2.6 1.7-1.2 1-3.3 2.9-4.8 4.3-1.4 1.4-4.2 4.5-6.1 7-1.9 2.5-4.7 5.7-6.2 7.3-1.6 1.5-2.8 3-2.8 3.5 0 0.4-1.4 2.3-3 4.2-1.6 1.9-3 4.1-3 4.8 0 0.6-0.4 1.2-1 1.2-0.6 0-1 0.9-1 2 0 1.1-0.4 2-1 2-0.6 0-1 0.9-1 2 0 1.1-0.4 2-1 2-0.6 0-1 0.9-1 2 0 1.1-0.4 2-1 2-0.6 0-1 1.1-1 2.5 0 1.4-0.4 2.5-1 2.5-0.6 0-1 1.6-1 3.5 0 1.9-0.4 3.5-1 3.5-0.6 0-1 1.3-1 3 0 1.7-0.4 3-1 3-0.6 0-1 3-1 7 0 4-0.4 7-1 7-0.6 0-0.9 5.1-0.6 14.3 0.2 7.8 0.9 17.4 1.5 21.2 0.6 3.8 1.3 9.1 1.6 11.8 0.3 2.6 0.9 4.7 1.5 4.7 0.6 0 1 1.3 1 3 0 1.7 0.4 3 1 3 0.6 0 1 0.7 1 1.5 0 0.8 1.8 5.3 4 10 2.2 4.7 4.5 8.5 5 8.5 0.6 0 1 0.9 1 2 0 1.1 0.4 2 1 2 0.6 0 1 0.7 1 1.5 0 0.8 4.7 6.2 10.5 12 5.8 5.8 10.8 10.5 11.3 10.5 0.4-0.1 2.1 1.2 3.7 2.7 1.7 1.5 4.3 3.5 5.8 4.3 1.5 0.8 2.7 1.8 2.7 2.2 0 0.5 0.7 0.8 1.5 0.8 0.8 0 1.5 0.5 1.5 1 0 0.5 0.7 1 1.5 1 0.8 0 1.5 0.5 1.5 1 0 0.5 0.4 1 1 1 0.6 0 3.1 1.3 5.8 2.8 2.6 1.6 6.5 3.5 8.7 4.2 2.2 0.8 4.5 1.8 5 2.2 0.6 0.5 2.2 0.8 3.8 0.8 1.5 0 2.7 0.5 2.7 1 0 0.5 1.8 1 4 1 2.2 0 4 0.5 4 1 0 0.5 2 1 4.5 1 2.5 0 4.5 0.5 4.5 1 0 0.6 5.8 0.9 16.3 0.6 8.9-0.2 18.3-0.7 21-1 2.6-0.3 4.7-1.1 4.7-1.6 0-0.5 1.6-1 3.5-1 1.9 0 3.7-0.5 4-1 0.3-0.5 1.9-1 3.5-1 1.7 0 3.2-0.5 3.5-1 0.3-0.5 1.6-1 3-1 1.4 0 2.5-0.5 2.5-1 0-0.5 0.6-1 1.3-1 0.6 0 3.2-0.9 5.7-2.1 2.5-1.2 5.1-2.8 5.8-3.6 0.6-0.7 1.6-1.1 2.2-0.8 0.6 0.3 1 0.2 1-0.3 0-0.4 2.1-1.8 4.7-3.2 2.7-1.3 6-3.7 7.6-5.2 1.5-1.6 3.1-2.8 3.7-2.8 0.5 0 4.8-3.8 9.5-8.5 4.7-4.7 8.5-9.1 8.5-9.8 0-0.6 0.9-1.9 2-2.7 1.1-0.8 2-2.3 2-3.2 0-1 0.4-1.6 1-1.3 0.6 0.3 1-0.2 1-1 0-0.8 0.4-1.5 1-1.5 0.6 0 1-0.9 1-2 0-1.1 0.4-2 1-2 0.6 0 1-0.9 1-2 0-1.1 0.4-2 1-2 0.6 0 1-0.9 1-2 0-1.1 0.4-2 1-2 0.6 0 1-0.6 1-1.2 0-0.7 0.9-3.2 2-5.5 1.1-2.4 2.1-5.4 2.3-6.8 0.1-1.4 0.5-2.5 1-2.5 0.4 0 0.7-1.2 0.7-2.7 0-1.6 0.4-3.3 0.9-3.8 0.5-0.5 1.2-3.9 1.6-7.5 0.4-3.6 0.7-12.8 0.7-20.5 0-7.7-0.5-17.2-1.1-21-0.6-3.8-1.3-9.1-1.6-11.8-0.3-2.6-0.9-4.7-1.5-4.7-0.6 0-1-1.3-1-3 0-1.7-0.4-3.2-1-3.5-0.6-0.3-1-1.6-1-3 0-1.4-0.4-2.5-1-2.5-0.6 0-1-1.1-1-2.5 0-1.4-0.4-2.7-1-3-0.6-0.3-1-1.4-1-2.5 0-1.1-0.3-2-0.7-2-0.5 0-1.7-1.8-2.8-4.2-1.1-2.3-3-5.2-4.2-6.5-1.3-1.3-2.3-2.6-2.3-3 0.1-0.5-2.4-3.5-5.4-6.8-3-3.3-6.1-6.6-6.8-7.3-0.7-0.8-3.8-3.7-6.9-6.5-3.1-2.9-6.2-5.4-7-5.6-0.8-0.1-2.1-1.1-2.9-2.1-0.8-0.9-3.3-2.8-5.5-4.1-2.2-1.2-5.9-3.3-8.2-4.6-2.4-1.3-4-2.6-3.5-3 0.4-0.3 0.3-0.3-0.3 0-0.6 0.3-2.3-0.1-4-0.9-1.6-0.8-3.6-1.4-4.2-1.4-0.7 0-1.3-0.5-1.3-1 0-0.5-0.3-0.8-0.7-0.6-0.5 0.3-2.1-0.2-3.8-1-1.6-0.8-4.2-1.4-5.7-1.4-1.6 0-2.6-0.3-2.4-0.8 0.2-0.4-1.7-0.8-4.2-1-2.6-0.2-4.8-0.7-4.9-1.3-0.2-0.5-8.1-0.9-19.3-0.8-10.5 0-19.1 0.4-19.3 0.9zm-62.6 561.7c-1.3 0.4-1.5 5.2-1.3 32.1 0.2 21.2-0.1 32-0.8 32.7-0.7 0.6-0.9 4.2-0.5 10 0.4 4.9 0.6 247.9 0.6 540 0 292.1-0.3 542.5-0.6 556.5-0.3 14.6-0.1 25.9 0.4 26.5 0.5 0.6 0.9 5.6 0.8 11.2-0.2 10.2-0.2 10.2 2.3 10.5 1.4 0.2 38.3 0.1 82-0.2l79.5-0.5 0.5-1217.5c-97.7 0-118-0.3-118-1 0-0.6-7.9-1-21.7-0.9-12 0-22.5 0.3-23.2 0.6z"/>
		<path id="Path 3" class="s2" d="m2622.5 1867.1c-5.5 0.4-13.8 1-18.5 1.3-4.7 0.3-12.1 1-16.5 1.5-4.4 0.6-11.2 1.5-15 2-3.8 0.6-11.1 1.7-16 2.6-4.9 0.8-15.3 2.9-23 4.6-7.7 1.7-18.1 4.2-23 5.5-4.9 1.2-10.8 2.8-13 3.4-2.2 0.6-8.7 2.6-14.5 4.5-5.8 1.9-15.9 5.4-22.5 7.8-6.6 2.4-19.2 7.5-28 11.2-8.8 3.7-22.8 10.2-31 14.5-8.3 4.2-18.2 9.3-22 11.4-3.8 2.1-10.2 5.7-14 7.9-3.8 2.2-11.5 6.7-17 10-5.5 3.3-15.6 9.9-22.5 14.6-6.9 4.7-16.8 11.6-22 15.5-5.2 3.8-12.9 9.6-17 13-4.1 3.3-12.7 10.5-19 16-6.3 5.5-20.3 18.8-31.1 29.5-10.7 10.8-24.3 25.2-30 32.1-5.8 6.9-14.6 17.9-19.6 24.5-4.9 6.6-10.8 14.5-13 17.5-2.2 3-7.6 11.1-12 18-4.3 6.9-11.9 19.5-16.8 28-4.9 8.5-12 22-15.8 30-3.8 8-9.6 20.8-12.9 28.5-3.2 7.7-8.5 21-11.7 29.5-3.2 8.5-7.9 22-10.4 30-2.5 8-6.4 22.2-8.7 31.5-2.3 9.3-5.2 22.2-6.5 28.5-1.3 6.3-3.3 17.8-4.4 25.5-1.1 7.7-2.7 20.5-3.5 28.5-0.8 8-2 22.8-2.7 33-0.7 11.1-0.9 28.7-0.6 44 0.3 14 1.3 33.6 2.2 43.5 0.9 9.9 2.7 25.7 4.1 35 1.3 9.3 3.8 23.8 5.5 32 1.7 8.3 4.4 20.6 6.1 27.5 1.6 6.9 5.5 20.4 8.5 30 3 9.6 9.3 26.9 13.9 38.5 4.7 11.6 13.1 30.4 18.8 42 5.7 11.6 13.1 25.7 16.4 31.5 3.2 5.8 7.2 12.8 8.9 15.5 1.6 2.8 7.9 12.4 14 21.5 6 9.1 15.2 22.1 20.3 29 5.2 6.9 13.9 17.9 19.4 24.5 5.6 6.6 20.4 22.3 32.9 35 12.6 12.7 26.3 26 30.5 29.7 4.2 3.7 11.3 9.6 15.7 13.1 4.4 3.5 11.8 9.3 16.5 12.8 4.7 3.6 11.7 8.7 15.5 11.4 3.8 2.7 12.4 8.5 19 12.9 6.6 4.4 19 12 27.5 16.9 8.5 4.9 21.8 12 29.5 15.9 7.7 3.9 20.5 9.9 28.5 13.3 8 3.5 19.7 8.4 26 10.8 6.3 2.5 16.9 6.4 23.5 8.6 6.6 2.2 16.7 5.3 22.5 6.9 5.8 1.7 15.2 4.2 21 5.6 5.8 1.4 17.5 3.9 26 5.6 8.5 1.7 22 4 30 5 8 1.1 22.2 2.7 31.5 3.6 12.6 1.2 27.5 1.7 57.5 1.7 26.4 0.1 44.3-0.3 51.5-1.1 6.1-0.7 15.3-1.7 20.5-2.3 5.2-0.5 12.4-1.4 16-2 3.6-0.5 9.2-1.4 12.5-2 3.3-0.6 7.8-1.4 10-1.9 2.2-0.5 6.7-1.4 10-2.1 3.3-0.6 13.7-3.1 23-5.5 9.3-2.3 21.3-5.6 26.5-7.2 5.2-1.7 13.8-4.4 19-6.2 5.2-1.8 16.3-5.9 24.5-9.2 8.3-3.3 17-6.9 19.5-8 2.5-1.1 6.1-2.7 8-3.5 1.9-0.9 11.8-5.6 22-10.5 10.2-4.9 24.1-12.1 31-16.1 6.9-3.9 20.2-11.9 29.5-17.7 9.3-5.8 21.3-13.7 26.5-17.4 5.2-3.8 11.8-8.5 14.5-10.4 2.8-1.9 5.8-4.2 6.8-5.1 1-0.9 1.7-2.1 1.5-2.8-0.2-0.7-6.5-7.5-14-15.2-8.7-8.8-14.5-14.1-15.8-14.1-1.1 0-7.1 3.8-13.2 8.4-6.2 4.5-16.7 11.9-23.3 16.3-6.6 4.4-19.9 12.5-29.5 18-9.6 5.5-21.6 12.1-26.5 14.6-4.9 2.5-13.7 6.6-19.5 9.2-5.8 2.6-17.2 7.4-25.5 10.7-8.2 3.3-20.6 8-27.5 10.4-6.9 2.3-17.7 5.8-24 7.7-6.3 2-16.2 4.7-22 6-5.8 1.4-17.2 3.9-25.5 5.6-8.2 1.6-17.9 3.4-21.5 3.9-3.6 0.6-10.3 1.5-15 2.1-4.7 0.6-13.4 1.6-19.5 2.3-7.2 0.9-25.2 1.3-52.5 1.3-26.9 0-45.4-0.5-52.5-1.3-6.1-0.7-14.4-1.8-18.5-2.3-4.1-0.6-14.2-2.2-22.5-3.5-8.2-1.4-18.4-3.2-22.5-4-4.1-0.9-11.3-2.4-16-3.6-4.7-1.1-14.8-3.8-22.5-5.9-7.7-2.2-18.9-5.8-25-8-6.1-2.3-18.2-7-27-10.6-8.8-3.6-22.3-9.6-30-13.2-7.7-3.7-21-10.7-29.5-15.6-8.5-4.9-19.8-11.6-25-14.9-5.2-3.2-12.9-8.2-17-10.9-4.1-2.8-13.3-9.4-20.5-14.8-7.2-5.3-16.4-12.5-20.5-15.9-4.1-3.4-11.6-9.8-16.5-14.3-4.9-4.4-14-13-20-19.1-6.1-6.1-14.9-15.4-19.7-20.6-4.7-5.2-11.4-12.9-14.8-17-3.5-4.1-10.6-13.3-16-20.5-5.3-7.1-12.8-17.7-16.7-23.5-3.8-5.8-8.9-13.6-11.3-17.5-2.3-3.8-7.1-11.7-10.5-17.5-3.5-5.8-10.1-18.1-14.7-27.5-4.6-9.3-10.7-22.2-13.5-28.5-2.8-6.3-7.3-17.6-10.1-25-2.8-7.4-7-20-9.5-28-2.5-8-6.1-21-8.1-29-1.9-8-4.4-19.2-5.5-25-1.2-5.8-2.8-15-3.6-20.5-0.9-5.5-2-13.6-2.5-18-0.6-4.4-1.7-15.9-2.5-25.5-0.9-10.1-1.5-29.1-1.5-45 0-15.1 0.4-32.4 1-38.5 0.6-6.1 1.5-15.5 2.1-21 0.5-5.5 1.4-13.4 2-17.5 0.5-4.1 1.4-10.4 2-14 0.6-3.6 1.7-9.9 2.5-14 0.8-4.1 2.7-12.7 4.1-19 1.4-6.3 3.8-16.4 5.4-22.5 1.6-6.1 5-17.3 7.6-25 2.5-7.7 7.2-20.7 10.5-29 3.3-8.2 8-19.7 10.6-25.5 2.5-5.8 7.8-16.8 11.7-24.5 4-7.7 10.9-20.5 15.5-28.5 4.6-8 11.9-19.9 16.3-26.5 4.4-6.6 11.4-16.7 15.6-22.5 4.1-5.8 10-13.6 12.9-17.5 3-3.8 10.9-13.3 17.6-21 6.8-7.7 19-20.7 27.2-28.9 8.2-8.2 19.8-19.3 25.9-24.6 6.1-5.3 14.4-12.3 18.5-15.6 4.1-3.3 9.1-7.1 11-8.4 1.9-1.4 4.2-3 5-3.7 0.8-0.6 5.8-4.2 11-8 5.2-3.7 14.2-9.7 20-13.3 5.8-3.7 13.2-8.1 16.5-10 3.3-1.8 8.7-4.8 12-6.7 3.3-1.8 14.1-7.3 24-12.2 9.9-4.9 22.9-10.9 29-13.4 6.1-2.5 15.3-6.2 20.5-8.2 5.2-2 13.6-4.9 18.5-6.5 4.9-1.5 13.1-3.9 18-5.3 4.9-1.4 14.6-3.9 21.5-5.5 6.9-1.7 17-3.9 22.5-5 5.5-1.1 13.6-2.5 18-3.2 4.4-0.6 10.3-1.6 13-2 2.8-0.5 10.6-1.4 17.5-2 6.9-0.6 16.7-1.5 21.8-2 5-0.6 21-1 35.5-1 14.4 0 34.8 0.7 45.2 1.5 10.4 0.8 24.4 2.1 31 3 6.6 0.9 15.6 2.2 20 3 4.4 0.8 11.8 2.1 16.5 3 4.7 0.9 15.5 3.4 24 5.6 8.5 2.2 18.7 4.9 22.5 6 3.8 1.2 11.5 3.6 17 5.4 5.5 1.9 13.8 4.8 18.5 6.5 4.7 1.7 9.8 3.8 11.5 4.6 1.7 0.8 3.3 1.4 3.8 1.4 0.4 0 3.1 1.1 6 2.4 2.8 1.3 8.1 3.6 11.7 5.2 3.6 1.5 13.9 6.6 23 11.2 9.1 4.7 21.4 11.4 27.5 15 6.1 3.6 17.8 11.1 26 16.5 8.3 5.5 18.2 12.4 22 15.2 3.8 2.9 9.7 7.5 13 10.3 3.3 2.9 6.2 5.2 6.5 5.2 0.3 0.1 7.3-6.7 15.5-15 8.3-8.3 15.4-15.8 15.9-16.8 0.7-1.3 0.2-2.2-2-4-1.6-1.2-9.8-7.3-18.3-13.5-8.5-6.1-16.6-11.8-18-12.6-1.4-0.8-3-1.8-3.6-2.3-0.6-0.5-2.8-2-5-3.4-2.2-1.5-10.1-6.4-17.5-10.9-7.4-4.5-20.2-11.8-28.5-16.2-8.2-4.3-17.7-9.2-21-10.8-3.3-1.5-8.9-4.1-12.5-5.7-3.6-1.7-8.3-3.8-10.5-4.8-2.2-1-8.9-3.8-15-6.3-6.1-2.5-15.1-5.9-20-7.7-4.9-1.7-15.3-5.2-23-7.6-7.7-2.5-19.2-5.9-25.5-7.5-6.3-1.7-15.6-3.9-20.5-5-4.9-1-12.2-2.6-16-3.4-3.8-0.8-12.2-2.3-18.5-3.4-6.3-1-15.9-2.4-21.2-3-5.4-0.6-14-1.6-19-2.1-5.1-0.6-15.6-1.5-23.3-2-7.7-0.6-24.8-0.9-38-0.9-13.2 0.1-28.5 0.5-34 1z"/>
	</g>
</svg>