<svg version="1.2" xmlns="http://www.w3.org/2000/svg" viewBox="0 0 2400 2000" width="2400" height="2000">
	<title>integra</title>
	<style>
		.s0 { fill: #4f7b30 } 
		.s1 { fill: #11100e } 
		.s2 { fill: #fcfdfb } 
	</style>
	<g id="Background">
		<path id="Path 1" fill-rule="evenodd" class="s0" d="m1569.7 795.3c-1.4 2.8-5.7 11.1-9.5 18.2-3.7 7.2-13.9 26.5-22.4 43-8.6 16.5-15.8 30.7-16 31.5-0.2 0.8-0.8 1.9-1.3 2.5-0.6 0.6-5.6 9.8-11.2 20.5-5.5 10.7-10.3 20.2-10.5 21-0.1 0.8-0.6 1.7-0.9 2-0.3 0.3-4.6 8.4-9.6 18-5 9.6-13.9 27-19.8 38.5-6 11.6-16.2 31.4-22.8 44-6.5 12.7-12.6 23.7-13.4 24.5-1.3 1.3-1.7 1.2-3.6-1.4-1.2-1.6-8.7-10.8-16.6-20.5-7.9-9.7-20.1-24.9-27-33.9-6.9-9-13.8-18.1-15.4-20.3l-2.7-3.9c17.4-12.9 25.6-19.6 29.4-23.1 3.8-3.5 9.8-10.2 13.3-14.9 3.5-4.7 8.1-11.9 10.2-16 2.2-4.1 5.2-11.5 6.7-16.5 2.6-8.1 2.9-10.4 2.9-22.5 0-10.2-0.5-15-1.9-19.5-1-3.3-3.5-9.4-5.7-13.5-2.7-5.5-5.8-9.4-11.1-14.5-4.1-3.8-10.3-8.7-13.8-10.8-3.6-2-10.1-5.1-14.5-6.8-4.4-1.7-13-4.4-19-5.9-6-1.6-17.5-3.8-25.5-4.9-8-1.1-22.6-2.5-32.5-3.1-9.9-0.6-29-1.2-42.5-1.3l-24.5-0.2c0 50.4 0.5 124.1 1 196.3l1 131.2h42.5c0-43-0.5-108.4-1.1-173-0.6-64.6-0.8-119.1-0.4-121l0.7-3.5c17.3 1.3 27.5 2.3 33.8 3.1 6.3 0.8 15.1 2.4 19.5 3.5 4.4 1.1 10.9 3.2 14.5 4.6 3.6 1.4 8.9 4.1 11.7 6 2.9 1.8 7.4 5.4 9.9 8.1 2.6 2.6 5.9 7.2 7.4 10.2 1.5 3 3.3 7.9 3.9 10.8 0.6 2.8 1.1 8.5 1.1 12.5 0 4.1-0.8 10.3-2 14.5-1.1 3.9-3.4 10-5.1 13.5-1.8 3.4-5.1 8.7-7.4 11.7-2.4 3-7.2 8.2-10.7 11.6-3.4 3.3-8.8 8.1-11.8 10.6-3 2.5-11 8.2-17.8 12.7-6.7 4.4-12.2 8.4-12.2 8.9 0.1 0.4 2.2 3.6 4.7 7.2 2.6 3.6 13.9 19.1 25.2 34.5 11.3 15.4 27.2 37 35.5 48 8.2 11 24.3 32.3 35.8 47.3 11.4 14.9 21.1 27.2 21.5 27.2 0.5 0 1.6-1.6 2.5-3.7 1-2.1 5.8-13 10.7-24.3 4.9-11.3 14.9-34.2 22.3-51 7.3-16.8 14.1-31.8 15-33.3 1.4-2 2.6-2.7 5-2.7 1.8 0 12.8-0.5 24.3-1 11.5-0.6 44.7-1.9 73.7-3 29.1-1.1 54.4-2 56.3-2 3.4 0 3.6 0.2 8.2 9.3 2.5 5 8.6 16.6 13.5 25.7 4.9 9.1 9.7 17.3 10.6 18.2 1.6 1.6 1.9 1.5 5.8-2 2.3-2 6.8-5.3 10-7.2 3.2-1.9 9.3-4.8 13.5-6.5 4.2-1.7 7.9-3.3 8.3-3.7 0.3-0.5-6.4-13.5-15-29-8.6-15.6-22.6-41.1-31.2-56.8-8.5-15.7-22.2-40.9-30.5-56-8.3-15.1-23.4-42.3-33.5-60.5-10.2-18.1-21.9-38.6-26-45.5-4.1-6.9-8.1-12.9-9-13.5-0.8-0.5-1.3-1.6-1-2.2 0.3-0.7 0.2-1.3-0.2-1.3-0.3 0-1.8 2.4-3.3 5.3zm-431.2 5.2c-6.6 1.8-17.6 5.2-24.5 7.5-6.9 2.4-16.6 6-21.5 8.2-5 2.2-14.4 6.6-21 10-6.6 3.3-15.8 8.3-20.5 11-4.7 2.8-13.5 8.3-19.5 12.4-6.1 4-15.3 10.7-20.5 14.9-5.2 4.2-14.6 12.2-20.9 17.8-6.3 5.6-14.6 13.8-18.5 18.2-4 4.4-9.1 10.4-11.4 13.3-2.3 2.8-3.9 5.2-3.5 5.2 0.5 0 0.1 0.5-0.7 1-0.8 0.5-1.5 1.4-1.5 1.9 0 0.6-0.9 1.7-2 2.6-1.1 0.9-1.3 1.4-0.5 1 0.8-0.4 0.4 0.3-1 1.5-1.4 1.2-1.8 1.9-1 1.5 0.8-0.4 0.4 0.3-1 1.5-1.4 1.2-1.8 1.9-1 1.5 0.8-0.4 0.6 0.1-0.5 1-1.1 0.9-1.9 2.1-1.8 2.6 0.2 0.5-0.2 0.9-0.7 0.9-0.6 0-0.8 0.5-0.5 1 0.3 0.6-0.2 1.2-1 1.5-0.8 0.3-1.3 1.2-1 2 0.3 0.8 0 1.3-0.5 1-0.6-0.3-1.2 0.3-1.5 1.3-0.3 0.9-0.4 2.2-0.4 2.7 0 0.6-0.4 1.2-0.9 1.5-0.5 0.3-1.9 2.4-3.1 4.8-1.1 2.3-1.9 4.7-1.6 5.2 0.3 0.6 0 1-0.5 1-0.6 0-2.3 4.4-4 9.8-1.6 5.3-3.6 13.5-4.4 18.2-0.8 4.7-1.8 11.9-2.1 16-0.4 4.1-0.2 12.5 0.4 18.5 0.6 6.1 2.2 15.5 3.6 21 1.4 5.7 4.5 14.1 7.2 19.5 2.6 5.2 7.3 12.9 10.4 17 3.1 4.1 9.4 11.1 14 15.5 4.6 4.4 12.7 10.9 17.9 14.4 5.2 3.5 14.4 8.8 20.5 11.8 6 3.1 16.2 7.3 22.5 9.4 6.3 2.1 15.8 4.8 21 5.9 5.2 1.2 14 2.8 19.5 3.6 5.5 0.8 19.9 1.8 32 2.1 13.8 0.4 27 0.1 35.5-0.6 7.4-0.7 19.8-2.3 27.5-3.6 7.7-1.3 18.5-3.5 24-4.9 5.5-1.4 12.1-3.4 14.7-4.5l4.8-2.1c0-98-0.4-128.2-0.8-130.3l-0.7-3.7h-42c1.3 32.9 1.3 57.5 0.8 75.9l-0.8 33.3c-3.9 1.6-10.2 3.1-16.5 4.4-6.3 1.3-17.1 2.8-24 3.3-8 0.7-17.3 0.7-26 0-7.4-0.5-18.9-2-25.5-3.4-6.6-1.3-16.1-3.8-21-5.5-5-1.8-12.6-5.1-17-7.5-4.4-2.4-11.6-7-16-10.2-4.4-3.3-10.5-8.7-13.6-11.9-3.1-3.2-7.9-9.5-10.8-13.9-2.9-4.4-6.5-11.4-8.1-15.5-1.5-4.1-3.6-10.4-4.6-14-1.3-4.8-1.8-10.3-1.9-21 0-10.8 0.5-16.5 1.9-22.5 1-4.4 2.7-10.7 3.8-14 1-3.3 3.6-9.6 5.7-14 2.2-4.4 6.7-12.3 10.2-17.5 4.3-6.5 10.7-13.9 20.3-23.6 7.8-7.7 17.7-16.8 22.1-20.1 4.4-3.3 11.8-8.5 16.5-11.6 4.7-3 16.4-9.6 26-14.5 9.6-5 22.7-11 29-13.5 6.3-2.5 16.7-6.1 23-8 6.3-1.9 16.2-4.5 22-5.8 5.8-1.2 10.8-2.5 11.2-2.8 0.4-0.3-1.1-8.5-3.2-18.1-2.2-9.6-4.2-18.5-4.5-19.7-0.3-1.4-1.2-2.3-2.3-2.2-0.9 0-7.1 1.5-13.7 3.4zm-668.9 1.8c-0.3 0.7-0.4 9.8-0.2 20.2l0.1 19c0.4-34.5 0.8-39.6 1.7-39.9 1-0.4 1-0.5 0-0.5-0.7-0.1-1.4 0.5-1.6 1.2zm1556.9 0.4c1.6 0.2 4.8 0.2 7 0 2.2-0.2 0.8-0.4-3-0.4-3.9 0-5.7 0.2-4 0.4zm-1281.2 11.3c0 4.1 0.2 5.9 0.4 4 0.2-1.9 0.2-5.3 0-7.5-0.2-2.2-0.4-0.6-0.4 3.5zm156.2 16.7c2.7 0.2 6.8 0.2 9 0 2.2-0.2-0.1-0.3-5-0.3-5 0-6.8 0.1-4 0.3zm1378.9 11.3c0 6.3 0.1 8.8 0.3 5.5 0.2-3.3 0.2-8.5 0-11.5-0.2-3-0.3-0.3-0.3 6zm-1720.4-5.3c1.9 0.2 5.3 0.2 7.5 0 2.2-0.2 0.6-0.4-3.5-0.4-4.1 0-5.9 0.2-4 0.4zm-161.7 47.8c0 3.9 0.2 5.2 0.4 3 0.2-2.2 0.2-5.3 0-7-0.2-1.6-0.4 0.2-0.4 4zm186 9.5c0 4.7 0.2 6.5 0.4 4 0.2-2.5 0.2-6.3 0-8.5-0.2-2.2-0.4-0.2-0.4 4.5zm-415 20.5c0 3.9 0.2 5.2 0.4 3 0.2-2.2 0.2-5.3 0-7-0.2-1.6-0.4 0.2-0.4 4zm2113.1 3c0 5 0.1 7.2 0.3 5 0.2-2.2 0.2-6.2 0-9-0.2-2.7-0.3-0.9-0.3 4zm-1885 40c0 9.9 0.2 13.7 0.3 8.5 0.2-5.2 0.2-13.3 0-18-0.1-4.7-0.3-0.4-0.3 9.5zm427.1-3.8c2.2 0.2 6 0.2 8.5 0 2.5-0.2 0.7-0.4-4-0.4-4.7 0-6.7 0.2-4.5 0.4zm1437.8 29.3c0 4.1 0.2 5.9 0.4 4 0.2-1.9 0.2-5.3 0-7.5-0.2-2.2-0.4-0.6-0.4 3.5zm-2094 2.5c0 3.9 0.2 5.2 0.4 3 0.2-2.2 0.2-5.3 0-7-0.2-1.6-0.4 0.2-0.4 4zm656.7-0.8c3 0.2 8.2 0.2 11.5 0 3.3-0.2 0.8-0.3-5.5-0.3-6.3 0-9 0.1-6 0.3zm-6.5 56.8c0 21.5 0.1 30 0.2 19 0.2-11 0.2-28.5 0-39-0.1-10.4-0.2-1.4-0.2 20zm-236.1-12c0 9.3 0.2 13.4 0.3 9 0.2-4.4 0.2-12 0-17-0.1-4.9-0.3-1.3-0.3 8zm1310.9 12c0 3.8 0.2 5.2 0.4 3 0.2-2.2 0.2-5.3 0-7-0.2-1.7-0.4 0.2-0.4 4zm-176.4 24.2c-0.3 0.4-1.1 0.8-1.9 0.9-0.8 0.1-4.4 1.3-8 2.8-3.6 1.4-8.6 4.1-11.2 5.8-2.7 1.8-4.8 3.9-4.8 4.6 0 0.6 0.8 1.5 1.7 1.9 1.1 0.3 2.2 0 2.8-0.8 0.5-0.8 2.7-2.5 4.7-3.7 2.2-1.3 4-1.8 4.3-1.2 0.3 0.6-1.4 4.7-3.6 9.3-2.3 4.5-5 10.6-6 13.5-1.1 2.8-1.7 5.9-1.4 6.7 0.3 0.8 0 1.5-0.5 1.5-0.6 0-1.4 2.8-2 6.3-0.5 3.4-1 8.9-1 12.2 0 3.3 0.4 7 0.8 8.3q0.7 2.3 2.6 2c1.4-0.2 3-3.3 6.3-12.3 2.5-6.6 5.1-12.7 5.8-13.5 1.1-1.3 1.4-0.3 1.7 6.2 0.2 5.7 0.8 8.2 2.1 9.5 1.4 1.5 1.7 1.5 1.7 0.3 0-0.8 1.7-5.1 3.8-9.5 2.2-4.4 5.6-10.7 7.7-14 2.1-3.3 4.3-6.3 4.9-6.7 0.6-0.4 1.4 0 1.7 1 0.3 1-1.8 6.3-5.3 13.2-3.4 6.7-5.8 12.7-5.8 14.5 0 1.7 0.4 3.5 0.8 4.2 0.4 0.7 1.6 1.1 2.8 1 1.1-0.1 2-0.7 2-1.4-0.1-0.6-0.4-0.9-0.9-0.7-0.4 0.2-0.4-0.8 0-2.3 0.3-1.6 1.5-5.3 2.5-8.3 1.1-3 2.1-6.5 2.4-7.7 0.2-1.3 0.8-2.3 1.4-2.3 0.5 0 0.8-0.4 0.5-1-0.3-0.5 0.1-1 0.7-1q1.3 0-0.2-1c-1.3-0.8-1.2-1 0.2-1 1.2 0 1.7-0.6 1.4-1.7-0.2-1 0.1-2.6 0.5-3.5 0.5-1 1.6-1.8 2.4-1.8 0.8 0 2.2-1.1 3-2.5 0.8-1.4 1.2-2.5 0.7-2.5-0.4 0 0.2-0.6 1.3-1.5 1.1-0.8 1.7-1.5 1.2-1.5-0.4 0 0.3-1.1 1.5-2.4 1.3-1.3 3.5-4.6 5-7.5 2.3-4.2 2.5-5.2 1.3-5.6-0.8-0.3-3 0.4-4.8 1.4-1.7 1.1-6.4 5.2-10.3 9.3-3.8 4-8 8.8-9.2 10.6-1.2 1.7-1.9 3.2-1.5 3.2 0.5 0-0.2 0.9-1.5 2-1.2 1.1-2.7 3.2-3.4 4.8l-1.2 2.7c-0.5-3.9 0.2-7.2 1.3-10 1-2.7 3.3-7.9 5-11.5 1.7-3.6 3.1-7.1 3.1-7.7 0-0.7-0.6-1.3-1.3-1.3-0.6 0-3.1 1.2-5.4 2.7-2.3 1.6-5.7 4.8-7.6 7.3-1.9 2.5-5.5 8.6-8 13.5-2.6 5-4.7 10.7-4.9 12.7-0.2 2.3-0.7 3.3-1.3 2.7-0.6-0.5-1.4-0.6-1.8-0.1-0.4 0.4-0.7 0-0.7-0.8 0-0.8 0.7-4.2 1.5-7.5 0.9-3.3 3.9-10.3 6.7-15.5 2.8-5.2 6.9-12.2 9.1-15.5 2.2-3.3 4.1-6.6 4.1-7.3 0.1-0.7 0.8-1.7 1.6-2.2 0.8-0.5 1-1 0.4-1-0.6 0-1.3 0.3-1.5 0.7zm-1550.5 13.8c0 7.7 0.2 10.6 0.3 6.5 0.2-4.1 0.2-10.4 0-14-0.2-3.6-0.3-0.2-0.3 7.5zm1587.1 12.7c-1.1 0.6-4.8 3.8-8.3 7.2-3.5 3.3-7.8 7.9-9.5 10.1-1.8 2.1-2.6 3.6-2 3.2 0.7-0.4 1.5-0.2 1.8 0.3 0.3 0.6-0.1 1.1-0.8 1.1-0.6 0.1-1.4 0.1-1.7 0-0.3 0-1.4 0.9-2.5 2.2l-2 2.2c3.1-2.7 4.3-3.2 4.8-2.8 0.4 0.5 2.1-0.5 3.7-2.2 1.7-1.7 3.1-2.8 3.1-2.5 0.1 0.3 0.2 3.2 0.3 6.5 0.1 3.9 0.9 7.1 2.1 9.2 1.1 1.8 3 3.7 4.2 4.3 1.3 0.5 3 1 3.8 1 0.8 0 1.5-0.7 1.5-1.5 0-0.8-1-2.3-2.3-3.2-1.2-1-3.4-3.3-5-5-1.5-1.8-2.7-3.9-2.6-4.5 0-0.8 0.3-0.7 0.6 0.2 0.3 0.9 2-1.6 4.3-6.5 2-4.4 5.1-10.2 6.9-13 1.7-2.7 3.1-5.6 3.1-6.2 0-0.7-0.3-1.3-0.8-1.3-0.4 0-1.6 0.6-2.7 1.2zm-924.5 8.5c3.6 0.2 9.9 0.2 14 0 4.1-0.1 1.2-0.3-6.5-0.3-7.7 0-11.1 0.1-7.5 0.3zm953.6 4.1c-0.8 0.9-2.8 5.1-4.4 9.2-1.6 4.1-3.5 10-4.1 13-0.7 3-1.6 8.8-2.1 12.8-0.7 4.7-0.7 7.9 0 9.2 0.8 1.7 2 2 7.5 2h6.5c7.9-16.7 11.1-22.8 12.3-24.5 1.1-1.7 2.2-3.9 2.3-5 0.1-1.1 0.6-2.8 1.1-3.9 0.7-1.5 0.5-1.7-1.1-1.2-1.1 0.3-3.1 2.6-4.5 5-1.4 2.5-3.1 4.4-3.6 4.3-0.6-0.1-1.3-0.6-1.7-1.2-0.4-0.5-0.3-1.6 0.3-2.2 0.5-0.7 0.7-1.7 0.4-2.3-0.3-0.5 0.1-0.9 0.7-0.7 0.7 0.1 1.3-0.5 1.3-1.4 0-0.9 0.2-1.5 0.5-1.3 0.3 0.2 1.4-0.5 2.5-1.7 1.1-1.1 1.5-1.9 1-1.9-0.6 0.1-0.4-0.6 0.2-1.5 0.7-0.8 1-1.7 0.5-2-0.4-0.2-1.6 0.5-2.7 1.6-1.1 1.1-1.6 1.9-1 1.7 0.5-0.1 1.1 0 1.2 0.5 0.2 0.4 0 0.7-0.5 0.8-0.4 0.1-1.5 0.5-2.5 1-0.9 0.5-1.5 1.4-1.2 1.9 0.3 0.6-0.1 1.2-0.8 1.5-0.6 0.2-3.2 3.7-5.6 7.7-2.4 4-5.4 8.7-6.5 10.5-1.2 1.7-2.2 3.1-2.4 3-0.2-0.1 0.2-2.9 0.8-6.2 0.7-3.3 3.2-11.1 5.6-17.2 2.4-6.2 4.4-11.5 4.4-11.7-0.1-0.2-0.7-0.6-1.5-0.9-0.8-0.3-2.1 0.2-2.9 1.1zm145.4 16c-1.2 3.1-3.1 9.1-4.2 13.2-1.2 4.1-2.1 10-2 13 0 3 0.5 8 1.1 11l1 5.5c-0.7-11.2-0.6-14.3-0.2-14.1 0.5 0.3 1.1-1.4 1.5-3.7 0.4-2.3 2.2-9.8 4.1-16.5 1.9-6.8 3.2-12.8 3-13.3-0.1-0.5-0.7-0.9-1.2-0.9-0.6 0-1.9 2.6-3.1 5.8zm-197.8-2.3c-1.3 0.7-3.2 2.6-4.2 4.1-1 1.7-1.5 3.6-1.2 4.6 0.4 1 0.9 1.5 1.2 1.2 0.3-0.3 0.6-1 0.7-1.5 0.2-0.5 0.3-1.3 0.3-1.9 0-0.5 0.6-0.7 1.2-0.3 1 0.5 1 0.4 0.1-0.8-0.8-0.9-0.9-1.9-0.3-2.9q1-1.5 1-0.2c0 0.6 0.4 1.1 1 1 0.5-0.2 1-0.6 1-1 0-0.5 0.8-1.5 1.7-2.3 1-0.8 1.3-1.4 0.8-1.4-0.6 0.1-2 0.7-3.3 1.4zm32.4 8.3c-1.4 3.1-2.9 8-3.2 10.7-0.4 2.8-0.4 6.7 0 8.8 0.4 2.8 1.1 3.8 2.8 4.1 1.3 0.2 2.8 0.1 3.4-0.3 0.7-0.4 1.3-6.1 1.6-14.8 0.5-11.2 0.3-14.3-0.7-14.3-0.7 0-2.4 2.6-3.9 5.8zm585.3-1.2c-1.4 1.6-4.6 5.6-7.1 8.9-2.5 3.3-6.6 7.9-9.2 10.3-2.5 2.3-4.8 3.9-5.1 3.5-0.3-0.5-0.5 0-0.5 1 0 1.1-0.5 1.5-1.5 1.2-0.8-0.3-1.4 0-1.3 0.6 0.2 0.6-2.1 3.1-5 5.5-2.8 2.4-5.7 4.2-6.2 3.9-0.6-0.3-2.2 1-3.6 2.8-1.4 1.7-3.7 4.6-5.2 6.2-1.5 1.7-3.3 3.4-4 3.8-0.7 0.4-1.1 0.2-1-0.5 0.2-0.7-0.3-1.2-1-1-0.8 0.1-1-0.6-0.7-2 0.5-1.9 0.4-1.9-0.5 0.2-0.7 1.8-0.7 2.9 0.2 3.8 1.1 1.1 1 1.2-0.7 0.5-1.7-0.7-1.8-0.5-1.2 1.5 0.5 1.6 0.4 2-0.5 1.5q-1.3-0.8-0.6 0.7c0.4 0.8 0.1 2-0.5 2.7-0.9 0.9-0.4 1.3 2.3 1.7 1.9 0.3 5.2 0.7 7.2 1 2.3 0.4 3.8 0.2 3.8-0.4 0-0.5 0.4-0.8 1-0.5 0.5 0.3 3.1-2 5.7-5.2 2.7-3.1 6.1-7 7.8-8.8 1.6-1.7 3.1-3.5 3.2-3.8 0.2-0.4 0.5-1 0.8-1.4 0.3-0.5 0.3 0.5 0.1 2.2-0.3 1.7-0.8 8.3-1.3 14.8l-0.8 11.9c7.6-0.7 7.7-0.8 10.8-8.4 1.8-4.2 4-8.5 5.1-9.5 1.8-1.8 1.8-1.6 1 4.2-0.4 3.3-0.8 7.6-0.8 9.5-0.1 3.3 0.1 3.5 3.4 3.8 3.4 0.2 3.6 0.1 7.5-7.3 2.2-4.1 4.6-7.8 5.2-8 1-0.4 1.3 1 1.3 4.8 0 3 0.9 6.9 2 9.5 1.4 2.9 2.6 4.2 4 4.2 2 0 2 0-0.1-6.2-1.4-4.5-1.9-7.6-1.5-10.8 0.4-2.5 1.5-7.4 2.6-11 1.1-3.6 2-7.5 2-8.7 0-1.3-0.6-2.3-1.3-2.3-0.6-0.1-4.1 3.2-7.6 7.2-4.4 5-6.2 6.5-5.7 4.8 0.4-1.4 2.5-6.1 4.7-10.5 2.1-4.4 3.9-8.8 3.9-9.7 0-1-0.6-1.8-1.3-1.8-0.6 0-3.2 1.5-5.7 3.4-2.5 1.9-7.1 6.7-10.4 10.8-3.2 4-6.6 8.5-7.5 10.1-0.9 1.5-2.1 2.6-2.6 2.4-0.6-0.2-0.8-1.5-0.7-2.8 0.2-1.3 1.5-5.1 2.9-8.4 1.4-3.3 5.8-12.4 9.9-20.2 4.1-7.9 7.3-15.2 7.1-16.4-0.3-2-0.4-2-2.8 0.7zm-1917.6 9.9c0 4.4 0.2 6 0.4 3.5 0.2-2.5 0.2-6.1 0-8-0.2-1.9-0.4 0.1-0.4 4.5zm1503.8 4.7c-2.9 6.1-4.1 10.1-4.6 15.3-0.3 3.8-0.8 8.5-1 10.3-0.4 2.4-0.2 3 0.7 2.5q1.3-0.8 0.5 0.5c-0.4 0.6-1.4 1.2-2.2 1.2-0.8 0-1.9-0.8-2.5-1.7-0.5-1-0.9-1.3-0.9-0.8 0 0.6 0.7 1.8 1.7 2.8 0.9 1 1.2 1.8 0.7 1.7-0.6 0-1.6-0.5-2.2-1.2-0.7-0.7-1.5-1-1.8-0.5-0.3 0.4 0.4 1.2 1.5 1.7q2 1 4 0c1.4-0.7 2.2-0.7 2.6 0.3q0.6 1.2 1.6 0.2c0.6-0.6 0.5-1.8-0.4-3.2-1-1.8-1.1-2.7-0.1-4.7 0.7-1.4 1.3-5.2 1.4-8.3 0-3.2 0.4-6.7 0.9-7.8 0.7-1.9 0.8-1.8 1.3 0.5 0.3 1.4 1 6.4 1.6 11.3 0.6 4.8 1.3 9.2 1.6 9.7 0.3 0.6 0.9 1 1.5 1 0.5 0 0.8-0.4 0.5-1-0.3-0.5 0.1-0.8 0.7-0.5 1 0.4 1.5-1.7 2-7.7 0.5-6.6 0.3-8.9-1-11.3-0.9-1.7-1.6-5.5-1.6-9-0.1-3.3 0-6.7 0.1-7.5 0.1-0.8-0.4-1.6-1.2-1.8q-1.4-0.3-5.4 8zm40.6-6.2c-0.9 1.4-2.3 4.8-3.2 7.5-0.8 2.8-2.6 10.1-4 16.3-1.4 6.1-2.6 13.2-2.8 15.7-0.1 3.2 0.3 4.9 1.3 5.5 0.8 0.5 3.3 1.2 5.5 1.6 2.6 0.4 5 0.2 6.9-0.7 2.4-1.1 3.7-3.3 7.1-11.4 2.3-5.5 5.1-11.9 6.3-14.2 1.3-2.6 1.8-4.5 1.2-4.8-0.6-0.3-0.7-1.2-0.3-2.1 0.5-0.8 1.4-1.3 2-1 0.7 0.3 1.2 0.1 1-0.6-0.1-0.6-0.8-1.3-1.5-1.5-0.6-0.1-2.6 1.8-4.2 4.5-1.7 2.6-3.5 4.8-4 5-0.6 0.1-1.3 0.2-1.8 0.2-0.4 0 0 0.5 0.8 1 0.8 0.5 1 1 0.5 1-0.6 0-1.3-0.2-1.8-0.5-0.4-0.3 0-2 0.8-3.7 0.8-1.8 1.1-3.6 0.7-4.1-0.4-0.4-0.1-0.7 0.5-0.7 0.7 0 1.8-1 2.4-2.2 0.9-2 0.8-2.1-0.3-0.6-0.7 1-2.1 1.7-3.1 1.8-1.1 0-1.5 0.6-1.2 1.5 0.3 0.8 0 1.3-0.5 1-0.6-0.3-3 3.7-5.4 8.8-2.4 5-5.1 9.9-6 10.7-1.5 1.3-1.7 1.3-1.7 0 0.1-0.8 0.5-4 1.1-7 0.5-3 2.4-10.1 4-15.7 2-6.9 2.7-10.9 2.1-12-0.8-1.6-1-1.6-2.4 0.7zm-1182.7 0.7c1.9 0.2 5.3 0.2 7.5 0 2.2-0.2 0.6-0.4-3.5-0.4-4.1 0-5.9 0.2-4 0.4zm1154.8 4.7c-1.2 0.8-2 3.2-2.4 6.7-0.5 5.2-0.4 5.7 4.2 12.9 4.1 6.4 4.9 8.4 5.4 13.9 0.4 5.4 0.8 6.5 2.7 7.2 1.8 0.7 2.5 0.5 3-0.8 0.3-1 0.7-7.5 0.7-14.5 0.1-7.7-0.3-12.9-0.9-13-0.5-0.2-1.9 2.1-3 4.9-1.9 4.9-2.1 5.1-3.5 3.5-0.8-1-1.7-2.5-1.9-3.3-0.2-0.8-0.5-5.3-0.8-10.1-0.3-4.9-0.8-8.8-1.1-8.8-0.4 0-1.5 0.7-2.4 1.4zm183.6 24.2c-1.6 1.3-3.4 2.3-4 2.4-0.6 0-2.7 1.5-4.7 3.3-2 1.7-3.4 3.5-3.2 4 0.3 0.4-0.3 0.9-1.3 1.2-0.9 0.3-2.2 0.1-2.7-0.5q-1-1 0.5-1c1.3 0.1 1.3-0.1 0-1.5-0.8-0.8-1.2-1.9-0.7-2.3 0.4-0.4 0.7-0.1 0.7 0.6 0 0.6 0.3 1.2 0.7 1.2 0.5 0 0.8-0.8 0.8-1.9 0-1.6-0.3-1.7-2.3-0.7-1.2 0.6-2.7 2.3-3.2 3.9-0.6 1.5-0.7 3.5-0.3 4.5 0.5 1.2 0.4 1.5-0.5 1-0.7-0.5-1.1-0.3-1 0.5 0 0.6-0.2 1.9-0.6 2.7-0.4 0.8-0.6 2.4-0.4 3.5 0.2 1.3 1.2 2.1 2.8 2.3 1.4 0.2 4.4-0.1 6.7-0.7 2.7-0.7 6.2-2.8 9.3-5.6 3.2-2.9 4.7-5 4.3-5.7-0.5-0.8-0.4-1 0.2-0.6 0.6 0.4 2.9-1.2 5.2-3.6 2.3-2.3 3.6-4.2 2.8-4.2-0.7 0.1-1.1 0.4-0.9 0.9 0.2 0.4-0.3 1.3-1.1 2-1.3 1-1.6 0.9-1.5-0.5 0-1 1.2-2.7 2.7-3.8 1.6-1.1 3.2-1.7 3.8-1.5 0.5 0.3 0.6 0.2 0.2-0.2-0.5-0.5-1.3-0.9-1.8-1-0.5-0.2-1-0.3-1.2-0.4-0.1 0-1.6-0.2-3.3-0.3-2.2-0.3-4.1 0.4-6 2zm-1683.4 66.1c4.1 0.2 10.6 0.2 14.5 0 3.8-0.1 0.5-0.3-7.5-0.3-8 0-11.1 0.2-7 0.3zm-350.6 15.8c0 8.8 0.2 12.2 0.3 7.5 0.2-4.7 0.2-11.9 0-16-0.1-4.1-0.3-0.3-0.3 8.5zm208.9-7.5c0 4.7 0.2 6.5 0.4 4 0.2-2.5 0.2-6.3 0-8.5-0.2-2.2-0.4-0.2-0.4 4.5zm190.1 9c0 9.6 0.2 13.5 0.3 8.5 0.2-4.9 0.2-12.8 0-17.5-0.1-4.7-0.3-0.6-0.3 9zm185 0.5c0 9.9 0.2 13.7 0.3 8.5 0.2-5.2 0.2-13.3 0-18-0.1-4.7-0.3-0.4-0.3 9.5zm9-3.5c0 8 0.2 11.3 0.3 7.5 0.2-3.8 0.2-10.4 0-14.5-0.1-4.1-0.3-1-0.3 7zm430 7.5c0 9.3 0.2 13.4 0.3 9 0.2-4.4 0.2-12 0-17-0.1-4.9-0.3-1.3-0.3 8zm-670.1-3c0 4.4 0.2 6 0.4 3.5 0.2-2.5 0.2-6.1 0-8-0.2-1.9-0.4 0.1-0.4 4.5zm914.1 6.5c0 7.4 0.1 10.3 0.3 6.5 0.2-3.8 0.2-9.9 0-13.5-0.2-3.6-0.3-0.4-0.3 7zm447 5c0 5.2 0.1 7.3 0.3 4.5 0.2-2.7 0.2-7 0-9.5-0.2-2.5-0.3-0.2-0.3 5z"/>
		<path id="Path 2" fill-rule="evenodd" class="s1" d="m1722.6 721.3c-0.3 0.6-1.1 5.3-2 10.2-0.9 5-2.9 11.7-4.4 15-1.6 3.3-4.8 8.7-7.1 12-2.3 3.3-5.1 8.4-6.1 11.3-1.1 2.8-2 7.6-2 10.5 0 2.8 0.3 6.8 0.7 8.7 0.4 1.9 4.4 8.6 9 15 5.6 7.8 9.1 13.9 11 19 1.4 4.1 3.4 8.6 4.2 9.9 1.4 2 2.1 2.2 5.1 1.7 1.9-0.3 6.3-2 9.8-3.6 3.4-1.7 6.9-3 7.7-3 1.2 0 1.4 1 0.9 5.8-0.3 3.1-1.5 8.2-2.5 11.2-1.1 3-2.8 6.4-3.9 7.5-1.1 1.1-2.3 1.7-2.7 1.2-0.4-0.4 0-2.3 1-4.2 0.9-1.9 1.7-4.4 1.7-5.5 0-1.9-0.3-1.8-5.2 0.9-2.9 1.6-7.8 3.4-10.8 4.1-3 0.6-8.7 0.8-12.5 0.5-3.8-0.3-10.6-1.5-15-2.5-4.4-1.1-9.7-2.8-11.8-3.8-2.7-1.2-4-1.4-4.5-0.6-0.4 0.6-2.3 1.9-4.2 2.9-1.9 1-5.3 1.8-7.5 1.8-2.2 0-5.9-1-8.2-2.2-2.4-1.1-4.3-2.3-4.3-2.6 0-0.3 0.6-1.1 1.3-1.8 0.6-0.7 3.2-2.9 5.7-4.8 2.5-2 4.8-4.5 5.1-5.5 0.4-1.1 0.1-2.6-0.5-3.5-0.6-0.9-2.1-2.1-3.3-2.7-1.3-0.7-3.8-1-5.5-0.8-1.8 0.3-4.1 0.9-5.2 1.3-1 0.4-2.4 2.2-3.2 3.8-0.7 1.7-2.3 3.2-3.6 3.5-1.3 0.3-3.3 0.4-4.5 0.3-1.6-0.2-2.9-1.6-4.3-4.8-1.1-2.5-2.6-4.5-3.3-4.5-0.7 0-1.8 0.6-2.5 1.3-0.7 0.6-1.2 3-1.2 5.2 0 2.2 0.6 5.7 1.5 7.8 0.8 2 2.5 4.4 3.8 5.2 1.2 0.8 3.8 1.8 5.7 2.2 1.9 0.3 6.7 2.6 10.5 5 3.9 2.4 8.1 4.3 9.5 4.3 1.4 0 5.9-1.1 10-2.5l7.5-2.6c20.2 3.2 29.4 4.2 33.5 4.3 4.1 0.2 10.1-0.1 13.3-0.5 4.3-0.5 5.7-0.4 5.7 0.6 0 0.6 1.8 3.7 3.9 6.7 2.2 3 4.4 6 4.9 6.5 0.4 0.6 2.3 3.3 4.2 6 1.9 2.8 5.3 9.5 7.5 15 2.3 5.5 6.8 16.5 10 24.5 3.1 8 6 14.9 6.4 15.3 0.3 0.4 3.1-0.3 6.1-1.6 3-1.3 7-3.7 8.9-5.3 1.8-1.6 4.1-4.5 5.1-6.4 0.9-1.9 2.7-6.4 3.9-10 1.2-3.6 4-8.7 6.2-11.5 2.2-2.7 5.7-7.5 7.9-10.5 2.1-3 5.2-9.1 6.9-13.5 1.7-4.4 3.3-10.2 3.7-13 0.3-2.8 0.1-7-0.6-9.5-0.6-2.5-3.5-8.3-6.3-12.9l-5.2-8.4c4.8-4 7.7-6.5 9.6-8 1.9-1.6 10.3-7.4 18.7-13l15.3-10.2c-11.4-2.8-18.7-5.8-24.1-8.7-5.2-2.9-20.7-10.8-34.5-17.7-24.7-12.5-25-12.7-30.3-19.1-2.9-3.6-7.7-9.2-10.5-12.4-2.9-3.3-7.4-7.4-10.2-9.2-2.7-1.8-7.7-4-11-4.9-3.3-0.8-6.6-1.5-7.3-1.5-0.7 0-1.4 0.6-1.6 1.3zm-70.6 15.8c-1.4 0.6-3.3 1.8-4.3 2.7-1.1 1-1.7 3.1-1.7 5.2 0 1.9 1.1 5.8 2.4 8.5 1.3 2.8 3.6 6.3 5.2 7.9 1.6 1.6 4.5 3.9 6.4 5.1 1.9 1.3 6 2.8 9 3.5 3 0.6 6.1 0.9 6.8 0.6 0.6-0.3 1.7-3 2.3-5.8 0.7-2.9 1.8-6.6 2.7-8.3 0.8-1.6 2.5-4.5 3.8-6.2 1.3-1.8 2.4-3.7 2.4-4.3 0-0.5-1.1-0.8-2.5-0.5-1.4 0.3-3.5 0-4.7-0.6-1.3-0.6-4-2.8-6.1-4.8-3.6-3.4-4.1-3.6-11.5-3.8-4.2-0.2-8.8 0.2-10.2 0.8zm-1514.2 58.2c0 5-0.1 9.9 0 10.7 0 0.8-0.4 8.5-0.8 17-0.5 8.5-1.2 19.8-1.5 25-0.3 5.2-0.7 14.5-1 20.5-0.3 6-0.7 16-1 22-0.3 6-0.8 14.8-1 19.5-0.3 4.7-0.8 12.1-1 16.5-0.3 4.4-0.7 13-1 19-0.3 6-0.8 14.8-1 19.5-0.3 4.7-0.7 13.5-1 19.5-0.3 6-0.7 13.9-1 17.5-0.2 3.6-0.7 12.4-1 19.5-0.3 7.2-0.7 16.2-1 20-0.3 3.8-0.7 11-1 16-0.2 5-0.7 14.4-1 21-0.3 6.6-0.8 14.5-1 17.5-0.2 3-0.7 12-1 20-0.4 8-0.8 15.2-1.1 16-0.2 0.8 0.1 2.3 0.8 3.2 1 1.3 3.7 1.8 12.3 2.3 6.1 0.3 12.8 0.8 15 1 2.2 0.3 6.8 0.6 10.2 0.7 3.4 0.2 6.4 0.1 6.7-0.2 0.3-0.3 0.6-13.3 0.6-29 0.1-15.7 0.5-44.5 1-64 0.5-19.5 1.2-49.9 1.5-67.5 0.3-17.6 0.8-45.7 1.2-62.5 0.4-16.8 0.7-32.5 0.7-34.9 0.1-2.4 0.6-4.5 1.1-4.7 0.6-0.1 3 2.1 5.4 4.9 2.4 2.9 8 9.2 12.5 14.1 4.5 4.9 8.8 9.6 9.7 10.5 0.8 0.9 8.5 9 16.9 18.1 8.4 9.1 19.2 20.5 23.8 25.5 4.7 5 13.3 14 19.1 20 5.8 6 16.6 17.3 24 25 7.4 7.7 20.3 21 28.5 29.5 8.3 8.5 22.7 23.4 32.1 33 9.3 9.7 24 24.7 32.5 33.5 8.5 8.8 24.1 24.9 34.7 35.8 10.6 10.8 19.4 19.7 19.6 19.7 0.1 0 0.2-4.2 0.2-9.2 0-5.1 0.2-19.2 0.3-31.3 0.2-12.1 0.7-28.5 1.2-36.5 0.5-8 1.2-21.5 1.5-30 0.3-8.5 0.8-21.3 1-28.5 0.3-7.1 1-20.2 1.6-29 0.5-8.8 1.1-19.1 1.4-23 0.2-3.8 0.7-12.8 1-20 0.4-7.1 0.8-14.8 1-17 0.2-2.2 0.6-9.6 1-16.5 0.4-6.9 0.8-14.3 1-16.5 0.2-2.2 0.7-22.1 1.2-44.1l0.8-40.1c-16.3-1-25.9-1.4-31.8-1.6-8.7-0.2-11 0.1-11.7 1.3-0.5 0.8-0.9 17.3-1 36.5 0 19.3-0.3 40.9-0.5 48-0.2 7.2-0.7 44.3-1.1 82.5-0.4 38.2-0.8 72.3-0.8 75.7-0.1 3.5-0.3 6.3-0.6 6.3-0.3 0.1-2.5-2.1-4.9-4.7-2.4-2.6-9.8-10.4-16.4-17.3-6.6-6.9-17.3-17.9-23.6-24.5-6.4-6.6-18.3-19-26.5-27.5-8.2-8.5-18.8-19.5-23.6-24.5-4.7-4.9-13-13.7-18.5-19.5-5.4-5.8-16.4-17.3-24.4-25.5-8-8.3-21.1-21.8-29.1-30-8-8.3-22.4-23.3-32-33.5-9.6-10.2-22.9-24.1-29.5-30.9-6.6-6.8-15.7-16.1-20.2-20.7-4.6-4.6-8.5-8.4-8.8-8.4-0.3 0-0.6 4.2-0.7 9.3zm783-1.9c-0.1 0.2-5.1 0.7-11 1.1-5.9 0.4-12.2 0.8-14 1-1.8 0.2-6.4 0.6-10.3 1-3.8 0.3-8.8 0.8-11 1-2.2 0.2-6.9 0.6-10.5 0.9-3.6 0.3-10.1 0.8-14.5 1.1-4.4 0.3-9.6 0.8-11.5 1-1.9 0.3-8.7 0.7-15 1-6.3 0.3-19.1 0.8-28.5 1.1-9.3 0.3-17.3 0.7-17.7 1-0.5 0.2-0.8 74.7-0.8 165.4v165c5.8 0.1 15.2 0.3 24.5 0.5 9.4 0.2 20.4 0.7 24.5 0.9 4.1 0.3 13.4 0.8 20.5 1.1 7.2 0.3 18.6 0.7 25.5 1 6.9 0.2 23.8 0.7 37.5 1.1l25 0.6c-0.5-20.7-0.7-29.4-0.8-32.7l-0.3-6c-87 0-112.6-0.4-113.1-0.8-0.4-0.5-0.9-20.7-1.1-45-0.2-24.3 0-50 0.5-57.2l0.8-13c17.8 0 38.8 0.2 58 0.5l35 0.4c-0.7-23.2-0.9-31.4-0.9-33.3l-0.1-3.3c-16.3 0.9-23 1.4-25.5 1.7-2.5 0.2-6.7 0.7-9.5 0.9-2.7 0.3-15.8 1-29 1.6-13.2 0.6-25 0.9-26.2 0.6l-2.3-0.6v-120c8.1-0.7 19.1-1.2 29.5-1.5 10.5-0.3 32.1-0.8 48-1.1 16-0.3 29.1-0.6 29.3-0.7 0.1-0.1 0.2-5.2 0.1-11.2-0.1-6-0.3-12.3-0.4-14-0.2-1.6-0.3-4.4-0.4-6.2 0-2.2-0.6-3.6-1.9-4.2-1.1-0.6-2.2-0.9-2.4-0.7zm1249.7 6.1c-5.5 0.7-13.8 1.7-18.5 2.2-4.7 0.4-10.2 0.6-12.2 0.5-2.1-0.1-3.8 0-3.8 0.3 0 0.3 1.1 2.3 2.5 4.5 1.4 2.2 2.5 4.2 2.5 4.5 0 0.3 2.3 4.4 5.2 9.3 4 6.8 5.1 9.6 5 12.7-0.1 2.2-0.6 6.3-1.3 9-0.6 2.8-0.9 6.1-0.8 7.5q0.4 2.5 3.9 4.2c2.4 1.2 5.9 1.8 10.8 1.8q7.2 0 12.5-2c2.8-1.1 5.8-2 6.5-2 0.6 0 1.2 0.5 1.2 1 0 0.5 0.6 2.5 1.4 4.3 0.8 1.7 1.7 5 2 7.2 0.3 2.3 2.2 6.4 4.6 9.8 2.2 3.1 4 6 4 6.5 0 0.4-1.4 5-3.1 10.2-1.6 5.2-3.1 11.1-3.3 13-0.1 1.9 0.6 5.2 1.6 7.3 1 2 3.3 4.8 5.1 6.1 1.7 1.4 4.5 3 6.2 3.6 1.7 0.6 6.1 1.2 9.8 1.3 6.3 0.2 6.8 0.4 6.4 2.2-0.3 1.1-1.2 4.9-2.2 8.5-1.2 4.6-1.6 9-1.3 15 0.3 7.9 0.7 9.2 5.6 19 5 9.8 5.3 10.8 4.3 14.5-0.5 2.2-2.4 9.4-4.2 16-2.9 11-3.2 13.2-3.2 27.5-0.1 15.2 0 15.7 3.6 26.5 3.2 9.8 3.5 11.5 2.5 15-0.6 2.2-3.7 9-6.9 15-3.2 6-7.2 14.6-8.8 19-1.7 4.4-4.6 14.1-6.5 21.5-1.9 7.4-3.8 16-4.1 19-0.3 3-1.1 8.4-1.6 12-0.5 3.7-2.3 9.2-4.2 12.9-1.7 3.4-4.5 7.3-6.2 8.6-1.7 1.2-4.5 2.9-6.2 3.9-1.8 0.9-4.1 1.6-5 1.6-1 0-5.3-1.8-9.5-4-4.3-2.2-8.5-4-9.3-4-0.8 0-2.7 0.8-4.2 1.7-1.6 1-4.5 3.1-6.7 4.8-2.1 1.6-4.9 4.8-6.2 7-1.3 2.2-2.4 5-2.4 6.3 0 1.7 1 2.6 4.3 3.8 2.9 1.2 8.4 1.8 17.7 2.1 9.8 0.3 14.2 0 16-0.9 1.4-0.7 3.8-3.8 5.3-6.8 1.5-3 3.3-5.8 4-6.2 0.7-0.3 3.5-0.9 6.2-1.3 2.8-0.4 6.7-1.1 8.8-1.6 2.4-0.6 4-1.7 4.6-3.1 0.5-1.4 0.3-6.9-0.5-14.3-1.1-9.1-1.2-14.3-0.5-21.5 0.6-5.2 2-13.1 3.1-17.5 1.2-4.4 3.6-11.8 5.5-16.5 1.9-4.7 6.3-14.3 9.8-21.5 3.6-7.2 7-15 7.7-17.5 0.7-2.5 1.2-6.4 1.1-8.7 0-2.4-1.8-8.5-3.8-13.5-3.6-8.9-3.8-9.7-3.7-20.8 0.1-8.5 0.8-14.8 2.9-24 1.4-6.9 4.3-17.5 6.2-23.5 2-6 5.2-14.4 7.3-18.5 2.4-4.8 5-8.5 7.4-10.2l3.6-2.8c3.1 6.2 5 11.5 6.2 15.8 1.7 6 2.2 10.5 2.2 20.7 0.1 7.2-0.2 16.6-0.7 21-0.4 4.4-1.7 11.6-3 16-1.3 4.4-3.4 10-4.9 12.5-1.4 2.5-3.2 5.2-3.9 6.1-0.8 0.8-3.5 3.8-6.2 6.5l-4.7 4.9c4 10.1 6.1 15 7.2 17.5 1.2 2.5 3.5 8.3 5.3 13 1.9 4.7 4 12 4.9 16.3 0.9 4.2 1.6 11.4 1.6 16 0 4.5-0.7 16.6-1.5 27-1.2 15.2-1.9 19.2-3.4 21.5-1.1 1.5-4 4.7-6.5 7.2-2.6 2.5-4.6 5.4-4.7 6.5 0 1.1 0.6 2.6 1.3 3.3 0.8 0.8 4.1 1.2 8.8 1.2 4.1 0 9.3-0.5 11.5-1 2.2-0.5 5-1.7 6.3-2.5 1.2-0.8 3.2-3.5 4.5-6 1.9-4 2.1-5.2 1.2-9.7-0.9-4.5-0.8-5.1 1-6.3 1.1-0.7 3.1-1.6 4.5-2l2.5-0.8c-1.2-15.3-1.7-20.3-1.9-20.9-0.3-0.7-0.7-5.1-1-9.8-0.4-4.7-0.9-9.8-1.1-11.5-0.3-1.7-1.2-6.6-2-11-0.8-4.4-4.2-16.1-7.6-26-5.3-15.6-6.2-19.3-6.6-27.5-0.3-5.2-0.1-13.1 0.6-17.5 0.6-4.4 1.4-9.1 1.8-10.5 0.4-1.4 0.7-20 0.8-41.5 0.1-21.5 0.4-39.9 0.8-41 0.3-1.1 0.9-4.5 1.2-7.5 0.3-3 0.8-6.8 1.1-8.5 0.3-1.6 1.3-5.8 2.2-9.3 0.9-3.4 2.3-6.2 3-6.2 0.8 0 1.2 2.6 1.4 9.3 0.1 5 0.2 9.9 0.3 10.7 0.1 0.8 0.5 4.2 0.9 7.5 0.4 3.3 0.9 5.8 1.1 5.5 0.3-0.3 0.7-4.3 1-9 0.3-4.7 0.9-9.8 1.4-11.5 0.5-2 1.4-3.1 2.9-3.2l2.2-0.3c-0.7 49.2-0.4 60.5 0.5 68 0.8 5.8 2.5 17.3 3.9 25.5 1.4 8.3 2.8 17.5 3.1 20.5 0.4 3 0.9 6.4 1.1 7.5 0.2 1.1 1.2 8.3 2.1 16 1 8.5 1.7 21.3 1.7 32.5 0 16.9-0.2 19.8-3.2 34.3-1.8 8.6-3.6 16.6-4.2 17.7q-1 2 0 2c0.6 0 1.9-1.8 3-4 1.1-2.2 3.1-8.2 4.5-13.2 1.3-5.1 2.7-10.9 3-12.8 0.2-1.9 0.9-8.9 1.5-15.5 0.5-6.6 0.7-17 0.5-23-0.3-6-0.8-13.5-1-16.5-0.3-3-1-9.3-1.5-14-0.6-4.7-2-13.5-3-19.5-1.1-6-2.9-15.5-4.1-21-1.1-5.5-2.3-10.9-2.5-12-0.3-1.1-0.9-4-1.3-6.5-0.5-2.5-1.2-8.5-1.5-13.5-0.3-5-0.8-22.7-1.1-39.5-0.3-16.8-0.8-36.3-1.1-43.5-0.3-7.1-0.7-23.2-0.9-35.7l-0.5-22.8c-7-8.9-10.2-12.9-11.7-14.7-1.6-1.7-4.3-3.9-6-4.7-1.8-0.9-6.3-2-10-2.6-3.8-0.5-10.2-1.2-14.3-1.4-4.1-0.3-18.7-0.7-32.5-1-18.3-0.4-27.7-0.1-35 0.9zm-235.4-0.4c-0.1 0.2 2.5 2.1 5.9 4.2 3.3 2 6.9 5.2 8 7 1.6 2.6 2 5 2 13 0 6.4-0.5 10.9-1.5 13.2-1.2 2.8-2.2 3.6-4.7 4-1.8 0.2-8.7 0.6-15.3 0.8-8.3 0.3-12.9 0.9-15 2-1.7 0.8-4.1 2.7-5.5 4.2-2.2 2.3-2.5 3.7-2.6 9.8-0.1 4 0.8 13.1 2.1 20.2 1.2 7.2 2.5 13.7 2.8 14.5 0.4 0.8 3.1 3.2 6.2 5.3 3 2 6.1 4.7 6.9 6 0.8 1.2 1.8 4.9 2.1 8.2 0.4 3.3 0.9 6.9 1.1 8 0.2 1.1 0.9 6.5 1.5 12 0.7 5.5 1.8 11.2 2.5 12.8 0.8 1.5 3.3 4.6 5.7 6.8 2.3 2.3 7.6 5.7 11.7 7.7 5.5 2.6 9.2 3.7 14 4 3.6 0.2 9.7-0.1 13.5-0.7 3.8-0.6 11.5-2.6 17-4.4 5.5-1.9 13.4-4.7 17.5-6.2 7-2.6 8.2-2.7 16.5-2.1 5 0.4 13.1 0.7 18 0.7 4.9 0 10.1-0.3 11.5-0.6 1.7-0.3 3.2-1.9 4.6-4.8 1.5-3.1 3.9-5.4 9-8.8 3.8-2.5 8.5-6.6 10.4-9 2.7-3.4 3.5-5.5 3.8-9.4 0.3-4.3 0-5.5-2.5-8.6-1.5-2.1-5-6.6-7.6-10-2.6-3.5-5.1-8-5.4-9.9-0.3-1.9 0-6.2 0.7-9.5 0.7-3.3 1.5-7.1 1.8-8.5 0.4-1.7-0.9-5.1-4.2-11-2.6-4.7-4.4-9.1-4.1-9.7 0.3-0.7 5.5-3.9 11.7-7 6.2-3.2 12.9-7.5 15-9.5 3.2-3.2 4-5 5.4-11.5 0.9-4.3 2.4-9.1 3.4-10.8 1-1.6 3-3.6 4.4-4.2 1.4-0.7 2.6-1.7 2.6-2.3 0-0.6-3.5-1-8.2-1.1-4.6 0-13.9-0.2-20.8-0.4-6.9-0.2-27.1-0.6-45-1-17.9-0.3-39.5-0.8-48-1-8.5-0.3-21.1-0.7-28-1-6.9-0.3-14.4-0.8-16.6-1.2-2.3-0.3-4.2-0.4-4.3-0.2zm-247.9 8.9c-5.6 3.9-10 7.2-9.7 7.5 0.3 0.3 3.7-1 7.6-2.7 4-1.8 8.5-4.8 10-6.5 1.6-1.8 2.9-3.7 2.9-4.3 0-0.5-0.1-1-0.3-1-0.1 0-4.8 3.2-10.5 7zm-1650 159.8l0.3 165.7h46c0-18.2-0.1-92.8-0.2-177.5l-0.3-154h-46zm432.9-145.9c-0.1 11.1 0.2 20 0.6 19.7 0.4-0.2 2.3-0.6 4.2-0.9 2-0.3 5.6-0.8 8-1.1 2.5-0.3 6.3-0.8 8.5-1 2.2-0.3 12.1-0.7 22-1 9.9-0.4 30-0.7 44.5-0.8l26.5-0.2c0 51.1-0.3 84.6-0.7 107.5-0.4 22.8-1.1 74.6-1.5 115.1l-0.8 73.7c7 1 18.5 1.1 30 0.9l21-0.2c0.1-34.1-0.2-49.9-0.6-57-0.4-7.2-0.9-29.2-1.3-49-0.3-19.8-0.8-46.4-1.1-59-0.2-12.7-0.8-32.3-1.2-43.5-0.4-11.3-0.8-35.8-0.8-54.5v-34c7 0 18.9 0.3 31 0.7 12.1 0.5 26.8 1 32.5 1.3 5.8 0.3 12.1 0.7 14 0.9 2 0.3 11.6 0.8 21.5 1.1l18 0.7c1-12.2 1.1-20.2 0.9-25.7-0.2-5.5-0.3-10.6-0.3-11.3-0.1-0.9-1.8-1.1-6.8-0.8-3.7 0.3-15.1 0.8-25.3 1.3-10.1 0.4-55.8 0.8-101.5 0.8-45.6 0-90.8-0.4-100.5-0.8-9.6-0.4-19-0.9-21-1.1-1.9-0.2-7.1-0.7-11.6-1.1l-8.1-0.8zm1308.1 129.5c-0.1 0.9 1.6 5.6 3.9 10.4 2.3 4.8 5.1 11 6.2 13.7 1.2 2.8 4.8 10 7.9 16 3.8 7.2 8 13.5 12.1 18 3.5 3.9 9 9.1 12.3 11.5 3.3 2.5 7.2 5.4 8.8 6.5 1.5 1.1 5.5 4.1 8.8 6.5 3.3 2.5 6.4 5.2 6.8 6 0.4 0.9 1.7 5.1 2.8 9.5 1.1 4.4 3.2 13.7 4.6 20.5 1.4 6.9 2.7 13.9 3 15.5 0.3 1.7 0.9 6 1.4 9.5 0.4 3.6 0.7 9.5 0.6 13-0.1 3.6-0.5 9-0.9 12-0.4 3.1-1.8 8.8-3.1 12.8-1.4 4-4.2 10.7-6.3 15-2.2 4.3-6 10.4-8.6 13.7-2.5 3.3-4.9 6.9-5.2 8-0.3 1.2 0.1 2.4 0.8 2.8 0.8 0.4 2.9 1.2 4.9 1.7 1.9 0.5 7.3 1.2 12 1.5 4.6 0.4 11.3 0.4 14.7 0.1 5.2-0.5 6.5-0.9 7.4-2.8 0.6-1.2 1.4-5.4 1.8-9.3 0.5-5.5 0.9-6.9 2.1-6.5 0.8 0.2 5.1 0.6 9.5 0.8 6.7 0.4 8.3 0.1 10.3-1.4 2.1-1.7 2.3-2.7 2.3-9.4 0-4.8 0.4-7.7 1.1-8.2 0.7-0.4 2.6-0.7 4.3-0.7 1.6 0 3.9-0.7 5-1.4 2-1.5 2-1.5-0.2-8.3-1.4-4.1-2.3-9.9-2.4-14.4-0.1-4.1-0.8-10.6-1.5-14.5-0.6-3.8-2.1-10.3-3.3-14.5-1.1-4.1-3.2-11.3-4.6-16-1.4-4.6-2.8-11.2-3.3-14.5-0.4-3.3-0.7-9.1-0.7-13 0-3.8 0.3-9.4 0.7-12.5 0.3-3 0.9-6.2 1.2-7.2 0.4-1.2 2.3-2.1 5.6-2.8 2.7-0.5 8.4-1 12.7-1 4.3 0.1 11.8 0.5 16.8 1.1 4.9 0.6 12.3 2.3 16.5 3.7 4.1 1.4 12.4 5.4 18.5 8.8 6 3.5 14.3 7.7 18.5 9.5 4.1 1.7 11.5 4.2 16.5 5.5 4.9 1.4 13.9 3 20 3.6 8.6 1 13.3 0.9 22 0 6-0.7 14.1-2.4 18-3.8 3.8-1.3 9.7-3.8 13-5.5l6-3.1c17 11.5 26.2 17 31.5 19.7 5.2 2.7 13.7 6.6 19 8.8 5.2 2.1 10.9 4.4 12.7 5.1 1.8 0.6 3.7 2.2 4.2 3.4 0.6 1.2 1.1 3 1.1 4 0 1 0.9 3.2 2 5 1.5 2.5 2.6 3.2 4.7 3 2.3-0.2 2.8-0.9 3.9-5.3 0.7-2.7 2.3-6 3.6-7.2 1.9-2 2.7-2.2 5-1.3 1.5 0.6 3.2 1.8 3.7 2.8 0.5 1 1.2 4.2 1.5 7.2 0.4 3.5 1.4 6.3 2.6 7.5 1.3 1.3 3.3 2 5.5 2h3.5c-0.2 7-0.9 13.1-1.6 18-0.8 5-1.6 10.2-1.9 11.5-0.3 1.4-1.1 4.6-1.9 7-0.8 2.5-1.7 5.4-2.1 6.5-0.4 1.1 0.5 0.2 1.9-2 1.4-2.2 3.4-7.3 4.5-11.5 1-4.1 2.4-13.1 3-20 0.6-6.8 0.8-14.9 0.5-18-0.2-3-0.7-7.9-0.9-11-0.3-3-1.2-9.7-2-15-0.8-5.2-2.6-13.7-4.1-19-1.4-5.2-3.8-12.6-5.4-16.5-1.5-3.8-4-9.2-5.5-12-1.4-2.7-5-8.1-7.8-11.9-2.9-3.8-7-8.3-9.2-9.9-2.2-1.6-6.3-4-9-5.2-2.8-1.3-6.5-2.6-8.3-2.9-1.8-0.3-6.5-0.6-10.5-0.7-4-0.1-9.7 0.4-12.7 1.1-3.1 0.7-8.9 2.8-13 4.7-4.2 1.9-10.7 5.4-14.5 7.8-3.9 2.4-10.1 5.8-13.8 7.5-3.7 1.7-9.6 3.7-13 4.6-3.4 0.8-6.4 1.6-6.5 1.7-0.1 0.1 0.5 1 1.5 1.9 1 0.9 4.3 1.9 7.8 2.2 3.3 0.3 6.3 0.9 6.8 1.4 0.5 0.4 0.7 1.2 0.4 1.7-0.3 0.6-4.5 2.1-9.4 3.4-4.8 1.3-9.9 2.9-11.1 3.5-1.3 0.6-2.3 1.4-2.3 1.6 0 0.3 1.9 1.1 4.3 1.8 2.3 0.7 6.3 1.5 8.8 1.8 2.4 0.4 5.2 1 6.2 1.5q1.8 1 1.8 4.4c0 2.6-0.7 4-2.3 5-1.2 0.8-5.6 2.2-9.7 3.1-4.3 0.9-11.6 1.5-17 1.4-5.3-0.1-12.9-0.6-17-1.1-4.2-0.6-11.8-2.4-17-4-5.3-1.7-13.8-5.3-19-8-5.3-2.8-10.2-5.6-11-6.4-0.9-0.7-5.1-3-9.5-5l-8-3.7c-30.4-0.9-40.6-0.6-47 0.2-5.5 0.7-11.6 1.9-13.5 2.6-3.3 1.3-3.7 2-5.7 9.2-1.2 4.2-2.8 11.1-3.5 15.2-0.8 4.5-1.3 14.5-1.2 24.5 0.1 9.4 0.2 22.9 0.3 30 0.1 7.2 0 14.4-0.3 16-0.3 1.7-0.8 6-1.1 9.5-0.4 3.6-0.9 7.7-1.1 9-0.2 1.4-0.8 6.1-1.2 10.4-0.7 7.5-0.9 7.9-3.7 9.1-2.6 1-3.2 1.9-3.9 6.6-0.5 3-0.9 5.8-0.8 6.2 0.1 0.4-0.9 1.2-2.1 1.7-1.2 0.5-3.8 0.7-5.7 0.4-2-0.2-4.1-1-4.8-1.6-0.8-0.7-1.8-2.8-2.4-4.8-0.7-2.1-0.9-6.9-0.5-12.5 0.4-4.9 1.6-13.9 2.7-20 1.2-6 2.3-16.3 2.4-23 0.3-8.3-0.2-15-1.4-22-1-5.5-2-11.1-2.3-12.5-0.3-1.3-1.5-6.3-2.7-11-1.2-4.6-3.8-13.6-5.7-20-1.9-6.3-5.5-15.5-8-20.5-2.4-4.9-5-9.9-5.6-11-0.7-1.1-2.4-3.4-3.7-5.2-1.4-1.7-2.9-2.9-3.5-2.5-0.5 0.4-0.6 3.7-0.2 7.2 0.3 3.6 1 8 1.4 9.8 0.5 2 0.4 3.3-0.2 3.3-0.6 0-4.9-3.3-9.5-7.3-4.7-4.1-10.3-9.8-12.5-12.8-2.2-3-4.7-6.5-5.5-7.9-0.7-1.4-3.2-6-5.5-10.2-2.2-4.2-6.6-12.1-9.7-17.5-3.1-5.4-6.3-10.5-7-11.2-1.2-1.2-1.4-1.1-1.6 0.2zm430.3 107.4c0.6 6.3 0.4 7.2-3 14-1.9 4-3.5 7.5-3.5 7.7 0 0.3 0.9 0.5 2 0.5 1.2 0 2.9-1.5 4.6-4.2 1.5-2.3 3.3-6.3 4.1-8.8 0.7-2.4 1.4-6.1 1.5-8.1 0.2-2.5-0.4-4.3-1.7-5.8-1.1-1.2-2.6-2.1-3.3-2.1-0.9 0-1.1 1.7-0.7 6.8zm-411.2 51c-2.1 2.6-4 5.4-4.1 6.2-0.2 1.2 0.3 1.1 1.9-0.5 1.1-1.1 3.4-3.6 5-5.7 1.6-2.1 2.5-4 2-4.2-0.5-0.3-2.7 1.6-4.8 4.2zm-65.7 5.8c-1.5 1.9-2.2 3.4-1.6 3.4 0.5 0 0.6 0.6 0.2 1.3q-0.7 1.2 0.5 0.5c0.7-0.4 1-1.2 0.8-1.8-0.3-0.5 0.1-1.2 1-1.5 0.8-0.2 1.2-0.9 1-1.5-0.3-0.5 0.2-1.3 1.2-1.8 1.1-0.6 1.4-1.1 0.6-1.4-0.6-0.4-2.3 0.9-3.7 2.8zm-4.2 5.9c-0.4 1.1-0.7 2.6-0.6 3.3 0.1 0.7-0.2 1.1-0.6 1-0.4-0.1-2 1-3.5 2.5-1.5 1.5-2.7 3-2.7 3.2 0 0.3 0.5 0.4 1.2 0.3 0.7-0.2 1.8-0.6 2.5-1 0.7-0.4 1.3-1.7 1.3-2.8 0-1.1 0.4-1.7 1-1.5 0.5 0.3 1.6-0.5 2.4-1.7 0.8-1.3 1.1-2.9 0.6-3.8-0.7-1.2-0.9-1.1-1.6 0.5zm260.6 18.3c-2.3 3.2-3.7 5.9-3.1 6 0.6 0.1 1.7-0.5 2.5-1.5 0.8-1 2.8-3.7 4.4-6 1.6-2.4 2.3-4.3 1.7-4.3-0.7 0-3.1 2.6-5.5 5.8zm326.8 1c-1.4 1.5-4.7 5.7-7.3 9.2-2.6 3.6-5.9 8.8-7.3 11.5-1.4 2.8-2.8 6.2-3.2 7.5-0.5 1.8-0.4 2.5 0.5 2.5 0.7 0 1.1-0.3 0.9-0.7-0.3-0.4 0-0.8 0.6-0.8 0.5 0 0.7-0.4 0.5-1-0.3-0.5-0.1-1 0.5-1 0.5 0 1.7-1.6 2.7-3.7 0.9-2.1 3-5.8 4.7-8.3 1.6-2.4 4.9-6.8 7.3-9.7 2.3-2.9 4.3-5.9 4.3-6.8 0-0.8-0.4-1.5-0.9-1.5-0.4 0-1.9 1.3-3.3 2.8zm-185.4 4.5c-2.6 2.9-6.4 7.5-8.4 10.2-2 2.8-4.6 6.7-5.8 8.8-1.7 2.9-2 4.2-1.2 5.7 0.5 1.1 1.2 2 1.5 2 0.2 0 0-0.9-0.5-2-0.8-1.5-0.7-2.1 0.5-2.5 1-0.3 1.3 0.1 0.9 1.3-0.3 1 0.1 0.5 1-1 0.9-1.5 1.3-3.3 0.9-4-0.4-0.7-0.3-0.9 0.3-0.5 0.5 0.4 2.3-1.4 4-4 1.7-2.6 5.4-7.3 8.2-10.5 2.9-3.2 5.2-6.4 5.2-7.3 0-0.8-0.4-1.5-1-1.5-0.5 0-3 2.4-5.6 5.3zm8.6 9.6c-5.8 4.3-11.2 8.6-12 9.6-1.1 1.2-1.2 1.6-0.3 1.6 0.7 0 3.8-2 7-4.3 3.2-2.3 8.4-6 11.7-8.2 3.3-2.2 6-4.6 6-5.3 0.1-0.7-0.4-1.3-0.9-1.3-0.6 0-5.8 3.6-11.5 7.9zm-215.2-2.6l-0.1 3.2c-1.3-5.2-1.5-4.3-1.6 1-0.1 3.9 0.1 8.4 0.4 10 0.4 1.9 1.6 3.7 3.5 4.8 1.6 1 3.6 1.7 4.5 1.7 0.8 0 1.2-0.4 1-1-0.3-0.5-1.1-0.7-1.8-0.4-0.7 0.3-2.1-0.4-3.2-1.6-1.8-1.9-2-3.5-2-11.6 0.1-5.1 0-9.4-0.2-9.4-0.2 0-0.4 1.5-0.5 3.3zm396.4 1.5c-3.3 2.6-7 6-8.1 7.5-1.5 2-1.7 2.6-0.6 2.2 0.8-0.2 1.4-0.8 1.4-1.2 0-0.4 1.9-2.2 4.3-4 2.3-1.8 5.5-4.3 7-5.7 1.5-1.4 2.6-2.8 2.4-3-0.2-0.3-3 1.7-6.4 4.2zm-25.9-0.6c-0.6 0.7-2.7 6.2-4.7 12.1-2 5.9-3.6 11.9-3.6 13.2 0 1.4 0.4 2.8 1 3 0.5 0.3 1.4-1.4 2-3.7 0.6-2.3 0.8-4.8 0.5-5.5-0.3-0.7-0.2-1.1 0.2-0.8 0.4 0.2 2.1-3.5 3.6-8.3 1.6-4.7 2.8-9.3 2.5-10-0.3-1.2-0.5-1.2-1.5 0zm-184.9 3.6c-0.8 2.1-2.7 6.9-4.1 10.7-1.3 3.9-3.1 10-3.8 13.5-0.8 3.6-1.2 6.9-1 7.3 0.3 0.4 1 0.5 1.7 0.2 0.7-0.2 1.6-2.8 2-5.7 0.4-2.9 1.6-8 2.8-11.3 1.1-3.3 1.7-6.6 1.4-7.5-0.3-0.8-0.2-1.1 0.2-0.7 0.5 0.5 1.6-1.1 2.6-3.5 0.9-2.3 1.7-4.8 1.7-5.5 0-0.7-0.4-1.3-0.9-1.3-0.6 0-1.7 1.7-2.6 3.8zm32.3 6.5c-2.6 2.4-4.7 4.8-4.7 5.5 0 0.7-0.7 1.5-1.5 1.7-0.9 0.3-1.5 1-1.5 1.5 0 0.6 1.6-0.4 3.5-2.2 2-1.8 4.3-3.6 5-4 0.8-0.4 1.1-1.3 0.7-2q-0.7-1.2 0.5-0.5c0.8 0.4 2.4-0.3 4-1.8 2.5-2.2 2.6-2.5 0.8-2.4-1.1 0-4.2 1.9-6.8 4.2zm-600.3 54.8c-1.1 0.5-2.4 1.5-2.8 2.2-0.3 0.7-0.9 2.8-1.3 4.7-0.4 2-0.8 12.9-1 24.3l-0.3 20.7h9c-0.5-39.8-0.7-41.4-2.3-41.2q-1.7 0.2-1.7-1.8c0-1.1 1.1-2.5 2.7-3.3 1.5-0.8 3.1-2.1 3.5-3 0.4-0.9 0.8-2.1 0.8-2.7 0-0.5-1.1-0.9-2.3-0.9-1.2 0-3.2 0.5-4.3 1zm-1493.7 10.6c-3.2 0.3-4 0.9-5.6 4.1-1.1 2.1-4.2 10.9-7 19.7-2.8 8.8-5.1 16.6-5.1 17.3 0 0.7 0.9 1.2 2 1.2 1.1 0 3-0.4 4.2-1 1.2-0.6 3-2.4 4-4 1-1.6 2.9-3.4 4.3-4 1.3-0.5 3.7-0.8 5.2-0.5 1.5 0.2 3.5 0.4 4.5 0.5 1 0 2.1 1.2 2.5 2.7 0.4 1.5 1.9 3.5 3.3 4.5 1.3 1.1 3.7 1.9 5.2 1.9 1.5 0 3-0.5 3.3-1.1 0.2-0.5-2.3-9.4-5.7-19.7-3.4-10.3-7-19.5-8-20.5-1-1-2.2-1.7-2.6-1.6-0.4 0.1-2.4 0.3-4.5 0.5zm349.7 0.5c-3.7 0.6-5.6 1.5-7.7 3.8-1.5 1.7-2.8 4.3-2.9 5.8-0.1 1.5-0.1 3.9 0.1 5.2 0.1 1.4 1.1 3.4 2.2 4.5 1.1 1.1 4.9 3.6 8.6 5.5 3.7 2 6.8 4.1 7 4.8 0.1 0.7-0.8 2.2-2 3.4-1.8 1.7-3 2-5.7 1.5-2-0.3-5.1-1-7-1.4l-3.4-0.8c1.1 6.2 1.5 8.2 1.6 8.4 0.2 0.1 3.9 0.3 8.3 0.3 4.4 0 9.2-0.5 10.7-1.1 1.5-0.6 3.7-2.5 4.8-4.3 1.1-1.8 2-5 2-7.3 0-2.2-0.8-5-1.8-6.4-0.9-1.4-4.9-3.9-8.7-5.6-4-1.7-7.4-4-7.8-5-0.4-1.2-0.2-2.5 0.5-3.3 0.9-1 3.2-1.3 8.5-1 6.7 0.3 7.3 0.2 7.3-1.7 0-1.1-0.6-2.7-1.3-3.6-0.7-0.9-2.8-1.8-4.8-2-1.9-0.2-5.7-0.1-8.5 0.3zm174.3-0.5c-2.7 0.3-4.1 1-4.9 2.6-0.6 1.2-3.5 9.2-6.4 17.7-2.8 8.6-5.5 17-5.8 18.8-0.4 2.3-0.3 3.3 0.6 3.3 0.7 0 2.7-0.5 4.5-1 2-0.7 3.8-2.2 4.8-4.1 0.8-1.6 2.5-3.5 3.7-4.1 1.3-0.6 4.2-0.8 6.8-0.5 3.8 0.5 4.7 1.1 6 3.8 0.8 1.8 2.4 3.8 3.5 4.6 1.1 0.7 3.1 1.2 4.5 1 1.6-0.1 2.6-1 2.8-2.3 0.2-1.1-2.4-10.1-5.8-20-3.4-10.2-6.8-18.5-7.8-19.2-1-0.7-2-1.2-2.2-1.1-0.3 0.1-2.2 0.3-4.3 0.5zm63.8 0.2c-1.7 0.4-3.9 1.3-5 1.8-1.1 0.6-3.4 2.6-5.1 4.5-2 2.1-3.6 5.4-4.4 8.8-1 4.2-1 6.9-0.2 11 0.6 3.1 2 6.8 3.1 8.3 1.2 1.5 4 3.7 6.3 4.9 2.8 1.4 6.8 2.2 11.8 2.5 4.1 0.3 8 0.1 8.7-0.3 0.7-0.5 1.6-2.5 2-4.6l0.8-3.7c-12.5 1.1-14.8 0.9-17.3-0.4-1.8-0.9-3.9-3-4.7-4.7-0.9-1.6-1.5-4.8-1.5-7 0-2.2 0.7-5.6 1.7-7.6 1-1.9 2.9-4.2 4.3-5.1 1.7-1.1 3.8-1.4 7-1 2.4 0.3 5.5 0.9 6.7 1.2 2 0.5 2.3 0.2 2.2-2.7 0-1.8-0.3-3.8-0.7-4.5-0.4-0.8-3.3-1.5-6.7-1.7-3.3-0.3-7.4-0.1-9 0.3zm97 0.2c-1.7 0.5-4.1 2-5.4 3.2-1.3 1.2-3.2 4-4.2 6.2-1.3 2.7-1.9 6.4-1.9 11.3 0 5.1 0.5 8.4 1.8 11 1.1 2.1 3.3 5 5 6.5 1.7 1.5 4.8 3 6.9 3.4 2.1 0.3 5.7 0.3 8 0 2.3-0.4 5.6-1.6 7.3-2.7 1.6-1.1 4-3.9 5.2-6.2 1.7-3.3 2.2-5.9 2.2-11.8 0-5.6-0.6-8.5-2.2-11.5-1.1-2.2-3.1-5-4.4-6.2-1.3-1.2-3.9-2.7-5.8-3.2-2-0.6-4.9-1-6.5-1-1.7 0.1-4.4 0.5-6 1zm157.5 0.2c0 0.7 2.6 6.4 5.8 12.7 3.2 6.4 6.4 13.7 7 16.3 0.6 2.6 1.1 5.1 1 5.5 0 0.4 0 2.2 0 4 0.1 2.7 0.5 3.2 2.6 3.2 1.3 0 3-0.5 3.8-1.2 0.7-0.7 1.7-4.3 2-8 0.6-5.5 1.9-9.1 7.2-19.5 3.6-7 6.3-13 6.1-13.3-0.2-0.2-2.6-0.3-5.4-0.2l-5.1 0.2c-4.1 9-5.7 12.7-6.2 14l-1.1 2.5c-1.6-3.8-3.1-7.3-4.4-10.2-1.6-3.5-3.1-5.5-4.6-5.9-1.2-0.3-3.7-0.8-5.5-1q-3.2-0.4-3.2 0.9zm118.5 0.2c-2.2 0.8-5.1 2.3-6.4 3.3-1.3 0.9-3.3 3.3-4.3 5.2-1 2-2.1 6-2.5 9-0.4 3.8-0.1 7.1 1 10.5 1 3.2 2.9 6.3 5.1 8.3 2 1.8 5.5 3.7 7.8 4.4 2.3 0.6 6.7 0.8 9.8 0.6 3.8-0.4 5.8-1.1 6.7-2.4 0.7-1 1.3-2.9 1.3-4.1 0-1.2-0.4-2.3-0.8-2.2-0.4 0-2.5 0.4-4.7 1-2.2 0.6-5.4 0.7-7 0.3-1.7-0.4-4.3-1.8-5.8-3-1.5-1.3-3.2-4.1-3.7-6.4-0.7-2.6-0.7-5.4-0.1-8.2 0.6-2.3 2.2-5.4 3.6-6.8 2-2 3.5-2.5 7.7-2.5 2.9 0 6.5 0.4 8 0.8 2.6 0.7 2.8 0.6 2.8-2.8 0-2.5-0.6-3.7-2-4.5-1.1-0.5-4.4-1.2-7.3-1.5-3.4-0.3-6.7 0.1-9.2 1zm58.5-0.6c-1.4 0.4-3.9 1.7-5.5 2.8-1.8 1.2-4 4.3-5.4 7.5-2 4.4-2.3 6.6-2 12.3 0.3 5.5 1 8 3.1 11.3 1.5 2.3 4.2 5 6 5.9 1.8 0.9 5.7 1.8 8.8 2.1 4.3 0.3 6.4-0.1 9.9-1.9 3.2-1.7 5.1-3.6 6.8-6.9 1.7-3.3 2.3-6.1 2.3-11 0-3.5-0.5-8-1.2-10-0.6-1.9-2.1-4.8-3.2-6.4-1.2-1.6-3.9-3.7-6.1-4.7-2.2-1-5.6-1.8-7.5-1.7-2 0-4.7 0.3-6 0.7zm129 0c-2 0.4-4.8 1.5-6.3 2.4-1.5 1-3.2 2.9-3.7 4.2-0.6 1.4-1 4.3-1 6.5 0 2.5 0.6 4.7 1.7 5.8 1 1 4.6 3.4 8.1 5.3 4.5 2.5 6.5 4.2 6.9 5.9 0.4 1.8 0 2.9-1.4 3.8-1 0.7-2.7 1.3-3.8 1.2-1.1 0-3.8-0.7-6-1.5-3.1-1-4.2-1.1-4.7-0.2-0.4 0.7-0.5 2.4-0.2 3.7 0.3 1.4 0.9 3 1.5 3.5 0.5 0.6 4.4 1 8.7 0.9 4.2-0.1 8.9-0.6 10.4-1.3 1.5-0.6 3.4-2.4 4.3-4.1 0.8-1.6 1.5-5.4 1.5-8.5 0-4.5-0.4-5.8-2.3-7.2-1.3-1-5.1-2.9-8.6-4.3-4.9-1.9-6.4-3-6.8-5-0.4-1.5 0-2.8 0.8-3.3 0.7-0.4 4.4-0.5 8.1-0.2l6.8 0.5c0-7.1-0.4-8-1.8-8-1 0-3.3-0.2-5.2-0.4-2-0.2-5.1-0.1-7 0.3zm225.1 0.4c-1.9 0.7-4.9 2.8-6.6 4.7-2.3 2.5-3.6 5.3-4.5 9.5-1 4.7-1 7.3-0.1 11.5 0.6 3.1 2 6.9 3 8.5 1 1.7 4 4.1 6.7 5.5 4.1 2 5.7 2.3 10.4 1.7 3-0.4 6.8-1.4 8.5-2.4 1.6-1 4-3.8 5.3-6.3 1.7-3.3 2.3-6.2 2.3-11.5 0.1-4.8-0.5-8.4-1.8-11.5-1.1-2.4-3.5-5.7-5.4-7.2-2.5-2-4.9-2.9-8.9-3.2-3.1-0.3-7.1 0.1-8.9 0.7zm272.8 0.5c-1.1 0.7-3.2 4.7-4.8 9-1.6 4.3-4.6 13-6.7 19.4-2.2 6.5-3.6 12.1-3.2 12.5 0.5 0.5 2.6 0.3 4.8-0.4 2.7-0.9 4.4-2.2 5.5-4.3 0.8-1.6 2-3.3 2.7-3.6 0.7-0.4 3.6-0.8 6.5-1l5.3-0.4c4.6 8.3 5.6 9.1 8.7 9.6 2.1 0.4 4.1 0.2 4.6-0.2 0.4-0.5-1.5-8.3-4.4-17.4-2.8-9-6-18.1-7.1-20.2-1.6-3.3-2.3-3.8-5.9-4-2.2-0.2-4.9 0.3-6 1zm65.9-0.5c-2.5 0.7-6.1 2.6-7.8 4.2-1.8 1.7-3.8 4.2-4.5 5.5-0.7 1.4-1.7 4.6-2 7-0.5 3.1-0.2 6.4 0.8 10 1 3.6 2.7 6.6 4.9 8.7 1.8 1.7 4.3 3.6 5.5 4.2 1.2 0.6 5.1 1.4 8.5 1.7 3.4 0.3 8.1 0.2 10.3-0.3l4-0.8c1.1-11.2 1.1-16.1 0.7-18.2l-0.8-3.8c-10-0.4-13.4-0.1-13.9 0.5q-1 1 0.7 3.5c1 1.4 2.3 2.5 3 2.5 0.7 0 1.8 0.7 2.5 1.5 0.7 0.9 1 2.7 0.8 4-0.3 1.4-1.4 3-2.5 3.5-1.4 0.7-3.2 0.7-5.3 0.1-1.8-0.6-4.6-2.4-6.2-4.1-2.4-2.5-3.1-4.1-3.3-8.3-0.3-3.9 0.2-6 1.7-8.4 1.1-1.8 3.7-4 5.8-4.9 2.5-1 5.3-1.4 8.3-1 2.4 0.3 5.6 0.9 6.9 1.3 2.4 0.8 2.4 0.8 1.8-3.2-0.4-2.2-1.1-4.3-1.5-4.7-0.4-0.4-3.7-1-7.2-1.2-3.8-0.3-8.5 0-11.2 0.7zm120.2 0.9c-2.5 1.3-5.4 3.7-6.6 5.3-1.1 1.7-2.5 5.7-3.2 9-0.7 4-0.8 7.6-0.2 10.5 0.5 2.5 2 6.1 3.2 8 1.2 1.8 3.5 4.3 5.1 5.5 1.7 1.2 4.8 2.2 8 2.4 2.8 0.2 6.7-0.1 8.7-0.7 1.9-0.6 4.9-2.6 6.7-4.6 1.8-2 3.7-5.2 4.3-7.3 0.5-2.1 0.9-6.2 0.9-9.3 0-3.6-0.7-7.2-2.3-10.5-1.4-3-3.6-5.8-5.7-7.2-2-1.3-5.8-2.5-8.9-2.8-4.6-0.5-6.3-0.2-10 1.7zm180.2-0.2c-2.8 0.9-6 2.8-7.5 4.5-1.5 1.7-3.2 4.8-3.9 7-0.6 2.2-1.1 6.5-1 9.5 0 3.7 0.9 7 2.4 10 1.8 3.4 3.7 5.2 7.3 7 4 2.1 6.4 2.5 12.7 2.5 5.9 0 8.1-0.3 8.8-1.5 0.5-0.8 0.9-2.6 0.9-4 0.1-2.4 0-2.4-7.2-2.1-6.4 0.3-7.6 0.1-10.2-2-1.6-1.3-3.5-3.8-4.2-5.6-0.7-1.8-1.3-4.7-1.3-6.5 0-1.8 0.9-4.7 2-6.5 1.1-1.8 3.2-4 4.7-4.9 2-1.2 3.9-1.5 6.8-1.1 2.2 0.4 5.2 0.9 6.7 1.2 2.2 0.4 2.8 0.2 2.7-1.2 0-1-0.5-2.9-1.2-4.3-1.1-2.1-2.1-2.5-7.4-3-4-0.3-7.9 0-11.1 1zm-1962.5 18.3c-0.2 10.6-0.3 19.8-0.1 20.5 0.3 0.9 3 1.2 9.4 1.2 4.9 0 11.1-0.5 13.6-1.2 3-0.8 5.7-2.4 7.5-4.5 1.6-1.8 3.4-5.2 4-7.5 0.6-2.3 0.9-6.5 0.7-9.3-0.2-2.7-1.4-6.8-2.5-9-1.1-2.2-3.1-4.8-4.5-5.7-1.3-1-4.1-2.2-6.3-2.8-2.2-0.5-7.9-0.9-12.7-0.9l-8.6-0.1zm64.8-17.9c-0.3 0.7-0.4 9.8-0.3 20.2l0.2 19 9.5 0.5c0-20.2 0.3-25.1 0.9-24.5 0.4 0.5 1.6 3.2 2.4 6 0.9 2.7 2.4 7.5 3.3 10.5 0.9 3 2.4 6.3 3.3 7.2 1 1.1 2.5 1.5 4.1 1.2 1.4-0.3 3.1-1.1 3.7-1.7 0.7-0.7 2.6-5 4.2-9.7 1.5-4.7 3.5-10.9 4.2-13.8 0.8-2.9 1.7-5.2 2.2-5.2 0.4 0 0.6 6.6 0.5 14.7l-0.3 14.8 8.5 0.5c0-29.5-0.2-38.7-0.5-39.5-0.4-1.1-2-1.5-6-1.5-3 0-6.2 0.3-7 0.7-0.9 0.5-2.9 4.8-4.4 9.8-1.6 4.9-3.2 10.2-3.5 11.7-0.3 1.6-0.9 2.8-1.3 2.8-0.5 0-2.1-4.4-3.7-9.7-1.6-5.4-3.5-11-4.3-12.6-1.2-2.6-1.6-2.7-8.3-2.7-4.9 0-7.2 0.4-7.4 1.3zm78-0.1c-0.2 0.8-0.4 9.9-0.3 20.3l0.2 19 9.5 0.5-0.5-40.5c-7.1-0.5-8.6-0.2-8.9 0.7zm40.9-0.5c-0.4 0.3-0.7 9.6-0.7 20.5l0.2 19.8h9l0.5-27.5c3.6 7.7 6 12.9 7.7 16.5 1.6 3.6 3.9 7.5 5.1 8.8 1.7 1.7 3.3 2.2 7 2.2h4.7v-41h-8l-0.1 26.5c-9.3-18.6-12.8-24.6-13.7-25.3-0.9-0.7-3.8-1.2-6.3-1.2-2.5 0-4.9 0.3-5.4 0.7zm69.3 0l-3.8 0.3v40h9c0.2-30.9-0.2-40-0.6-40.2-0.5-0.2-2.6-0.2-4.6-0.1zm146 17.5c-0.2 10.1-0.2 19.3 0 20.5 0.2 2 0.8 2.3 4.7 2.3h4.5c0-10.9 0.2-14.7 0.5-15.5 0.3-0.8 1.4-1.5 2.5-1.5 1.5 0 3 2 6 8.5l4 8.5c7.5 0 8-0.3 8-2.3 0-1.2-1.2-4.9-2.6-8.2-1.4-3.3-2.7-6.8-3-7.8-0.2-0.9 0.7-3.1 2.1-4.7 1.7-2 2.5-4.2 2.5-6.8 0-2-0.8-5.1-1.8-6.7-1.3-2.2-2.9-3.2-5.8-3.7-2.1-0.4-7.8-0.8-12.6-0.8h-8.7zm185-0.3c-0.2 9.9-0.3 19.1-0.3 20.3 0 1.9 0.6 2.3 4 2.6 2.6 0.2 4.2-0.1 4.6-1 0.4-0.8 0.5-10 0.3-20.6l-0.5-19.3h-7.9zm105.8-16.7c-0.2 0.7-0.3 9.8-0.2 20.3l0.2 18.9 8.5 0.5c0-16.6 0.4-22.1 0.8-23 0.7-1.1 1.3-0.5 2.6 2.5 1 2.2 3.1 6.7 4.8 10 1.6 3.3 3.7 6.9 4.6 7.9 0.9 1 2.8 2.3 4.2 2.8 1.3 0.5 3.7 0.7 5.2 0.4l2.8-0.6-0.5-40.5h-7c-0.5 21.5-0.8 23.5-2 23.5-0.9 0-1.5-0.4-1.5-1 0-0.5-1.7-4.7-3.8-9.3-2.1-4.7-4.8-9.6-6-11-1.9-2.2-3.1-2.7-7.3-2.7-3.2 0-5.1 0.5-5.4 1.3zm333.3 1.5c-0.2 1.5-0.2 10.7-0.1 20.5l0.3 17.7 8.2-0.5c-0.2-19 0.1-23.5 0.8-23.5 0.5 0 3 4.2 5.4 9.3 2.5 5.1 5.5 10.5 6.8 12.1 1.7 2 3.4 2.9 6.5 3.2 3.5 0.4 4.4 0.1 5.3-1.6 0.5-1.1 0.9-9.8 0.9-19.7 0-9.8-0.3-18.3-0.7-19-0.5-0.8-2.2-1.2-4.2-1l-3.5 0.2-1 26c-5-10.8-7.3-16-8.3-18.5-1.1-2.4-2.7-5.2-3.6-6.2-1.2-1.3-3.2-1.8-7.1-1.8-5.2 0-5.4 0.2-5.7 2.8zm121.3 12.4c0 9.3 0.4 16.7 1.2 18.8 0.6 1.9 2.5 4.2 4.2 5.2 1.6 1 5.4 2.1 8.5 2.4 3.5 0.4 6.8 0.1 9.5-0.8 2.6-1 4.6-2.6 6-4.9 1.7-3 2-5.2 2-19.4v-16h-8.6c-0.4 22.5-1 29.9-1.6 31-0.6 1.1-2.3 2.4-3.7 2.8-1.5 0.4-3.4 0.4-4.3 0-0.9-0.4-2.1-1.7-2.7-2.8-0.6-1.1-1.3-8.5-1.6-16.5l-0.5-14.5-8.4-0.6zm62.1 5.1l0.3 20.2c7.7 0.5 13.2 0.4 17.2 0.1 6.8-0.5 7.2-0.7 7-2.8-0.2-1.8-0.9-2.3-3.7-2.5-2-0.2-5.5-0.5-7.8-0.8l-4.2-0.5v-34h-9.1zm171.9 0.2l-0.1 20.6h9c0-14.7 0.3-16.1 1.7-16.7 1-0.3 2.4-0.2 3.1 0.3 0.8 0.5 2.2 3.1 3.3 5.9 1 2.7 2.9 6.2 4.1 7.7 1.3 1.5 3.8 3.1 5.6 3.5 3 0.7 3.2 0.6 3.2-1.7-0.1-1.4-1.4-5.9-3-10-1.7-4.1-3-7.8-3-8.3 0-0.4 1.2-2.2 2.6-4 2.3-2.8 2.6-3.9 2.1-8.2-0.4-3.3-1.3-5.7-2.7-7-1.8-1.7-3.7-2.1-13.9-2.4l-11.9-0.3zm111.2-17.7c-1 1.5-4.2 10-7 18.8-2.9 8.8-5.3 17-5.3 18.2 0 2 0.4 2.2 2.7 1.7 1.6-0.3 3.7-1.5 4.8-2.8 1.1-1.3 2.8-3.3 3.7-4.5 1.5-1.7 2.9-2.1 7.5-2.2 5.4 0 5.9 0.2 7 2.8 0.7 1.5 2.2 3.8 3.3 5 1.2 1.4 3.1 2.3 5 2.3 1.6 0 3.2-0.5 3.5-1 0.3-0.6-1.8-8.1-4.7-16.8-2.8-8.6-5.9-17.6-7-20-1.8-4.2-1.9-4.2-6.8-4.2-4.3 0-5.2 0.3-6.7 2.7zm224.1-0.5c-0.3 1.3-0.3 10.5 0.2 20.6l0.9 18.3 8-0.6c0.5-11.6 0.9-15.4 1.3-15.8 0.4-0.4 1.8-0.4 3.2 0.1 1.8 0.7 3 2.4 4.5 6.7 1.1 3.1 2.9 6.5 4 7.5 1.1 1.1 3.5 2.3 5.3 2.7 3 0.7 3.2 0.6 3.2-1.7 0-1.4-1.4-5.9-3-10-1.7-4.1-3-7.9-3-8.3 0-0.4 1.1-2.1 2.5-3.7 1.7-2 2.5-4.2 2.5-6.8 0-2-0.8-5.1-1.8-6.7-1.2-2-3-3.3-5.3-3.8-1.9-0.4-7.5-0.7-12.6-0.7-8.7 0-9.2 0.1-9.9 2.2zm124.6 18.3v20.5l8.5-0.5 0.5-13c8.1-1.3 11.5-2.1 12.7-2.6 1.3-0.5 3.2-2.4 4.3-4.2 1.2-2 2-5 2-8 0-3.7-0.6-5.3-2.8-7.8-1.6-1.8-4.3-3.4-6.7-3.9-2.2-0.6-7.3-1-11.3-1h-7.2zm56 0v20.5l26.5-0.5v-5.8c-11.9-0.2-15.9-0.7-16.5-1.2-0.7-0.6-0.9-2.7-0.6-5.3l0.6-4.2h15v-6.5c-11.2-1.2-14.6-1.6-14.6-1.8-0.1-0.1-0.4-1.9-0.8-4-0.5-3.3-0.4-3.8 1.6-4.2 1.3-0.3 5.1-0.5 8.5-0.5 6.3 0 6.3 0 6.5-3.1 0.2-1.7 0.1-3.2-0.2-3.5-0.3-0.3-6.2-0.5-13.3-0.4h-12.7zm115.9-16.8c-0.1 2.1-0.1 9.3 0 16 0.1 7.5 0.6 13.3 1.3 15 0.7 1.5 2.9 3.6 4.8 4.7 2.6 1.5 5.3 2.1 10.2 2.1 5.1 0 7.3-0.5 9.5-2.1 1.5-1.1 3.6-3.6 4.6-5.5 1.4-2.9 1.7-5.7 1.5-18.4l-0.3-15c-6.2-0.5-8.3-0.2-8.7 0.2-0.4 0.4-0.8 6.4-0.8 13.3-0.1 6.9-0.5 14.1-0.9 16-0.6 3.3-0.9 3.5-4.9 3.7-3.9 0.3-4.3 0-5.6-3-0.8-1.8-1.5-6.4-1.6-10.2-0.1-3.9-0.3-8.1-0.5-9.5-0.1-1.4-0.3-4.4-0.4-6.8l-0.1-4.2c-7.9 0-8 0-8.1 3.7zm72.7-1c-0.7 1.5-3.9 10.3-7 19.5-3.1 9.2-5.6 17.5-5.6 18.3 0 0.9 0.9 1.5 2.2 1.5 1.3 0 3.3-0.4 4.6-0.8 1.2-0.4 2.7-2 3.2-3.5 0.6-1.5 1.8-3.1 2.7-3.6 1-0.5 3.7-1.2 6-1.5 3.7-0.5 4.6-0.3 6.5 1.8 1.3 1.3 3 3.3 3.8 4.5 1 1.4 2.9 2.3 5.7 2.6 3.8 0.4 4.3 0.2 4.3-1.5 0-1.1-2.6-9.6-5.9-18.8-3.2-9.2-6.3-17.7-7-19-0.9-1.9-1.9-2.2-6.6-2.2-5 0-5.6 0.2-6.9 2.7zm55-2.1c-0.5 0.4-0.9 9.6-0.8 20.5l0.2 19.9c7 0 9-0.4 9-0.8 0.1-0.4 0.3-4.1 0.7-8.2 0.3-4.1 0.7-7.6 0.9-7.8 0.2-0.1 1.6 0.3 3 1 1.7 0.9 3.3 3.2 5 7.3 1.3 3.3 3.2 6.6 4.1 7.3 1 0.7 2.9 1.5 4.3 1.8 1.4 0.3 2.9 0.1 3.5-0.5 0.7-0.7-0.1-3.7-2.3-9.1-1.7-4.4-3.2-9.1-3.2-10.5 0-1.4 0.4-2.5 1-2.5 0.5 0 1.7-1.6 2.5-3.5 0.8-2 1.3-4.9 1-6.8-0.3-1.8-1.7-4.3-3.1-5.7-2.4-2.3-3.4-2.5-13.7-2.8-6.2-0.2-11.6 0-12.1 0.4zm59.5 19.8l-0.1 20.6h10l-0.5-40.5-9.4-0.6zm51.6-18.3c-0.8 1.3-4.1 10.5-7.3 20.5-3.2 10-5.6 18.5-5.3 18.9 0.2 0.3 2.3 0.2 4.5-0.3 2.4-0.5 4.3-1.6 5-2.9 0.5-1.1 1.5-2.7 2.1-3.5 0.6-0.7 2.5-1.7 4.2-2.1 1.7-0.4 4.6-0.4 6.4 0q3.2 0.7 5.2 4.1c1.1 1.9 3.2 3.8 4.6 4.3 1.3 0.5 3.2 0.6 4.2 0.4 1-0.3 1.7-1.4 1.7-2.3 0-1-2.9-10.1-6.4-20.3l-6.3-18.5c-10.4-0.5-11.3-0.3-12.6 1.7zm-1906.6-0.2c0 0.6 0.4 1.9 1 3 0.6 1.3 2.3 2.2 4.7 2.5 3.2 0.5 3.9 1 4.5 3.8 0.4 1.8 0.8 9.2 0.8 16.5v13.2h8c0.1-18.2 0.2-25.5 0.3-28 0.1-4.3 0.2-4.4 3.9-5 2.1-0.2 4.2-1.1 4.8-2 0.5-0.8 0.9-2.3 0.9-3.2 0.1-1.6-1.3-1.8-14.4-1.8-9 0-14.5 0.4-14.5 1zm914 0c0 0.6 0.4 1.9 1 3 0.6 1.3 2.3 2.2 4.7 2.6 3.4 0.4 3.8 0.8 4.5 4.2 0.4 2.1 0.7 9.5 0.7 16.5l0.1 12.7 7.5-0.5 0.5-32.5c7.5-0.8 8.7-1.5 9.7-3.5 0.7-1.3 1.3-2.7 1.3-3 0-0.2-6.8-0.5-15-0.5-9.4 0-15 0.4-15 1z"/>
		<path id="Path 3" class="s0" d="m106.4 1250c0 5.2 0.1 7.3 0.3 4.5 0.2-2.8 0.2-7 0-9.5-0.2-2.5-0.3-0.2-0.3 5z"/>
		<path id="Path 4" class="s2" d="m1744.6 743.7c-2.2 0.8-3.9 1.9-3.8 2.4 0.1 0.5 0.8 0.9 1.5 0.9 0.6-0.1 3-0.5 5.2-0.9 3.1-0.7 4.7-0.5 7 0.8 1.7 0.9 4.4 4.1 6.2 7.1 1.7 3 3.4 7.1 3.8 9 0.5 2.9 0.2 4.1-2.5 7.5-1.7 2.2-3.1 4.3-3 4.7 0 0.5 0.8 0.8 1.8 0.8 0.9 0.1 2.9-0.8 4.5-2 2.1-1.6 2.7-2.8 2.7-5.8 0-2-0.5-5.3-1-7.2-0.6-1.9-2.9-6.6-5.3-10.4-2.3-3.8-5-7.3-5.9-7.7-1-0.5-3-0.9-4.5-0.8-1.6 0-4.6 0.7-6.7 1.6zm-32.6 32.8c0 0.8 1 2.4 2.3 3.5 1.2 1.1 2.5 2 3 2 0.4 0 0.7-0.2 0.7-0.5 0-0.3-0.7-1.9-1.5-3.5-0.8-1.7-2.2-3-3-3-0.8 0-1.5 0.7-1.5 1.5zm-160.3 127.3c-10.8 21.8-23.5 48-28.2 58.2-4.8 10.2-10.5 22.1-12.7 26.5l-4 8c31.5-1.3 53.3-2.3 68.7-3.1 15.4-0.8 35.8-1.8 45.3-2.2 9.4-0.4 17.2-1 17.2-1.5 0-0.4-5.9-12.1-13.1-26-7.3-13.8-16-30.4-19.4-36.7-3.4-6.3-12.2-22.9-19.6-36.9-7.4-13.9-13.7-25.5-14-25.7-0.4-0.2-9.5 17.5-20.2 39.4zm577.8 87.9c-1.6 0.2-6.1 1.1-10 2-4.1 1-9.3 3.2-12.5 5.3-3 2-6.8 5.2-8.4 7.1-1.6 1.9-4.1 6-5.7 9.1-1.6 3.2-3.6 8.5-4.4 11.8-0.9 3.8-1.2 6.7-0.6 7.7 0.5 1 2.8 3.4 5.2 5.4 2.4 2 7.6 5.7 11.4 8.1 3.9 2.5 10.6 6.4 15 8.6 4.4 2.2 12.7 5.9 18.5 8.2 5.8 2.4 11.1 4.8 11.8 5.4 0.7 0.6 1.7 3.3 2.3 6.1 0.7 2.7 1.5 5.7 1.9 6.5 0.6 1.1 1.7-0.5 4.1-5.5 3-6.1 3.8-7 6.4-7.3 1.7-0.2 4.6 0.1 6.5 0.5 3.5 0.9 3.5 1 4.2 7.9 0.4 3.8 1 7.5 1.3 8.1 0.3 0.8 1.9 1.2 3.8 1l3.2-0.2c-0.4-14.7-1.4-24.4-2.5-31-1-6.6-3.1-15.8-4.6-20.5-1.4-4.7-3.8-10.8-5.1-13.5-1.4-2.8-4.5-7.7-6.8-11-2.3-3.3-6.4-8.1-9.1-10.6-2.7-2.5-6.2-5.3-7.9-6.1-1.6-0.9-4.8-1.9-7-2.3-2.2-0.3-4.9-0.7-6-0.9-1.1-0.1-3.3-0.1-5 0.1zm-1396 246.5c-1.7 1.5-3 3.9-3.5 6.8-0.5 2.5-0.4 6.5 0.1 9 0.4 2.5 1.9 5.5 3.1 6.8 1.3 1.2 3.4 2.3 4.8 2.3 1.4 0 3.5-0.8 4.6-1.8 1.2-1 2.7-3.4 3.3-5.3 0.6-1.9 1.1-5 1.1-6.8 0-1.7-0.7-4.9-1.5-7-0.8-2-2.6-4.3-4-5-1.4-0.6-3.1-1.2-3.9-1.2-0.8 0-2.7 1-4.1 2.2zm335.8-1.3c-1.2 0.5-2.8 1.7-3.7 2.7-0.9 1.1-1.9 4.4-2.2 7.4-0.5 4.4-0.2 6.4 1.5 10.2 1.6 3.6 2.8 5 4.9 5.4 1.5 0.3 3.7 0.1 5-0.5 1.2-0.6 2.9-2.7 3.7-4.6 0.8-1.9 1.5-5.9 1.5-8.8q0-5.2-2-8.5c-1.1-1.7-2.4-3.2-3-3.2-0.5 0-1.6-0.2-2.2-0.4-0.7-0.3-2.3-0.1-3.5 0.3zm354.5 0.2c-2.1 0.7-3.2 2-4.3 5.4-0.9 2.8-1.3 6.3-0.9 9.3 0.3 2.6 1.3 6 2.2 7.5 0.9 1.5 2.6 3 3.7 3.4 1.1 0.3 3.2 0.2 4.8-0.1 1.9-0.4 3.2-1.8 4.7-4.9 1.1-2.3 2-5.9 2-8 0-2-0.7-5.4-1.5-7.5-0.8-2-2.6-4.3-4-5-1.4-0.6-2.8-1.2-3.2-1.1-0.5 0-2 0.5-3.5 1zm61.3-0.5c-1 0.4-1.4 1.8-1.3 4.2 0 2 0.8 4.3 1.7 4.9 0.8 0.7 2.5 1 3.8 0.7 1.2-0.4 3-1.4 4-2.3 1-0.9 1.8-2.3 1.8-3.1 0-0.8-0.6-2-1.3-2.7-0.7-0.7-2.6-1.4-4.3-1.7-1.6-0.3-3.7-0.3-4.4 0zm212.6 0.4c-0.3 0.8-1.3 4.2-2.1 7.5-0.9 3.3-1.6 6.8-1.6 7.7 0 1.3 0.8 1.8 3 1.8 2.9 0 3-0.2 2.9-4.3 0-2.3-0.4-6.5-0.8-9.2-0.4-2.9-1-4.4-1.4-3.5zm123.8-0.3c-1.6 0.4-1.9 1.2-1.8 4.1 0.1 2 0.9 4.3 1.8 4.9q1.5 1.3 4.3 0.5c1.5-0.5 3.4-2 4.2-3.5 1.3-2.4 1.3-2.8 0-4-0.8-0.8-2.6-1.7-4-1.9-1.4-0.3-3.4-0.3-4.5-0.1zm63 0.3c-1.2 0.5-2.9 2.4-3.9 4.2-1.4 2.5-1.8 4.8-1.5 9.5 0.3 4.2 1 7 2.5 9 1.2 1.5 3 3 4 3.1 1 0.2 2.9 0.1 4.2-0.2 1.3-0.4 3-2.2 4.2-4.9 1.1-2.3 2-6.1 2-8.5 0-2.3-0.7-5.8-1.5-7.7-0.8-1.9-2.4-4-3.5-4.5-1.1-0.6-2.6-1-3.2-0.9-0.7 0-2.2 0.4-3.3 0.9zm60.7-0.2c-0.8 0.4-1.2 2.4-1 5.7l0.3 5h8c0.6-8.5 0.3-9.1-1.9-10.3-1.4-0.6-2.9-1.2-3.3-1.2-0.5 0-1.4 0.4-2.1 0.8zm240 2.7c-0.6 2.2-1.3 6.2-1.4 9-0.3 4.7-0.2 4.9 2.5 5.2 1.5 0.2 2.8 0 3-0.5 0.2-0.4-0.4-4.5-1.3-9.2l-1.7-8.5zm-2078.2 10c0 9 0.4 12.7 1.3 13.1 0.7 0.4 3.2 0 5.7-0.7 3-1 5-2.4 6.2-4.4 1-1.7 1.8-4.8 1.8-7 0-2.2-0.8-5.6-1.7-7.5-1-1.9-2.9-4-4.3-4.7-1.3-0.7-3.9-1.3-5.7-1.3h-3.3zm398.2-8.4c0.2 2.3 1 4.6 1.8 5.2 1.1 0.7 2.5 0.5 4.5-0.4 1.7-0.8 3.4-2.6 3.9-4.2 0.8-2.2 0.7-3-0.4-3.7-0.8-0.6-3.4-1-5.8-1h-4.3zm1739 0.1c0.3 3.8 0.6 4.3 3.1 4.5 1.5 0.1 3.6-0.2 4.7-0.7 1.1-0.6 2-2.1 2-3.3 0-1.2-0.5-2.8-1.2-3.5-0.7-0.7-3-1.3-5.1-1.3l-3.8 0.1zm-653.5 3.7c-1.5 4.1-2.4 7.9-2 8.3 0.5 0.4 1.9 0.7 3.3 0.5 2.3-0.3 2.5-0.8 2.8-5.8 0.2-3-0.1-6.6-0.6-8-0.8-2.3-1.1-1.8-3.5 5zm-1544.7 0.8c-1.2 3.7-1.8 7.1-1.3 7.5 0.4 0.4 1.9 0.7 3.3 0.5 1.6-0.2 2.6-1 2.8-2.3 0.2-1.1 0.2-4.4-0.1-7.2-0.3-2.9-1-5.3-1.6-5.3-0.5 0-1.9 3-3.1 6.8zm526-4.3c-0.7 1.7-1.8 4.8-2.6 7-0.8 2.2-1.1 4.4-0.7 4.8 0.5 0.4 1.9 0.7 3.3 0.5 2.3-0.3 2.5-0.8 2.8-5.3 0.2-2.7-0.1-6.1-0.6-7.5l-1-2.5zm1779.8-1c-0.3 0.6-1.3 3.5-2.2 6.5-1 3-1.4 5.9-0.9 6.3 0.4 0.4 1.9 0.7 3.3 0.5 2.3-0.3 2.5-0.7 2.4-5.3 0-2.7-0.5-5.9-1.1-7-0.6-1.1-1.2-1.5-1.5-1z"/>
	</g>
</svg>