<?xml version="1.0" encoding="UTF-8"?>
<svg version="1.1" viewBox="0 0 1600 1333" width="2400" height="2000" xmlns="http://www.w3.org/2000/svg">
<path transform="translate(0)" d="m0 0h1600v1333h-1600z" fill="#FBFBFB"/>
<path transform="translate(792,33)" d="m0 0h38l23 2 17 3 21 6 18 7 19 10 16 11 13 12 10 10 10 13 10 16 7 14 8 24 9-2 15-4 13-2h31l18 4 17 7 15 9 10 8 11 10 11 14 10 14 6 11 8 19 4 14 2 13v25l-2 15-5 20 5 2 6 5 5 5 11 12 9 11 8 9 2 5h2l3 3 4 7 8 9 3 5 13 18v2h2l1 5h2l6 11 10 17 9 16 12 23 5 11 14 38 8 26 3 9 4 16 4 17 3 16 1 10 3 21 1 16 3 9v2h2l3 3 7 4 9 4 12 4 8 6 2 4v9l-3 15-3 12-3 8-4 15-4 8-2 6 10 4 29 9 43 14 44 15 7 3v2l-14 11-15 13-11 9-10 9-8 7-10 9-8 7-24 22-4 4 1 11 8 49 8 64 1 14-54-18-31-10-26-8-54-16-10-3 2-5 13-21 10-18 7-14-7-1-38-9-62-13-49-9-57-9-57-7-43-4-40-3-37-2-32-1h-80l-38 1-54 3-47 4-47 5-58 8-53 9-65 13-49 11-21 6 8 16 12 21 12 19v1l-13 3-8 3-25 7-19 6-30 9-48 16-26 9h-4l1-31 2-32 5-56 1-15-16-16-7-8-45-45-8-7-17-17-2-1 1-3 10-3 10-4 69-23 13-4 17-5 8-3-5-14-4-13-5-15-4-16-1-3v-13l4-6 10-5 29-10 6-4 3-4h2l1-7 4-20 1-16 2-12 2-11 6-30 4-16 7-23 3-9 6-16 3-9 6-13 5-11 8-14 2-4h2l2-5 4-7 4-2 9-16 12-19 12-17 15-20 5-10 3-34 5-23 6-18 7-15 7-12 12-17 15-16 13-13 14-11 19-12 23-12 21-8 25-7 10-25 9-19 12-18 9-11 12-13 10-9 17-13 15-9 21-11 25-9 25-7 14-3 23-3z" fill="#E4E2CE"/>
<path transform="translate(740,648)" d="m0 0h139l64 3 52 4 51 5 36 4h6v2l23 3 52 8 48 9 40 8 31 7 18 5 26 6 2 1v-16l1 3 6 2 11 5 24 8 5 4 2 5 2 1-1 9-10 36-6 19 12 3 30 10 20 6 42 14 31 11 5 2v2l-14 11-15 13-11 9-10 9-8 7-10 9-8 7-24 22-4 4 1 11 8 49 8 64 1 14-54-18-31-10-26-8-54-16-10-3 2-5 13-21 10-18 7-14-7-1-38-9-62-13-49-9-57-9-57-7-43-4-40-3-37-2-32-1h-80l-38 1-54 3-47 4-47 5-58 8-53 9-65 13-49 11-21 6 8 16 12 21 12 19v1l-13 3-8 3-25 7-19 6-30 9-48 16-26 9h-4l1-31 2-32 5-56 1-15-16-16-7-8-45-45-8-7-17-17-2-1 1-3 10-3 10-4 69-23 13-4 17-5 12-4h2l-3-12-5-17-8-26-1-8 3-2 2-6 6-4 36-12 7-2v12l18-5 26-6 15-4 41-9 58-11 43-7 50-7 50-6 53-5 41-3 36-2z" fill="#C1490F"/>
<path transform="translate(673,929)" d="m0 0h6l6 7 11 17 4 6v2l11-3 25 6 15 3 31 3h44l24-3 28-6 27-9 8-3 3 1 8 16v9l-2 9 6-2 5-3 10-4 13-3 10-4 24-6 34-6 25-3 29-2 37-1 5 4 5 11-1 7-10 17-5 1-13-2-25-1h-21l3 3 13 6-4 1-17-6h-13l-1 8 8 5 21 9 19 5 19 3h10l1-5-5-4 1-2 8 2h8l18-8 4 1 8 11 1 2 11 2h35l21-2 8-1 7 6 2 4-1 9-1 5h11l6 3 3 13 1 4v7l-9 6-15 6-4 5 1 5 2 3-1 9-2 4-12 7-6 7 10-2 31-2 19-1h18l5 5 5 10-1 6-10 18-13-1-7-1h-39l-31 3-28 5-9 4-17 12-21 14-23 13-23 11-31 11-13 3-4-4-4-10-2-13-13 5-23 11-24 9-21 7-28 7-28 5-14 2h-19l-7-4-4-7-2-9v-6l8-3 13-3-3-4h-7l-24 7-29 6-18 3v2l8 7 3 4-1 7-5 10-10 9-6-1-33-17-16-8-29-15-6-1-22 8-10 5h-9l-7-3-10-6-8 1-27 8-17 7-5 1-13-12 1-8 3-9 2-3-26 2-25 1h-19l-23-1-24-3-15-4-6-4-4-8 1-5 5-6 11 1 29 3v1l-25 1-6 1 1 3 20 4 15 2h33l14-3 8-3-1-6-1-1h-16l-2 1h-19l-10-3-19-3-31-6-26-8-17-6-13-7-3-5-1-7 4-6 8-10v-2l-16-2-10-3-3-3-3-11v-7l46-1-8-16 3-9 3-7 3-2 18-1 3 1 32 2 15 2 3 1-8-11-3-4 1-4 8-10 8-6-17-3-16-5-10-5-5-4 2-18 3-6 4-3h10l-1-14 4-6 4-3 18 1 13 1h25l10-1 3-2 6-11 2-2 6 1 13 7h7l7-1-3 4v5l2 1h11l23-5 16-6 19-10-1-6-2-2h-8l-17 4-3-1 20-11 5-3 5 2 6 10 2 6v10l-1 14-4 4-11 5-7 2 1 2 7 1h27l19-2 2-2-7-8-11-16-2-4v-6l6-9 4-4 11-5z" fill="#F2BB03"/>
<path transform="translate(550,663)" d="m0 0h10l-2 3-14 3-9 3-16 4-4 2-2 3-1 9h-1v-9h-2l1 6-6 9-3 3v5h-2l1 3-4 1-1 6 2-1v3l4-1 1-2h2l1 63 1 55-4 1 5 28v3l31-5-1-11-2-14v-5h-6l-1-14 6-2 7-1 3 11-1 4h-4l5 31 30-4h6l-4-31-4-1-14-50-8-29-7-23v-5h5l4 4 7 17 5 21 3 9 2 8 3 8v6l2 4v10l3 8h4l2-3 2 9 3 25 2 5 11 4 5 1h16l10-4 5-4 5-9 3-14v-20l-3-17-5-12-6-8-7-6-16-9-2-3v-6l3-3h5l3 4v4l21-2-1-14v-12l2 1 1 3 4 1 1-12 2 3 2 22v10h16l-3 2-12 1-5 3-18 3-1 4 4 2 9 10 5 5 6 15 3 12 1 19v9l-3 16-4 10-4 3h-3v2l-13 2-34-5-1 2-6 4-2 2-19 4-10 2-21 5-6 2-11 2-5 3-2 5-6 9-1 9-3 3h-2v2l6-1 4 2 12 3 7-1h9l-2 2-43 7-48 9-52 11-39 9-13 4 8 16 12 21 12 19v1l-13 3-8 3-25 7-19 6-30 9-48 16-26 9h-4l1-31 2-32 5-56 1-15-16-16-7-8-45-45-8-7-17-17-2-1 1-3 10-3 10-4 69-23 13-4 17-5 12-4h2l-3-12-5-17-8-26-1-8 3-2 2-6 6-4 36-12 7-2v12l18-5 26-6 15-4 41-9 58-11 43-7 50-7z" fill="#A22204"/>
<path transform="translate(1087,664)" d="m0 0 1 2 23 3 52 8 48 9 40 8 31 7 18 5 26 6 2 1v-16l1 3 6 2 11 5 24 8 5 4 2 5 2 1-1 9-10 36-6 19 12 3 30 10 20 6 42 14 31 11 5 2v2l-14 11-15 13-11 9-10 9-8 7-10 9-8 7-24 22-4 4 1 11 8 49 8 64 1 14-54-18-31-10-26-8-54-16-10-3 2-5 13-21 10-18 7-14-7-1-38-9-62-13-49-9-12-2 1-3 6-2h5l1-1-4-1-5-3-2-4-1-13-9-7v-2l-12-3-7-6-7-2-11-2-10-3-12-2-25-5-12-3-6-5v-1h13l14 2 2-19 1-12-4-1 1-9 2-5 12 1v15l-6 1-3 25-1 5 12 1 25 4 1-11 2-12v-8l-2-1v-118l4 1 4 4 1 4 4 1 2 16 2 32v22l-1 4v13l2 11 1-7h1v9l-2 11h-5l-3 16-2 14 30 5 10 2 2-13 3-18-8-1 1-10 3-17 8 1h14l8-5 6-8 4-10 4-14 2-15v-12l-2-9-4-7-6-4-10-3-39-7-4-2 1-1h7l5 1h3l4 2 8-1 2 1v-4h-5v-3l-7-3-9-8 1-4-1-5-2 1h-6l1-6h7l-1-4h2l-1-3-4-1-4-4h-8l-5-3-13-2v-1z" fill="#A22104"/>
<path transform="translate(1140,192)" d="m0 0 6 5 11 15 5 7 6 11 8 19 4 14 2 13v25l-2 15-5 20 5 2 6 5 5 5 11 12 9 11 8 9 2 5h2l3 3 4 7 8 9 3 5 13 18v2h2l1 5h2l6 11 10 17 9 16 12 23 5 11 14 38 8 26 3 9 4 16 4 17 3 16 1 10 3 21 1 16 3 9v2h2l3 3 7 4 9 4 12 4 8 6 2 4v9l-3 15-3 12-3 8-4 15-4 8-2 7-7-2 2-10 7-23 7-26 1-5-3-1-3-6-8-4-21-7-15-7-1 13-19-4-25-6-15-4-47-10-59-11-72-11-4-2-14-1-36-4-65-6-49-3-44-2-121-1v-1l40-1-4-4 1-3 10-2h21l12-3 13-1h21l10 1 8-1 7 1 9-1 21-1 5-2 9-1 11-1 5-2h15l6 2v3l12-3v-6h2v-2l2-1 3-41 3-13v-14l4-5 3-6 3-12 1-3v-10l-5-2v-1l5-1-1-4 3-3 5 2 1 4h7l11 6 16 10 11 8 13 10 10 8 2 2 2-4-3-1-4-6 1-4-6-2 4-2 9 5v2l4 1v2l3 1v3 2l-4 2 1 4-4 2h-1l1 12v3l-1 47-1 24 6-2 3-3 2-5 3-28 2-23 2-3 7-2 9-4 9-6 11-6 10-8 8-8 1-4-5 2v4h-2l-4-10 1-7 1-1 2-13 2 1 1-2 2-1 1-40 3-20-1-13v-29l-2-13v-8l-1-5v-15l2-5-5-2-9-3 1-3 8-7 4-6v-5l-5-2 1-5h2l-3-5-3-4v-7l2-4 2 3 3 1 1-17 1-7v-13l2-19 2-5-1-8-2 1v-2l-3 1-2-5-1-15h-2l-6-15-4-5v-3l3-2-8-10z" fill="#C6C4BC"/>
<path transform="translate(673,929)" d="m0 0h6l6 7 11 17 4 6v2l11-3 25 6 15 3 31 3h44l24-3 28-6 27-9 8-3 3 1 8 16v9l-2 9 6-2 5-3 10-4 13-3 10-4 24-6 34-6 25-3 29-2 37-1 5 4 5 11-1 7-10 17-5 1-13-2-25-1h-21l3 3 13 6-4 1-17-6h-13l-1 8 8 5-3 1-8-4 2 4v4l-39 2-25 5-33 6-24 7-28 11-18 8-23 10-9 4-5-1-2-2 9-3 20-7 56-24 6-3 1-3-4-2-5-4-6 1-15 6-26 12-19 12-6 1-2 4-9 8-4 2v9l-16 21-13 16-12 13-12 12-5 3-9 9-22 18-4 3-4-2v-5l13-12 10-10 6-5 6-8 7-7 9-11 9-10 1-2-5-2-16-8-12-5-1-1h-9l-18 4 10 7 3 2v2l-6 5-5 6-7-1-8-4-4 2-1 1h-11l-14-11-13-8-19-10-18-7-7-2v-1l8-1 6 3 5 2h21l4-4 3-4 12-3 17-5 1-2-6-2-51-8-24-6-13-3h-13l15 1 25 6 11 3v1l-41 6-11 3-13 1h-11l-5-2-9-8h-4l-1 8h-2l3 8 12 9-3 3-16 5 13 13 11 9 11 10 19 14 5 5 7 8 14 10-3 1-20-9-14-8-3-4-4-9-4-6-11-7-18-8 1 2-4 2-4 1-17 9-14 9-16 8-3-1 10-7 1-1 2-10v-4l-5 2-8 7-14 11-3 1-1 3h-8l-6 2h-9l-28 3 5 9 11 13 7 6 17 6 17 3 13 3 6 1-1 5-3 1h-17l-40-7-24-7-16-7-8-4-11-2-3-5-1-3-1-2 7-9v-2l-16-2-10-3-3-3-3-11v-7l46-1-8-16 3-9 3-7 3-2 18-1 3 1 32 2 15 2 3 1-8-11-3-4 1-4 8-10 8-6-17-3-16-5-10-5-5-4 2-18 3-6 4-3h10l-1-14 4-6 4-3 18 1 13 1h25l10-1 3-2 6-11 2-2 6 1 13 7h7l7-1-3 4v5l2 1h11l23-5 16-6 19-10-1-6-2-2h-8l-17 4-3-1 20-11 5-3 5 2 6 10 2 6v10l-1 14-4 4-11 5-7 2 1 2 7 1h27l19-2 2-2-7-8-11-16-2-4v-6l6-9 4-4 11-5z" fill="#F3BC03"/>
<path transform="translate(771,894)" d="m0 0h80l53 2 44 3 45 4 52 6 54 8 57 10 53 11 19 4-2 1-3 9-12 20-11 17-13 18-8 10-1 3 32-2h9v1l-21 2h-35l-11-2-10-14-6 1-15 7h-8l-8-2 5 5-1 5-1 1h-10l-24-4-17-5-20-9-6-4-1-5 2-5h13l17 6h2l-14-7v-2l12-1h13l21 1 17 2 11-19-1-7-5-10-3-2-37 1-40 3-32 5-29 6-20 6-4 2-10 2-12 5-7 4-3-1 2-9v-9l-7-14v-2l-7 1-15 6-16 5-28 6-24 3h-44l-31-3-37-8-5-1-4 2h-5l-12-19-8-11-1-1-9 1-12 5-4 2-6 10-1 1v6l7 12 11 14 2 3-3 2-19 2h-27l-7-1-1-3 18-8 3-3 1-14v-10l-4-9-4-7-4-1-23 13 14-3 4-1h8l4 5-1 5-19 10-19 7-20 4h-11l-3-2 1-7v-1l-4 1h-7l-15-8-5 1-7 12-3 2-10 1h-25l-23-2h-8l-5 4-2 4v14l-10 1-5 5-2 13-1 8 1 2-3-1 1-16-8-10-11-17-16-27-1-5h-5v-1l57-12 42-8 47-8 58-8 56-6 52-4 40-2z" fill="#D1CFCE"/>
<path transform="translate(1169,346)" d="m0 0h3l7 8 13 13 9 11 10 11 10 13 12 16 14 21 15 25 15 29 12 26 13 35 8 26 9 38 6 38 2 21 1 36-19-4-25-6-2-1-2-20-2-4-4-2-3-6-5-3-8 1-4 1h-10l-9-3h-12l-16-3-2-1h-11l-19 2h-21l-26-3-8-2v-1h9l2 1 30 3-13-2-13-3-8-3-21-1-3-2v-22l2-3 1-23 2-5 5-7 11-9 8-6 12-8 5-5 3-1v-2l5-5 8-9 3-3 6-8 4-5 4-7 8-11 8-15 4-10 5-18 1-2 1-12v-17l-2-14-6-21-7-16-9-15-11-14-7-7z" fill="#D0CECF"/>
<path transform="translate(414,449)" d="m0 0 2 4 7 21 9 19 8 13 10 14 11 12 9 10 10 10 9 7 17 12 12 7-2-4h-3l-3-3-16-10-14-11-5-5v-3l6-1 5-1 9-3h9l2 4 10-2 3-2 9-1 9-2 4 1-2 4-6 7-4 4-5 9-1 7v101l-58 9-41 7-60 12-31 7h-4v-12l4-35 4-25 6-27 9-31 9-25 11-25 12-25 12-22 14-21z" fill="#D0CECF"/>
<path transform="translate(281,702)" d="m0 0h2v12l2 1-36 9-16 5h-2l5 17 6 19 6 21 3 15 7 25 24 81 13 44 5 12 8-1 28-8h2l15 28 16 26 2 4-13 3-8 3-25 7-19 6-30 9-48 16-26 9h-4l1-31 2-32 5-56 1-15-16-16-7-8-45-45-8-7-17-17-2-1 1-3 10-3 10-4 69-23 13-4 17-5 12-4h2l-3-12-5-17-8-26-1-8 3-2 2-6 6-4 36-12z" fill="#903309"/>
<path transform="translate(1363,778)" d="m0 0 1 4-2 7 12 3 30 10 20 6 42 14 31 11 5 2v2l-14 11-15 13-11 9-10 9-8 7-10 9-8 7-24 22-4 4 1 11 8 49 8 64 1 14-54-18-31-10-26-8-54-16-10-3 2-5 13-21 10-18 7-14 16 4 20 6 8-24 9-31 7-23 7-25 15-51 7-28z" fill="#903309"/>
<path transform="translate(509,1128)" d="m0 0 3 1 6 12 24 24 6 4 1-2 5 1 4 3v2l5 2 9 6 21 11 13 5-8-6v-2h-2l-9-9v-2l-4-2-9-9-9-11-12-18v-2l11-2h5l9 11 9 10 5 6 7 6v2l5-5 7-9 18 4 6 1-1-1v-7l3-3 11 7 15 7 17 8 14 6 3 5 7 8 5 4 6-2 7 1 3 3-6 4-1 7 2 5 2 7 9 6 7 3 5 1h19l11-1 4-1 5 5 7 8-1 7-5 10-10 9-6-1-33-17-16-8-29-15-6-1-22 8-10 5h-9l-7-3-10-6-8 1-27 8-17 7-5 1-13-12 1-8 3-9 2-3-26 2-25 1h-19l-23-1-24-3-15-4-6-4-4-8 1-5 5-6 11 1 29 3v1l-25 1-6 1 1 3 20 4 15 2h33l14-3 8-3-1-6-1-1-7-1v-1l6-1-5-4v-2l-4-2-3-2v-2l-4-2-8-7-5-5-10-8-3-2 1-4 8-6 10-5z" fill="#F3BC03"/>
<path transform="translate(1012,504)" d="m0 0 6 2 1 4h7l11 6 16 10 11 8 13 10 10 8 2 2 2-4-3-1-4-6 1-4-6-2 4-2 9 5v2l4 1v2l3 1v3 2l-4 2 1 4-4 2h-1l1 12v3l-1 47-1 5v25l1 3 5 1 5 2 1 11-11-1-4-2-14-1-36-4-65-6-49-3-44-2-121-1v-1l40-1-4-4 1-3 10-2h21l12-3 13-1h21l10 1 8-1 7 1 9-1 21-1 5-2 9-1 11-1 5-2h15l6 2v3l12-3v-6h2v-2l2-1 3-41 3-13v-14l4-5 3-6 3-12 1-3v-10l-5-2v-1l5-1-1-4z" fill="#C6C5BC"/>
<path transform="translate(1169,346)" d="m0 0h3l7 8 13 13 9 11 10 11 10 13 12 16 14 21 15 25 15 29 12 26 13 35 8 26 9 38 6 38 2 21 1 36-19-4-25-6-2-1-4-39-4-27-6-29-8-29-10-28-11-26-12-25-14-25-5-7 1-12v-17l-2-14-6-21-7-16-9-15-11-14-7-7z" fill="#FBFBFB"/>
<path transform="translate(400,386)" d="m0 0h2l8 43 4 15v6l-10 14-12 20-14 27-10 22-8 19-10 30-8 29-6 30-4 30-3 32-15 4-25 6h-5v-42l2-21 6-35 6-25 9-30 9-26 8-20 14-30 12-23 14-23 10-15 13-18 10-13z" fill="#FBFBFB"/>
<path transform="translate(1084,1046)" d="m0 0 12 1 18 4 2 4-3 2-13 1-32 7-23 2-33 1 7 9 3 4v2h2l-1 9-5 17-2 6-9 4-5-1v-3l-34 1-8 7-10 9-3 2-18 1-8-2-14-2h-13l-6 2-1 4 11 3h7l1-1h5l7 7 8 5-1 6v8l35 6 16 2 1 3-13 5-7 3-7-1v-7l-21 1-3 1h-21l-44-5-24-5-17-2v-3l-10-2-30-7-7-3 6-7 10-9 17-17 5-6 4-1 6 9v3l-12 9h-2v2l6-2 2-4 6-4 12-3 29-10 9-4 17-9 6-1-4 5 2 1h3l1-3 9-1 23-6 25-5 34-5 20-1 11-1-4-7-3-3v-2l-8-1-32-1-33 8-6 3-2-1 9-5 30-7 2-2-10-3-1-3 3-1 4-5 7-1 8 1 27 1h22l26-2z" fill="#E3AF01"/>
<path transform="translate(470,719)" d="m0 0h4l4 24v7l-5 1 10 54 4 22v7h6l2 6 3 18v7l-14 3-20 4h-3l-5-26v-6h5l-4-17-7-37-2-9v34l1 45v18l-6 2h-5l-7-15-15-35-16-36-3-5 13 58 1 7 6-1 6 25v6l-29 7h-3l-7-26v-5l4-1-1-7-5-22-9-37-3-16h-7l-5-22-1-8 28-7 17-4h3l6 16 6 13 4 12 5 11 2 6-1-41v-21l16-4z" fill="#FAFAF9"/>
<path transform="translate(410,1064)" d="m0 0 4 1 32 2 15 2 7 2 35 7v2l10 1 10 3 3 2h11l6 2v2l4 2-4 2-4 1-17 9-14 9-16 8-3-1 10-7 1-1 2-10v-4l-5 2-8 7-14 11-3 1-1 3h-8l-6 2h-9l-28 3 5 9 11 13 7 6 17 6 17 3 13 3 6 1-1 5-3 1h-17l-40-7-24-7-16-7-8-4-11-2-3-5-1-3-1-2 7-9v-2l-16-2-10-3-3-3-3-11v-7l46-1-8-16 3-9 3-7 3-2z" fill="#F2BB03"/>
<path transform="translate(812,691)" d="m0 0h42l12 1 8 4 6 7 4 11 1 6v20l-3 16-3 8-5 6v2l5 5 2 4 1 28 3 1v15l-1 15-1 1h-12l-18-1 1-38v-17l-4-6-6-2v31h6v20l-1 11h-39v-17l1-14 5-1 1-84-5-1-1-1v-29z" fill="#FAFAF9"/>
<path transform="translate(593,1026)" d="m0 0h13l34 8 14 3 40 6 7 3-2 3-17 5-12 3-5 7-2 1h-21l-5-2-7-3-4 1 15 5 23 11 16 10 10 8 4 3h11l3-3 6 2 6 3h5l9-10h2l-4-4-11-7v-1l20-4h9l10 5 16 7 8 5-2 4-10 11-6-2-22-12-6-2-12 12-2 1-1 21-2 2-23 1v2l-5-2-17-8-7-5-9-5-12-8-15-11-13-10-10-9-9-7-6-1h-8l5 5 15 12 13 8-2 1-2 4-10 12-3 7-1 9-9-6-17-13-10-9-11-9-13-13 4-2 15-5-4-4-9-7-1-7h2v-8l5-1 10 9 4 1h11l18-2 12-3 29-4 2-1-18-5-14-3-20-1v-1z" fill="#E2AE01"/>
<path transform="translate(540,1093)" d="m0 0 5 1 4 10v4l-18 9 38 15 16 8 25 11 2 3-10 14-3 1-5-6-7-6-9-11-6-7-3-4-16 1 10 16 8 10 12 13 5 5 8 7v2h2v2l4 2 6 4-3 1-20-9-18-10-9-6-5-5-7 1-12-11-17-17-6-12-6 2-13 8-7 4-4 3-1 3 4 2 14 11 5 5 7 6v2l4 2 9 9-16 2-2 1h-19l-10-3-19-3-31-6-26-8-17-6-13-7-3-5-1-7 4-6 4 1 1 6 4 2 8 1 21 10 20 6 17 4 30 5h17l3-1 1-4-12-1-16-4-11-2-16-6-10-10-9-12-3-5 1-2 28-3h10l5-2h8l5-5 15-12 9-7 3 1-1 6-1 8-7 6-4 2 9-3 16-9 11-7 13-7z" fill="#E2AE01"/>
<path transform="translate(1183,731)" d="m0 0 9 1 28 6-1 19-8 92-1 7 4 1-4 17-3 12-3 1-33-7-1-5 6-27 6 1v-14l-10-2-4 10v3l4 1-2 12-4 19-12-2-20-4 1-9 4-21 5-1 1-5 13-37 6-17 18-50z" fill="#FAFAF9"/>
<path transform="translate(533,709)" d="m0 0h8l4 13 14 49 13 47v3l5 1 3 25v6l-36 5-2-7-3-18v-7l4-1-2-10v-4l-12 3v14h6l4 25v5l-7 2-18 3h-7l-4-20-1-11 3-1-1-55v-62l22-4z" fill="#FAFAF8"/>
<path transform="translate(1027,705)" d="m0 0 14 1 23 3v118l3 1v8l-4 23-17-2-20-3 1-12 2-18 1-1h6v-15h-12l-3 13 4 1v12l-3 19-14-1-18-2v-10l2-20 2-2h3l2-10 14-54 13-48z" fill="#FAFAF9"/>
<path transform="translate(741,691)" d="m0 0h60v57l-1 1h-22v-26h-12l1 9v20h9v22l-8 1v13l1 19 10 1v-30l4-1h18v62l-35 1h-30l-1-1v-30l5-1-2-61v-24l-6 1-2-32z" fill="#F9F9F8"/>
<path transform="translate(937,696)" d="m0 0h10l32 3 14 3 8 7 4 10 1 7v18l-3 19-6 15-7 8-9 3h-13l-4-1-1 19-1 8h8v13l-2 19-18-1-23-2v-15l1-14 3-3h4v-13l5-66 1-5h-5l-1-1 1-14z" fill="#FAFAF9"/>
<path transform="translate(1095,714)" d="m0 0 14 2 33 6 10 5 5 6 2 5 1 7v12l-2 15-5 18-6 11-8 7-4 2h-14l-8-2-1 11-3 16 8 1v7l-5 24-10-1-30-5-1-4 4-24 2-4 5 1 2-17 11-67h-5l1-14 3-17z" fill="#FAFAF9"/>
<path transform="translate(601,698)" d="m0 0h16l11 4 7 4 2 11 2 24-1 1-9 1h-12l-3-7h-7v8l4 4 16 9 8 8 7 14 3 12 1 8v20l-3 14-6 10-9 6-6 2h-16l-14-4-4-3-3-20-1-9v-9l14-2h7l4 9h5l2-2v-6l-2-5-4-2-13-8-10-9-4-6-6-16-2-12v-21l2-9 5-9 6-5 9-4z" fill="#FAFAF9"/>
<path transform="translate(377,944)" d="m0 0h9l7 14 14 23 11 16 5 6-1 16 7 3 10 5 18 5 13 2 1 2-9 6-8 10 1 4 9 12v2l-32-3-18-1-4-1-17 1-2 1-1-5-8-8-7-11-4-6v-2h-2l-3-5-5-6-1-8-2-2 12-3-13-21-12-21-7-14 10-4z" fill="#FBFBFB"/>
<path transform="translate(1028 1e3)" d="m0 0 3 1 4 7-1 19-3 9 16-1-2 2-15 2-6 2-62 1-24 2-16 3-19 6-47 24-19 10-7 6h-2l-7-22-1-4-1-9 8-6 7-6 1-2 8-3 14-9 16-8 16-7 12-5 6-1 9 7-1 4-22 10-35 15-19 7-6 2-7 2 2 2 5-1 60-26 18-7 27-7 45-8 8-2 21-1h18z" fill="#E2AE01"/>
<path transform="translate(715,692)" d="m0 0h7l1 2 1 30v15l-17 1-1-1v-14h-6l2 28 2 42 2 14 5 1 1 6 1 25-25 2h-15l-2-16v-15l5-1-1-25-3-48-1-11h-5v15l-4 1h-13l-4-42v-4l19-2 29-2z" fill="#F9F9F8"/>
<path transform="translate(1174,334)" d="m0 0 1 2 5 2 6 5 5 5 11 12 9 11 8 9 2 5h2l3 3 4 7 8 9 3 5 13 18v2h2l1 5h2l6 11 10 17 9 16 12 23 5 11 14 38 8 26 3 9 4 16 4 17 3 16 1 10 3 21 1 16 3 9v2h2l3 3 7 4 9 4 12 4 8 6 2 4v9l-3 15-3 12-3 8-4 15-4 8-2 7-7-2 2-10 7-23 7-26 1-5-3-1-3-6-8-4-21-7-15-7-2 2-2-39-6-39-6-28-8-30-10-29-11-27-16-33-12-22-15-24-12-17-10-13-11-14-9-10-9-11-18-18-1-6z" fill="#D0CECF"/>
<path transform="translate(645,708)" d="m0 0 2 3 2 22v10h16l-3 2-12 1-5 3-18 3-1 4 4 2 9 10 5 5 6 15 3 12 1 19v9l-3 16-4 10-4 3h-3v2l-13 2-34-5-1 2-6 4-2 2-19 4-10 2-21 5-6 2-11 2-5 3-2 5-6 9-1 9-3 3h-2v2l6-1 4 2 12 3 7-1h9l-2 2-43 7-28 5-4-1 2-1-10-2h-5l-2-5 2-4 2-7 5-4 6-8 2-6 6-3 2-2 9-2 12-4h5l1-1h7l4-1v-2l10-3 16-3 6-2 29-6 10-4-1-1-3-1v-1h6l-4-31-4-1-14-50-8-29-7-23v-5h5l4 4 7 17 5 21 3 9 2 8 3 8v6l2 4v10l3 8h4l2-3 2 9 3 25 2 5 11 4 5 1h16l10-4 5-4 5-9 3-14v-20l-3-17-5-12-6-8-7-6-16-9-2-3v-6l3-3h5l3 4v4l21-2-1-14v-12l2 1 1 3 4 1z" fill="#A93206"/>
<path transform="translate(550,663)" d="m0 0h10l-2 3-14 3-9 3-16 4-4 2-2 3-1 9h-1v-9h-2l1 6-6 9-3 3v5h-2l1 3-4 1-1 6 2-1v3l4-1 1-2h2l1 63 1 55-4 1 1 9-2-2-1-4-4 2 1 8-2 2-2-12-6-1-9-51-5-28v-4l5-1-4-25v-6l-6-1-8-2v2l-6 1-10-1h-11l5-6 8-10 2-12v-3l26-8 3-3 5-1-5-1v-1l57-8z" fill="#AA3106"/>
<path transform="translate(1017,1201)" d="m0 0h4l2 10v7l-4 3-15 8-19 6-13 4-18 5-21 6-25 5-13 2-10 2-61 5h-35l-8-3h-3l6-7 4-9-1-7-7-7-3-2 1-3 39-7 30-8 2-1h7l3 3v2l-20 6 1 11 4 10 7 4h19l32-5 27-6 27-8 29-11z" fill="#CFCDCB"/>
<path transform="translate(1140,192)" d="m0 0 6 5 11 15 5 7 6 11 8 19 4 14 2 13v25l-2 15-4 16-4 10v4h-3l-1 5 9 9 11 15 8 14 8 20 5 20 1 9v17l-1 13-3 7-3 12-5 12-10 18-8 10-2 2-5-3 3-15 3-4 1-5 1-20v-20l1-4h2v-4l-2-1-1-5 1-7h1l1-12h-2l-1-18v-16l1-11v-12l-2-2v-3h-2l-1-2-4 1h-9l-1-3-4-1h5v-2h-10l3-6 4-5 1-7-5-2 1-5h2l-3-5-3-4v-7l2-4 2 3 3 1 1-17 1-7v-13l2-19 2-5-1-8-2 1v-2l-3 1-2-5-1-15h-2l-6-15-4-5v-3l3-2-8-10z" fill="#C7C19C"/>
<path transform="translate(1081,535)" d="m0 0 5 2 6 3v2l4 1v2l3 1v3 2l-4 2 1 4-4 2h-1l1 12v3l-1 47-1 5v25l1 3 5 1 5 2 1 11-11-1-4-2-14-1-36-4-65-6-49-3-44-2-121-1v-1l85-1 11-1h21l12-1 9-1 7-2h11l7-2h10l5 1 24-2h19l7 1 33 1 6-1v1h9v-2l20-1 13-2 3-3h2l1-4 3-4-1-9v-16l1-5 1-8 1-2 1-11 3-10 4-1 1-7 3-2 1-3-3-1-4-6 1-4-6-2z" fill="#C6C19C"/>
<path transform="translate(1226,943)" d="m0 0 11 1 29 7 7 2-2 7-12 22-13 21-5 8 7 1 10 3-3 1 3 6-10 15h-2v4l5 1 3 7 1 12-2-4-3-13-5-2-11-1 1-14-2-4-6-5-36 2h-13l1-4 10-13 13-18 21-35z" fill="#FBFBFA"/>
<path transform="translate(521,644)" d="m0 0h1l1 23-58 9-41 7-60 12-31 7h-4v-12l2-10 2-4h6l6-6 14-2 14-3 4-3h16l5-1v-1h5l1 1 16-1 4 1 13-1 11-1 13-1 9-3 19-3 21-4 9 1z" fill="#C6C5BC"/>
<path transform="translate(594,1061)" d="m0 0h32l15 5 23 11 16 10 10 8 4 3h11l3-3 6 2 6 3h5l9-10h2l-4-4-11-7v-1l20-4h9l10 5 16 7 8 5-2 4-10 11-6-2-22-12-6-2-12 12-2 1-1 21-2 2-23 1v2l-5-2-17-8-7-5-9-5-12-8-15-11-13-10-10-9-9-7-6-1h-7v-1z" fill="#CB9B0C"/>
<path transform="translate(740,1177)" d="m0 0 7 1 19 8-1 4 2-1 10 1 19 5 17 4 29 5 10 4v2l-19 6-26 6-29 5-5 2-11 1h-19l-9-3-10-5-4-4-2-8-1-7 3-5 4-3-5-3 3-3 16-10z" fill="#E2AE01"/>
<path transform="translate(1137,847)" d="m0 0h1l-1 11-3 16 11 12 2 1v2l3 1v2h2l2 5 4 4 5 3 2 2-1 7 2 4h2l4 7-8 5-13-2-46-8 1-3 6-2h5l1-1-4-1-5-3-2-4-1-13-9-7v-2l-12-3-7-6-7-2-11-2-10-3-12-2-25-5-12-3-6-5v-1h13l14 2-4 2 7 1 9 3 14 1 9 2 13 1 9 4 9 3 28 5 7-1v-2h2l1-5 3-4h2l1-3 3 2-2-4h-2l2-10z" fill="#A93106"/>
<path transform="translate(1087,664)" d="m0 0 1 2 23 3 45 7-3 1v3l7 2 6 1v3h2l4 5-3 1-3 12 1 3 4 2 3 5 7 5-1 4-4 4-6 11h-2l-3-6-5-5-4-1-2 1-1 2-6-4-10-3-39-7-4-2 1-1h7l5 1h3l4 2 8-1 2 1v-4h-5v-3l-7-3-9-8 1-4-1-5-2 1h-6l1-6h7l-1-4h2l-1-3-4-1-4-4h-8l-5-3-13-2v-1z" fill="#AA3206"/>
<path transform="translate(1081,1111)" d="m0 0h7l4 3-2 2 1 5 6 12v2l-35 9-35 6-25 3-20 1h-17l-26-2v-2l-18-3-6-3-4-4h-5l-1 1h-7l-11-4 1-5 6-2h13l14 2 8 2 20 4h15l28-1 25-3 26-5 33-10 2-1-5 1 6-7z" fill="#FDE834"/>
<path transform="translate(912,949)" d="m0 0 4 1 8 16v5l-7 1-32 8-28 5-25 3-17 1h-23l-18-1v-2h-8l-10-3-11-2-5-4-1-2h-5l-1 1h-8l-12-6 2-4 16 1 38 5 21 3 9-1 3-2 28-1 23-3 22-5h3v-2l27-9z" fill="#FCE633"/>
<path transform="translate(866,1136)" d="m0 0h3l1 9 8 4h9l16-8 3-2h5l7 7 8 5-1 6v8l35 6 16 2 1 3-13 5-7 3-7-1v-7l-21 1-3 1h-21l-44-5-24-5v-2l-7-2-6-3 5-5 25-14z" fill="#E3AF01"/>
<path transform="translate(636,1149)" d="m0 0 11 6 3 2 28 13 16 7 3 5 7 8 5 4 6-2 7 1 3 3-6 4-5 14-6-2-26-12-8-3-40-13-30-9-4-3 2-5 9-12 18 4 6 1-1-1v-7z" fill="#FDE834"/>
<path transform="translate(400,384)" d="m0 0 1 2-6 10-13 17-14 20-12 20-12 21-17 35-8 20-9 25-9 29-4 14-5 24-5 29-2 21v43h-2v-12l-18 7-17 5-10 4-4 2-2 7-2 1 1 8 8 26 7 23v6l-4 1-3-3-4-11-4-13-5-15-4-16-1-3v-13l4-6 10-5 29-10 6-4 3-4h2l1-7 4-20 1-16 2-12 2-11 6-30 4-16 7-23 3-9 6-16 3-9 6-13 5-11 8-14 2-4h2l2-5 4-7 4-2 9-16 12-19 12-17 15-20z" fill="#CFCCC9"/>
<path transform="translate(1153,1163)" d="m0 0 4 2-19 14-17 11-23 13-23 11-31 11-13 3-4-4-4-10 1-8 5-1h9v-2l16-5 29-11 9-4 16-7 38-12z" fill="#E1AD01"/>
<path transform="translate(370,1138)" d="m0 0 4 1 1 6 4 2 8 1 21 10 20 6 17 4 30 5h17l3-1 1-4-12-1-16-4-5-2 1-3 12-9 4-5 2 1-2 4 4 2 14 11 5 5 7 6v2l4 2 9 9-16 2-2 1h-19l-10-3-19-3-31-6-26-8-17-6-13-7-3-5-1-7z" fill="#E2AE02"/>
<path transform="translate(1103,950)" d="m0 0h12l5 4 2 4v7l-6 1-6-1h-44l-29 3-23 4-21 5-38 12-31 7-4-1-1-4 6-1 11-7 31-12 15-4h5v-2l10-2 5-2 17-3h5v-2l25-3 29-2z" fill="#FBE532"/>
<path transform="translate(509,1128)" d="m0 0 3 1 6 12 24 24 8 7 5 6 6 4 8 6-1 2-33 6-12 1 2-2-1-6-1-1-7-1v-1l6-1-5-4v-2l-4-2-3-2v-2l-4-2-8-7-5-5-10-8-3-2 1-4 8-6 10-5z" fill="#F3BC03"/>
<path transform="translate(1269,1115)" d="m0 0h18l5 5 4 8-1 2h-58l-28 3-29 5-15 4-35 11-21 5-9 1 1-5 5-4 22-10h2v-2l19-6 17-3 5-2 26-5 16-3 16-2z" fill="#FCE733"/>
<path transform="translate(1139 1e3)" d="m0 0 4 1 8 11 1 2 11 2h35l21-2 8-1 7 6-1 2-12 6-21 5-17 2h-18l-24-2-25-4-19-5-27-9 4-1 24 4h10l1-5-5-4 1-2 8 2h8z" fill="#FBE633"/>
<path transform="translate(774,1157)" d="m0 0 6 1 26 6 5 1 26 2 24 5 44 5 37 3-1 3-19 10h-20l-34-4-24-4-1-1-31-4-19-5-20-8-3-4 2-4z" fill="#FCE733"/>
<path transform="translate(602,992)" d="m0 0 9 2 24 5 60 9 54 6 21 2-4 4-15 8h-24l-33-4-22-4-1-1-27-3-18-4-19-7-9-4-1-4z" fill="#FDE834"/>
<path transform="translate(525,954)" d="m0 0 6 1 13 7h7l7-1-3 4v5l2 1h11l23-5 6-1-2 2-25 9-30 8-19 3-10 1h-21l-17-2-16-4-13-5h-3l2-5 5-4 18 1 13 1h25l10-1 3-2 6-11z" fill="#FCE733"/>
<path transform="translate(1084,1046)" d="m0 0 12 1 18 4 2 4-3 2-13 1-32 7-23 2-33 1 7 9-1 2-7-8v-2l-8-1-32-1-33 8-6 3-2-1 9-5 30-7 2-2-10-3-1-3 3-1 4-5 7-1 8 1 27 1h22l26-2z" fill="#E2AE01"/>
<path transform="translate(702,962)" d="m0 0 2 1-1 3 22 9h8l1-1h5l5 5 7 6 2 14-1 1v9l-3 4h-16l-45-5-10-3 4-6 9-4 9-5 9-3 1-2-6-1-6-3-1-9 2-7z" fill="#E3AF01"/>
<path transform="translate(1247,438)" d="m0 0 3 3v2h2l3 6 7 11 3 6 5 9 4 7 3 3 11 20v4h2l6 16 6 14 3 10 5 12 6 18 4 16 2 6 4 20 2 9 2 14 2 21 2 14 3 9 1 6 2-1v2l3 1 2 2 6 3 8 2v2l3-1v2l3-1 9 4 5 2 4 5v2l2 1-1 12-2 6-2 4-1 5-5 19-2 1-3 18v7l-7-2 2-10 7-23 7-26 1-5-3-1-3-6-8-4-21-7-15-7-2 2-2-39-6-39-6-28-8-30-10-29-11-27-16-33-12-22-9-14z" fill="#C7C6BE"/>
<path transform="translate(576,1063)" d="m0 0h11l5 5 15 12 13 8-2 1-2 4-10 12-3 7-1 9-9-6-17-13-10-9-11-9-13-13 4-2 17-5z" fill="#CB9B0C"/>
<path transform="translate(394,533)" d="m0 0h10l20 4v2l9 2 3 3 6 3 7 3 2 2 1 2 12 3 7 2 2 1v2l5 2 3 2h5l6 3 1 2 6 1 4 1 5 1 10 5-1 3-9-4h-2l2 9 1 4-15 2-21-3-3-3-4-7-6-4v-2l-5-1-2-3-6-2-5-8-2-4v-3l-6-1-5-4-4-1 2 5 6 1 2 3v3h-18l-4-4-2-5-5-1-3 3h-3l-3-10-4-8z" fill="#C6C5BD"/>
<path transform="translate(1140,192)" d="m0 0 6 5 11 15 5 7 6 11 8 19 4 14 2 13v25l-2 15-2 2-5 17-3 6-5 5-3 5-1-2 1-7-5-2 1-5h2l-3-5-3-4v-7l2-4 2 3 3 1 1-17 1-7v-13l2-19 2-5-1-8-2 1v-2l-3 1-2-5-1-15h-2l-6-15-4-5v-3l3-2-8-10z" fill="#C6C5BC"/>
<path transform="translate(971,1066)" d="m0 0 32 1 8 2 7 9v3l-2 1-9 1-20 1-40 6-32 7-13 4h-6l-1 2-6 1 1-4 7-6 16-8 11-6 10-4 11-4z" fill="#F2BA01"/>
<path transform="translate(1e3 711)" d="m0 0 3 1 2 5h2l1 8 4 2 4 1 3-9h1l-1 9-13 49-5 20-2 1v-2h-5l-9 3-11 1v2h-3l-1 4-1 5 4 7 2 9v21l-3 4h-12l-7-2-11-1-4-2-6-1v-1h16l18 2 1-19 1-13h-8l1-20 1-7h17l9-3 6-7 6-15 3-19v-18l-2-10z" fill="#A63507"/>
<path transform="translate(1174,334)" d="m0 0 1 2 5 2 6 5 5 5 11 12 9 11 8 9 2 5h2l3 3 4 7 8 9 3 5 13 18v2h2l1 5h2l6 11 10 17 9 16 12 23 5 11 14 38 8 26 3 9 4 16 4 17 3 16 1 10 3 21 1 16 3 9v2h2l3 3 7 4 9 4-2 1-12-4-8-5-5-8-2-12-1-14-2-14-2-12-5-27-4-17-7-24-7-20-4-12-4-10-9-21-10-19-7-13-3-5-7-12-4-6-4-7v-3h-2l-5-8-16-22v-3h-2l-4-6-3-3v-3h-2l-2-5h-2l-5-6-4-6-11-12-9-11-6-5-5-5-6-4z" fill="#E0E0DC"/>
<path transform="translate(410,1064)" d="m0 0 4 1 32 2 15 2 7 2 35 7v2l10 1 10 3 3 3-12 3-6 3-9-3-6-3-16-2-25-4-13-1h-38l-16 1 3-9 2-5 3-2z" fill="#FCE633"/>
<path transform="translate(673,929)" d="m0 0h6l6 7 11 17 4 6v2l11-3 25 6 15 3 31 3h44l24-3 23-5h5l-3 2-22 5-23 3-28 1-6 3-11-1-16-2-38-5-16-1-1 4-9-3-3-2v-3l-3 4-1 11v3l12 4-1 3-4 2-5-1-5-6v-2l-4-2-9-10-13-18-8-11 1-5 5-2v-2z" fill="#FBE532"/>
<path transform="translate(812,1051)" d="m0 0 5 1 3 5v11l-16 21-13 16-12 13-12 12-5 3-9 9-22 18-4 3-4-2v-5l13-12 10-10 6-5 6-8 7-7 9-11 12-13 8-10 14-18 2-2h7l-3-3-8-2 3-3z" fill="#FDE834"/>
<path transform="translate(683,1223)" d="m0 0 6 1 39 20 16 8 15 8-2 1-13-6-3 2h-10l-32-4-22-6-18-4-6-4-13-1-2-2h13l15-7z" fill="#D0CECC"/>
<path transform="translate(931,1045)" d="m0 0h10l-1 3-27 18-18 10-28 13-25 10-5-3-1-5 8-6 19-10 3-3 37-19 19-6z" fill="#FDF6A0"/>
<path transform="translate(1273,953)" d="m0 0 16 4 16 5 2 3-3 1h-13l-1 5-4 5-4 8h-2l-2 7-10 16-4 1v2l-6 3 1 2-8-1-10-3 2-5 13-21 10-18z" fill="#7E2808"/>
<path transform="translate(849,1210)" d="m0 0h7l3 3v2l-20 6 1 11 2 6v4l-12 1h-40v-3h-2l-7-8-4-3 1-3 39-7 30-8z" fill="#FAFAF1"/>
<path transform="translate(738,1089)" d="m0 0 6 2 28 15-6 8-15 15-1-2-27 3h-14l-9-2-1 3-2-4 1-1 23-1 1-1 1-21 10-9z" fill="#E3AF01"/>
<path transform="translate(802,472)" d="m0 0h52l39 3 32 5 36 8 4 2-1 2 9-1 3 2-5 1 1 3-9-1-3-2v-4l-13-1-4-2-15 1-10 2h-8l-10-3-10-1-10-2-22-1-11-1-8-1-11 1-7-2-4-2-36-2h-17v-1l20-2z" fill="#C6C5BD"/>
<path transform="translate(489,1088)" d="m0 0 2 1-6 11-7 3-36 5-28 3-9 2-9 1h-15l-24-2-5-5 1-2 40-3 22-1 41-6z" fill="#FDE834"/>
<path transform="translate(537,534)" d="m0 0 4 1-2 4-6 7-4 4-5 9-2 18h-4l-2-1v-2h-3l-3-3-16-10-14-11-5-5v-3l6-1 5-1 9-3h9l2 4 10-2 3-2 9-1z" fill="#D0CEB7"/>
<path transform="translate(1046,1109)" d="m0 0h22l12 1-2 4-3 4 8-3h5l-4 2-30 10-25 6-18 3h-8l-7-6 5-4 15-10 11-4z" fill="#CC9C0B"/>
<path transform="translate(1043,447)" d="m0 0h5l2 2v15l1 12-2 2h-2l1 8h1l3-2 8 20-1 3-7-3-11-6v-2l-6-2-10-5-9-4 1-7 2-5 6-7 5-8h2v-2z" fill="#D0CEB7"/>
<path transform="translate(1032,990)" d="m0 0h13l17 6 15 4 26 10 7 6-1 5-1 1h-10l-24-4-17-5-20-9-6-4-1-5z" fill="#FDF7A4"/>
<path transform="translate(343,466)" d="m0 0 3 1-10 19-15 33-11 29-9 28-8 30-7 38-3 27-1 13-3 5h-2l-1 4-10 6-11 4-24 8-6 5-2 9 3 16 6 20 3 9-1 3-6-16-3-13-2-6-2-7v-13l4-6 10-5 29-10 6-4 3-4h2l1-7 4-20 1-16 2-12 2-11 6-30 4-16 7-23 3-9 6-16 3-9 6-13 5-11 8-14 2-4h2l2-5z" fill="#E1E1DD"/>
<path transform="translate(1080,514)" d="m0 0 24 2 5 2-1 3 6-2h20l2 4-3 6-7 9-11 12-7 7h-2l-1-11-4-6-5-4-4-5-8-5-1 2-1-4-5-5v-4z" fill="#C6C5BD"/>
<path transform="translate(957,626)" d="m0 0h15l6 2-2 5-6 2-15 1-51 2h-10l-16 1h-16l-24 2-2 1-1 3 6 1v1h-34l-9-1-4-4 1-3 10-2h21l12-3 13-1h21l10 1 8-1 7 1 9-1 21-1 5-2 9-1 11-1z" fill="#D0CEB7"/>
<path transform="translate(774,1157)" d="m0 0 6 1 26 6 5 1 26 2 15 3 7 4-1 5-3 3-8 2-20-2-20-3-20-6-14-6-3-4 2-4z" fill="#FDF6A1"/>
<path transform="translate(602,992)" d="m0 0 9 2 24 5 40 6 11 3v6l-3 3-6 2-16-1-22-3-16-4-16-6-9-4-1-4z" fill="#FDF7A4"/>
<path transform="translate(462,1184)" d="m0 0 14 1 10 3h19l2-1h16l3 4-1 5-11 4-11 2h-33l-26-4-9-2-2-4 7-2 17-1-21-2v-1h12l11 1h10l-7-2z" fill="#FCF6A3"/>
<path transform="translate(587,1027)" d="m0 0 21 1 25 6 11 3v1l-41 6-11 3-13 1h-11l-5-2-9-8-4-2 10-3 16-3z" fill="#F2BA02"/>
<path transform="translate(615,941)" d="m0 0h8l4 5-1 5-19 10-19 7-20 4h-11l-3-2 1-7 12-6 23-9 8-3z" fill="#FCF6A3"/>
<path transform="translate(1064,709)" d="m0 0 4 1 4 4 1 4 4 1 2 16 2 32v22l-1 4v13l2 11 1-7h1v9l-2 11-5-1-3-3v-2h-3v-104l-5-4v98l1 13h-3z" fill="#AC3706"/>
<path transform="translate(1027,1173)" d="m0 0 2 1-19 10-19 8-38 14h-3l1-18 29-11 32-2z" fill="#FDE834"/>
<path transform="translate(1068,1074)" d="m0 0h16l16 6 3 2v3l-10 5-13 2-24 1h-20l-4-4v-5l8-4 17-4z" fill="#FDF7A4"/>
<path transform="translate(1021,1212)" d="m0 0 2 4v2l-4 3-15 8-19 6-13 4-18 5-21 6-25 5-13 2-10 2-61 5h-35l-8-3h-3l7-8 1 2v3l9 1h26l16-1 9-1 29-2 22-3 40-8 11-3 12-3 9-3 23-8 13-4 9-4 5-3h2z" fill="#E1E1DC"/>
<path transform="translate(850,1009)" d="m0 0h6l-5 4-27 12-24 9-20 7h-2v-17l12-5 17-6 35-3z" fill="#FDE834"/>
<path transform="translate(894,1130)" d="m0 0h13l14 2 8 2 31 6 11 4 2 4-5 4h-19l-14-2-5-2-9-1-6-3-4-4h-5l-1 1h-7l-11-4 1-5z" fill="#FCF6A0"/>
<path transform="translate(813,1111)" d="m0 0h2l6 9v3l-14 10 1 10 4 13v4l-10-1-25-6-4-2 6-7 10-9 17-17 5-6z" fill="#CB9B0C"/>
<path transform="translate(509,1128)" d="m0 0 3 1 6 12 24 24 8 7 5 6-10 1-14-7-14-10-15-13-9-9 2-4z" fill="#FDE834"/>
<path transform="translate(968,1115)" d="m0 0h34v3l3 1-4 3-25 12-1 1 9-1 10-4 5 1v2l4 2v2l-11 1-28 1h-15l-14-3v-2l12-1 14-12z" fill="#F3BB03"/>
<path transform="translate(774,1192)" d="m0 0 11 2 28 7-1 2-26 4-9 1-8 3-12 2h-18l-4-2-3-4 2-7h-2v-2h22l14-3z" fill="#F2BA01"/>
<path transform="translate(613,1162)" d="m0 0h12l16 4 20 7 16 8 4 4-1 6-3 2-8-1-27-9-19-8-10-5-2-2 1-5z" fill="#FDF7A4"/>
<path transform="translate(474,719)" d="m0 0 4 1 3 4 5 16v28l3 29 4 25 2 10-3 2h-5l-9-51-5-28v-4l5-1-4-25z" fill="#9F2605"/>
<path transform="translate(366,1012)" d="m0 0h6l8 12 11 15 9 11 11 13-1 2-17 1-2 1-1-5-8-8-7-11-4-6v-2h-2l-3-5-5-6-1-8-2-2z" fill="#D0CECD"/>
<path transform="translate(336,954)" d="m0 0h2l15 28 16 26 2 4-13 3-6 2-4-1 3-5 2-1v-6l-9-16-5-10v-2h-2l-5-8-29-2 1-3z" fill="#7E2808"/>
<path transform="translate(1205,1088)" d="m0 0 4 2 8 5h10l2 2-1 8-13 8-7 8-17 3-15 3h-6l2-4 11-6 8-9 10-14z" fill="#E2AE01"/>
<path transform="translate(540,1071)" d="m0 0 4 1 12 12 11 9 11 10 19 14 5 5 7 8 14 10-3 1-20-9-14-8-3-4-4-9-4-6-11-7-18-8-17-6-6-5 3-3z" fill="#E0DED0"/>
<path transform="translate(1093,1114)" d="m0 0 11 1 27 8 4 2-5 5-6 7-16 8-11 5-3-1 1-7 1-9-6-12 1-5z" fill="#CB9B0B"/>
<path transform="translate(987,966)" d="m0 0h14l3 5v2l-11 4-38 12-31 7-4-1-1-4 6-1 11-7 31-12 15-4z" fill="#FDF7A4"/>
<path transform="translate(1327,672)" d="m0 0 2 3 1 7 3 4 1 3 3 2 1 3 2-1v2l3 1 2 2 6 3 8 2v2l3-1v2l3-1 9 4 5 2 4 5v2l2 1-1 12-2 6-2 4-1 5-5 19-2 1-3 18v7l-7-2 2-10 7-23 7-26 1-5-3-1-3-6-8-4-21-7-15-7-2 2z" fill="#C6C4BA"/>
<path transform="translate(715,966)" d="m0 0 16 1 38 5 28 6 3 2v5l-3 2h-23l-16-3-13-3-5-4-1-2h-5l-1 1h-8l-12-6z" fill="#FDF6A2"/>
<path transform="translate(628,1123)" d="m0 0 24 3 17 1 17 6 12 5 1 1 1 17-9-3-24-9-33-16-6-4z" fill="#FDE834"/>
<path transform="translate(1166,1129)" d="m0 0h6l3 5v4l-16 6-29 9-21 5-9 1 1-5 5-4 22-10h2v-2l19-6z" fill="#FDF6A1"/>
<path transform="translate(866,1136)" d="m0 0h3l1 9 11 5-1 3-26 12-9 2-8 1v-2l-7-2-6-3 5-5 25-14z" fill="#CB9B0B"/>
<path transform="translate(1102,1081)" d="m0 0 27 5 28 3 1 21-6-2-12-5-21-6-18-3-21-2v-1l13-2 8-4h2z" fill="#FDE834"/>
<path transform="translate(595,1062)" d="m0 0 6 1 13 11 12 10 19 14 17 11 10 6 8 5 16 8 5 5-1 3-6-2-17-9-3-2v-2l-5-2-12-7-16-9-19-13-12-7-18-14-5-4v-2z" fill="#D3D1C8"/>
<path transform="translate(1065,715)" d="m0 0 7 5v102l-1 2h3l3 4-1 5-3 4-4-1-1-5-2-4-1-13z" fill="#9E2204"/>
<path transform="translate(951,1115)" d="m0 0h15l-2 4-7 7-10 8-18 1-8-2-9-1 3-2-10-2-3-4 2-2 21-4z" fill="#CC9C0C"/>
<path transform="translate(729,903)" d="m0 0 5 1-5 10-1 6h-2v5l-5 8 1 2h-2l1 3-6 3-4-1-4-10-3-3-2-4-7-6 1-4 2-4 16-3 12-2z" fill="#C6C5BD"/>
<path transform="translate(844,777)" d="m0 0 6 1 4 5 1 2v17l-1 32-1 6h18l14 1-4 3-2 1h-26l-32-1-9-2-3-3h40l1-31h-6z" fill="#A9400C"/>
<path transform="translate(705,1047)" d="m0 0h19l28 2-4 3-19 6-18 4-33 1-5-5v-2l22-7z" fill="#FDF6A1"/>
<path transform="translate(645,708)" d="m0 0 2 3 2 22v10h16l-3 2-12 1-5 3-18 3-1 4 4 2 9 10 4 9v5l-2-3-7-14-7-7-19-11-2-3v-6l3-3h5l3 4v4l21-2-1-14v-12l2 1 1 3 4 1z" fill="#A93908"/>
<path transform="translate(448,1123)" d="m0 0h9l4 5 2 2-7 7-11 14-3 3-4-2-7-7-9-12-3-5 1-2z" fill="#CB9B0C"/>
<path transform="translate(584,1023)" d="m0 0h9l4 2-4 2-26 6-14 3h-3l-1 10-24 8-10 5-5 2 1-22 27-3 22-5 18-7z" fill="#FDE834"/>
<path transform="translate(1239,1044)" d="m0 0h6l1 4-24 8-23 5-18 2h-42l-23-2-12-3v-1h65l26-3 25-5z" fill="#FDE834"/>
<path transform="translate(281,702)" d="m0 0h2v12l2 1-36 9-16 5h-2l5 17 6 19 6 21 3 15 4 16-3-1-5-17-1-5h-5l3-3h2l-3-12-5-17-8-26-1-8 3-2 2-6 6-4 36-12z" fill="#7E2808"/>
<path transform="translate(776,1065)" d="m0 0 6 1 5 2 15 1-2 5-12 14-4 4-12-7-21-9-7-2v-1l16-4 9-3z" fill="#E3AF01"/>
<path transform="translate(879,1212)" d="m0 0h17l29 1v2l-14 5-19 5-6 1-36 1-2-3 9-6 15-5z" fill="#FDF7A4"/>
<path transform="translate(464,1039)" d="m0 0 5 2 8 11 7 11 4 5 5 5 2 3-10-1-23-4 2-1-8-11-3-4 1-4 8-10z" fill="#E2AE01"/>
<path transform="translate(429,992)" d="m0 0 1 2h7l25 7 23 4 17 2h54l3 2-10 2-16 2h-43l-22-3-25-7-10-4-3-2v-2l-4 2 2-4z" fill="#FDE834"/>
<path transform="translate(447,773)" d="m0 0 2 4 5 25 6 31 1 7h-5l2 13v7l-2-3-1-2-4 1-1 19-2-1v-18l-1-45z" fill="#A42F06"/>
<path transform="translate(415,1101)" d="m0 0 6 1 1 5-4 3-13 3-9 1h-15l-24-2-5-5 1-2 40-3z" fill="#FCF6A5"/>
<path transform="translate(1036,468)" d="m0 0h6l3 4 3 13 1 1 3-2 8 20-1 3-7-3-11-6v-2l-6-2-9-5 3-12 6-8z" fill="#C6C5BD"/>
<path transform="translate(903,998)" d="m0 0h5l-1 7-3 7-9 4-35 16-19 12h-5l2-4 12-7 23-15 9-7 3-7 5-3z" fill="#E6E3C8"/>
<path transform="translate(789,1240)" d="m0 0 1 3 52-1 1-2 5 5 5 2v2h5v1h-10l1-3-6 1-6 3-16 2-28-1-5-2 2 2 11 1 26 1v2h-24l-15-1-3-3 3-7z" fill="#C6C5BC"/>
<path transform="translate(770,1113)" d="m0 0 5 1-1 7-21 21-22 18-4 3-4-2v-5l13-12 10-10 6-5 12-12z" fill="#FDF7A4"/>
<path transform="translate(611,1203)" d="m0 0h9l6 4 2 5-10 4-31 6-8 1-1-11 24-7z" fill="#FDF7A4"/>
<path transform="translate(659,1219)" d="m0 0h19l7 3-2 2-22 8-10 5h-9l-7-3-8-5 1-2 16-5z" fill="#DFAC03"/>
<path transform="translate(740,1177)" d="m0 0 7 1 19 8-1 3-12 6-12 3h-8l-13-5v-3l12-7z" fill="#CB9B0B"/>
<path transform="translate(1363,778)" d="m0 0 1 4-2 7h2l-1 12-3 7-4 11-7 25-14 48-14 46-7 20-3 3 2-9 9-31 7-23 14-48 12-41 7-28z" fill="#7F2808"/>
<path transform="translate(400,384)" d="m0 0 1 2-6 10-13 17-14 20-12 20-12 21-17 35-8 20-9 25-9 29-4 14-5 24-5 29-3 30-2 2v-11l3-27 7-38 6-23 9-29 9-25 9-21 15-32 13-23 13-21 11-16 16-21z" fill="#CAC9C3"/>
<path transform="translate(776,1227)" d="m0 0 7 6 6 7-1 7-3 7-5-2-10-6-23-13-1-2 3-1 24-2z" fill="#FAE431"/>
<path transform="translate(638,1198)" d="m0 0h21l15 4 6 3v1l-32 4-16 3h-5l-1-5-6-4-8-1 4-2 12-2z" fill="#FDE834"/>
<path transform="translate(1128,819)" d="m0 0h13l5 3 3 3-3 11-2 5-5 1-4-1-1 3-4 2-6-5-3-9v-7l1-3z" fill="#A93206"/>
<path transform="translate(1240,1010)" d="m0 0 18 5-3 1 3 6-10 15h-2v4l5 1 3 7 1 12-2-4-3-13-5-2-11-1 1-14-2-4-6-5h3l4 2z" fill="#CFCDCA"/>
<path transform="translate(636,1149)" d="m0 0 11 6 3 2 28 13 16 7 3 5-2 1-17-7-1 3-15-6-27-10-1-4v-7z" fill="#E9B409"/>
<path transform="translate(503,715)" d="m0 0h1l1 61v33l-1 21-2-1-1-12-2-6-1-9-1-2-1-26-1-17 1-8h1l1 5 5-2z" fill="#C14C0E"/>
<path transform="translate(656,1234)" d="m0 0h3l2 4 13 3 15 3 16 4 15 2h11v-2l-6-3 3-1 16 8 15 8-2 1-13-6-3 2h-10l-32-4-22-6-18-4-6-4-13-1-2-2h13z" fill="#E2E2D8"/>
<path transform="translate(375,516)" d="m0 0 7 1-1 14-12 15-2 8-3 3-3 9-3 5-2 10-4 1-2 7-2 2 1-9 8-24 8-21 7-15z" fill="#C6C5BE"/>
<path transform="translate(1220,738)" d="m0 0h1l2 22-2 11v17l-2 17-2 24h-2l-1 26 1 1-1 18-3 9-3 1-1 2 1-8 4-17 1-4-3-1 1-19 5-56 3-37z" fill="#832D08"/>
<path transform="translate(880,1125)" d="m0 0 7 1 14 3v1l-11 2-2 1-1 4 16 4-3 2-13 7h-9l-9-5 1-12 8-7z" fill="#F3BC04"/>
<path transform="translate(282,692)" d="m0 0h2l1 22h-2v-12l-18 7-17 5-10 4-4 2-2 7-2 1-2 3-2 1-1-7h-1v-5l9-9 7-2 6-2 2 1v-2l4-1 2 1v-2l6-1 4-2 7-2 3-3h3z" fill="#C6C5BC"/>
<path transform="translate(445,965)" d="m0 0 4 1 4 2-7 2-4 5-1 2v14l-10 1-5 5-2 13-1 8 1 2-3-1 1-16-8-10-2-4h3v-3l17-10 9-7v-2z" fill="#D7D5CA"/>
<path transform="translate(700,725)" d="m0 0h6l1 14h17v2l-4 2-11 2-2 6-1 6 1 13 1 4v24l2 7 1 4-5 1-2-6-1-9-3-61z" fill="#A53708"/>
<path transform="translate(641,901)" d="m0 0h13l4 2-1 5-1 2h-2l-2 4-3 2-18 2-4 1-11-2-13 1-2-2 5-3 10-1 4-2 16-1 2-5-6-1v-1z" fill="#C6C5BC"/>
<path transform="translate(712,1079)" d="m0 0h11l10 7 3 2v2l-6 5-5 6-7-1-9-5-7-14 1-1z" fill="#D2CFCC"/>
<path transform="translate(1310,574)" d="m0 0 3 4 7 23 2 8 3 15 3 19 2 30 5 15-1 2-5-8-1-7-2 2-2-21-6-38-7-30-1-6z" fill="#D0CFCF"/>
<path transform="translate(1098,527)" d="m0 0 11 2 7 3 9 4-1 4-7 8-9 9h-2l-1-11-4-6-5-4-5-7z" fill="#C7C19D"/>
<path transform="translate(554,1179)" d="m0 0 5 1 10 8-1 2-33 6-12 1 2-2-1-6-1-2 14-3z" fill="#FDE834"/>
<path transform="translate(753 1e3)" d="m0 0 11 2 23 4 16 1 3 1v2l-24 10-4-1-2-7-17-2-6-3-1-1v-5z" fill="#D8D6CA"/>
<path transform="translate(924,1165)" d="m0 0 36 6 16 2 1 3-13 5-7 3-7-1v-7h-17l-8-2-1-1z" fill="#CB9B0C"/>
<path transform="translate(480,1144)" d="m0 0 2 1-2 4 4 2 14 11 5 5 7 6v2l4 2v3l-6-4-6-7-11-2-19-3-9-3 1-3 12-9z" fill="#CB9B0C"/>
<path transform="translate(525,954)" d="m0 0 6 1 13 7h7l7-1-4 3-14 4-24 4-38 1-12-2v-1h38l10-1 3-2 6-11z" fill="#F0BB06"/>
<path transform="translate(739,1127)" d="m0 0h11 3l-2 4-3 3-2-1-12 9-2 1h-6l-17-9-2-3 16-2z" fill="#FCE733"/>
<path transform="translate(393,1126)" d="m0 0h26l6 10 11 13 2 3-4-1-33-17-9-6z" fill="#F9F7EB"/>
<path transform="translate(800,423)" d="m0 0h2l4 16 3 5-1 5-11 1h-16l2-4h2l2-4 7-12 2-5z" fill="#C6C5BC"/>
<path transform="translate(1139 1e3)" d="m0 0 4 1 8 11 1 2 7 2v1h-16l-19-3-17-4-3-2 1-2 8 2h8z" fill="#F2BE07"/>
<path transform="translate(1140,192)" d="m0 0 6 5 11 15 5 7 2 7 3 5 1 11v7l-4 2v-2l-3 1-2-5-1-15h-2l-6-15-4-5v-3l3-2-8-10z" fill="#D0CDB8"/>
<path transform="translate(1328,697)" d="m0 0 1 3 6 2 11 5 24 8 5 4 1 5-7-1-24-7-7-4-7-3v-2l-3 1z" fill="#903309"/>
<path transform="translate(1075,1163)" d="m0 0h6l-3 7-4 5-8 5-25 10-9 3 4-4 10-6 9-7 3-9z" fill="#CB9B0C"/>
<path transform="translate(702,962)" d="m0 0 2 1-1 3 22 9 5 1-2 2-5 2-8 5h-4l-1 2v-2l-6-1-6-3-1-9 2-7z" fill="#F3BD05"/>
<path transform="translate(454,559)" d="m0 0 5 1 2 2 9 2 1 2v6l9-1 2 5 3-2 6 1 3 8 5 1-1 3h-10l-4-4-1-6-3 2h-6l-3-3v-2l-12-1-6-8-1-4z" fill="#D1CFD0"/>
<path transform="translate(580,1107)" d="m0 0h3l9 6 9 7 6 8 13 10 3 3-5-1-18-8-14-8-3-4-4-9z" fill="#D3D1C7"/>
<path transform="translate(253,817)" d="m0 0h2l9 29 31 105 2 5-1 3-6-13-9-29-13-45-6-19-7-25z" fill="#7E2808"/>
<path transform="translate(281,702)" d="m0 0h2v8l-10 3-16 6-21 7h-3l1-6 6-4 36-12z" fill="#903309"/>
<path transform="translate(456,947)" d="m0 0 7 2-1 5-6-1-3 1-1 3-8 3h-6l-3 3-3 5-3 2h-5l-4-6-5-6v-2l10-1h18l2-4 7-1z" fill="#C6C5BD"/>
<path transform="translate(882,706)" d="m0 0 3 4 5 11v25l-5 16-2 3v8l-2 7-4-5-4-3 2-4 5-8 3-12 1-8v-20l-2-10z" fill="#A43507"/>
<path transform="translate(564,489)" d="m0 0 4 1 4 4v3h3l8 6v4l-6 3-4 4-6 3h-4l-2 1 1-16 1-12z" fill="#D1CFB8"/>
<path transform="translate(1178,313)" d="m0 0h1v8l-5 16-2 7v2h-3l-1 5 9 9 10 14-2 1-1 2-3-6-1-4h-2l-1-2-4 1h-9l-1-3-4-1h5v-2h-10l3-6 5-4 6-9h2l3-9z" fill="#C6C19E"/>
<path transform="translate(543,1089)" d="m0 0 5 1 16 7 8 5 2 4-4 6-5-1-14-4-3-3-4-11 1-2z" fill="#F8E130"/>
<path transform="translate(1056,1065)" d="m0 0h8l-1 3-14 3-17 5-11 5-9-12-1-2 34-1z" fill="#E3E3DB"/>
<path transform="translate(1134,1124)" d="m0 0 8 2h7l5 3-1 3-20 6h-3v2l-17 8-11 1-5 1 4-3 20-9 5-5 8-7z" fill="#E3AF01"/>
<path transform="translate(1368,705)" d="m0 0 7 1 9 5 4 6v9l-3 15-3 12-3 8-4 15-4 8h-3l4-18 3-9 3-11 2-7 3-9 1-11-6-8-1-2-9-3z" fill="#D5D4D3"/>
<path transform="translate(520,1121)" d="m0 0 3 2v2l5 2 6 5 10 7-1 5-1 1-8-1-14-7-7-9 2-4z" fill="#F8F7EB"/>
<path transform="translate(844,777)" d="m0 0 6 1 4 5 1 2v17h-2v7l-3 2v-3h-6z" fill="#BE4F0F"/>
<path transform="translate(545,721)" d="m0 0h3l3 3 7 26 6 21 1 16h-2l-5-16-8-29-5-16z" fill="#9E2905"/>
<path transform="translate(903,998)" d="m0 0h5l-1 7-3 7-1 1-9 2-8 2-4-2 2-4 3-7 3-3z" fill="#D6D4CC"/>
<path transform="translate(646,1101)" d="m0 0 5 1 14 9 10 6 16 8 9 6 1 3-1 2-6-2-17-9-3-2v-2l-5-2-24-14z" fill="#F0EFE5"/>
<path transform="translate(431,991)" d="m0 0h8l10 4 23 6 16 3 10-1 24 3 16-2 9 1-1 2-4 1h-40l-30-4-22-5-13-4-7-1z" fill="#E4B001"/>
<path transform="translate(1039,497)" d="m0 0 6 2 15 9 19 13 5 5 4 2 6 4 2 4 4 2 5 6v5l-5-5-12-11-18-13-10-7-4-2v-2l-6-1-10-7z" fill="#FBFBFB"/>
<path transform="translate(1e3 711)" d="m0 0 3 1 2 5h2l1 8 4 2 4 1 3-9h1l-1 9-5 19-3 1-1 3-4-4-1-17-2-4-2-10z" fill="#A83506"/>
<path transform="translate(846,723)" d="m0 0h6l3 2 1 3v16l-2 8-3 2h-6z" fill="#B8470D"/>
<path transform="translate(771,894)" d="m0 0h80v1l-7 1v3l-3-1h-8l-6 3h-2l-2 7-1 16h-1v-27l1-1h-31v3h-10-4l-5-1-5 3h-2l2-4z" fill="#C7C3AA"/>
<path transform="translate(712,811)" d="m0 0 3 3 2 9v12l-3 8-4 3-4 2h-18l-9-3 1-2 25-2h8l-1-9z" fill="#A53507"/>
<path transform="translate(471,1122)" d="m0 0 1 3h2l-1 7-3 4-7 3-5 7h-2l-2 4-4 5h-6v-4l9-11 9-10z" fill="#F2BA01"/>
<path transform="translate(862,1074)" d="m0 0 2 1-23 13-4 3 1 5 4 2 6-1-2 2-20 9-6 2h-4l2-5 16-16 14-8z" fill="#FDE834"/>
<path transform="translate(362,1015)" d="m0 0h2l3 9 4 4v2h2l2 6h2v3h2v3h2v2l2 1 2 5h2l3 5 3 4 3 1 1 2 8 1v1l-10 1-4 2-1-5-8-8-7-11-4-6v-2h-2l-3-5-5-6-1-8z" fill="#E1E1DB"/>
<path transform="translate(1172,832)" d="m0 0 10 2 1 1v10l-1 4-6-1-1 9-3 13h-1l1-12-1 5h-1l1-13 1-3-5-1 2-9z" fill="#9F2B05"/>
<path transform="translate(503,1133)" d="m0 0h5l12 13 8 8-1 5-7-1-10-9-6-7-2-3z" fill="#FDF7A4"/>
<path transform="translate(534,1073)" d="m0 0h9l5 5 3 7h4l2 2v3l-3 1-13-4-7-3-6-3-1-3 4-4z" fill="#D2D0CF"/>
<path transform="translate(1220,518)" d="m0 0 3 2-2 12-9 3-5 4-11-1-4 2 1-5 3-2 9-3 7-8z" fill="#C6C5BD"/>
<path transform="translate(498,1079)" d="m0 0 10 1 13 3 5 3v1l-12 3-6 3-9-3-4-3 1-5z" fill="#FDF7A4"/>
<path transform="translate(538,811)" d="m0 0h3l3 11-1 4h-4l1 12-2-3-2 4-1-11h-6l-1-14 6-2z" fill="#A33B08"/>
<path transform="translate(1024,807)" d="m0 0 12 1v15l-6 1-1 10h-1l-1-6-1 7h-1v-13l-4-1 1-9z" fill="#A73808"/>
<path transform="translate(1159,517)" d="m0 0h2l2 3 1 21-4 4h-2v4h-2l-4-10 1-7 1-1 2-13 2 1z" fill="#D0CEB7"/>
<path transform="translate(969,730)" d="m0 0 6 1 2 2v17l-3 9-3 2h-4v-11z" fill="#A73B0B"/>
<path transform="translate(723,693)" d="m0 0h1l2 8 4-1 1 2 1 10v13l-1 2-5 3-1 7h-1l-1-13z" fill="#A73807"/>
<path transform="translate(1123,751)" d="m0 0 6 1 2 4-2 16-4 9-5 1-1-1v-7z" fill="#9C2C06"/>
<path transform="translate(1328,689)" d="m0 0h1v6l5 2 14 7 24 8 8 6v6h-4l-3-6-8-4-21-7-15-7-2 2z" fill="#C7C19D"/>
<path transform="translate(672,1227)" d="m0 0 12 1 18 5 3 1v4l-2 1h-8l-19-4-3-2-1-3-5 1-2 2v-2l-2-1z" fill="#C6C5BD"/>
<path transform="translate(620,931)" d="m0 0 5 2 6 10 1 6-7 4-2-1 3-2-1-6-2-2h-8l-17 4-3-1 20-11z" fill="#FBE532"/>
<path transform="translate(801,797)" d="m0 0h1v43l-3 3h-39l-21-1 4-2 23-1h35z" fill="#A23808"/>
<path transform="translate(873,962)" d="m0 0h5l-3 2-22 5-23 3-28 1-6 3-11-1-16-2v-2h-6v-1h63l24-3z" fill="#E3B20B"/>
<path transform="translate(1080,514)" d="m0 0 24 2 5 2-1 3-7 2h-7l-9 2-2 3-1-4-5-5v-4z" fill="#D1CFB8"/>
<path transform="translate(448,795)" d="m0 0h1l1 34 2 20 1-4 2-6 3-3v-8h1l2 8v4h-5l2 13v7l-2-3-1-2-4 1-1 19-2-1z" fill="#852F09"/>
<path transform="translate(968,1115)" d="m0 0h15l-3 3-16 10-11 7h-7l5-5 15-14z" fill="#FDE834"/>
<path transform="translate(1067,1073)" d="m0 0h16v1l-21 2-19 4-9 4h-2l2 6 2 2 8 1v1l-21 2v-8l2-5 6-4 11-1 18-4z" fill="#FDE834"/>
<path transform="translate(521,558)" d="m0 0h2l1 5-1 3-1 11h-4l-2-1v-2h-3l-3-3-5-4v-3l8-5z" fill="#C7C19D"/>
<path transform="translate(1184,551)" d="m0 0h8l1 2 1 12 2 1v2l-3 1h-9l-4-6v-9z" fill="#C6C5BD"/>
<path transform="translate(1329,707)" d="m0 0h2l3 3 7 3 10 4 18 5 10 3-1 9-7 25-2 1 2-10 6-23-16-4-34-9z" fill="#802A08"/>
<path transform="translate(975,924)" d="m0 0 5 1 2 1h13l4 3-2 4-2 8-4 1-8-7-8-8z" fill="#C6C5BD"/>
<path transform="translate(1006,725)" d="m0 0h1l1 5 1 17 3 2 3-1-2 10-4 13h-1l-2-6-4 3 1-10 2-14z" fill="#923408"/>
<path transform="translate(283,680)" d="m0 0h1v12l-9 6h-2l-4 3-5 1-5 2-2-1-1 2-2-1v2l-4 1-2-1v2l-6 1-2 1-2-1-1 2-6 2-4 5-3 5h-1l1-7 7-6 27-9 10-4 6-4h2l1-4h2l2-5z" fill="#D1CFD0"/>
<path transform="translate(281,698)" d="m0 0h2v4l-18 7-17 5-10 4-4 2-2 7-3 1-1-6 5-6 9-4 33-11z" fill="#C7C19C"/>
<path transform="translate(432,1025)" d="m0 0 10 3 20 5 8 1 1 2-9 6-5 5v-2l-6-5-7-9-12-5z" fill="#DAD7CB"/>
<path transform="translate(722,1156)" d="m0 0h1l2 6 2 2-18 12-5 3-4-1 1-4 13-12z" fill="#FDE834"/>
<path transform="translate(346,1100)" d="m0 0h42l27 1v1l-52 3-10 1h-3l-1-4z" fill="#F9D923"/>
<path transform="translate(1317,591)" d="m0 0 2 1 3 9 4 20 2 9 2 14 2 21 2 14 3 9 1 4-4-4-5-15-2-30-5-31-2-5-3-13z" fill="#C6C5BD"/>
<path transform="translate(576,1211)" d="m0 0 4 1h-2l1 11 3 1-8 2-6-1-7-8 1-4 9-1z" fill="#FDE834"/>
<path transform="translate(958,1059)" d="m0 0 11 2 3 3-6 3-23 5-4-1 8-6 8-5z" fill="#D3D0C5"/>
<path transform="translate(298,586)" d="m0 0 1 4-6 25-6 35-3 30-2 2v-11l3-27 7-38 5-19z" fill="#C9C6B4"/>
<path transform="translate(425,1185)" d="m0 0 11 1 29 3v1l-25 1-6 1 1 4-13-2-2-1 2-5z" fill="#FDE834"/>
<path transform="translate(650,1158)" d="m0 0 5 1 25 12 14 6 2 4-5-1-30-12-10-6z" fill="#F3F2E7"/>
<path transform="translate(1192,935)" d="m0 0 12 2 24 5-2 1-1 4h-9l-11-3-9-4-5-2z" fill="#C7C6BC"/>
<path transform="translate(458,528)" d="m0 0 4 2 4 4v2l3 1 7 8 10 9 17 12 9 5 1 3h3v2l4 2-2 1-15-9-15-11-11-9-15-15-4-5z" fill="#FBFBFA"/>
<path transform="translate(595,1062)" d="m0 0 6 1 13 11 7 6h-3l-11-6-7-6-6-3 4 4 11 8-1 3-6-3-14-11-1-3z" fill="#E9E8D9"/>
<path transform="translate(713,960)" d="m0 0 10 1 28 6 20 2-2 3-14-1-24-3v-2h-8l-8-2-2-1z" fill="#F6C811"/>
<path transform="translate(893,1032)" d="m0 0m-3 1h3v2l-26 11-13 6-21 9-5 1-4-3 9-3 20-7 35-15z" fill="#F3BB02"/>
<path transform="translate(501,922)" d="m0 0 4 1 1 3-9 5h-2v2l-7 2h-7l-5 1-5-2v-2l2-1h8l6-5h8z" fill="#C6C5BD"/>
<path transform="translate(1013,1116)" d="m0 0 2 1-11 8-14 8-9 3h-7l4-4 29-14z" fill="#FDE834"/>
<path transform="translate(526,755)" d="m0 0 2 4 7 27 1 5-1 1h-8l-1-18z" fill="#A22907"/>
<path transform="translate(1189,777)" d="m0 0 1 4-3 29-1 4-7-1-1-4 7-21z" fill="#9E2F09"/>
<path transform="translate(231,736)" d="m0 0 2 1 8 26 7 23 3 15 4 16-3-1-5-17-1-5h-5l3-3h2l-3-12-5-17-7-22z" fill="#842D08"/>
<path transform="translate(1081,535)" d="m0 0 5 2 6 3v2l4 1v2l3 1v3 2l-4 2 1 4-4 2-3-2 1-4 1-3-3-1-4-6 1-4-6-2z" fill="#D0CEB7"/>
<path transform="translate(1098,994)" d="m0 0 5 1 5 5v7l-1 2 2 1-5 1-13-5 4-1v-3h2z" fill="#C6C5B9"/>
<path transform="translate(440,1211)" d="m0 0 18 2 10 1 23 1h19l41-2h10l-2 5-1-3-41 2h-35l-26-2-16-3z" fill="#F2EDB7"/>
<path transform="translate(1240,1010)" d="m0 0 8 2-2 1v6l-5 7-3 5-2 1-3-9-6-5h3l4 2z" fill="#C8C7B8"/>
<path transform="translate(1036,751)" d="m0 0h1v36l-3 1-5-1v-6l4-16z" fill="#AC380A"/>
<path transform="translate(1101,585)" d="m0 0 2 1-1 4-1 5 2 13-5 1-3-5-2 2v-14l3-5z" fill="#D0CEB8"/>
<path transform="translate(912,1214)" d="m0 0h6l1 2-4 1v2l-11 3-16 1v-2l5-3 2-3z" fill="#E6E4CB"/>
<path transform="translate(1143,1054)" d="m0 0h48l-2 2-20 2h-26z" fill="#E4B001"/>
<path transform="translate(584,1023)" d="m0 0h9l4 2-4 2-26 6-11 1 4-3 18-7z" fill="#EAE7C2"/>
<path transform="translate(1316,603)" d="m0 0h2l4 17 1 9 1 4 4 29v9l-2-1-6-41-4-20z" fill="#C7C6BD"/>
<path transform="translate(1039,988)" d="m0 0 8 1 7 3 10 3 2 2-8-1-13-5h-13l-1 8 8 5-3 1-6-3-10-9v-3z" fill="#FBE950"/>
<path transform="translate(1017,957)" d="m0 0h7v1l-26 5-4 2h-7v2l-17 4-11 3 1-4 25-7z" fill="#F6CF1A"/>
<path transform="translate(512,1126)" d="m0 0 8 10 7 7 3 4v2h2l3 7 2 4-7-6-13-13-6-12-2-2z" fill="#F2BB03"/>
<path transform="translate(724,1049)" d="m0 0 22 1-1 2h-2v2l-7 2-12 2h-5v-3z" fill="#E6E4CC"/>
<path transform="translate(586,1123)" d="m0 0 6 2 4 1 3-1 3 1 1-3 6 7 14 10-3 1-20-9-14-8z" fill="#D7D4C2"/>
<path transform="translate(1253,1015)" d="m0 0h5l-3 1 3 6-10 15h-2v4l5 1 3 7 1 12-2-4-3-13-5-2-11-1v-2h9l1-5 5-5 1-3h2z" fill="#E6E5D0"/>
<path transform="translate(1108,919)" d="m0 0 21 3 11 2-1 3-8 1-5-3h-10l-5 2-2 1-4-3 1-4z" fill="#C8C7BD"/>
<path transform="translate(431,991)" d="m0 0h8l10 4 23 6 19 4v1l-14-1-23-5-17-5-7-1z" fill="#D2A109"/>
<path transform="translate(766,723)" d="m0 0h12v27l3 1h-4v23h-1v-23h-6v-1h5l1-6v-11l-1-7-2-1-1 3h-4v18h-1z" fill="#993A08"/>
<path transform="translate(528,1145)" d="m0 0 4 2 8 7v2l4 2 8 8-1 2-5 1-9-8-3-5-2-7h-2z" fill="#E3AF01"/>
<path transform="translate(880,1125)" d="m0 0 7 1 14 3v1l-11 2-2 1-1 4-6-2-7-4v-2z" fill="#FDE834"/>
<path transform="translate(864,1024)" d="m0 0h4l1 3-22 13-6 4h-5l2-4 12-7z" fill="#EFEEDD"/>
<path transform="translate(441,990)" d="m0 0 27 7 10 2 7 2 6 2v1h-10l-25-6-15-5-2-2z" fill="#FDF071"/>
<path transform="translate(546,1094)" d="m0 0 5 2 9 5 4 3v4h-8l-6-2-3-5z" fill="#FDF6A0"/>
<path transform="translate(1228,502)" d="m0 0 3 3 11 23 12 30 6 18-1 3-6-15-1-1v-5h-2l-5-17-11-24v-3h-2l-4-10z" fill="#C8C7C0"/>
<path transform="translate(1155,315)" d="m0 0 4 4h3l2 20-3 3-4-2 1-5h2l-3-5-3-4v-7z" fill="#D0CEB8"/>
<path transform="translate(366,1012)" d="m0 0h6l8 12 11 15 9 11v2l-3-1-1-2-5-3-6-10-1-4h-2l-4-6-6-4-1-1v-7l-5-1z" fill="#C6C4B5"/>
<path transform="translate(1051,484)" d="m0 0 2 3 7 17-1 3-7-3-2-2 1-1-2-1-1-4v-9h2l-1-2z" fill="#D1CFB9"/>
<path transform="translate(768,961)" d="m0 0 5 2h13l2-2-1 8h-10l-6-1-6 1v-1l-5-1 4-5z" fill="#C6C5BC"/>
<path transform="translate(428,933)" d="m0 0 4 1v9l-11 4h-11l-4-2 3-2 7-1 10-4z" fill="#C6C4BC"/>
<path transform="translate(1102,1148)" d="m0 0h8l-4 3-5 5-1 3 3 1-10 2-4-4 1-4z" fill="#FDE834"/>
<path transform="translate(496,1037)" d="m0 0 8 1 2 2 1 16h-3l-9-16z" fill="#D9D6C0"/>
<path transform="translate(563,946)" d="m0 0 3 3 1 6 7-1-4 3-10 4-7-1 1-4 5-6h2z" fill="#C7C5B5"/>
<path transform="translate(1328,697)" d="m0 0 1 3 6 2 11 5 24 8 5 4 1 5-3-1-2-4-16-6-16-5-10-5z" fill="#CB9B0C"/>
<path transform="translate(281,702)" d="m0 0h2v2l-17 7-16 5-10 4-5 5-2 1 1-6 6-4 36-12z" fill="#CB9B0C"/>
<path transform="translate(709,958)" d="m0 0 5 1-1 4 18 3v1h-16l-1 4-9-3-3-2 2-5z" fill="#FBE633"/>
<path transform="translate(569,498)" d="m0 0 3 1 1 4-1 3 7 1v2l-6 5-6 3h-2l1-4v-10z" fill="#C7C6BD"/>
<path transform="translate(234,749)" d="m0 0 2 3 6 20-1 6h-3l-3-9-3-12v-5h2z" fill="#C6C3B5"/>
<path transform="translate(824,895)" d="m0 0h19l2 3-2 1-2-1h-8l-6 3h-2l-2 7-1 16h-1v-27z" fill="#C6C5BD"/>
<path transform="translate(1027,827)" d="m0 0h1v15l-2 12 2 1-3 2-7-1-2-2h6l1-13 1-7h1z" fill="#A12B06"/>
<path transform="translate(234,769)" d="m0 0h2l2 9h3l1-3 4 10v6l-4 1-3-3-4-11z" fill="#D2CFCB"/>
<path transform="translate(683,1223)" d="m0 0 6 1 18 9v1l-7-1-16-4-10-1 1-2z" fill="#F5F4E0"/>
<path transform="translate(438,1192)" d="m0 0h10l14 4 2 1v2h-15l-9-3-2-1z" fill="#E7E4CB"/>
<path transform="translate(1125,1137)" d="m0 0 5 2-2 2-15 7-11 1-5 1 4-3 20-9z" fill="#F3C20B"/>
<path transform="translate(992,953)" d="m0 0 12 1 5 1 3-2h2v2l3 1v2l-16 3-5-1-3-5z" fill="#C7C6BC"/>
<path transform="translate(388,948)" d="m0 0h5l7 13 5 15h-2l-15-25z" fill="#C7C5BE"/>
<path transform="translate(712,811)" d="m0 0 3 3 2 9v12l-2 7-2-1-1-9z" fill="#A03207"/>
<path transform="translate(1368,705)" d="m0 0 7 1 9 5 4 6v9l-3 15-3 12-3 4 1-10 5-19 1-8-3-7-9-5-6-2z" fill="#E1E1DD"/>
<path transform="translate(803,707)" d="m0 0 4 2-2 16-1 5h-1l-1 18h-1v-39z" fill="#A03107"/>
<path transform="translate(462,1184)" d="m0 0 14 1 8 2v3h-8l-5-1-1 2-24-3-10-1v-1h12l11 1h10l-7-2z" fill="#E9E4B6"/>
<path transform="translate(521,1138)" d="m0 0 9 3 7 3 5 1v1l-5 1 2 4 18 18h-3l-17-17-13-11z" fill="#CB9B0C"/>
<path transform="translate(1056,1065)" d="m0 0h8l-1 3-9 1v-1l-18 1-12 1h-8l-1 3-4-6 34-1z" fill="#EDE7A5"/>
<path transform="translate(1160,742)" d="m0 0h1l1 6 1 17-1 1v7l-1 3h-2l-1 8h-3l1-7 2-10z" fill="#862F08"/>
<path transform="translate(408,539)" d="m0 0h7l9 6v3h-7l-11-3-1-4z" fill="#D1CFD0"/>
<path transform="translate(853,802)" d="m0 0h1v32l-1-2h-3l-1 4 1-25 2-2z" fill="#A43C07"/>
<path transform="translate(620,980)" d="m0 0 2 1-6 2v3l43-1-3 2-11 1h-27l-7-1-1-3z" fill="#E4E0BA"/>
<path transform="translate(881,781)" d="m0 0 2 3 3 9v11l-1 5h-4z" fill="#A73F07"/>
<path transform="translate(682,1121)" d="m0 0 16 8 3 5-1 2-6-2-13-7 3-3-2-1z" fill="#ECE9CB"/>
<path transform="translate(961,1058)" d="m0 0 11 3 2 3 16 1v1l-19 1-33 8-6 3-2-1 9-5 30-7 2-2-10-3z" fill="#C88A0C"/>
<path transform="translate(994,1130)" d="m0 0 5 1v2l4 2v2h-28v-1l12-3z" fill="#E3AF01"/>
<path transform="translate(645,829)" d="m0 0h2l-1 6-4 8-8 8-7 2-3-2h3l1-3 9-6 1-2h3l2-6z" fill="#9E2505"/>
<path transform="translate(778,914)" d="m0 0 7 3 2 6v3h-9l-2-4v-6z" fill="#C6C5BD"/>
<path transform="translate(955,982)" d="m0 0 5 2-4 3-12 3h-8v-2h2v-3l11-2z" fill="#E5E3CF"/>
<path transform="translate(837,961)" d="m0 0h11l2 7h-17l-2-5z" fill="#C6C4BB"/>
<path transform="translate(865,895)" d="m0 0h18l21 1v1l-14 2-5 2h-5l-3 2-1-5 1-1-12-1z" fill="#C9C6B7"/>
<path transform="translate(1086,527)" d="m0 0 8 5 2 4 4 2 5 6v5l-5-5-12-11-4-3v-2z" fill="#F9F9F7"/>
<path transform="translate(636,1149)" d="m0 0 11 6v4l-11 1-2-1v-7z" fill="#E4E3CD"/>
<path transform="translate(283,680)" d="m0 0h1v12l-9 6h-2l-2 2h-3l2-4 4-3h2l1-4h2l2-5z" fill="#CFCDCD"/>
<path transform="translate(976,1173)" d="m0 0 3 1-2 5-21 8h-6v-4h7l17-7h3z" fill="#ECB601"/>
<path transform="translate(594,1116)" d="m0 0 4 2 4 4v4l-8 1-7-4 1-2 3-1 1-2h2z" fill="#C9C7BC"/>
<path transform="translate(1142,925)" d="m0 0 14 2 15 3-1 2h-15l-10-2-4-4z" fill="#C9C7BB"/>
<path transform="translate(646,797)" d="m0 0h1l2 20-1 9-1 3h-2l-1 5-3 6-2-1 4-10 2-10z" fill="#913609"/>
<path transform="translate(1032,1029)" d="m0 0 6 1 9 4v2l-4 1h-12z" fill="#F0EED5"/>
<path transform="translate(886,810)" d="m0 0h1l2 12v10l-1 4h-3l-1 4v-15l1-12z" fill="#A43607"/>
<path transform="translate(788,1250)" d="m0 0 5 1 30 1 6-1h8l-2 2-8 1h-32l-7-2z" fill="#D1CFD0"/>
<path transform="translate(1113,816)" d="m0 0 4 3v2l-4 2-1 9 7 3v9l-3 8h-1l1-9 1-7-8-1 1-10 2-8z" fill="#8E3909"/>
<path transform="translate(800,423)" d="m0 0h2l4 16 3 5-1 5h-4l-2-10-2-7-2-8z" fill="#D0CEB7"/>
<path transform="translate(696,951)" d="m0 0 4 2 5 2v2h8l11 3 1 2-16-3-4 2h-5l-5-9z" fill="#D2CFB7"/>
<path transform="translate(531,774)" d="m0 0 2 4 3 13-1 1h-8v-10l2-1h2z" fill="#AA400D"/>
<path transform="translate(1068,828)" d="m0 0h1v8l4 1 1-5h1v8l-1 6-2-1v-5l-3 1-2 9h-2v-9z" fill="#913709"/>
<path transform="translate(360,1106)" d="m0 0h16l2 2-1 3h-16l-2-4z" fill="#E5E3CF"/>
<path transform="translate(712,1079)" d="m0 0h11l5 4-1 2-6-4-16 1 5 9 4 4 6 3-4 1-8-5-3-7-3-4 1-3z" fill="#E9E5BB"/>
<path transform="translate(675,1055)" d="m0 0h5l1 3 4 2 26 1v1l-33 1-5-5v-2z" fill="#FDE942"/>
<path transform="translate(1213,859)" d="m0 0h2l-1 15-3 9-3 1-1 2 1-8 4-17z" fill="#832C0A"/>
<path transform="translate(543,1089)" d="m0 0 5 1 16 7-1 3-10-2-7-4-1 3-1-4 1-2z" fill="#F5CF1B"/>
<path transform="translate(1170,1087)" d="m0 0h6l-1 4-9 10h-2l1-8 3-5z" fill="#EFEDD7"/>
<path transform="translate(1037,936)" d="m0 0 5 3v2h2v2l4 2 4 5 10 2v1h-12l-5-1-6-12z" fill="#C6C5B9"/>
<path transform="translate(743,966)" d="m0 0 28 3-2 3-14-1-24-3v-1h11z" fill="#F9DF2C"/>
<path transform="translate(667,1166)" d="m0 0 9 3 18 8 2 4-5-1-15-6 1-2-10-5z" fill="#EBE7B9"/>
<path transform="translate(1378,710)" d="m0 0 5 2 3 4 1 5-3 15-3 9-2-1 1-5 3-9 1-11-6-8z" fill="#D1CFD0"/>
<path transform="translate(695,978)" d="m0 0 12 6 3 1-1 3-4 2-5-1-6-8z" fill="#FDF599"/>
<path transform="translate(573,496)" d="m0 0 8 6 2 1v4l-6 1-5-2-1-5z" fill="#D0CEB7"/>
<path transform="translate(1092,715)" d="m0 0h1v11l-3 17h-2v-16l1-5 1-4h2z" fill="#AC3907"/>
<path transform="translate(1120,658)" d="m0 0h9l2 1 39 4v1h-16l-26-3-8-2z" fill="#D1CFD0"/>
<path transform="translate(455,1032)" d="m0 0 15 2 1 2-9 6-5 5v-4l2-1v-5l-1-3h-3z" fill="#E6E4C8"/>
<path transform="translate(393,1126)" d="m0 0h26l4 7-1 2-5-7-19 1 2 3-5-2-3-3z" fill="#F8F3A9"/>
<path transform="translate(529,1075)" d="m0 0 2 1-4 2 4 4 9 3 9 4 5 1 1 3-9-3-17-6-6-5 3-3z" fill="#EAE7BD"/>
<path transform="translate(482,1144)" d="m0 0h3l4 6 6 8h-3l-9-7-3-2 1-4z" fill="#EFEAB1"/>
<path transform="translate(1211,1046)" d="m0 0 4 1-10 4-16 3-4-1 2-2z" fill="#FDE834"/>
<path transform="translate(1220,952)" d="m0 0 1 3-10 17-3 5h-2l1-5h2l1-5 3-6 5-8z" fill="#C7C6BF"/>
<path transform="translate(1017,1201)" d="m0 0h4v2l-9 3-5 3h-2v2h-5l3 2-1 1h-10l4-3z" fill="#C6C3B2"/>
<path transform="translate(1017,957)" d="m0 0h7v1l-26 5-4 2-11 1v-2l12-3z" fill="#E4B40C"/>
<path transform="translate(1171,759)" d="m0 0 1 3-7 20-5 13-2 1 3-11 1-8 3-3z" fill="#89350A"/>
<path transform="translate(845,1246)" d="m0 0 4 1-1 5-16 3h-5l2-2 8-1v-2z" fill="#C6C5BD"/>
<path transform="translate(1222,403)" d="m0 0h2l2 5h2l1 4h2l3 5v2h2v3h2l8 12v3l-4-4-13-19-7-9z" fill="#C8C7C0"/>
<path transform="translate(590,1064)" d="m0 0 4 2 15 11-1 3-6-3-10-8z" fill="#F3F2EC"/>
<path transform="translate(944,961)" d="m0 0 3 3v6l-1 2 3 1-4 2h-3v-2h-2l-1-4 4-3z" fill="#C7C6BD"/>
<path transform="translate(411,1064)" d="m0 0 37 2 15 1 1 3-32-3-18-1z" fill="#E6E1AF"/>
<path transform="translate(593,1064)" d="m0 0 10 5 7 6 5 5-3 1-12-10-7-5z" fill="#CCCAC2"/>
<path transform="translate(535 1e3)" d="m0 0 12 1-1 2-4 1h-20l1-2z" fill="#E1AD02"/>
<path transform="translate(431,991)" d="m0 0h8l9 4v2l6 1-4 1-13-4-7-1z" fill="#F2BB03"/>
<path transform="translate(602,905)" d="m0 0h7l1 2-10 4h-2v2h-2l-1 4-3-2 2-5 5-3z" fill="#C6C4BB"/>
<path transform="translate(380,1100)" d="m0 0 35 1v1l-38 2 1-2h2z" fill="#FDE834"/>
<path transform="translate(1173,847)" d="m0 0 3 1-1 9-3 13h-1l1-12-1 5h-1l1-13z" fill="#8E360B"/>
<path transform="translate(986,1128)" d="m0 0 1 3h5l-2 2-9 3h-7l4-4z" fill="#FDE834"/>
<path transform="translate(1137,847)" d="m0 0h1l-1 11-2 9h-1v-9h-3l2-10z" fill="#A93A07"/>
<path transform="translate(537,1160)" d="m0 0 5 1 1 2 1-3 4 2 4 5-6 2-9-8z" fill="#EBB501"/>
<path transform="translate(540,1071)" d="m0 0 4 1 16 16-4-1-4-3-1 2-5-9-3-3h-6v-2z" fill="#E6E4C5"/>
<path transform="translate(284,651)" d="m0 0 2 3-1 17-1 9-2 2v-11z" fill="#CAC8BC"/>
<path transform="translate(962,490)" d="m0 0 6 1 8 1-4 2v3l-9-1-3-2v-3z" fill="#CDCCB8"/>
<path transform="translate(1246,1013)" d="m0 0h2v8l-8 11-4 2 2-4 5-8 2-3z" fill="#D1CFCF"/>
<path transform="translate(536,813)" d="m0 0h4l1 5-7 1-4 5v-9z" fill="#A32104"/>
<path transform="translate(649,1157)" d="m0 0 2 3v2l12 6-3 1-14-7-9-1 4-2z" fill="#C7860C"/>
<path transform="translate(463,1121)" d="m0 0h7l-2 1-2 4-3 3-4-2-1-4z" fill="#D9D5BB"/>
<path transform="translate(503,1045)" d="m0 0h3l1 3v8h-3l-5-10z" fill="#CBC9BC"/>
<path transform="translate(1171,969)" d="m0 0 6 2 6 4 6 3 3 6-4-2-10-6-4-4z" fill="#C6C5BD"/>
<path transform="translate(1064,787)" d="m0 0h1l1 27 1 13h-3z" fill="#98360A"/>
<path transform="translate(1008,737)" d="m0 0 3 4 4 1v6h-2l-1 3-4-4z" fill="#A12104"/>
<path transform="translate(425,1185)" d="m0 0 11 1 7 2-4 2-12-1-3-1z" fill="#F4C30B"/>
<path transform="translate(1039,988)" d="m0 0 8 1 7 3 10 3 2 2-8-1-13-5-13-1v-1z" fill="#F8E030"/>
<path transform="translate(423,979)" d="m0 0 4 1-10 6h-2v3l-4-1 2-4 4-4z" fill="#C6C5BD"/>
<path transform="translate(466,970)" d="m0 0h13l22 1v1l-13 1h-10l-12-2z" fill="#DDAB09"/>
<path transform="translate(1353,700)" d="m0 0 11 3 4 1v2l9 2 1 2h-5l-3-1v-2l-3 1-6-3h-2v-2l-3 1v-2l-4 1z" fill="#D1CFD0"/>
<path transform="translate(334,656)" d="m0 0 3 4-1 9-3 3-1-1v-8z" fill="#C7C6BF"/>
<path transform="translate(1167,1087)" d="m0 0 3 1-3 2-3 11 5-4 7-8v3l-9 10-3 2-1-2 1-10z" fill="#C99518"/>
<path transform="translate(1125,922)" d="m0 0 9 1 6 1-1 3-8 1-7-4z" fill="#C9C7BB"/>
<path transform="translate(587,781)" d="m0 0 7 6 14 9 6 4-1 2-13-8-6-4-7-7z" fill="#A73E09"/>
<path transform="translate(1035,765)" d="m0 0h1v16l-5-2 1-9h2z" fill="#A32504"/>
<path transform="translate(1012,504)" d="m0 0 6 2v6l-5 1-3-5z" fill="#D2D0B9"/>
<path transform="translate(901,946)" d="m0 0 3 4 1 3-7 2-3-8z" fill="#C8C6BB"/>
<path transform="translate(575,660)" d="m0 0h12v1l-15 2h-8v2h-5l-1-3z" fill="#B24408"/>
<path transform="translate(570,1097)" d="m0 0 6 4 7 6-1 2h-4l-4-5-5-4z" fill="#E4E1C3"/>
<path transform="translate(387,1037)" d="m0 0 4 2 9 11v2l-3-1-1-2-5-3-4-7z" fill="#C6C5BC"/>
<path transform="translate(584,1023)" d="m0 0h9l4 2-4 2-10 1 2-2-7-1v-1z" fill="#FDF69F"/>
<path transform="translate(611,936)" d="m0 0 2 1-3 5h-3v2l-12 2 4-3z" fill="#E6BF19"/>
<path transform="translate(771,1158)" d="m0 0 2 1-2 4 4 5-9-1-3-1 1-3 6-4z" fill="#FDE834"/>
<path transform="translate(353,1105)" d="m0 0h8l-1 4 5 2v1h-8l-5-5z" fill="#FDF7A4"/>
<path transform="translate(548,1098)" d="m0 0 5 1 5 4v3h-6l-4-6z" fill="#E5E3CF"/>
<path transform="translate(1160,742)" d="m0 0h1l1 6 1 17h-4z" fill="#86330E"/>
<path transform="translate(917,1145)" d="m0 0 16 3 6 2v1h-9l-9-2z" fill="#FDE834"/>
<path transform="translate(787,1007)" d="m0 0h16l3 1v2l-14 6h-2v-2l11-5-14-1z" fill="#F2EEB4"/>
<path transform="translate(1095,712)" d="m0 0h7l5 1h3l3 3h-10l-9-2z" fill="#AC3707"/>
<path transform="translate(441,990)" d="m0 0 18 5-4 2-12-3-4-3z" fill="#FDE838"/>
<path transform="translate(439,1187)" d="m0 0 18 1 8 1v1h-23z" fill="#F9E02F"/>
<path transform="translate(203,987)" d="m0 0h1l1 11-2 17h-1v-22z" fill="#832E08"/>
<path transform="translate(1036,751)" d="m0 0h1v25h-1l-1-10-2 4 1-9z" fill="#983908"/>
<path transform="translate(526,549)" d="m0 0 2 1-2 5-3 4h-6l5-7 4-1z" fill="#C6C5BC"/>
<path transform="translate(1172,346)" d="m0 0 4 2 10 11 4 4-1 2-17-17z" fill="#C8C7C1"/>
<path transform="translate(995,1125)" d="m0 0h4l-1 4-4 2h-7v-2z" fill="#FDF491"/>
<path transform="translate(682,1121)" d="m0 0 12 6-4 2v-3l-1 4-6-2-2-2 3-2-2-1z" fill="#DFDDCC"/>
<path transform="translate(412,1104)" d="m0 0h2v5l-2 1h-7v-3l2-2z" fill="#E5E3CF"/>
<path transform="translate(930,985)" d="m0 0 2 1-9 6-4-1 2 5-4-2-1-3 6-3z" fill="#FDE834"/>
<path transform="translate(771,967)" d="m0 0 21 2-1 2h-9l-11-1-3-2z" fill="#E2DEBD"/>
<path transform="translate(400,939)" d="m0 0 4 1-3 2-13 4-1-4z" fill="#CCCABC"/>
<path transform="translate(521,577)" d="m0 0h1v26h-1l-2-22z" fill="#C6C5BD"/>
<path transform="translate(562,1091)" d="m0 0 5 2 3 3v4l-6-2-2-1z" fill="#E2E1D5"/>
<path transform="translate(475,922)" d="m0 0h5v2l-17 3-4-1 6-3z" fill="#A93507"/>
<path transform="translate(1189,777)" d="m0 0 1 4-2 17h-1v-8h-2l2-9z" fill="#97420D"/>
<path transform="translate(1363,782)" d="m0 0h2v2h4v7l-7-2z" fill="#D1CDC2"/>
<path transform="translate(1058,662)" d="m0 0h9l15 2v1h-21z" fill="#BF700B"/>
<path transform="translate(961,1058)" d="m0 0 11 3 2 3 16 1v1l-17 1-2-4-10-3z" fill="#CA990C"/>
<path transform="translate(845,1036)" d="m0 0 2 1-1 4-5 3h-5l2-4z" fill="#FDF493"/>
<path transform="translate(532,1132)" d="m0 0 5 2 7 5-1 5-1 1-8-1 4-1 3-1-2-4-7-5z" fill="#F0EBAC"/>
<path transform="translate(354,1122)" d="m0 0 24 3v4l-2 1v-2l-19-4z" fill="#F1EDB8"/>
<path transform="translate(729,1048)" d="m0 0 23 1-4 3-5 1 2-2-16-1z" fill="#FDF7A4"/>
<path transform="translate(785,978)" d="m0 0 10 1 1 4h-9z" fill="#E5E3CF"/>
<path transform="translate(536,825)" d="m0 0 2 1 2 7v5l-2-3-2 4-1-13z" fill="#9E3508"/>
<path transform="translate(1311,583)" d="m0 0 2 1 4 17-2 1-4-14z" fill="#C7C5B7"/>
<path transform="translate(1056,1065)" d="m0 0h8l-1 3-9 1v-1l-9-1v-1z" fill="#DED9B4"/>
<path transform="translate(1012,953)" d="m0 0h2v2l3 1v2l-14 2 1-2 5-2v-2z" fill="#CDCAB7"/>
<path transform="translate(1207,939)" d="m0 0 11 1 7 2v1l-8 1-10-4z" fill="#D4D1C8"/>
<path transform="translate(1084,914)" d="m0 0h10l10 2 1 2-12-1-9-2z" fill="#B14308"/>
<path transform="translate(1026,822)" d="m0 0h10v1l-6 1-1 10h-1l-1-6-1 7h-1v-8z" fill="#9C3B08"/>
<path transform="translate(474 1e3)" d="m0 0 11 1 6 2v1h-10l-7-2z" fill="#FDF595"/>
<path transform="translate(693,897)" d="m0 0h17l-5 4-5 3 1-5-8-1z" fill="#C6C4B5"/>
<path transform="translate(746,981)" d="m0 0 10 1 10 3v1h-8l-9-2z" fill="#FDE834"/>
<path transform="translate(396,782)" d="m0 0 4 5 4 11h-2v-2h-3l-3-11z" fill="#A5460C"/>
<path transform="translate(605,1078)" d="m0 0h4l8 6v2l4 1-1 2-14-9z" fill="#E5E2C7"/>
<path transform="translate(597,995)" d="m0 0 1 4 1 2 3 2-9-1-3-2z" fill="#FDE834"/>
<path transform="translate(1114,835)" d="m0 0h5v9l-3 8h-1l1-9 1-7z" fill="#97470D"/>
<path transform="translate(516,1180)" d="m0 0 7 5v1l-14 1v-1l5-1z" fill="#CB9B0C"/>
<path transform="translate(231,710)" d="m0 0m-1 1 1 2-4 5-3 5h-1l1-7z" fill="#D0CECE"/>
<path transform="translate(737,1089)" d="m0 0m-3 1 3 1-11 11-4-1 5-3z" fill="#D6A60A"/>
<path transform="translate(630,1059)" d="m0 0 6 3v3l-13-4v-1z" fill="#F0B901"/>
<path transform="translate(453,1050)" d="m0 0 2 1-1 4 8 10-1 2-9-10-1-4z" fill="#F2EBA5"/>
<path transform="translate(448,995)" d="m0 0 15 4 1 3-10-2v-2l-6-1z" fill="#D7A408"/>
<path transform="translate(1178,365)" d="m0 0h3l6 9-2 1-1 2-3-6-1-4h-2z" fill="#C7C2A5"/>
<path transform="translate(845,1246)" d="m0 0 4 1-1 3-3 1h-8l3-2z" fill="#D1CFD0"/>
<path transform="translate(819,1123)" d="m0 0h2v2l-7 5-3 3-4 1v-2z" fill="#EEB701"/>
<path transform="translate(769,896)" d="m0 0h8l-1 3-4-1-5 3h-2l2-4z" fill="#C6C5BD"/>
<path transform="translate(768,724)" d="m0 0h8l1 1v8h-1l-1-7-2-1-1 3h-4z" fill="#AA3106"/>
<path transform="translate(440,1190)" d="m0 0m-6 1h6l-2 1v3l5 1-4 1-5-2z" fill="#FDF7A4"/>
<path transform="translate(668,1172)" d="m0 0 10 3-1 4-7-3z" fill="#F7CD16"/>
<path transform="translate(688,1126)" d="m0 0 10 3 1 2h-5l-4 1z" fill="#F4F3E5"/>
<path transform="translate(604,1072)" d="m0 0 5 2 5 5 1 2-4-1-7-6z" fill="#C8C6BE"/>
<path transform="translate(564,1029)" d="m0 0 3 1 4 2-11 2-4-1z" fill="#FDF69C"/>
<path transform="translate(850,724)" d="m0 0 5 1 1 3v11l-2-3-2-10z" fill="#9F3908"/>
<path transform="translate(1236,422)" d="m0 0h2l8 12v3l-4-4-6-9z" fill="#C6C5BE"/>
<path transform="translate(595,1062)" d="m0 0 6 1 1 2h-10l-2-1 2 4-4-2-1-3z" fill="#E9E4B0"/>
<path transform="translate(455,996)" d="m0 0h9l4 2h-3v2l-9-2z" fill="#FDEE62"/>
<path transform="translate(699,983)" d="m0 0 7 2v3l-6 1z" fill="#E7E5CA"/>
<path transform="translate(922,978)" d="m0 0 4 2 4 1-4 3-4 1-1-3z" fill="#D5D2B3"/>
<path transform="translate(526,755)" d="m0 0 2 4 1 8h-1l-1 7h-1z" fill="#A8540F"/>
<path transform="translate(614,1134)" d="m0 0 9 6-3 1-8-4z" fill="#E6E2B3"/>
<path transform="translate(395,1127)" d="m0 0h18v1l-15 1 2 3-5-2z" fill="#E6E3C8"/>
<path transform="translate(443,1066)" d="m0 0 20 1 1 3-18-2z" fill="#EAE6B6"/>
<path transform="translate(1132,932)" d="m0 0 4 1-2 4-4 1-2-4z" fill="#C6C5BD"/>
<path transform="translate(508,918)" d="m0 0 7 1-2 5-4 1v-4z" fill="#C6C5BA"/>
<path transform="translate(1378,710)" d="m0 0 5 2 3 4-1 3-5-5z" fill="#CFCDCD"/>
<path transform="translate(1322,629)" d="m0 0 2 4v9h-2l-1-12z" fill="#C8C6BD"/>
<path transform="translate(1316,603)" d="m0 0h2l2 12-2 1-2-7z" fill="#C6C5B8"/>
<path transform="translate(551,1213)" d="m0 0h10l-2 5-1-3h-10z" fill="#F0ECBA"/>
<path transform="translate(650,1158)" d="m0 0 5 1 8 4-3 1-6-3-1 2-3-3z" fill="#EDE9B8"/>
<path transform="translate(1016,1073)" d="m0 0 4 2v3l6-2 4 1-9 4z" fill="#EFEAB4"/>
<path transform="translate(501,1048)" d="m0 0 3 3h2l1-3v8h-3l-3-5z" fill="#E9E5AE"/>
<path transform="translate(445,965)" d="m0 0 4 1 4 2-8 2-4-2z" fill="#D3D1B6"/>
<path transform="translate(1324,640)" d="m0 0h1l1 6v8l-2-1-1-11z" fill="#C6C4BA"/>
<path transform="translate(783,446)" d="m0 0h2v2l12 1v1h-16z" fill="#D0CEB7"/>
<path transform="translate(1017,1201)" d="m0 0h4v2l-9 3-1 1h-5l4-3z" fill="#C6C2AB"/>
<path transform="translate(1192,984)" d="m0 0h5l3 3-2 4-2-1-1-3z" fill="#C6C5BE"/>
</svg>
