<?xml version="1.0" encoding="UTF-8"?>
<svg version="1.1" viewBox="0 0 2048 1706" width="2400" height="2000" xmlns="http://www.w3.org/2000/svg">
<path transform="translate(0)" d="m0 0h2048v1706h-2048z" fill="#FEFEFD"/>
<path transform="translate(97,663)" d="m0 0h9l57 9 43 9 40 10 40 12 33 11 42 16 29 13 13 4h1528l58 1v240l-1 1h-1282l5 12-1 1h-17l-21 2-25 5-36 12-26 11-17 8-5-1-7-12-30-40-11-14-14-17-24-28-14-15-9-10-18-18-8-7-9-9-8-7-11-10-11-9-13-11-17-13-18-14-18-13-42-28-19-12-20-12-24-14-44-24-39-20-31-15-7-3z" fill="#818890"/>
<path transform="translate(97,663)" d="m0 0h9l57 9 43 9 40 10 40 12 33 11 42 16 29 13 13 4v2l9 3 25 12 21 11 23 13 31 19 24 16 16 11 16 12 28 22 11 9 8 9 2 1v2l4 2 16 15 17 17 8 7 12 13 11 14 11 15 10 16 4 10 1 3-1 1h-17l-21 2-25 5-36 12-26 11-17 8-5-1-7-12-30-40-11-14-14-17-24-28-14-15-9-10-18-18-8-7-9-9-8-7-11-10-11-9-13-11-17-13-18-14-18-13-42-28-19-12-20-12-24-14-44-24-39-20-31-15-7-3z" fill="#DF9E24"/>
<path transform="translate(1374,785)" d="m0 0h37l19 1 5 6 19 43 9 21 1 7h3l5-10 5-12 13-30 8-18 4-6 8-2h40l19 1 1 1v148l-1 10h-50l-1-2-1-28v-60l-6 15-11 26-19 43-4 6-3 1-24-1-4-4-11-26-12-27-6-14-6-15-2-3-1 88-1 1h-42l-2-2-1-52v-86l1-16 2-3z" fill="#E09F24"/>
<path transform="translate(1830,784)" d="m0 0h33l15 3 13 5 12 7 12 11 8 9 8 16 4 13 1 4v28l-4 15-8 16-8 10-9 8-11 7-1 1h9l9-1h13l3 3v20l-1 13-1 2-4 1-13 1h-16l-16-2-11-4-9-6-5-6-4-8-27-3-15-4-14-6-11-8-7-6-8-11-8-16-4-17-1-15 3-20 5-13 6-11 8-10 7-7 14-9 14-6z" fill="#E09F24"/>
<path transform="translate(611,786)" d="m0 0h68l7 15 10 22 12 27 6 14 2-2 7-17 13-30 12-28 1-1h68l1 1v106l-1 52h-51l-1-91-15 35-8 19-16 36-2 1h-28l-13-29-12-28-13-31-1-3-1 70-4-2-24-24-8-7-3-2v-2l-4-2-2-3z" fill="#FEFEFD"/>
<path transform="translate(1645,786)" d="m0 0h50l5 6 11 23 11 25 19 41 15 32 10 24 2 3v5h-52l-5-5-12-26-3-2h-59l-3 3-11 23-3 6-1 1-45 1-2-1 3-9 9-20 17-37 13-29 16-36 11-24z" fill="#E09F24"/>
<path transform="translate(842,786)" d="m0 0h52l1 106 3 9 8 5 10 2h11l10-2 7-4 3-4 2-14v-98h44l1 1-1 111-2 11-5 12-8 9-13 8-12 5-19 4-19 1-21-2-19-5-13-7-6-5-9-13-4-14-1-7z" fill="#FEFEFD"/>
<path transform="translate(1124,786)" d="m0 0h158v38l-1 1h-51v120h-55v-120h-47l-5-1v-30z" fill="#FEFEFD"/>
<path transform="translate(1017,786)" d="m0 0h53l1 87-1 32h66l17 1v39l-19 1h-35l-82-1z" fill="#FEFEFD"/>
<path transform="translate(412,932)" d="m0 0h55l6 3 7 8 11 12 8 10 13 16 21 28v2l-30 1-58 1h-26l-10-3-10-7-7-8-5-9-2-8v-13l4-13 6-9 7-7 5-3z" fill="#E09F24"/>
<path transform="translate(1285,786)" d="m0 0h52l1 2v86l-1 71h-51l-1-71z" fill="#FEFEFD"/>
<path transform="translate(120,824)" d="m0 0 10 5 21 14 22 14 23 15 13 8 8 5-6 8-7 7-11 9-11 8-15 8-10 3-13 1-11-3-10-6-8-9-6-13-2-10v-19l4-20 8-24z" fill="#E09F24"/>
<path transform="translate(1838,821)" d="m0 0h15l11 4 6 4 6 7 4 10 2 10v18l-3 14-6 12-9 7-11 3h-17l-11-4-8-7-6-12-2-9v-21l3-14 5-10 8-7 5-3z" fill="#818891"/>
<path transform="translate(138,789)" d="m0 0 4 5 11 10 12 9 13 8 16 8 14 4 12 2h15l15-5 12-8 10-8 3-3 7 1 4 2-1 4-16 15-13 13-8 7-24 24-5-2-22-14-23-14-31-19-21-13-2-3v-10l10-6z" fill="#E09F24"/>
<path transform="translate(96,679)" d="m0 0 9 3 32 15v28l-2 51-3 7-7 7-6 2h-7l-2-5-5-35-7-56z" fill="#E09F24"/>
<path transform="translate(68,781)" d="m0 0h11l6 3 6 5 4 6 1 4v9l-4 8-5 5-6 4-3 1h-7l-10-4-7-8-3-8 1-9 6-10z" fill="#E09F24"/>
<path transform="translate(1665,841)" d="m0 0 4 2 12 30-1 1-28 1-1-4 8-16z" fill="#818891"/>
<path transform="translate(98,747)" d="m0 0 2 2 2 12v18l-2 9-5-5-8-6-11-5 6-7 10-11z" fill="#E09F24"/>
<path transform="translate(520,1021)" d="m0 0h23l2 3v12l-3 3h-21l-3-2-1-3v-9l1-3z" fill="#E09F24"/>
<path transform="translate(388,913)" d="m0 0 5 1 5 4 3 4-1 5-9 9-5 6-5-1-8-7-1-4 9-10z" fill="#E09F24"/>
<path transform="translate(415,906)" d="m0 0h21l3 3v11l-1 3-3 1h-22l-2-5v-9z" fill="#E09F24"/>
<path transform="translate(436,1021)" d="m0 0h23l2 4v10l-1 3-4 1h-19l-3-1-1-11 1-5z" fill="#E09F24"/>
<path transform="translate(477,1021)" d="m0 0h22l2 1v15l-4 2h-19l-3-1-1-2v-13z" fill="#E09F24"/>
<path transform="translate(365,949)" d="m0 0 12 3 3 2-4 22-2 2h-9l-6-2-1-5 4-17z" fill="#E09F24"/>
<path transform="translate(397,1018)" d="m0 0h9l15 4 2 2-1 9-3 6h-7l-16-5-2-2 1-8z" fill="#E09F24"/>
<path transform="translate(375,988)" d="m0 0 5 1 10 19-1 4-6 4-8 1-6-10-5-10 2-4z" fill="#E09F24"/>
<path transform="translate(100,816)" d="m0 0 11 6 1 1-1 9-6 16h-3l-14-14 1-4 5-5z" fill="#E09F24"/>
</svg>
