<svg version="1.2" xmlns="http://www.w3.org/2000/svg" viewBox="0 0 2400 2000" width="2400" height="2000">
	<title>protactical</title>
	<style>
		.s0 { fill: #757576 } 
		.s1 { fill: #fefefe } 
	</style>
	<g id="Background">
		<path id="Path 1" fill-rule="evenodd" class="s0" d="m711 829h9v29.8c0 16.3 0.3 31.3 1.2 36.7l8.1 1.3c4.5 0.8 11.8 2.5 16.2 3.9 4.4 1.4 10.7 3.7 14 5.2 3.3 1.5 9.1 4.8 13 7.3 3.9 2.4 9.9 6.9 13.4 9.9 3.5 3 9.2 9 12.8 13.4 3.5 4.4 8.3 11.1 10.6 15 2.2 3.9 5.6 10.6 7.5 15 1.8 4.4 4.2 11.4 5.2 15.5 1.1 4.1 2.5 11.5 4.5 25.5l32-0.4c17.6-0.1 32.2-0.5 32.5-0.8 0.3-0.3 0.6-8 0.7-17.1 0.1-12.8 0.4-16.9 1.5-17.4 0.7-0.4 1.4-1.6 1.5-2.5 0-1-0.9-2.5-2-3.4-2.1-1.5-2.1-1.8-0.7-5 0.8-1.9 1.4-3.6 1.4-3.9-0.1-0.3-0.4-2.2-1.4-8h54v4.2c0 4-0.2 4.3-2.7 4.3-1.4 0-2.8 0.6-3 1.2-0.1 0.7 1.1 1.8 5.7 3.3l-0.5 161.5h-53v-102.4l-5.5-0.5c-3-0.2-18.1-0.4-61.5-0.1l-1.1 8c-0.6 4.4-2.3 12.3-3.8 17.5-1.5 5.2-4.6 13.5-7 18.5-2.4 5-7.1 12.6-10.3 17-3.3 4.4-9.8 11.6-14.4 16-4.6 4.4-11.5 10.1-15.4 12.6-3.9 2.5-9.7 6-13 7.6-3.3 1.7-9.4 4.2-13.5 5.5-4.1 1.4-11.5 3.3-25.5 6l-0.8 6.1c-0.4 3.4-0.7 13.6-0.7 22.7 0 9.1-0.3 22-1.5 41h-3.2c-2 0-3.5-0.6-3.8-1.5-0.3-0.8-0.5-10.4-0.5-21.2 0-10.9-0.3-25.9-1.3-46.8l-9.6-1.3c-5.3-0.7-14.3-2.9-20.1-4.8-5.8-1.9-14.3-5.5-19-8-4.7-2.5-11.4-6.7-15-9.3-3.6-2.7-9.7-8.2-13.5-12.2-3.9-4.1-9.4-10.8-12.1-14.9-2.8-4.1-6.7-10.7-8.6-14.5-2-3.8-4.9-11.3-6.6-16.5-1.6-5.2-3.6-13.1-4.2-17.5-0.7-4.4-1.4-8.6-1.6-9.3-0.3-0.9-4-1.1-16.1-0.6-8.7 0.4-15.9 0.8-16 1-0.2 0.2 1.5 2.8 3.7 5.7 2.3 2.8 5.5 8.8 7.1 13.2 1.7 4.4 3.4 10.3 3.9 13 0.4 2.8 0.6 5.3 0.4 5.8-0.2 0.4-1.4 0.7-2.6 0.7-1.3 0-3.2 0.6-4.3 1.4-1.8 1.2-1.8 1.7-0.7 4 0.7 1.5 2.1 2.7 3.5 2.8 1.2 0.1 3.1 0.2 4.2 0.2 1.7 0.1 2.2 1.5 3.8 9.6 1 5.6 1.5 11.4 1.2 14-0.5 3.9-0.3 4.8 2 7 1.9 1.8 2.6 3.7 2.8 6.7 0.2 3.5 1 5 9.2 13.4l-3 2.3c-2.2 1.7-4.8 2.5-9.5 3-3.6 0.3-9.8 0.6-13.7 0.6-5.6 0-7.4-0.3-7.8-1.5-0.3-0.9 0.9-2.9 2.9-4.7 1.8-1.8 5-4.5 7-6 2-1.6 3.6-3.3 3.6-3.8 0-0.6-0.6-0.7-1.7-0.1-1 0.6-4.3 3.3-7.3 6.1-3 2.8-6.1 5.1-6.7 5-0.7 0-2.8 1.2-4.5 2.7-2.8 2.2-4 2.6-8 2.2-3.1-0.3-5.4-1.2-7.2-2.9-1.5-1.4-3.8-5.2-5.3-8.5-1.4-3.3-3.6-10-4.9-15-1.2-5-3-14-3.9-20-0.9-6-2.6-14.1-3.8-17.9-1.4-4.5-3.5-8.4-5.8-11-2-2.3-5.8-5.2-8.5-6.5-4.2-2.1-6.7-2.5-17.9-2.8-7.1-0.3-16.5-0.1-28.5 1.2l0.5-43 18.5-0.6c10.2-0.4 20.8-1.1 23.5-1.7 2.8-0.6 6.4-1.5 8-2 1.6-0.5 4.8-1.8 7-2.9 2.2-1.1 5.7-4 7.8-6.4 2.1-2.4 4.3-6.2 4.9-8.4 0.6-2.2 1.1-6.9 1.1-10.5-0.1-5-0.8-7.7-3-11.9-1.7-3.4-4.5-6.8-7.3-8.9-2.5-1.8-6.7-4-9.5-4.9-3.5-1.1-11.7-1.7-50.5-2.8v-43.5l30.8 0.6c16.9 0.3 33.6 1 37.2 1.5 3.6 0.5 8.7 1.7 11.5 2.6 2.7 0.9 7.2 2.7 10 4.1 2.7 1.4 7.2 4.2 10 6.2 2.7 2 7.2 6.1 9.9 9.1 2.7 3 6.4 8.5 8.2 12.4 1.9 3.9 4.1 10.1 4.9 14 0.8 3.9 1.5 10 1.5 13.8 0 3.7-0.7 10.2-1.5 14.5-0.8 4.2-3 10.8-4.9 14.7-2.3 4.7-5.5 9.1-9.8 13.3-3.4 3.4-5.8 6.3-5.3 6.3 0.5 0.1 7.1 0 14.5-0.1 7.4-0.1 13.6-0.2 13.6-0.3 0.1-0.1 0.9-5.2 1.8-11.2 0.9-6 2.9-14.8 4.5-19.5 1.6-4.7 4-11 5.3-14 1.3-3 4.9-9.3 8-14 3.1-4.7 8.9-12 12.9-16.4 4.1-4.3 11.2-10.7 15.9-14.2 4.7-3.5 12.5-8.4 17.5-10.9 5-2.5 13-5.6 18-7 5-1.4 13.4-3.1 28.5-5zm-396.6 60c0.6 0 1.7 1.1 2.4 2.5 1.1 2.2 2 2.6 8 3.1 3.7 0.3 10.3 1.2 14.7 2 4.4 0.8 10.3 2.2 13 3.1 2.8 0.8 8.2 3.2 12 5.2 4.6 2.3 9.6 6.2 14.5 11.1 5.5 5.4 8.6 9.6 11.3 15 2.2 4.4 4.5 11.4 5.7 17 1.2 5.7 2 13.4 2 19.3 0 5.3-0.4 13-1 16.9-0.5 4-1.9 10-3 13.3-1.1 3.3-3.9 9.1-6.2 13-2.3 3.9-7.7 10.6-12.2 15.1-7.1 7.1-9 8.4-16.3 11.2-4.6 1.8-12.2 4.2-17 5.4-7.7 1.9-12.1 2.2-64.3 2.8v-43l8.8-0.6c4.8-0.4 13.3-0.4 19 0 5.6 0.3 10.7 0.8 11.2 1.1 0.6 0.3 3.4-0.7 6.3-2.2 2.9-1.4 7.8-5.1 11-8.2 3.5-3.4 6.6-7.6 7.9-10.6 1.5-3.4 2.2-7.2 2.2-12 0.1-5.5-0.4-8.2-2.5-12.5-1.4-3-4.1-7.2-5.9-9.4-1.9-2.1-4.8-4.5-6.5-5.4-1.6-0.8-6.1-2.3-10-3.3-3.8-1-9.2-1.9-12-1.9-3.8-0.1-5.5 0.4-7 2-1.1 1.1-2.5 2.1-3.2 2-0.7 0-2.2-1-3.3-2.3-1.9-2.1-2.4-2.1-8-1.2-3.4 0.5-6.6 0.7-7.3 0.3-0.9-0.5-1.2-6.5-1.2-43.3l16.3-0.3c16.1-0.2 16.2-0.2 17.8-2.7 0.9-1.4 2.1-2.5 2.8-2.5zm-52.9 5l7.5 8.5 0.2 25.5c0.1 14 0.1 41-0.4 94.5l-3.7 4.2c-1.9 2.4-4.6 4.9-5.9 5.5-1.2 0.7-2.1 2-2 2.8 0.2 0.8 1.1 1.6 2.1 1.7 0.9 0.2 3.1-1 4.7-2.7 1.7-1.7 3.5-3 4-3 0.7 0 0.9 15.9 0.5 92.5l-6.5 0.3c-5.7 0.2-6.7 0-8-1.9-0.8-1.2-2-1.9-2.7-1.5-0.7 0.3-1.3 1.3-1.3 2.1 0 1.2-1.9 1.5-10.7 1.6-5.9 0-13.3 0-16.3-0.1-3-0.1-5.7-0.4-6-0.7-0.3-0.2-0.6-51.6-0.8-114-0.2-62.5-0.1-114 0.3-114.4 0.3-0.5 10.6-0.9 45-0.9zm197 0l0.8 5.2c0.4 2.9 0.7 54.5 0.7 223.8l-4.2 0.5c-2.4 0.3-14.4 0.5-49.3 0l-0.2-113.5c-0.2-62.4-0.1-114.1 0.2-114.8 0.4-0.9 6.6-1.2 52-1.2zm397.3 0.1c3.8-0.1 5.4 0.3 5.7 1.4 0.4 1.2 1.6 1.4 5.3 0.9 2.6-0.4 28.5-0.8 110.2-1.4l0.7 2.7c0.3 1.6 1.1 3.1 1.7 3.5 0.6 0.4 1.9 0.8 2.9 0.8 1.2 0 1.9-1.1 3-7.5l9.6 0.8c5.3 0.4 9.8 1 10.1 1.3 0.3 0.3 0.6 10.4 1 44.4l-86.9-0.3c-47.8-0.1-87.3-0.6-87.7-1-0.5-0.4 0.2-5.2 1.5-10.5 1.2-5.3 2.5-10.5 2.7-11.5 0.2-0.9 1.2-1.6 2.1-1.5 0.9 0.2 2.9 2.3 4.3 4.8 2.4 4.1 3 4.5 6.8 4.7 2.3 0.2 4.2 0.8 4.2 1.3 0 0.5 1 1.9 2.3 3 1.2 1 2.9 2 3.7 2 0.9 0 0.1-1.3-2-3.4-1.9-1.8-4-5.2-4.7-7.5-1-3.1-1.9-4.2-3.8-4.6-1.4-0.3-2.5-1.1-2.6-1.8-0.1-0.6-0.1-3.1 0-5.5 0.1-2.9-0.4-4.4-1.4-5q-1.5-0.7-4.3 2c-1.5 1.5-3.5 2.8-4.4 2.8-1.4 0-1.7-0.6-1.2-2.8 0.3-1.5 2-4.2 3.7-5.9 1.8-1.8 5.2-3.9 7.7-4.7 2.5-0.8 6.9-1.5 9.8-1.5zm290.2-0.1l1.6 4.2c0.9 2.4 5.9 16 11.1 30.3 5.3 14.3 12.1 33.4 15.3 42.5 3.2 9.1 9.7 27.1 14.4 40 4.6 12.9 12.6 35 17.5 49 5 14 12.2 33.8 22.8 62.5l-30.1 0.2c-16.5 0.2-30.4 0-30.8-0.5-0.3-0.4-3.2-8.8-6.3-18.7-3.2-9.9-6.3-20-8.1-27l-32.7-0.3c-30.4-0.2-32.7-0.3-32.6-2 0.1-0.9 3.1-10.7 13.4-41.7l19.3-0.3c17.7-0.2 19.2-0.3 18.8-2-0.3-0.9-1.6-5.3-2.9-9.7-1.4-4.4-5.7-18.8-9.5-32-3.9-13.2-7.6-26.3-8.3-29-0.6-2.8-1.5-5.5-2-6-0.5-0.6-1.3 0.2-2 2-0.6 1.6-3.7 12.2-6.9 23.5-3.2 11.3-9.5 32.4-14 47-4.5 14.6-11 36.6-14.5 49-3.6 12.4-8 27.9-9.9 34.5-2 6.6-4.1 12.3-4.8 12.7-0.7 0.4-9.4 0.8-19.3 0.8-9.9 0-20.2-0.3-27.7-1.5l0.9-39 7.6-21c4.2-11.5 14.6-40.8 23.2-65 8.6-24.2 20.1-56.6 25.7-72 5.6-15.4 10.6-28.6 11.1-29.3 0.7-0.9 8-1.2 59.7-1.2zm337.5 0.6c1.7 0.2 29.3 0.5 61.5 0.7 57.6 0.2 58.5 0.2 58.9 2.2 0.2 1.1 0.8 2.6 1.4 3.2 0.7 0.9 1.6 1 2.9 0.3 1-0.6 2.3-2.1 2.8-3.5 0.8-2 1.7-2.5 4.3-2.5 1.8 0 6.3 0.3 16.7 1.5v4.2c0 3.6-0.3 4.3-2 4.3-1.1 0-2.2-0.6-2.6-1.3-0.3-0.6-0.1-1.7 0.5-2.2 0.7-0.5 1.1-1.3 1.1-1.8 0-0.4-0.9-0.6-2.1-0.5-1.1 0.2-2.5 1.1-3 2-0.5 1-1.3 1.8-1.9 1.8-0.5 0-0.8-1.1-0.5-2.5 0.3-1.6 0-2.9-1-3.5-0.8-0.5-2.2-0.9-3.2-0.8-0.9 0.2-2 1.4-2.4 2.8-0.4 1.4-0.7 5.3-0.8 8.7-0.1 5.3-0.4 6.3-1.8 6.3-1 0.1-2.3-0.5-2.9-1.2-0.6-0.7-1.5-2.7-3-7.3l-2.2 2.5c-1.7 1.8-2.2 3.2-1.7 5.2 0.3 1.6 1.5 3.7 2.8 4.8 1.2 1 3.7 1.9 5.5 2 2.9 0 3.2-0.3 3.2-2.8 0.1-1.5 0.9-3.5 1.8-4.6q1.7-1.8 1.5-5.7c-0.2-2.1 0.2-3.9 0.7-3.9 0.6 0 1 0.9 1 2 0 1.1 0.6 2 1.3 2 0.7 0.1 1.8-0.6 2.5-1.5 1.1-1.3 1.6-1.2 4.2 1 1.7 1.4 3.5 2.5 4 2.5 0.6 0 1 6 1 32h-28.7c-15.8 0-29.8-0.2-31-0.5-1.3-0.3-2.1-0.8-1.8-1.3 0.2-0.4 0-2.3-0.5-4.2-0.5-1.9-1.6-4.4-2.4-5.5-1.4-1.9-1.5-1.9-2.5 1-0.9 2.4-0.8 3.7 2.4 10.4h-53.5c-31.3 0.1-54.1-0.3-55-0.9-1.3-0.8-1.3-2-0.4-8.2 0.7-4 1.9-9 2.8-11.1 1-2.3 2.9-4.3 4.9-5.3 2.3-1.2 2.9-1.2 2-0.3-0.7 0.8-1.3 2.2-1.3 3.1 0 1 1.1 3 2.4 4.5 1.2 1.6 3.7 3.4 5.5 4 2.8 1.2 3.2 1.1 3.6-0.7 0.3-1.1 0-3.9-0.7-6.1-0.7-2.3-2.1-4.7-3.1-5.3-1.3-0.8-1.7-2.2-1.5-5.6 0.2-3.3-0.1-4.6-1.2-4.8-0.8-0.1-3.5 1.1-6 2.7-2.5 1.7-4.8 2.8-5.2 2.5-0.4-0.2-0.8-1.1-0.8-1.9 0-0.8 1.5-3.1 3.3-5.1 1.8-2 4.6-4.4 6.2-5.2 1.7-0.9 4.8-1.9 7-2.3 2.2-0.4 5.4-0.5 7-0.3zm187.1-0.5c13.9 0.2 25.5 0.6 25.9 0.9 0.3 0.3 0.7 19.2 0.8 42 0.1 22.8 0.1 71.9 0 109-0.1 37.1-0.6 67.2-1 66.8-0.4-0.4-2-0.3-3.5 0.3-1.5 0.5-2.8 1.4-2.8 1.9 0 0.5 1.6 0.9 3.5 0.7 3.5-0.2 3.5-0.2 3.5 8.3l-5.2 0.1c-2.9 0.1-6.6 0-8.3-0.1-1.6-0.1-3.8-0.9-4.7-1.8-1.1-1-2.4-1.4-3.3-1-0.8 0.5-1.5 1.3-1.5 1.8 0 0.6-5.5 1-29 1v-65.5l5.8 0.2c3.1 0.1 6.1 0 6.5-0.3 0.4-0.2-1.3-1.5-3.8-2.9-2.5-1.4-5.2-2.5-6-2.5-0.8 0-1.5 0.6-1.4 1.2 0 0.7-0.2 1.1-0.5 0.8-0.3-0.3-0.8-35.9-1.1-79.2-0.3-43.3-0.3-79.4 0.1-80.4 0.6-1.5 2.8-1.6 26-1.3zm330.3-0.1h28.8c15.9 0 29.3 0.4 30 0.8 0.6 0.4 2.1 3.2 3.3 6.2 1.2 3 10.3 28 20.2 55.5 9.9 27.5 23.4 65.1 30 83.5 6.6 18.4 15.1 42.3 18.8 53 3.7 10.7 7.5 21.9 10 30h-59.5l-7.2-22.2c-4-12.3-7.3-22.9-7.3-23.6 0-0.6-0.5-1.2-1.2-1.3-0.7 0-15.7 0.1-33.3 0.1-30.6 0.2-31.9 0.1-31.3-1.7 0.4-1 3.5-10.3 6.8-20.8 3.4-10.5 6.7-19.6 7.3-20.3 0.9-1 5.8-1.3 38.2-1.3l-3.2-10.7c-1.7-5.9-6.1-20.6-9.7-32.7-3.6-12.1-7-24.2-7.5-27-0.6-2.7-1.7-5.6-2.6-6.2-1.2-1.1-1.6-1-2.4 0.5-0.5 0.9-2.5 7.8-4.4 15.2-2 7.4-7.5 26.3-12.3 42-4.7 15.7-11.3 37.7-14.5 49-3.2 11.3-7.6 26.1-9.7 33-2.2 6.9-4.7 15.4-5.6 19-0.8 3.6-2.1 7.1-2.8 7.7-1 0.9-7.2 1.2-47.3 0.8l0.8-39 6.2-18.5c3.5-10.2 8.4-24.1 11-31 2.6-6.9 9.1-25.1 14.5-40.5 5.4-15.4 13.2-37.2 17.3-48.5 4.1-11.3 9.4-25.9 11.7-32.5 2.3-6.6 4.8-13.5 5.6-15.2zm-660 1l0.3 20.2c0.2 12.9 0 20.7-0.7 21.5-0.6 0.8-2 1.3-3.3 1.3-1.2 0-6.8 2.3-12.5 5.2-6.6 3.4-12.3 7.1-16.2 10.8-3.7 3.5-7.4 8.3-9.7 12.5-2 3.8-4.8 10.4-6.3 14.7-1.6 4.9-2.5 10-2.5 13.8 0 3.8-0.8 7.8-2.2 11.2-1.9 4.6-2 5.6-0.9 8.3 0.7 1.6 1.9 4.5 2.6 6.5 0.8 1.9 1.4 5.5 1.4 8 0 2.4 1 7.8 2.1 12 1.1 4.1 2.6 8.1 3.3 9 0.7 0.8 2.9 4.2 4.9 7.5 1.9 3.2 5.7 7.9 8.4 10.3 2.7 2.4 7.1 5.6 9.9 7.2 2.7 1.6 7.6 3.3 10.7 3.9 4 0.7 5.8 1.5 5.8 2.6 0 0.8-0.5 1.7-1 2-0.6 0.2-1 0.9-1 1.5 0 0.5 1.2 1.5 2.6 2.2 1.5 0.7 3.2 2.1 3.8 3.1 0.9 1.5 0.6 2.1-1.7 3.7-1.5 1.1-2.7 2.9-2.7 4 0 1 0.3 2 0.8 2 0.4 0 1.2-0.5 1.7-1 0.6-0.6 1-0.5 1.2 0.3 0.1 0.6 0.7 3.4 1.2 6.2 0.8 3.4 0.8 6.6 0.1 10.2-0.6 2.9-1 5.6-0.9 6 0.1 0.4 0.1 1.3 0 2-0.1 0.7-1.1 1.2-2.4 1.2-1.2 0-2.8-0.3-3.5-0.7-0.6-0.4-1.6-2.2-2.2-4-0.9-2.8-0.8-3.2 0.7-3.2 1 0 3-1.6 4.5-3.5 1.5-2 2.8-4.2 2.8-5 0-0.9-0.7-1.5-1.5-1.5-0.9 0-2.3 0.3-3.3 0.8-0.9 0.5-2.4 2.3-3.2 4.1-0.9 1.7-1.9 3.1-2.3 3.1-0.4 0-1.6-1.6-2.7-3.5-1.1-2-2.5-3.5-3-3.5-0.6 0-1 0.5-1 1.2 0 0.7 1.1 3 2.6 5.3 1.7 2.6 2.4 4.7 2 6.2-0.4 1.3-1.4 2.2-2.4 2.2-0.9 0-4.3-0.5-7.3-1.2q-5.7-1.3-8.3-4c-1.4-1.5-3.5-2.7-4.6-2.7-1.1 0-3 0.4-4.3 1-1.7 0.9-3 0.8-5.7-0.6-2-1-6.2-3.6-9.5-5.8-3.3-2.3-8.7-6.5-12-9.5-3.3-3-8.4-8.1-11.3-11.5-3-3.4-7.4-9.3-10-13.1-2.5-3.9-5.8-9.8-7.4-13-1.5-3.3-3.4-8.5-4.2-11.5-0.8-3.3-1-6.2-0.6-7 0.5-0.9 2.4-2 4.2-2.5 1.8-0.6 3.2-1.5 3.1-2-0.2-0.6-1.2-1.2-2.3-1.3-1.1-0.1-2.9 0.7-4 1.8-1.1 1-2.1 2-2.3 2-0.1 0-1-2.8-2-6.3-1-3.4-1.5-6.5-1.2-6.7 0.4-0.3 2.1-0.5 3.8-0.5 2.2 0 3.2-0.5 3.2-1.5 0-1.1-1.1-1.5-7.4-1.5l-0.7-5.5c-0.4-3.1-0.5-11.4-0.2-18.5 0.4-9.3 1.3-16 3.2-23.3 1.4-5.6 4.3-14.2 6.3-19 2.1-4.8 6-12.4 8.8-16.8 2.7-4.3 7.7-10.7 11-14 3.3-3.4 9.6-8.8 14-12 4.4-3.2 11.1-7.5 15-9.6 3.8-2.1 11-4.9 16-6.3 4.9-1.4 12.6-3.2 17-4 4.4-0.7 9.6-1.4 15.4-1.5zm17 0.5c3.6 0.4 10.4 1.5 15.1 2.4 4.6 1 12.3 3.4 17 5.4 4.6 2 12 5.8 16.3 8.4 4.4 2.6 12 8.6 16.9 13.3 5 4.6 11 11.2 13.3 14.5 2.3 3.2 5.8 8.9 7.8 12.5 1.9 3.5 4 7.7 4.6 9.2 1.1 2.7 0.9 2.8-5.2 5.5-3.4 1.5-11.6 5.3-18.2 8.6-6.6 3.2-13.7 6.5-15.8 7.3-3.5 1.3-3.9 1.2-6-0.9-1.3-1.2-4.5-6.1-7.3-10.7-2.7-4.7-8.1-11.8-11.9-15.8-5.1-5.4-9.1-8.4-14.5-11.2-4.2-2.1-10.2-4.4-13.4-5.2-3.9-0.9-6.2-2-6.9-3.3-0.6-1.3-0.8-9-0.6-20 0.2-9.9 0.8-18.7 1.3-19.4 0.7-1 2.4-1.2 7.5-0.6zm457.1-0.6l-0.5 42.3-5.5 1.4c-3.1 0.8-9.1 3.3-13.5 5.6-5.2 2.7-10.4 6.4-14.7 10.7-5.1 5.1-7.6 8.5-10.6 15.1-2.2 4.6-4.9 12.1-6.1 16.5-1.1 4.3-1.7 8.8-1.5 10 0.3 1.1-0.2 4.4-1.2 7.5-0.9 3-1.7 6.3-1.7 7.5 0 1.1 1.1 4.9 2.5 8.5 1.6 4.1 2.8 9.5 3.2 15 0.5 8 0.9 8.9 6.3 18 3.1 5.2 7.7 11.5 10.2 14 2.5 2.5 7 5.9 10.1 7.7 3 1.7 7.3 3.4 9.5 3.8 2.2 0.3 4.8 0.8 5.7 1 1 0.3 1.8 1.2 1.8 2.2 0 1.2-1.1 2-3.3 2.4-1.8 0.4-5.4 1.8-8 3.3-2.6 1.4-4.7 3.2-4.7 4.1 0 0.8 0.4 1.7 1 2 0.5 0.2 2.4-1.1 4.2-2.9 1.8-1.9 4.6-3.8 6.3-4.2 1.6-0.4 4.1-0.3 5.5 0.2 2 0.7 2.5 1.6 2.7 5.1 0.2 3.7 0 4.3-1.7 4.3q-2 0-2 2 0 2 2 2 2 0 2 2c0 1 0.5 3.9 1.1 6.2 0.8 3.2 0.8 5.7 0 10-0.8 4-1.7 5.9-2.9 6.3-0.9 0.3-2.5 0.3-3.5 0-0.9-0.3-1.7-1.5-1.7-2.5 0-1.1-0.5-2.3-1-2.5-0.6-0.3-1.3-1.8-1.6-3.3-0.3-1.5-1.4-3.8-2.5-5-1.1-1.2-2.4-2.2-2.9-2.2-0.6 0-1 0.1-1 0.2-0.1 0.1 0.8 2 1.8 4.3 1.3 2.6 1.7 4.8 1.2 6.5-0.6 2.2-1.2 2.4-5.1 2.2-2.4-0.1-5.8-0.7-7.4-1.2-1.7-0.5-3.7-2.1-4.5-3.5-0.9-1.6-2.4-2.6-3.8-2.6-1.2 0-3.1 0.6-4.2 1.3-1.7 1.1-2.9 0.8-7.8-1.6-3.1-1.6-8.4-4.8-11.7-7.1-3.3-2.4-9.9-8.3-14.5-13.2-4.7-4.9-11.5-13.4-15.2-18.9-3.6-5.5-7.8-12.8-9.2-16.2-1.5-3.4-2.6-7.7-2.6-9.5q0.1-3.2 3-6.5c1.6-1.8 3-3.9 3-4.7 0-1.3-0.6-1.4-4-0.3q-4 1.2-5 0.3c-0.6-0.6-1.4-2.7-1.8-4.8-0.6-3.1-0.4-3.8 1.3-4.4 1.1-0.3 2.8-1.4 3.8-2.3 0.9-0.8 1.7-2 1.7-2.5 0-0.7-1.3-0.8-3.5-0.3-3.2 0.7-3.6 0.5-4.6-2-0.6-1.7-0.9-7.9-0.6-15.7 0.2-7.2 1.1-17.3 2-22.5 0.8-5.3 2.7-12.7 4.2-16.5 1.4-3.9 4.9-11.3 7.6-16.5 2.7-5.3 7.3-12.5 10.2-16 2.9-3.6 8.9-9.7 13.4-13.5 4.4-3.9 12.1-9.4 16.9-12.3 5.1-3 12.9-6.5 18.4-8.2 5.2-1.7 13.1-3.7 17.5-4.5 4.4-0.7 10.1-1.4 17.5-1.5zm14.9 0.5c3.6 0.3 10.6 1.4 15.6 2.4 4.9 1 13.5 3.7 19 6 5.5 2.3 12.9 6.1 16.5 8.5 3.5 2.4 9.6 7.1 13.5 10.3 3.8 3.2 9.8 9.7 13.3 14.3 3.6 4.7 8.1 11.8 10.2 15.9 2.1 4.2 3.9 8.3 4.1 9.3 0.3 1.4-3.8 3.8-20.6 11.8-11.6 5.5-21.5 10-22 10-0.6 0-2.7-2.3-4.6-5.3-2-2.9-5.5-8.2-7.7-11.8-2.3-3.5-6.9-9.3-10.4-12.8-3.5-3.5-8.6-7.6-11.3-9.2-2.8-1.5-8-3.7-11.5-4.8-3.6-1.1-7.8-2.2-12-3.2v-19.5c0-10.7 0.3-20.2 0.6-21 0.6-1.3 1.8-1.5 7.3-0.9zm318.1-0.6h53l0.2 65.3c0.1 35.9 0.2 84.8 0.2 108.7 0.1 38.1-0.1 43.5-1.4 43.6-0.9 0-2.5 0.3-3.8 0.7-1.2 0.4-2.5 1.4-2.7 2.2-0.4 1.2 0 1.4 1.7 1 1.3-0.3 3.1-0.8 4-1 1-0.3 2 0.2 2.3 1 0.2 0.9 0.1 2.9-0.3 4.6-0.6 2.5-1.2 3-3.7 3-1.7 0-5.1 0.3-7.5 0.6-4.1 0.5-4.7 0.3-8.8-5.2l-1.4 2.3c-1.3 2.2-1.9 2.3-30.3 2.3l-0.8-7.8c-0.4-4.3-0.7-55.8-0.7-114.5zm-1764.4 12c0.6 0 1.1 1 1 2.2-0.1 1.7-0.8 2.4-2.9 2.5-1.8 0.2-2.8-0.2-2.9-1.2-0.1-0.7 0.7-1.9 1.7-2.4 1.1-0.6 2.5-1.1 3.1-1.1zm1135.4 42l54.5 0.5 0.2 3.7c0.3 3.7 0.2 3.8-3.2 3.8-2.5 0-3.5 0.5-3.5 1.5 0 0.8 1.3 2.1 6 4v71.5c0 39.3-0.4 75.7-1.5 90l-52-0.5zm353.7 89.2l11 6.2c6.1 3.4 16.5 8.8 23.1 12.1 7.2 3.6 12 6.6 12.1 7.5 0 0.8-3 6-6.6 11.5-3.7 5.5-9.6 13.1-13.2 16.8-3.7 3.8-10.5 9.5-15.1 12.7-4.7 3.1-11.5 7.2-15 9-3.6 1.8-9 4.1-12 5.2-3.1 1-9.6 2.5-14.5 3.3-5 0.9-11.4 1.5-19.5 1.5l-0.7-4.7c-0.4-3.4-0.1-5.7 1-8 0.9-1.8 3-4 4.7-4.8 2-1 2.9-2.2 2.9-3.7 0-1.3-1-4.3-2.2-6.8-1.2-2.5-3.3-4.9-4.5-5.5-1.2-0.5-2.2-1.5-2.2-2.2 0-0.7 0.4-1.3 1-1.3 0.5 0 2.3 0.8 4 1.8 3 1.7 3.1 1.7 5.2-0.6 1.2-1.3 2.1-2.8 2-3.3-0.1-0.5-1.2-1.2-2.3-1.6-1.1-0.4-1.9-1.2-1.7-1.7 0.1-0.5 2.5-1.6 5.3-2.5 2.7-0.9 7.4-3.1 10.5-4.8 3-1.7 7.7-5.1 10.4-7.5 2.7-2.3 6.5-6.3 8.5-8.8 2-2.5 4.4-6.7 5.3-9.5 0.9-2.7 1.8-6.2 2-7.6zm-473.4 0.8c0.6 0 11.4 5.4 24 12 12.5 6.6 22.7 12.3 22.7 12.7 0 0.4-2.1 4.1-4.6 8.3-2.6 4.1-6.6 9.9-8.9 13-2.3 3-6.4 7.5-9.1 10-2.7 2.5-7.8 6.6-11.4 9.2-3.6 2.5-9.9 6.4-14 8.6-4.1 2.2-10.2 4.9-13.5 6-3.3 1-9.8 2.6-14.5 3.5-4.7 0.8-10.7 1.7-13.4 1.8-4.5 0.3-5.1 0.1-6.3-2.1-0.7-1.4-1.3-4.5-1.3-6.8 0-2.3 0.5-4.6 1.2-5 0.8-0.5 0.9-2.6 0.5-6.5-0.4-3.2-0.4-5.8 0.1-5.8 0.4 0 1.6 1.8 2.7 4.1 1.1 2.2 2.7 4.2 3.5 4.5 0.8 0.3 1.7 0.2 2-0.1 0.3-0.3-0.4-2.2-1.6-4.3-1.2-2-2.4-5.3-2.8-7.4-0.5-3.5-0.4-3.9 2.9-5.7 2.2-1.3 3.5-2.8 3.5-4q0-2-2-2c-1.1 0-1.8-0.6-1.7-1.3 0.2-0.7 2.1-1.7 4.3-2.3 2.1-0.6 7.3-3.1 11.4-5.5 4.1-2.4 10.5-7.3 14.1-10.9 3.7-3.6 7.6-8.5 8.8-10.8 1.2-2.4 2.1-6.1 2.1-8.7 0-3 0.4-4.5 1.3-4.5zm818.9 41.2c4.5 0.2 5.9 0.6 6.3 2q0.5 1.8 3.5 1.8c2.2 0 3.2-0.6 3.8-2.2 0.7-2 1.1-2.1 9.2-1.4 4.7 0.4 22.6 0.7 39.8 0.6 28.9 0 31.3 0.1 31.8 1.7 0.3 1 0.9 2.4 1.3 3.3 0.4 0.8 2.4 2.2 4.5 3.2 2 1 3.6 2.4 3.6 3.3 0 0.8-0.7 2.1-1.5 3-1.3 1.3-1.3 1.9 0 5.2 1 2.3 1.6 6.9 1.6 11.8 0 5.3-0.4 8.4-1.3 9.1-0.7 0.7-3.8 1.6-6.8 2.2-3 0.6-5.8 0.7-6.1 0.3-0.4-0.3-0.9-1.5-1.1-2.6-0.2-1.1-1.2-2.2-2.3-2.4-1.2-0.2-2.8 0.7-4 2.2-1.1 1.4-2.7 2.6-3.5 2.7-0.8 0.1-2.3 0.1-3.2 0.1-1.5-0.1-1.6-0.6-0.8-2.6 0.6-1.4 1-3.2 1-4 0-0.9-0.6-1.3-1.2-1.1-0.7 0.3-2 1.9-2.8 3.6-0.8 1.8-2.5 3.3-3.7 3.5-1.3 0.3-3.3 0.7-4.5 0.9-1.3 0.3-2.8 0.2-3.4-0.2-0.6-0.4-1.4-2-1.7-3.5-0.4-1.5-1.1-2.5-1.7-2.2-0.5 0.2-1 1.6-1 3 0 1.3-0.7 2.7-1.5 3-0.8 0.2-2.2 0.2-3 0-0.9-0.3-1.8-2.5-2.2-5.1-0.5-2.4-1.2-4.3-1.8-4.1-0.5 0.2-0.9 2.2-0.5 8.7h-4.2c-2.4 0-14.2 0-26.3-0.1-12.1 0-22.2-0.3-22.5-0.6-0.3-0.3-0.5-9.6-0.5-20.7 0-11.1 0.2-20.7 0.4-21.4 0.3-1 2.1-1.3 6.3-1zm-393.3 17.8c1.7 0 3.1 0.2 3.1 0.5 0 0.2-0.8 2.3-1.7 4.5-1 2.2-2.2 3.9-2.8 3.7-0.5-0.2-1.1-2.3-1.3-4.6-0.3-4-0.2-4.1 2.7-4.1zm-1222.5 29.1c1.5 0.3 2.2 1.2 2.4 3.1 0.2 2.1-0.3 2.9-2 3.3-1.3 0.4-2.7 0.2-3.1-0.2-0.5-0.5-0.6-2.1-0.2-3.7 0.5-2.1 1.2-2.7 2.9-2.5z"/>
		<path id="Path 2" class="s1" d="m988.7 897.8c-0.3 0.4-0.6 3.8-0.8 7.6-0.2 4 0 7.1 0.6 7.3 0.5 0.2 2.3-2.8 4-6.7 1.6-3.8 3.3-7 3.7-7 0.5 0 0.1 1.7-0.7 3.8-0.9 2.2-1 3-0.2 2 0.6-1 1.4-1.6 1.7-1.3 0.3 0.3 1.1-0.6 1.7-2 1.2-2.4 1.1-2.6-2-3.5-1.7-0.6-4.2-1-5.4-1-1.2 0-2.4 0.3-2.6 0.8zm-26.1 8.9c-1.4 2.1-2.3 4.1-2.1 4.6 0.3 0.4 2.3 0.7 4.5 0.7 3.4 0 4.1-0.4 5-2.7 0.6-1.6 1-3.5 0.8-4.3-0.2-0.8-1.5-1.6-3-1.8-2.1-0.3-3.1 0.4-5.2 3.5zm627.6-1.7c-1.6 0.8-2.1 1.7-2 3.8 0.3 2.2 0.8 2.7 3.3 3 1.7 0.1 3.6-0.1 4.3-0.5 0.6-0.5 1.3-2.1 1.5-3.8 0.2-2.6-0.2-3-2.3-3.2-1.4-0.1-3.5 0.2-4.8 0.7zm-664.2 1.3c0 0.6 0.8 1.9 1.8 2.7 1 0.8 2.5 2.1 3.5 2.8 1.1 0.7 1.9 0.8 2.2 0.2 0.3-0.5-1-2.3-2.8-4-1.7-1.6-3.5-3-4-3-0.4 0-0.7 0.6-0.7 1.3zm-223.1 0.9c-3.5 0.4-10.3 1.9-15.2 3.3-4.8 1.4-11.7 3.9-15.5 5.6-3.7 1.6-10.5 5.6-15.2 8.7-4.6 3.1-11.3 8.6-14.9 12.2-3.5 3.6-8.1 9-10.2 12-2 3-5.7 9.6-8.2 14.5-2.4 5-5.7 12.8-7.2 17.5-2.2 6.5-2.8 10.6-2.9 17.5-0.1 8.5 0 9 1.9 8.7 1.1-0.2 4.7-0.9 7.9-1.5 3.2-0.7 6-1.8 6.2-2.4q0.4-1.3 4.1 1.5c3.6 2.6 4.3 2.8 13 2.5l9.3-0.3v12.5c-21.3 1-28.3 1.5-29.3 1.9-0.9 0.3-1.9 1.7-2.2 3.1-0.3 1.4-1 2.5-1.5 2.5-0.5 0-1.5-1.6-2-3.5-0.9-3.2-1.3-3.5-4.8-3.5h-3.7c1.2 11.2 3.2 19.2 5.1 25 2 5.8 5.1 13.4 6.9 17 1.8 3.6 5.9 10.1 9.2 14.5 3.2 4.4 7 8.8 8.3 9.8 1.4 0.9 3.5 1.7 4.7 1.7 1.3 0 2.3 0.5 2.3 1 0 0.6 1.2 1.8 2.7 2.7 1.7 1 4.5 1.6 7 1.5 2.4-0.1 4.3 0 4.3 0.3 0 0.3-1.4 1.2-3 2-1.7 0.8-3 2-3 2.5 0 0.6 2.6 2.6 5.7 4.5 3.2 1.9 7.6 3.8 9.8 4.2 2.2 0.4 5.6 1.5 7.5 2.4 1.9 0.9 3.9 1.4 4.4 1.1 0.4-0.4 0.5-1.5 0.2-2.4-0.4-1.1 0-2 0.9-2.3 0.8-0.3 2.1-0.5 2.7-0.5 1 0 1.1 1 0.5 4-0.7 4-0.7 4 3 5 2.1 0.6 5.4 1.3 7.3 1.6 3.3 0.6 3.8 0.3 7.3-4.2l3.8-4.9-0.1-25.5h11v34c5.8-1 8.8-1.3 10.5-1.2 1.6 0.1 5.9-0.6 9.5-1.4 3.6-0.9 10.1-3.4 14.5-5.5 4.4-2.2 11.8-6.8 16.5-10.3 4.7-3.5 10.9-9 13.9-12.2 3-3.3 6.8-7.9 8.4-10.4 1.7-2.5 4.6-7.2 6.5-10.5 1.8-3.3 4.6-9.6 6.2-14 1.5-4.4 3.5-11.6 4.3-16 0.9-4.4 1.7-9 1.9-10.3 0.3-2.3 0.1-2.3-10.4-2.5-9.4-0.2-10.8 0-11.2 1.6-0.4 1.1 0.7 2.8 3.4 5.2 2.2 1.9 3.5 3.7 3 4-0.5 0.3-2.8-0.8-5-2.5-3.9-2.9-4.1-2.9-6.1-1.2-2.1 1.7-2.1 1.7-1.8-2.2 0.3-3.2 0-4-1.6-4.7-1.1-0.4-4.8-0.8-8.3-0.8l-6.2-0.1c0.9-15.9 1.5-20.8 1.9-21.2 0.3-0.4 1.6-0.1 2.8 0.7 1.4 0.9 2.3 2.5 2.3 4 0 2-0.5 2.5-2.8 2.7-1.5 0.1 4.9 0.5 14.3 0.8 9.3 0.3 18.9 0.4 21.2 0.3 2.4-0.2 4.3-0.7 4.3-1.3 0-0.5-1.9-2.1-4.3-3.4-2.3-1.3-4.5-3.1-5-4-0.6-1.4-0.1-1.5 4.3-0.8l5.1 0.7c-1-5.4-1.9-9.7-2.7-13-0.8-3.3-3.4-10.3-5.6-15.5-2.3-5.2-6-12.6-8.2-16.3-2.3-3.8-7.5-10.5-11.6-14.9-4.1-4.5-10.4-10.2-14-12.9-3.6-2.7-10.1-6.6-14.5-8.8-4.4-2.2-11.8-5-16.5-6.4-4.7-1.4-11.1-2.7-14.3-3.1l-5.7-0.6v40h-9c-0.3-26.7-0.4-35.7-0.4-37.2-0.1-1.4-0.4-2.8-0.7-3-0.4-0.2-3.5 0-7 0.4zm250.6-0.5c-0.5 0.3-0.8 1.9-0.7 3.5 0.1 1.5 0.9 3 1.7 3.3 0.8 0.3 1.7 0.1 2-0.5 0.3-0.5 0.3-2.3 0.2-4-0.2-1.6-0.8-3-1.4-3-0.5 0-1.3 0.3-1.8 0.7zm-100.1 1.8c-1.6 0.7-3.4 2.1-4.1 3.1-0.7 1.2-0.8 2.5-0.2 3.4 0.8 1.3 1.2 1.3 3.6 0 1.6-0.9 3.6-1.4 4.5-1.3 1 0.2 1.8 1.1 1.8 2.1-0.1 0.9 0.6 2.4 1.5 3.2 1.4 1.3 1.6 1.2 1.6-1 0-1.4-0.4-2.9-0.8-3.3-0.5-0.5-0.9-1.3-1.1-1.8-0.1-0.5-0.2-1.6-0.1-2.4 0-0.8-0.8-1.9-1.9-2.4-1.3-0.6-2.9-0.5-4.8 0.4zm85.1-1c-0.6 0.4-0.6 1.4 0 2.6 0.6 1.1 1.5 1.8 2 1.6 0.5-0.2 1-1.2 1-2.2 0-1-0.5-2-1.1-2.2-0.6-0.2-1.4-0.1-1.9 0.2zm37.7 1.5c-1 1.6-0.8 2.8 1 6.6 1.3 2.5 3.1 4.7 4 5 1 0.2 2.7 0.2 3.8-0.1 1.1-0.3 2.2-1.3 2.5-2.2 0.4-1.2-0.6-2.9-3-5-1.9-1.8-3.5-4-3.5-4.8 0-0.8-0.8-1.5-1.8-1.5-1 0-2.3 0.9-3 2zm501.3 0.5c-1.4 1.4-2.4 3.1-2.2 3.8 0.2 0.6 1.9 1.3 3.8 1.5 2.2 0.2 4.2-0.3 5.7-1.5 2.1-1.7 2.2-2 0.7-4-0.8-1.3-2.4-2.3-3.5-2.3-1.2 0-3.2 1.1-4.5 2.5zm75.5-1.6c-1.2 0.7-1 1 1 1.6 1.4 0.4 3.5 0.8 4.7 0.9 1.3 0 2.3-0.1 2.2-0.4 0-0.3-0.7-1-1.7-1.7-0.9-0.7-2.4-1.2-3.2-1.3-0.8 0-2.2 0.4-3 0.9zm26.6 1.6c-0.3 0.8-0.6 2-0.6 2.5 0 0.6 1.1 1 2.5 1 1.4 0 2.5-0.4 2.5-1 0-0.5-0.2-1.7-0.5-2.5-0.3-0.8-1.1-1.5-1.9-1.5-0.8 0-1.7 0.7-2 1.5zm-658.6 3.5c0 1.1 0.7 2 1.5 2 0.8 0 1.6-0.6 1.8-1.4 0.2-0.8 0.1-1.7-0.2-2-0.3-0.4-1.2-0.6-1.9-0.6-0.6 0-1.2 0.9-1.2 2zm625.7-1.2c-0.4 0.4-0.4 1-0.2 1.5 0.3 0.4 1.4 0.7 2.5 0.7 1.1 0 2.2-0.7 2.5-1.5 0.3-1-0.2-1.5-1.8-1.5-1.3 0-2.7 0.3-3 0.8zm-613.2 2.9c-0.5 0.3-0.8 1.5-0.7 2.5 0.1 1-1.2 3.2-2.8 4.8-1.6 1.7-3 3.5-3 4 0 0.6 2.2-0.5 4.9-2.2 2.8-1.8 5.2-4 5.4-4.8 0.3-0.8 0.1-2.3-0.4-3.2-0.5-1-1.3-1.8-1.7-1.8-0.5 0-1.2 0.3-1.7 0.7zm551.5 0.6c0 0.6 0.7 2.1 1.5 3.2 1.2 1.6 1.8 1.7 2.8 0.8 0.9-1 0.8-1.7-0.8-3.3-1.1-1.1-2.3-2.1-2.8-2-0.4 0-0.7 0.6-0.7 1.3zm72.5 4.1c-2.1 1.8-3.8 4.1-3.7 5 0.1 0.9 0.7 1.6 1.2 1.6 0.5 0 1-0.6 1-1.2 0-0.7 0.3-1 0.7-0.6 0.5 0.4 2.5-0.2 4.5-1.2 2.9-1.5 3.7-2.5 3.5-4.2-0.1-1.3-0.9-2.4-1.7-2.6-0.9-0.1-3.3 1.3-5.5 3.2zm116-2.8c-0.4 0.4-0.8 1.6-0.7 2.6 0.1 1 1.3 2.4 2.7 3.1 2 1 2.7 0.9 4-0.3 0.9-0.8 1.5-2.4 1.3-3.5-0.2-1.4-1.2-2.1-3.3-2.3-1.7-0.2-3.5 0-4 0.4zm504.6 0.7c-0.6 0.7-0.8 2-0.4 3 0.6 1.3 1.6 1.8 3.3 1.5 2-0.2 2.5-0.9 2.6-3 0.1-2.3-0.4-2.8-2.1-2.8-1.3 0-2.8 0.6-3.4 1.3zm-1212.1 8.7c0 1.4 0.5 3.1 1.2 3.8 0.7 0.7 1.9 1.2 2.5 1.2 0.7 0 1.3-0.3 1.3-0.7 0-0.5-1.1-2.1-2.5-3.8l-2.4-3zm627.1 1.7c0.2 1.7 1 2.9 2.1 3 1.1 0.2 1.8-0.4 1.8-1.4 0-1-0.6-2.4-1.3-3.1-0.7-0.7-1.6-1.2-2.1-1.2-0.4 0-0.6 1.2-0.5 2.7zm-700.6 0.9c-0.5 0.4-0.8 1.8-0.7 3.1 0.1 1.6 0.7 2.2 1.9 2 1.1-0.1 1.8-1.1 1.8-2.6 0-1.4-0.5-2.6-1.1-2.8-0.6-0.2-1.5 0-1.9 0.3zm627 0c-0.5 0.4-0.8 1.8-0.7 3.1 0.1 1.3 0.7 2.6 1.3 3.1 0.6 0.4 1.5 0 2-0.8 0.5-0.8 0.7-2.4 0.6-3.4-0.1-1.1-0.7-2.1-1.3-2.3-0.6-0.2-1.5 0-1.9 0.3zm-581.5 0.7c0 0.1-0.7 1.9-1.5 4-0.9 2-1.1 3.5-0.5 3.2 0.5-0.3 1.2 0.2 1.5 1 0.3 1 1.6 1.4 4 1.3 2.5-0.2 3.5-0.8 3.5-2 0-1-0.4-1.8-0.8-1.8-0.4 0-1.5-1.4-2.5-3-1-1.7-2.2-3-2.7-3-0.6 0-1 0.1-1 0.3zm-706 18.8c-1.3 0.5-2.3 1.3-2.2 1.9 0.1 0.5 0.8 1.3 1.7 1.8 1 0.4 2.2 0 3.3-1q1.7-1.8 0.6-2.7c-0.6-0.5-2-0.5-3.4 0zm286.5 52.6c-1.1 0.2-1.9 0.9-1.8 1.4 0.1 0.5 1.9 0.8 4 0.7 2.1-0.2 3.8-0.7 3.8-1.3 0-0.5-0.9-1.1-2-1.2-1.1 0-2.9 0.1-4 0.4zm-222.3 4.7c-0.8 1.1-1 2.5-0.4 4.4 0.4 1.5 1.2 2.7 1.7 2.7 0.5 0 1-1.2 1.1-2.7 0.1-1.5-0.2-3.5-0.5-4.3-0.6-1.5-0.8-1.5-1.9-0.1zm210.6 1.1c-1.1 1.4-1.1 1.9 0.5 3.3 1.7 1.6 1.9 1.6 3.2-0.3 0.8-1.1 1.5-2.6 1.5-3.2 0-0.7-0.9-1.3-1.9-1.3-1.1 0-2.5 0.7-3.3 1.5zm408.4-0.2c-0.6 0.6-0.9 1.8-0.7 2.5 0.3 0.6 1.1 1.2 2 1.2 0.8 0 1.7-0.7 2-1.5 0.2-0.8 0.2-1.9 0-2.5-0.3-0.5-0.9-1-1.3-1-0.5 0-1.4 0.6-2 1.3zm818.3 0.3c-1 0.8-1.7 2.3-1.6 3.2 0 0.9 0.4 2.3 0.8 2.9 0.4 0.7 2.3 1.7 4.3 2.3 1.9 0.5 5.1 1 7.2 1 2.1 0 4.7-0.4 5.8-1 1.1-0.5 1.7-1.4 1.5-2-0.3-0.5-3.8-2.6-7.8-4.5-4-1.9-7.6-3.5-7.9-3.5-0.4 0-1.4 0.7-2.3 1.6zm-473.5 0.6c-0.8 0.7-1.4 2.2-1.2 3.5 0.1 1.6 1.3 2.8 3.9 3.9 2.6 1.1 5.3 1.4 8.5 1 2.6-0.3 5.2-0.8 5.8-1.1 0.6-0.3 0.5-1.1-0.3-2.1-0.7-0.8-3.7-2.7-6.7-4-3.1-1.4-6.2-2.4-7.1-2.4-0.8 0-2.2 0.5-2.9 1.2zm280.9 0.2c-1.1 1.1-0.9 1.3 1.5 1.2 1.6-0.1 3-0.7 3.2-1.3 0.2-0.7-0.5-1.3-1.5-1.3-1.1 0-2.5 0.6-3.2 1.4zm-1253.4 0.6c-0.3 0.6-0.3 1.9 0 3 0.2 1.1 0.1 2-0.3 2-0.4 0-1.2-1.2-1.8-2.7l-1.1-2.8c0.1 4.4 0.7 6.1 1.4 6.6 0.7 0.5 1.9 0.7 2.8 0.4q1.4-0.5 0.9-2.7c-0.3-1.3-0.6-2.9-0.7-3.5 0-0.7-0.2-1.3-0.4-1.3-0.1 0-0.5 0.5-0.8 1zm1244.5 4c0 0.6-1.1 0.9-2.3 0.9-1.2-0.1-3.9 0.6-6 1.5-3.3 1.4-3.6 1.9-2.7 3.6 0.5 1.1 1.7 2 2.7 2 1-0.1 3.9-2.1 6.5-4.5 2.7-2.6 4.1-4.5 3.3-4.5-0.9 0-1.5 0.5-1.5 1zm-632.3 2.3c-1.5 1.2-2.7 3-2.7 4 0 0.9 0.6 1.7 1.5 1.7 0.8 0 1.5-0.4 1.5-1 0-0.5 1.3-1.7 3-2.5 1.6-0.8 2.8-2.1 2.6-2.7-0.2-0.7-1-1.4-1.7-1.5-0.8-0.2-2.7 0.7-4.2 2zm1291.2 7.6c-2.4 1.6-5 3.6-5.7 4.5-0.7 0.9-1 2.1-0.7 2.6 0.2 0.6 1.1 1 2 1 0.8 0 3.7-1.7 6.4-3.7 2.8-2.1 4.9-4.4 4.8-5.2-0.1-0.8-0.7-1.6-1.3-1.8-0.6-0.2-3.1 1-5.5 2.6zm-506.9 2.4c-4.6 3.6-5.1 4.2-3.2 4.5 1.3 0.2 4.5-1.3 7.7-3.5 3.1-2.1 5.5-4.1 5.5-4.5 0-0.5-1.1-0.8-2.3-0.7-1.2 0-4.7 1.9-7.7 4.2zm-1463.8-1.5c-0.5 0.4-1.3 2.2-1.6 4-0.6 2.8-0.4 3.1 1.2 2.4 1-0.5 2.6-1.9 3.5-3 1.6-2.1 1.5-2.3-0.2-3.1-1.1-0.5-2.3-0.7-2.9-0.3zm686.1 0.5c-1 0.8-1.4 1.9-1 3 0.4 0.9 2.3 2.4 4.4 3.2 2.1 0.9 3.9 1.5 4 1.5 0.1 0 0.3-1.2 0.3-2.7 0-1.6-0.5-3.3-1.3-3.9-0.7-0.6-2-1.4-3-1.7-0.9-0.3-2.4 0-3.4 0.6zm626.9-0.2c-1.9 0.8-2.1 1.2-1.2 3.2 0.6 1.2 3 3.1 5.4 4.2l4.2 2c-1.2-6.2-2.3-8.6-3.3-9.3-1-0.7-2.1-1.2-2.3-1.2-0.3 0.1-1.6 0.5-2.8 1.1zm-1006.2 11.4c0 0.8 0.5 2.5 1.1 3.8 1.1 2.1 1.2 2.1 1.9 0.2 0.4-1.1 0.3-2.8-0.2-3.7-0.5-1-1.3-1.8-1.8-1.8-0.6 0-1 0.7-1 1.5zm1648 0.9q-0.1 1.6 2.2 1.4c1.2-0.2 2.3-0.7 2.3-1.3 0-0.5-1-1.1-2.2-1.3-1.4-0.2-2.2 0.2-2.3 1.2zm-920.5 0.7c-1 0.5-1.8 1.4-1.7 1.9 0.1 0.6 1.1 1 2.2 1 1.1 0 2.9-0.4 4-1 1.1-0.5 1.7-1.4 1.5-2-0.3-0.5-1.3-1-2.3-1-1 0-2.6 0.5-3.7 1.1zm291.5-0.3c0 0.4 1.1 1.5 2.5 2.5 1.3 0.9 2.7 1.5 3 1.2 0.2-0.3 0.2-0.9 0-1.5-0.3-0.5-1-0.8-1.5-0.5-0.6 0.3-1-0.2-1-1 0-0.8-0.7-1.5-1.5-1.5-0.9 0-1.5 0.3-1.5 0.8zm182 0.4c-0.8 0.7-1.4 1.8-1.2 2.5 0.1 0.7 0.6 1.3 1.2 1.3 0.5 0 1.9-0.4 3-1 1.1-0.5 2-1.7 2-2.5 0-0.8-0.9-1.5-1.8-1.5-1 0-2.5 0.5-3.2 1.2zm-666.5 4.6c-0.3 0.4 0.1 1.6 0.7 2.6 0.7 1 1.8 1.6 2.5 1.3 0.9-0.5 1-1.3 0.3-2.7-0.6-1.1-1.5-2-2-2-0.5 0-1.2 0.3-1.5 0.8zm914.5 1.2c0 1.1 0.5 2.3 1.2 2.6 0.7 0.3 1.6 0.2 2-0.2 0.5-0.5 0.6-1.7 0.3-2.6-0.3-1-1.2-1.8-2-1.8-0.9 0-1.5 0.9-1.5 2zm-700-0.2c-0.7 0.4-1 1.6-0.9 2.7 0.2 1.1 1.3 2.1 2.4 2.3 1.1 0.2 2.3 0 2.7-0.5 0.5-0.4 0.5-1.6 0-2.6-0.4-1-1.3-1.9-1.9-2.1-0.7-0.2-1.7-0.1-2.3 0.2zm277-0.1c0 0.4 2.8 2.7 6.2 5 3.4 2.4 7.3 4.3 8.5 4.3 1.2 0 2.3-0.6 2.3-1.2 0-0.7-2.8-2.7-6.3-4.5-3.4-1.7-7.2-3.5-8.4-3.8-1.2-0.3-2.2-0.3-2.3 0.2zm107 0.5c-1.7 0.8-2.4 1.8-2.3 3.5 0.2 1.6 0.9 2.3 2.5 2.3 1.2 0 3-0.9 4-2 1.4-1.6 1.5-2.3 0.5-3.5-0.7-0.9-1.5-1.5-1.7-1.5-0.3 0.1-1.7 0.6-3 1.2zm88.2-0.4c-0.8 0.4-1 1.4-0.5 2.6 0.4 1 1.5 2.3 2.5 2.7 1 0.5 2.2 0.7 2.8 0.4 0.5-0.3 1-1.4 1-2.5 0-1.1-0.9-2.4-2-3-1.1-0.5-2.2-1-2.3-1-0.1 0-0.8 0.4-1.5 0.8zm-820.3 1c0 0.4 2.6 2.4 5.8 4.5 3.1 2.1 6.8 4 8 4.3 1.2 0.2 2.3 0.1 2.3-0.3 0-0.5-1-1.8-2.3-2.9-1.2-1.2-3.8-3.1-5.7-4.3-2-1.1-4.6-2.1-5.8-2.1-1.2 0-2.3 0.3-2.3 0.8zm1233.7 0.5c-1 0.7-1.5 1.9-1.2 3 0.3 0.9 1.5 1.7 2.8 1.7 1.2 0 3.3-0.7 4.5-1.5 1.2-0.8 2.3-2.2 2.3-3 0-1-1.1-1.5-3.3-1.5-1.8 0-4.1 0.6-5.1 1.3zm-1590.1 4.4c-0.5 0.3-0.8 1-0.7 1.5 0.1 0.4 1.1 1.3 2.2 1.8 1.1 0.6 2.9 0.8 4 0.5 1.1-0.3 2-1.2 2-2 0-0.8-1.1-1.7-2.3-2-1.2-0.3-2.7-0.5-3.3-0.5-0.6 0-1.5 0.3-1.9 0.7zm1577.8 6.6c-0.3 0.6-0.3 2 0 3 0.5 1.3 1.8 1.7 6.2 1.7 3 0 5.4-0.3 5.4-0.7 0-0.5-1.6-1.8-3.5-3-1.9-1.3-4.4-2.3-5.5-2.3-1.1 0-2.3 0.6-2.6 1.3zm-1919.1 12.3c-0.5 1-0.2 1.9 0.8 2.5 0.9 0.5 2 0.3 3-0.7 1.3-1.3 1.3-1.6 0-2.4-0.9-0.5-1.9-1-2.3-1-0.4 0-1.1 0.7-1.5 1.6zm24.8 4.9c0 1 0.8 1.4 2.6 1.3 1.5-0.2 2.8-0.9 3-1.5 0.2-0.8-0.7-1.3-2.6-1.3q-3 0-3 1.5zm1071.1 14.3c-1.1 0.9-3.3 2.5-4.8 3.5-1.4 1-2.6 2.2-2.5 2.7 0.1 0.6 1 1 2 1 1 0 3.7-1.8 6-4 2.3-2.2 4.2-4.2 4.2-4.5 0-0.3-0.6-0.5-1.4-0.5-0.7 0-2.3 0.8-3.5 1.8zm980.3 12c-0.3 1.5-1.3 4.7-2 7.2-0.8 2.5-1.5 6-1.5 7.8 0 2.2 0.5 3.2 1.6 3.2 0.8 0 1.7 0.9 2 2 0.2 1.1 0.9 2 1.5 2 0.5 0 1.4-1 2.1-2.2 0.6-1.3 0.8-3.1 0.5-4-0.4-1-0.2-1.8 0.4-1.8 0.5 0 1.4-1.5 2-3.2 0.5-1.8 1-4.8 1-6.5 0-1.9-0.9-4.1-2-5.3-1.1-1.1-2.7-2-3.5-2-0.8 0-1.8 1.2-2.1 2.8zm-1759.9 1.5c0.4 1.2 0.9 2.4 1.1 2.7 0.2 0.3 0.9 0 1.6-0.7 1-1 0.9-1.5-0.2-2.8-0.9-0.9-1.9-1.6-2.4-1.5-0.5 0-0.5 1-0.1 2.3zm-294.3 0.2c-0.4 0.9-0.2 2.1 0.5 2.8 0.9 0.9 1.5 0.9 2.8-0.3 0.8-0.8 1.5-2.1 1.5-2.7 0-0.7-1-1.3-2.1-1.3-1.1 0-2.3 0.7-2.7 1.5zm2006.5 9.5c-1 1.7-1.7 3.7-1.7 4.5 0 0.8 0.6 1.7 1.5 2 0.8 0.3 1.7 0.5 2 0.5 0.2 0 0.7-1.5 1.1-3.2 0.3-1.8 0.2-4.1-0.3-5-0.8-1.6-1.1-1.4-2.6 1.2zm-451.8 0.8c-0.5 1.5-1.4 3.5-1.9 4.5-0.8 1.3-0.6 1.9 1 2.7 1.1 0.6 2.2 1 2.5 1 0.2 0 1.4-1.5 2.4-3.2 1.1-1.8 2-4.3 2-5.5 0.1-1.8-0.5-2.3-2.5-2.3-1.8 0-2.7 0.7-3.5 2.8zm-1565.4-1.2c-0.5 0.4-0.8 2-0.7 3.6 0.1 2.1 0.6 2.7 1.9 2.5 1.2-0.1 1.8-1.1 1.8-3.1 0-1.6-0.5-3.1-1.1-3.3-0.6-0.2-1.5 0-1.9 0.3zm2073.1 6.2c-1.4 3.7-2.5 6.8-2.4 7 0.2 0.1 1.1-0.1 2.1-0.5 1.1-0.5 2.3-1.5 2.7-2.3 0.4-0.8 1-3.6 1.3-6.2 0.3-2.7 0.2-4.8-0.2-4.8-0.5 0-2.1 3-3.5 6.8zm-351.4-4c-0.8 0.5-0.3 1.3 1.8 2.5 1.6 0.9 3.6 1.5 4.5 1.2 0.8-0.3 1.4-0.8 1.4-1.2 0-0.5-1.2-1.4-2.7-2.1-1.5-0.7-3-1.2-3.2-1.2-0.3 0-1.1 0.4-1.8 0.8z"/>
		<path id="Path 3" class="s0" d="m651.5 983.7c-0.5 0.3-0.8 1.7-0.7 3 0.2 1.8 0.7 2.2 2.5 2 1.6-0.1 2.2-0.9 2.3-3 0.1-1.9-0.3-2.7-1.5-2.7-1 0-2.1 0.3-2.6 0.7zm138.7 5.8c-0.6 1.4-1.2 3.6-1.2 5 0 1.5 0.5 2.4 1.3 2.2 0.6-0.2 1.5-2.1 1.9-4.3 0.3-2.1 0.3-4.2-0.1-4.7-0.3-0.4-1.2 0.4-1.9 1.8zm-173.2 5.2c0 2.6 0.3 2.8 4.5 2.8 2.5 0 4.5 0 4.5 0 0.1 0-1.6-1.2-3.7-2.7-2.1-1.5-4.1-2.8-4.5-2.8-0.5 0-0.8 1.2-0.8 2.7zm28.8 34.9c-1.1 0.2-1.6 1-1.3 1.9 0.3 0.8 0.5 2.1 0.5 2.7 0 0.7 0.5 0.5 1-0.5 0.6-1 2.2-1.7 4-1.7q3 0 3-1.5 0-1.5-2.8-1.4c-1.5 0.1-3.5 0.3-4.5 0.5zm-15.2 3.1c-0.5 0.3-0.8 1.5-0.7 2.5 0.1 1 1 2 1.9 2.2 1 0.2 2.6 0 3.5-0.5 1.2-0.6 1.6-1.6 1.3-2.9-0.3-1.3-1.3-2-2.8-2-1.3 0-2.7 0.3-3.2 0.7zm141.5 1.8c0 0.3 1.7 2.8 3.7 5.5 2.1 2.8 4.1 5 4.5 5 0.5 0 1.1-0.6 1.4-1.3 0.4-0.7-1.3-2.9-4.2-5.5-2.7-2.4-5-4.3-5.2-4.2-0.1 0-0.2 0.2-0.2 0.5zm-138.8 7.9c-2.6 1.3-4.2 2.8-4.2 3.8 0 1 0.6 1.8 1.3 1.8 0.6 0 2.6-0.6 4.2-1.5 1.6-0.8 3.8-1.5 4.8-1.5 0.9 0 3.5 1.1 5.7 2.5 2.2 1.4 4.7 2.5 5.5 2.5 0.8 0 1.5-0.2 1.5-0.5 0-0.3-1.4-1.8-3-3.5-1.6-1.7-3-3.8-3-4.8 0.1-1.4-0.2-1.5-1.5-0.5-0.9 0.8-1.7 0.9-2 0.3-0.3-0.5-1.5-0.9-2.7-0.8-1.3 0-4.2 1-6.6 2.2zm23.9 10.1c-0.1 0.3 2 3 4.7 6 2.6 3.1 5.3 5.5 6 5.5 0.6 0 1.2-0.7 1.2-1.5 0-0.8-0.7-1.5-1.5-1.5-0.8 0-2.9-1.7-4.7-3.8-1.7-2-3.7-4.1-4.4-4.5-0.7-0.4-1.3-0.6-1.3-0.2zm125.1 6.2c0.4 0.5 0.3 1.8-0.2 3-0.6 1.3-0.7 2.3-0.2 2.3 0.4 0.1 1.6-0.9 2.7-2 1.7-1.8 1.8-2.3 0.5-3-0.8-0.6-2-1-2.5-1-0.5 0-0.7 0.3-0.3 0.7zm-15.2 1.5c0 0.7-1.1 2.4-2.6 3.8-1.4 1.4-3 3.3-3.5 4.2-0.6 1.1-0.5 2 0.1 2.3 0.5 0.3 2.5-1.1 4.3-3 2.9-3.3 3.6-3.5 7.2-3l4 0.6c-5.8-3.2-7.5-4.6-7.5-5.1 0-0.5-0.5-1-1-1-0.5 0-1 0.6-1 1.2zm-132.6 1.4c-0.5 0.3-0.5 1.4-0.1 2.5 0.4 1 1.4 1.9 2.2 1.9 0.8 0 1.7-0.5 2-1 0.3-0.5-0.1-1.7-0.7-2.5-0.7-0.9-1.6-1.6-1.9-1.5-0.3 0-1 0.3-1.5 0.6zm25.6 9.4c0 0.5 1.2 1.9 2.8 3.1 2.5 1.9 2.7 2.5 2.2 7-0.4 4.3-0.2 5.3 1.8 6.9 1.2 1.1 2.7 1.8 3.2 1.5 0.5-0.3 1-1.2 1-2 0-0.8-1.1-2.2-2.5-3-1.9-1.1-2.5-2.3-2.5-5 0-2.5 0.6-3.8 2-4.5 1.1-0.5 2-1.3 2-1.8 0-0.4-1.4-1.3-3.2-1.9-1.8-0.7-4.1-1.3-5-1.3-1 0-1.8 0.5-1.8 1zm-21.4 4.6c-1.6 0.8-2.9 1.9-2.8 2.4 0.1 0.6 0.4 1 0.7 1 0.3 0 1.9-0.7 3.5-1.5 1.6-0.8 3-2 3-2.5 0-0.5-0.3-1-0.7-1-0.5 0.1-2.1 0.8-3.7 1.6zm47.9 4.4c-0.3 0.5-0.3 1.5 0 2 0.3 0.5 1 1 1.6 1 0.6 0 1.7-0.7 2.5-1.5 0.8-0.8 1.1-1.7 0.7-2-0.5-0.3-1.6-0.5-2.5-0.5-0.9 0-1.9 0.5-2.3 1zm42 14c-0.3 0.5-0.2 2.2 0.1 3.7 0.6 2.7 0.7 2.7 2.1 0.8 0.7-1.1 1.3-2.8 1.3-3.8 0-0.9-0.7-1.7-1.5-1.7-0.7 0-1.6 0.4-2 1zm18.1 5.5c-0.4 1.1-0.2 3.5 0.4 5.2 0.5 1.8 1.5 3.3 2 3.3 0.5 0 1-1.2 1-2.8-0.1-1.5-0.7-3.8-1.4-5.2-1.2-2.4-1.3-2.4-2-0.5z"/>
	</g>
</svg>